<?xml version="1.0" encoding="UTF-8"?>
<svg width="64px" height="57px" viewBox="0 0 64 57" version="1.1" xmlns="http://www.w3.org/2000/svg" xmlns:xlink="http://www.w3.org/1999/xlink">
    <title>编组 11备份</title>
    <defs>
        <linearGradient x1="0%" y1="50%" x2="100%" y2="50%" id="linearGradient-1">
            <stop stop-color="#E6F0FF" offset="0%"></stop>
            <stop stop-color="#BCCDFA" offset="79.5174264%"></stop>
            <stop stop-color="#BBCFFA" offset="100%"></stop>
        </linearGradient>
        <linearGradient x1="55.0245934%" y1="48.3937011%" x2="53.1833738%" y2="51.28%" id="linearGradient-2">
            <stop stop-color="#CEE1FD" offset="0%"></stop>
            <stop stop-color="#E5F0FE" offset="100%"></stop>
        </linearGradient>
        <linearGradient x1="50%" y1="0%" x2="50%" y2="100%" id="linearGradient-3">
            <stop stop-color="#FFFFFF" stop-opacity="0" offset="0%"></stop>
            <stop stop-color="#FFFFFF" offset="100%"></stop>
        </linearGradient>
        <filter x="0.0%" y="0.0%" width="100.0%" height="100.0%" filterUnits="objectBoundingBox" id="filter-4">
            <feGaussianBlur stdDeviation="0" in="SourceGraphic"></feGaussianBlur>
        </filter>
        <linearGradient x1="50%" y1="1.01343969%" x2="50%" y2="100%" id="linearGradient-5">
            <stop stop-color="#52A5FF" stop-opacity="0" offset="0%"></stop>
            <stop stop-color="#3480FF" offset="100%"></stop>
        </linearGradient>
        <linearGradient x1="9.32205326%" y1="21.0462993%" x2="90.629177%" y2="78.7320246%" id="linearGradient-6">
            <stop stop-color="#FFFFFF" stop-opacity="0.100961538" offset="0%"></stop>
            <stop stop-color="#67D0FE" stop-opacity="0.100961538" offset="100%"></stop>
        </linearGradient>
        <linearGradient x1="13.3608581%" y1="15.8949534%" x2="90.5599938%" y2="77.3726676%" id="linearGradient-7">
            <stop stop-color="#CAE5FF" offset="0%"></stop>
            <stop stop-color="#70A6FF" stop-opacity="0" offset="100%"></stop>
        </linearGradient>
        <linearGradient x1="46.0565598%" y1="100%" x2="56.779417%" y2="-2.27373675e-11%" id="linearGradient-8">
            <stop stop-color="#448DFF" offset="0%"></stop>
            <stop stop-color="#64D0FF" offset="100%"></stop>
        </linearGradient>
        <linearGradient x1="79.0549241%" y1="15.2777778%" x2="39.4241225%" y2="84.7222222%" id="linearGradient-9">
            <stop stop-color="#FFFFFF" offset="0%"></stop>
            <stop stop-color="#BEDAFE" offset="100%"></stop>
        </linearGradient>
        <path d="M9,0 L18,5.94882353 L16.1982353,5.94882353 L16.1982353,15 L13.3535294,15 L13.3535294,8.23411765 L4.64647059,8.23411765 L4.64647059,15 L1.80176471,15 L1.80176471,5.94882353 L0,5.94882353 L9,0 Z M6.37235294,9.56823529 L11.6276471,9.56823529 L11.6276471,11.3347059 L6.37235294,11.3347059 L6.37235294,9.56823529 Z M6.37235294,13.2317647 L11.6276471,13.2317647 L11.6276471,15 L6.37235294,15 L6.37235294,13.2317647 L6.37235294,13.2317647 Z" id="path-10"></path>
        <filter x="-12.1%" y="-14.5%" width="124.1%" height="129.0%" filterUnits="objectBoundingBox" id="filter-11">
            <feGaussianBlur stdDeviation="0.390625" in="SourceGraphic"></feGaussianBlur>
        </filter>
        <filter x="-14.8%" y="-17.8%" width="129.7%" height="135.6%" filterUnits="objectBoundingBox" id="filter-12">
            <feOffset dx="0" dy="0" in="SourceAlpha" result="shadowOffsetOuter1"></feOffset>
            <feGaussianBlur stdDeviation="0.5" in="shadowOffsetOuter1" result="shadowBlurOuter1"></feGaussianBlur>
            <feColorMatrix values="0 0 0 0 0.180392157   0 0 0 0 0.470588235   0 0 0 0 1  0 0 0 0.300644668 0" type="matrix" in="shadowBlurOuter1"></feColorMatrix>
        </filter>
        <filter x="-26.0%" y="-31.1%" width="151.9%" height="162.3%" filterUnits="objectBoundingBox" id="filter-13">
            <feGaussianBlur stdDeviation="1.5" in="SourceAlpha" result="shadowBlurInner1"></feGaussianBlur>
            <feOffset dx="0" dy="2" in="shadowBlurInner1" result="shadowOffsetInner1"></feOffset>
            <feComposite in="shadowOffsetInner1" in2="SourceAlpha" operator="arithmetic" k2="-1" k3="1" result="shadowInnerInner1"></feComposite>
            <feColorMatrix values="0 0 0 0 1   0 0 0 0 1   0 0 0 0 1  0 0 0 0.25 0" type="matrix" in="shadowInnerInner1"></feColorMatrix>
        </filter>
        <linearGradient x1="81.0894514%" y1="15.2777778%" x2="19.3292537%" y2="91.6849017%" id="linearGradient-14">
            <stop stop-color="#FFFFFF" stop-opacity="0" offset="0%"></stop>
            <stop stop-color="#FFFFFF" offset="100%"></stop>
        </linearGradient>
        <filter x="-9.3%" y="-8.6%" width="118.6%" height="117.5%" filterUnits="objectBoundingBox" id="filter-15">
            <feGaussianBlur stdDeviation="0.390625" in="SourceGraphic"></feGaussianBlur>
        </filter>
    </defs>
    <g id="页面-1" stroke="none" stroke-width="1" fill="none" fill-rule="evenodd">
        <g id="默认海南门户备份-6" transform="translate(-1162.000000, -182.000000)">
            <g id="编组-11备份" transform="translate(1162.000000, 182.000000)">
                <path d="M57,47 L57,53 C57,55.209139 45.8071187,57 32,57 C18.3480174,57 7.25185546,55.249157 7.00422702,53.074305 L7,53 L7,47 C7,49.209139 18.1928813,51 32,51 C45.6519826,51 56.7481445,49.249157 56.995773,47.074305 L57,47 Z" id="形状结合备份-8" fill="url(#linearGradient-1)" opacity="0.496479833"></path>
                <ellipse id="椭圆形备份-17" fill="url(#linearGradient-2)" cx="32" cy="47" rx="25" ry="4"></ellipse>
                <ellipse id="椭圆形备份-18" stroke="url(#linearGradient-3)" stroke-width="0.1" filter="url(#filter-4)" cx="32" cy="47" rx="24.95" ry="3.95"></ellipse>
                <ellipse id="椭圆形备份-19" fill="#A2CFFF" cx="31.875" cy="47" rx="21.875" ry="3"></ellipse>
                <path d="M0,0 L63.75,0 L53.75,46.997 C53.75,48.6366487 44.1936448,49.9671937 32.315962,49.9994026 L31.875,50 C19.7937711,50 10,48.6568542 10,47 L10,47 L0,0 Z" id="形状结合备份-9" fill-opacity="0.2" fill="url(#linearGradient-5)"></path>
                <circle id="椭圆形备份-9" fill="#2E78FF" cx="29" cy="21" r="18"></circle>
                <circle id="椭圆形备份-10" stroke="url(#linearGradient-7)" stroke-width="0.5" fill="url(#linearGradient-6)" cx="34" cy="22" r="17.75"></circle>
                <rect id="矩形备份" fill="url(#linearGradient-8)" transform="translate(48.000000, 34.000000) rotate(-315.000000) translate(-48.000000, -34.000000) " x="43" y="29" width="10" height="10" rx="2"></rect>
                <g id="编组" transform="translate(46.000000, 31.000000)" fill="#FFFFFF" fill-rule="nonzero">
                    <path d="M2.42186594,0 C2.53763441,0 2.65240487,0.0129740527 2.76617732,0.0389221582 C2.87994977,0.0648702637 2.9867362,0.0998004043 3.0865366,0.14371258 C3.186337,0.187624756 3.27515936,0.237524955 3.35300367,0.293413178 C3.43084798,0.3493014 3.49172622,0.405189623 3.5356384,0.461077846 C3.63943082,0.588822357 3.71527912,0.72954092 3.76318331,0.883233533 C3.8110875,1.03692615 3.84501964,1.18363273 3.86497971,1.32335329 C3.88493979,1.48303393 3.89491983,1.64471058 3.89491983,1.80838323 C3.92286394,1.82834331 3.94482003,1.85429141 3.96078809,1.88622754 C3.97675616,1.91417165 3.98973021,1.9500998 3.99971025,1.99401197 C4.0096903,2.03792415 4.0106883,2.09181637 4.00270426,2.15568862 C3.99472023,2.23952096 3.97775417,2.30638722 3.95180606,2.35628742 C3.92585795,2.40618762 3.89691584,2.44510978 3.86497971,2.47305389 C3.82905157,2.50499002 3.79112742,2.52694611 3.75120726,2.53892215 C3.73124718,2.60678642 3.7112871,2.67065868 3.69132702,2.73053892 C3.67136694,2.78243513 3.64841285,2.83333333 3.62246474,2.88323353 C3.59651664,2.93313373 3.56757452,2.97205589 3.5356384,3 C3.45979009,3.05988024 3.39791384,3.11077844 3.35000965,3.15269461 C3.30210546,3.19461078 3.27016933,3.26546906 3.25420127,3.36526946 C3.24222522,3.4251497 3.23823321,3.48602794 3.24222522,3.54790419 C3.24621724,3.60978044 3.26318331,3.67165669 3.29312343,3.73353294 C3.32306355,3.79540918 3.36897173,3.85429142 3.43084798,3.91017964 C3.49272423,3.96606787 3.57955057,4.01596807 3.69132702,4.05988024 C3.79112742,4.0998004 3.89990986,4.13572855 4.01767433,4.16766468 C4.1354388,4.1996008 4.25020926,4.23652695 4.36198571,4.27844312 C4.47376215,4.32035929 4.57256455,4.3722555 4.65839289,4.43413174 C4.74422123,4.49600799 4.80509948,4.58083833 4.84102762,4.68862276 C4.8609877,4.75249502 4.87595776,4.83133733 4.8859378,4.92514971 C4.89591785,5.01896208 4.90090786,5.11377246 4.90090786,5.20958084 C4.90090786,5.30538922 4.89392183,5.39520958 4.87994978,5.47904192 C4.86597773,5.56287426 4.84501965,5.62674651 4.81707553,5.67065869 C4.79711545,5.6986028 4.74022922,5.72654691 4.64641684,5.75449102 C4.55260446,5.78243513 4.436836,5.80938124 4.29911145,5.83532934 C4.16138691,5.86127745 4.00769429,5.88423154 3.83803361,5.90419162 C3.66837292,5.9241517 3.49771424,5.94111777 3.32605756,5.95508982 C3.15440087,5.96906188 2.98973022,5.98003993 2.83204558,5.98802395 C2.67436095,5.99600798 2.5376344,6 2.42186594,6 C2.30609748,6 2.17136694,5.99600799 2.01767433,5.98802395 C1.86398171,5.98003992 1.70529907,5.96906187 1.54162642,5.95508982 C1.37795377,5.94111777 1.21527912,5.92514971 1.05360247,5.90718563 C0.891925821,5.88922155 0.745219235,5.87025948 0.613482712,5.8502994 C0.481746189,5.83033933 0.369969741,5.81037925 0.27815337,5.79041916 C0.186336999,5.77045908 0.128452767,5.750499 0.104500673,5.73053892 C0.0645805128,5.69860279 0.0336423897,5.6007984 0.0116863038,5.43712575 C-0.0102697821,5.2734531 -0.00128774698,5.06187625 0.0386324093,4.80239521 C0.0585924874,4.65469062 0.117474724,4.54191617 0.215279118,4.46407186 C0.313083513,4.38622755 0.426855968,4.3243513 0.556596483,4.27844312 C0.686336999,4.23253493 0.821067538,4.19161677 0.960788101,4.15568862 C1.10050866,4.11976048 1.22426116,4.06786427 1.33204558,4 C1.41587792,3.94810379 1.47975017,3.8982036 1.52366235,3.8502994 C1.56757453,3.80239521 1.59951065,3.75449102 1.61947073,3.70658683 C1.63943081,3.65868264 1.64941085,3.60878244 1.64941085,3.55688623 C1.64941085,3.50499003 1.64741484,3.44710579 1.64342283,3.38323354 C1.63543879,3.29141717 1.60350267,3.21856288 1.54761444,3.16467066 C1.49172622,3.11077845 1.42984997,3.05588823 1.3619857,3 C1.33004957,2.97205589 1.30210546,2.93313374 1.27815337,2.88323354 C1.25420127,2.83333334 1.23224518,2.78243513 1.2122851,2.73053893 C1.19232502,2.67065869 1.17236494,2.60678643 1.15240486,2.53892216 C1.12446075,2.53093813 1.09651664,2.51696607 1.06857253,2.49700599 C1.04462043,2.47704591 1.01867233,2.4491018 0.990728218,2.41317366 C0.962784108,2.37724551 0.938832013,2.3253493 0.918871931,2.25748504 C0.894919833,2.18962077 0.885937798,2.12774452 0.891925825,2.07185629 C0.897913853,2.01596806 0.908891896,1.96806387 0.924859954,1.92814372 C0.940828017,1.88423154 0.96677612,1.84231537 1.00270426,1.80239521 C0.998712249,1.65069861 1.00669628,1.499002 1.02665636,1.34730539 C1.04262442,1.21956088 1.07156654,1.08183633 1.1134827,0.934131738 C1.15539887,0.786427148 1.21827312,0.654690621 1.30210546,0.538922156 C1.37795376,0.427145711 1.4627841,0.336327348 1.55659648,0.266467066 C1.65040885,0.196606785 1.74621724,0.141716566 1.84402163,0.10179641 C1.94182602,0.0618762539 2.03963041,0.0349301465 2.1374348,0.0209580879 C2.23523919,0.0069860293 2.33004957,0 2.42186594,0 L2.42186594,0 Z" id="路径"></path>
                </g>
                <g id="编组" transform="translate(25.000000, 14.000000)" fill-rule="nonzero">
                    <g id="形状" filter="url(#filter-11)">
                        <use fill="black" fill-opacity="1" filter="url(#filter-12)" xlink:href="#path-10"></use>
                        <use fill="url(#linearGradient-9)" xlink:href="#path-10"></use>
                        <use fill="black" fill-opacity="1" filter="url(#filter-13)" xlink:href="#path-10"></use>
                    </g>
                    <path d="M9,0 L18,5.94882353 L16.1982353,5.94882353 L16.1982353,15 L13.3535294,15 L13.3535294,8.23411765 L4.64647059,8.23411765 L4.64647059,15 L1.80176471,15 L1.80176471,5.94882353 L0,5.94882353 L9,0 Z M6.37235294,9.56823529 L11.6276471,9.56823529 L11.6276471,11.3347059 L6.37235294,11.3347059 L6.37235294,9.56823529 Z M6.37235294,13.2317647 L11.6276471,13.2317647 L11.6276471,15 L6.37235294,15 L6.37235294,13.2317647 L6.37235294,13.2317647 Z" id="形状备份-3" stroke="url(#linearGradient-14)" stroke-width="0.3" filter="url(#filter-15)"></path>
                </g>
            </g>
        </g>
    </g>
</svg>