<?xml version="1.0" encoding="UTF-8"?>
<svg width="64px" height="57px" viewBox="0 0 64 57" version="1.1" xmlns="http://www.w3.org/2000/svg" xmlns:xlink="http://www.w3.org/1999/xlink">
    <title>编组 10备份</title>
    <defs>
        <linearGradient x1="0%" y1="50%" x2="100%" y2="50%" id="linearGradient-1">
            <stop stop-color="#E6F0FF" offset="0%"></stop>
            <stop stop-color="#BCCDFA" offset="79.5174264%"></stop>
            <stop stop-color="#BBCFFA" offset="100%"></stop>
        </linearGradient>
        <linearGradient x1="55.0245934%" y1="48.3937011%" x2="53.1833738%" y2="51.28%" id="linearGradient-2">
            <stop stop-color="#CEE1FD" offset="0%"></stop>
            <stop stop-color="#E5F0FE" offset="100%"></stop>
        </linearGradient>
        <linearGradient x1="50%" y1="0%" x2="50%" y2="100%" id="linearGradient-3">
            <stop stop-color="#FFFFFF" stop-opacity="0" offset="0%"></stop>
            <stop stop-color="#FFFFFF" offset="100%"></stop>
        </linearGradient>
        <filter x="0.0%" y="0.0%" width="100.0%" height="100.0%" filterUnits="objectBoundingBox" id="filter-4">
            <feGaussianBlur stdDeviation="0" in="SourceGraphic"></feGaussianBlur>
        </filter>
        <linearGradient x1="50%" y1="1.01343969%" x2="50%" y2="100%" id="linearGradient-5">
            <stop stop-color="#52A5FF" stop-opacity="0" offset="0%"></stop>
            <stop stop-color="#3480FF" offset="100%"></stop>
        </linearGradient>
        <linearGradient x1="90.629177%" y1="68.6447783%" x2="9.32205326%" y2="31.2113717%" id="linearGradient-6">
            <stop stop-color="#FFFFFF" stop-opacity="0.100961538" offset="0%"></stop>
            <stop stop-color="#67D0FE" stop-opacity="0.100961538" offset="100%"></stop>
        </linearGradient>
        <linearGradient x1="13.3608581%" y1="27.8685616%" x2="90.5599938%" y2="67.7626647%" id="linearGradient-7">
            <stop stop-color="#CAE5FF" offset="0%"></stop>
            <stop stop-color="#70A6FF" stop-opacity="0" offset="100%"></stop>
        </linearGradient>
        <linearGradient x1="0%" y1="70.0890604%" x2="100%" y2="70.0890604%" id="linearGradient-8">
            <stop stop-color="#448DFF" offset="0%"></stop>
            <stop stop-color="#64D0FF" offset="100%"></stop>
        </linearGradient>
        <linearGradient x1="79.0549241%" y1="0%" x2="39.4241225%" y2="100%" id="linearGradient-9">
            <stop stop-color="#FFFFFF" offset="0%"></stop>
            <stop stop-color="#BEDAFE" offset="100%"></stop>
        </linearGradient>
        <path d="M0,9.4903811 L0,10.7479349 C0,11.2923007 0.419637273,11.733619 0.938086304,11.733619 L5.58896185,11.733619 L5.58896185,13.2080735 L3.45919325,13.2080735 C3.08130081,13.2080735 2.70278299,13.2003997 2.3250469,13.2080735 L2.30847405,13.2080735 C2.11241401,13.2080735 1.9246404,13.3894243 1.93323952,13.6024098 C1.94183865,13.8153952 2.09787367,13.9965894 2.30847405,13.9965894 L10.5304878,13.9965894 C10.9082239,13.9965894 11.2867417,14.0042632 11.6644778,13.9965894 L11.6810507,13.9965894 C11.8771107,13.9965894 12.0650407,13.8152386 12.0562852,13.6024098 C12.0475297,13.3895809 11.8914947,13.2080735 11.6810507,13.2080735 L8.4007192,13.2080735 L8.4007192,11.7342455 L13.0522201,11.7342455 C13.5698874,11.7342455 13.9895247,11.2929271 13.9895247,10.7485613 L13.9895247,9.4903811 L0,9.4903811 Z M13.0626954,0 L0.947779862,0 C0.430299784,0.000863898006 0.0112570356,0.421302889 0.0112570356,0.939641693 L0.0112570356,8.75902665 L14,8.75902665 L14,0.939641693 C14,0.420997556 13.5804809,0.000432203448 13.0626954,0 Z M10.8377111,3.62936604 L10.7299875,3.74729107 L9.52611007,5.06513855 L8.95106316,5.6950117 C8.95231395,5.71380453 8.95325203,5.73275397 8.95325203,5.75186002 C8.95287272,6.06148608 8.7741784,6.34309936 8.49446332,6.47488802 C8.21474824,6.60667668 7.88422962,6.56498071 7.64587329,6.36783571 C7.40751697,6.17069071 7.30411503,5.8534901 7.380394,5.55343901 L6.50891182,4.53063903 L5.9075985,3.82590776 C5.79601842,3.85121598 5.68030782,3.85217738 5.56832395,3.82872669 L5.47451532,3.9192455 L4.35006254,5.01095254 L3.86772983,5.47920732 C3.93376193,5.78593863 3.79147685,6.09979817 3.51745622,6.25185835 C3.2434356,6.40391852 2.90232982,6.35830338 2.67773115,6.13956421 C2.45313249,5.92082503 2.39803108,5.58056953 2.54208398,5.30193231 C2.68613688,5.0232951 2.99535732,4.87201578 3.30331457,4.92951693 L3.34787367,4.88629341 L4.47232645,3.79442976 L4.9757661,3.30565948 C4.87412455,3.00562701 4.95880922,2.67377974 5.19172288,2.45940634 C5.42463654,2.24503293 5.76190001,2.18851972 6.05178805,2.31529039 C6.34167608,2.44206106 6.52957595,2.72823297 6.53095685,3.04506551 C6.53085423,3.10482158 6.52414245,3.16438233 6.51094434,3.22265779 L6.67698562,3.41747684 L7.76813634,4.69820847 L7.99828018,4.96804224 C8.04976687,4.95776331 8.10212867,4.95251844 8.15462789,4.95238154 C8.27442927,4.95202003 8.39276261,4.97878822 8.50078174,5.03068502 L9.7018449,3.71518665 C9.86131957,3.5405177 10.0207421,3.36595315 10.1801126,3.19149301 C10.0601528,2.90215537 10.1433123,2.56826885 10.3848976,2.36927834 C10.6264829,2.17028782 10.9696023,2.15305419 11.2298488,2.32683953 C11.4900953,2.50062487 11.6061827,2.82450395 11.5157206,3.12441031 C11.4252585,3.42431667 11.1495501,3.62962444 10.836773,3.62999247 L10.8377111,3.62936604 Z" id="path-10"></path>
        <filter x="-15.5%" y="-15.5%" width="131.0%" height="131.0%" filterUnits="objectBoundingBox" id="filter-11">
            <feGaussianBlur stdDeviation="0.390625" in="SourceGraphic"></feGaussianBlur>
        </filter>
        <filter x="-19.1%" y="-19.1%" width="138.2%" height="138.2%" filterUnits="objectBoundingBox" id="filter-12">
            <feOffset dx="0" dy="0" in="SourceAlpha" result="shadowOffsetOuter1"></feOffset>
            <feGaussianBlur stdDeviation="0.5" in="shadowOffsetOuter1" result="shadowBlurOuter1"></feGaussianBlur>
            <feColorMatrix values="0 0 0 0 0.180392157   0 0 0 0 0.470588235   0 0 0 0 1  0 0 0 0.300644668 0" type="matrix" in="shadowBlurOuter1"></feColorMatrix>
        </filter>
        <filter x="-33.4%" y="-33.4%" width="166.7%" height="166.7%" filterUnits="objectBoundingBox" id="filter-13">
            <feGaussianBlur stdDeviation="1.5" in="SourceAlpha" result="shadowBlurInner1"></feGaussianBlur>
            <feOffset dx="0" dy="2" in="shadowBlurInner1" result="shadowOffsetInner1"></feOffset>
            <feComposite in="shadowOffsetInner1" in2="SourceAlpha" operator="arithmetic" k2="-1" k3="1" result="shadowInnerInner1"></feComposite>
            <feColorMatrix values="0 0 0 0 1   0 0 0 0 1   0 0 0 0 1  0 0 0 0.25 0" type="matrix" in="shadowInnerInner1"></feColorMatrix>
        </filter>
        <linearGradient x1="81.0894514%" y1="0%" x2="19.3292537%" y2="110.026258%" id="linearGradient-14">
            <stop stop-color="#FFFFFF" stop-opacity="0" offset="0%"></stop>
            <stop stop-color="#FFFFFF" offset="100%"></stop>
        </linearGradient>
        <filter x="-9.4%" y="-9.4%" width="118.9%" height="118.9%" filterUnits="objectBoundingBox" id="filter-15">
            <feGaussianBlur stdDeviation="0.390625" in="SourceGraphic"></feGaussianBlur>
        </filter>
    </defs>
    <g id="页面-1" stroke="none" stroke-width="1" fill="none" fill-rule="evenodd">
        <g id="默认海南门户备份-6" transform="translate(-1477.000000, -182.000000)">
            <g id="编组-10备份" transform="translate(1477.000000, 182.000000)">
                <path d="M57,47 L57,53 C57,55.209139 45.8071187,57 32,57 C18.3480174,57 7.25185546,55.249157 7.00422702,53.074305 L7,53 L7,47 C7,49.209139 18.1928813,51 32,51 C45.6519826,51 56.7481445,49.249157 56.995773,47.074305 L57,47 Z" id="形状结合备份-10" fill="url(#linearGradient-1)" opacity="0.496479833"></path>
                <ellipse id="椭圆形备份-20" fill="url(#linearGradient-2)" cx="32" cy="47" rx="25" ry="4"></ellipse>
                <ellipse id="椭圆形备份-21" stroke="url(#linearGradient-3)" stroke-width="0.1" filter="url(#filter-4)" cx="32" cy="47" rx="24.95" ry="3.95"></ellipse>
                <ellipse id="椭圆形备份-22" fill="#A2CFFF" cx="31.875" cy="47" rx="21.875" ry="3"></ellipse>
                <path d="M0,0 L63.75,0 L53.75,46.997 C53.75,48.6366487 44.1936448,49.9671937 32.315962,49.9994026 L31.875,50 C19.7937711,50 10,48.6568542 10,47 L10,47 L0,0 Z" id="形状结合备份-11" fill-opacity="0.2" fill="url(#linearGradient-5)"></path>
                <rect id="矩形" fill="#2E78FF" x="12" y="4" width="36" height="29" rx="4"></rect>
                <rect id="矩形备份-2" stroke="url(#linearGradient-7)" stroke-width="0.5" fill="url(#linearGradient-6)" x="17.25" y="8.25" width="35.5" height="28.5" rx="4"></rect>
                <path d="M48.4096982,29.8590527 L53.8634015,36.0866248 C54.1354622,36.3972903 54.1885805,36.8432353 53.9971059,37.2091144 L52.0525677,40.9248332 C51.8800256,41.2545349 51.5386816,41.4611612 51.1665607,41.4611612 L44.1482305,41.4611612 C43.7761096,41.4611612 43.4347656,41.2545349 43.2622236,40.9248332 L41.3176853,37.2091144 C41.1262107,36.8432353 41.1793291,36.3972903 41.4513897,36.0866248 L46.905093,29.8590527 C47.268948,29.4435675 47.9007281,29.4017129 48.3162134,29.7655679 C48.349403,29.7946332 48.3806329,29.825863 48.4096982,29.8590527 Z" id="多边形" fill="url(#linearGradient-8)" transform="translate(47.657396, 35.230581) scale(1, -1) translate(-47.657396, -35.230581) "></path>
                <g id="编组" transform="translate(28.000000, 15.000000)" fill-rule="nonzero">
                    <g id="形状" filter="url(#filter-11)">
                        <use fill="black" fill-opacity="1" filter="url(#filter-12)" xlink:href="#path-10"></use>
                        <use fill="url(#linearGradient-9)" xlink:href="#path-10"></use>
                        <use fill="black" fill-opacity="1" filter="url(#filter-13)" xlink:href="#path-10"></use>
                    </g>
                </g>
                <g id="编组" transform="translate(28.000000, 15.000000)" fill-rule="nonzero" stroke="url(#linearGradient-14)" stroke-width="0.3">
                    <path d="M0,9.4903811 L0,10.7479349 C0,11.2923007 0.419637273,11.733619 0.938086304,11.733619 L5.58896185,11.733619 L5.58896185,13.2080735 L3.45919325,13.2080735 C3.08130081,13.2080735 2.70278299,13.2003997 2.3250469,13.2080735 L2.30847405,13.2080735 C2.11241401,13.2080735 1.9246404,13.3894243 1.93323952,13.6024098 C1.94183865,13.8153952 2.09787367,13.9965894 2.30847405,13.9965894 L10.5304878,13.9965894 C10.9082239,13.9965894 11.2867417,14.0042632 11.6644778,13.9965894 L11.6810507,13.9965894 C11.8771107,13.9965894 12.0650407,13.8152386 12.0562852,13.6024098 C12.0475297,13.3895809 11.8914947,13.2080735 11.6810507,13.2080735 L8.4007192,13.2080735 L8.4007192,11.7342455 L13.0522201,11.7342455 C13.5698874,11.7342455 13.9895247,11.2929271 13.9895247,10.7485613 L13.9895247,9.4903811 L0,9.4903811 Z M13.0626954,0 L0.947779862,0 C0.430299784,0.000863898006 0.0112570356,0.421302889 0.0112570356,0.939641693 L0.0112570356,8.75902665 L14,8.75902665 L14,0.939641693 C14,0.420997556 13.5804809,0.000432203448 13.0626954,0 Z M10.8377111,3.62936604 L10.7299875,3.74729107 L9.52611007,5.06513855 L8.95106316,5.6950117 C8.95231395,5.71380453 8.95325203,5.73275397 8.95325203,5.75186002 C8.95287272,6.06148608 8.7741784,6.34309936 8.49446332,6.47488802 C8.21474824,6.60667668 7.88422962,6.56498071 7.64587329,6.36783571 C7.40751697,6.17069071 7.30411503,5.8534901 7.380394,5.55343901 L6.50891182,4.53063903 L5.9075985,3.82590776 C5.79601842,3.85121598 5.68030782,3.85217738 5.56832395,3.82872669 L5.47451532,3.9192455 L4.35006254,5.01095254 L3.86772983,5.47920732 C3.93376193,5.78593863 3.79147685,6.09979817 3.51745622,6.25185835 C3.2434356,6.40391852 2.90232982,6.35830338 2.67773115,6.13956421 C2.45313249,5.92082503 2.39803108,5.58056953 2.54208398,5.30193231 C2.68613688,5.0232951 2.99535732,4.87201578 3.30331457,4.92951693 L3.34787367,4.88629341 L4.47232645,3.79442976 L4.9757661,3.30565948 C4.87412455,3.00562701 4.95880922,2.67377974 5.19172288,2.45940634 C5.42463654,2.24503293 5.76190001,2.18851972 6.05178805,2.31529039 C6.34167608,2.44206106 6.52957595,2.72823297 6.53095685,3.04506551 C6.53085423,3.10482158 6.52414245,3.16438233 6.51094434,3.22265779 L6.67698562,3.41747684 L7.76813634,4.69820847 L7.99828018,4.96804224 C8.04976687,4.95776331 8.10212867,4.95251844 8.15462789,4.95238154 C8.27442927,4.95202003 8.39276261,4.97878822 8.50078174,5.03068502 L9.7018449,3.71518665 C9.86131957,3.5405177 10.0207421,3.36595315 10.1801126,3.19149301 C10.0601528,2.90215537 10.1433123,2.56826885 10.3848976,2.36927834 C10.6264829,2.17028782 10.9696023,2.15305419 11.2298488,2.32683953 C11.4900953,2.50062487 11.6061827,2.82450395 11.5157206,3.12441031 C11.4252585,3.42431667 11.1495501,3.62962444 10.836773,3.62999247 L10.8377111,3.62936604 Z" id="形状" filter="url(#filter-15)"></path>
                </g>
                <g id="编组" transform="translate(44.000000, 31.000000)" fill="#FFFFFF" fill-rule="nonzero">
                    <path d="M2.44578313,1.64457832 C2.44578313,0.969879518 1.89759036,0.421686745 1.22289157,0.421686745 C0.548192772,0.421686745 0,0.969879518 0,1.64457832 C0,1.98192771 0.126506027,2.27710844 0.337349396,2.48795181 C0.295180718,2.74096385 0.253012047,2.9939759 0.253012047,3.24698796 C0.253012047,4.42771085 0.885542168,5.43975904 1.77108434,5.98795181 L2.02409639,4.97590362 C1.5180723,4.55421687 1.22289157,3.92168675 1.22289157,3.24698796 C1.22289157,3.12048193 1.22289157,2.99397591 1.26506024,2.86746988 C1.89759036,2.86746988 2.44578313,2.31927711 2.44578313,1.64457832 Z M3.5,0.969879518 C3.92168674,0.969879518 4.30120482,1.09638554 4.63855421,1.26506024 C4.59638554,1.39156627 4.55421687,1.56024097 4.55421687,1.68674699 C4.55421687,2.36144578 5.10240964,2.90963855 5.77710843,2.90963855 C6.45180722,2.90963855 7,2.36144578 7,1.68674699 C7,1.0120482 6.45180723,0.463855423 5.77710843,0.463855423 C5.60843373,0.463855423 5.4819277,0.506024101 5.31325301,0.548192772 C4.80722891,0.210843376 4.17469879,0 3.5,0 C3.03614458,0 2.57228915,0.0843373491 2.19277109,0.295180725 L2.74096386,1.09638554 C2.99397591,1.0120482 3.24698795,0.969879518 3.5,0.969879518 Z M5.77710843,3.33132531 C5.73493976,4.1746988 5.27108434,4.89156627 4.55421687,5.22891566 C4.34337349,4.84939759 3.92168674,4.55421687 3.45783132,4.55421687 C2.78313253,4.55421687 2.23493976,5.10240964 2.23493976,5.77710844 C2.23493976,6.45180723 2.78313253,7 3.45783132,7 C3.96385542,7 4.38554217,6.70481927 4.59638554,6.24096386 C5.86144579,5.77710844 6.74698795,4.59638554 6.74698795,3.20481928 L6.74698795,2.9939759 C6.70481928,3.03614458 5.77710844,3.3313253 5.77710843,3.33132531 L5.77710843,3.33132531 Z" id="形状"></path>
                </g>
            </g>
        </g>
    </g>
</svg>