<?xml version="1.0" encoding="UTF-8"?>
<svg width="64px" height="57px" viewBox="0 0 64 57" version="1.1" xmlns="http://www.w3.org/2000/svg" xmlns:xlink="http://www.w3.org/1999/xlink">
    <title>编组 25</title>
    <defs>
        <linearGradient x1="0%" y1="50%" x2="100%" y2="50%" id="linearGradient-1">
            <stop stop-color="#E6F0FF" offset="0%"></stop>
            <stop stop-color="#BCCDFA" offset="79.5174264%"></stop>
            <stop stop-color="#BBCFFA" offset="100%"></stop>
        </linearGradient>
        <linearGradient x1="50%" y1="0%" x2="50%" y2="100%" id="linearGradient-2">
            <stop stop-color="#FFFFFF" stop-opacity="0" offset="0%"></stop>
            <stop stop-color="#FFFFFF" offset="100%"></stop>
        </linearGradient>
        <filter x="0.0%" y="0.0%" width="100.0%" height="100.0%" filterUnits="objectBoundingBox" id="filter-3">
            <feGaussianBlur stdDeviation="0" in="SourceGraphic"></feGaussianBlur>
        </filter>
        <linearGradient x1="50%" y1="1.01343969%" x2="50%" y2="100%" id="linearGradient-4">
            <stop stop-color="#52A5FF" stop-opacity="0" offset="0%"></stop>
            <stop stop-color="#3480FF" offset="100%"></stop>
        </linearGradient>
        <linearGradient x1="9.32205326%" y1="21.0462993%" x2="90.629177%" y2="78.7320246%" id="linearGradient-5">
            <stop stop-color="#FFFFFF" stop-opacity="0.100961538" offset="0%"></stop>
            <stop stop-color="#67D0FE" stop-opacity="0.100961538" offset="100%"></stop>
        </linearGradient>
        <linearGradient x1="13.3608581%" y1="15.8949534%" x2="90.5599938%" y2="77.3726676%" id="linearGradient-6">
            <stop stop-color="#CAE5FF" offset="0%"></stop>
            <stop stop-color="#70A6FF" stop-opacity="0" offset="100%"></stop>
        </linearGradient>
        <linearGradient x1="79.0549241%" y1="5.70934256%" x2="39.4241225%" y2="94.2906574%" id="linearGradient-7">
            <stop stop-color="#FFFFFF" offset="0%"></stop>
            <stop stop-color="#BEDAFE" offset="100%"></stop>
        </linearGradient>
        <path d="M25.0540187,11.1242951 C25.2678512,11.2396624 25.4360541,11.432237 25.5398389,11.6895947 L25.5935207,11.7863258 L25.5935207,26.0102232 L26.2779635,26.0102232 L26.2770688,16.464025 L30.4150401,19.1494202 C30.5702933,19.2169096 30.6990921,19.3328231 30.7818657,19.4795481 C30.8838611,19.6517115 30.9303853,19.8522731 30.9303853,20.0208868 L30.9303853,26.0111107 L31.5012017,26.0111107 C31.6353769,26.005401 31.7662461,26.0533596 31.8644485,26.1442268 C31.9565593,26.2413819 32.005267,26.3712825 31.9995476,26.5045276 C32.0043005,26.6374193 31.9549694,26.7666229 31.8626591,26.8630536 C31.7655853,26.9549387 31.6353078,27.0041962 31.5012017,26.9997195 L15.4986602,26.9997195 C15.364554,27.0041962 15.2342766,26.9549387 15.1372028,26.8630536 C15.0448925,26.7666229 14.9955613,26.6374193 15.0003142,26.5045276 C15.0003142,26.3740739 15.053996,26.245395 15.1488338,26.1522137 C15.24151,26.0602408 15.3675668,26.0090757 15.4986602,26.0102232 L16.0694765,26.0102232 L16.0694765,14.2702719 C16.0694765,14.0439746 16.144631,13.8274391 16.2716779,13.6490635 C16.4014089,13.4662508 16.5848217,13.3207105 16.7950754,13.2435032 L24.3051578,11.021352 C24.5860925,10.9716553 24.8419757,11.0098153 25.0540187,11.1242951 Z M22.4307686,22.5678413 L19.2322286,22.5678413 C19.0982504,22.5631269 18.9679904,22.612058 18.8707712,22.7036197 C18.778461,22.8000504 18.7291298,22.929254 18.7338827,23.0621456 C18.7338827,23.2103482 18.783091,23.3337025 18.8707712,23.4206716 C18.9405576,23.4907795 19.0345007,23.5360389 19.1454431,23.5511254 L19.2322286,23.5573375 L22.4307686,23.5573375 C22.5648747,23.5618142 22.6951522,23.5125567 22.792226,23.4206716 C22.8845363,23.3242409 22.9338674,23.1950373 22.9291146,23.0621456 C22.9348308,22.92933 22.886469,22.7998122 22.7949101,22.7027322 C22.6967763,22.6109951 22.5655042,22.5623672 22.4307686,22.5678413 L22.4307686,22.5678413 Z M29.1409923,22.5678413 L28.0727247,22.5678413 C27.9413221,22.5664546 27.8148978,22.6176379 27.7220037,22.7098318 C27.6277476,22.8033501 27.5743946,22.9299127 27.5734841,23.0621456 C27.5734841,23.2103482 27.6235871,23.3337025 27.7112673,23.4206716 C27.7810536,23.4907795 27.8749968,23.5360389 27.9859391,23.5511254 L28.0727247,23.5573375 L29.141887,23.5573375 C29.2759931,23.5618142 29.4062706,23.5125568 29.5033444,23.4206716 C29.5956547,23.3242409 29.6449859,23.1950373 29.640233,23.0621456 C29.6449858,22.929254 29.5956547,22.8000504 29.5033444,22.7036197 C29.4061253,22.612058 29.2758652,22.5631269 29.141887,22.5678413 L29.1409923,22.5678413 Z M22.4307686,19.3952412 L19.2322286,19.3952412 C19.0982504,19.3905269 18.9679904,19.439458 18.8707712,19.5310196 C18.778461,19.6274503 18.7291298,19.756654 18.7338827,19.8895456 C18.7338827,20.0377482 18.783091,20.1611024 18.8707712,20.2480716 C18.9405576,20.3181794 19.0345007,20.3634389 19.1454431,20.3785254 L19.2322286,20.3847375 L22.4307686,20.3847375 C22.5648747,20.3892142 22.6951522,20.3399567 22.792226,20.2480716 C22.8845363,20.1516409 22.9338674,20.0224373 22.9291146,19.8895456 C22.9338674,19.756654 22.8845363,19.6274503 22.792226,19.5310196 C22.6950068,19.439458 22.5647468,19.3905269 22.4307686,19.3952412 L22.4307686,19.3952412 Z M22.4307686,16.2226412 L19.2322286,16.2226412 C19.1015657,16.2219052 18.9761123,16.273407 18.8841917,16.3655191 C18.789738,16.4586933 18.735789,16.5848273 18.7338827,16.7169456 C18.7338827,16.8651481 18.783091,16.9885024 18.8707712,17.0754716 C18.9405576,17.1455794 19.0345007,17.1908388 19.1454431,17.2059253 L19.2322286,17.2121374 L22.4307686,17.2121374 C22.5648747,17.2166142 22.6951522,17.1673567 22.792226,17.0754716 C22.8845363,16.9790409 22.9338674,16.8498372 22.9291146,16.7169456 C22.9348308,16.5841299 22.886469,16.4546121 22.7949101,16.3575321 C22.6967763,16.265795 22.5655042,16.2171671 22.4307686,16.2226412 L22.4307686,16.2226412 Z" id="path-8"></path>
        <filter x="-12.8%" y="-13.6%" width="125.6%" height="127.1%" filterUnits="objectBoundingBox" id="filter-9">
            <feGaussianBlur stdDeviation="0.390625" in="SourceGraphic"></feGaussianBlur>
        </filter>
        <filter x="-15.7%" y="-16.7%" width="131.4%" height="133.4%" filterUnits="objectBoundingBox" id="filter-10">
            <feOffset dx="0" dy="0" in="SourceAlpha" result="shadowOffsetOuter1"></feOffset>
            <feGaussianBlur stdDeviation="0.5" in="shadowOffsetOuter1" result="shadowBlurOuter1"></feGaussianBlur>
            <feColorMatrix values="0 0 0 0 0.180392157   0 0 0 0 0.470588235   0 0 0 0 1  0 0 0 0.300644668 0" type="matrix" in="shadowBlurOuter1"></feColorMatrix>
        </filter>
        <filter x="-27.5%" y="-29.2%" width="155.0%" height="158.4%" filterUnits="objectBoundingBox" id="filter-11">
            <feGaussianBlur stdDeviation="1.5" in="SourceAlpha" result="shadowBlurInner1"></feGaussianBlur>
            <feOffset dx="0" dy="2" in="shadowBlurInner1" result="shadowOffsetInner1"></feOffset>
            <feComposite in="shadowOffsetInner1" in2="SourceAlpha" operator="arithmetic" k2="-1" k3="1" result="shadowInnerInner1"></feComposite>
            <feColorMatrix values="0 0 0 0 1   0 0 0 0 1   0 0 0 0 1  0 0 0 0.25 0" type="matrix" in="shadowInnerInner1"></feColorMatrix>
        </filter>
        <linearGradient x1="81.0894514%" y1="5.70934256%" x2="19.3292537%" y2="103.172049%" id="linearGradient-12">
            <stop stop-color="#FFFFFF" stop-opacity="0" offset="0%"></stop>
            <stop stop-color="#FFFFFF" offset="100%"></stop>
        </linearGradient>
        <filter x="-7.8%" y="-8.3%" width="115.6%" height="116.5%" filterUnits="objectBoundingBox" id="filter-13">
            <feGaussianBlur stdDeviation="0.390625" in="SourceGraphic"></feGaussianBlur>
        </filter>
        <linearGradient x1="46.0565598%" y1="100%" x2="56.779417%" y2="-2.27373675e-11%" id="linearGradient-14">
            <stop stop-color="#448DFF" offset="0%"></stop>
            <stop stop-color="#64D0FF" offset="100%"></stop>
        </linearGradient>
    </defs>
    <g id="页面-1" stroke="none" stroke-width="1" fill="none" fill-rule="evenodd">
        <g id="默认海南门户备份-6" transform="translate(-217.000000, -182.000000)">
            <g id="编组-25" transform="translate(217.000000, 182.000000)">
                <path d="M57,47 L57,53 C57,55.209139 45.8071187,57 32,57 C18.3480174,57 7.25185546,55.249157 7.00422702,53.074305 L7,53 L7,47 C7,49.209139 18.1928813,51 32,51 C45.6519826,51 56.7481445,49.249157 56.995773,47.074305 L57,47 Z" id="形状结合备份" fill="url(#linearGradient-1)" opacity="0.496479833"></path>
                <ellipse id="椭圆形备份-7" stroke="url(#linearGradient-2)" stroke-width="0.1" filter="url(#filter-3)" cx="32" cy="47" rx="24.95" ry="3.95"></ellipse>
                <path d="M0,0 L63.75,0 L53.75,46.997 C53.75,48.6366487 44.1936448,49.9671937 32.315962,49.9994026 L31.875,50 C19.7937711,50 10,48.6568542 10,47 L10,47 L0,0 Z" id="形状结合备份-3" fill-opacity="0.2" fill="url(#linearGradient-4)"></path>
                <g id="编组-9" transform="translate(11.000000, 3.000000)">
                    <circle id="椭圆形备份-9" fill="#2E78FF" cx="18" cy="18" r="18"></circle>
                    <circle id="椭圆形备份-10" stroke="url(#linearGradient-6)" stroke-width="0.5" fill="url(#linearGradient-5)" cx="23" cy="19" r="17.75"></circle>
                    <g id="形状" fill-rule="nonzero" filter="url(#filter-9)">
                        <use fill="black" fill-opacity="1" filter="url(#filter-10)" xlink:href="#path-8"></use>
                        <use fill="url(#linearGradient-7)" xlink:href="#path-8"></use>
                        <use fill="black" fill-opacity="1" filter="url(#filter-11)" xlink:href="#path-8"></use>
                    </g>
                    <path d="M25.0540187,11.1242951 C25.2678512,11.2396624 25.4360541,11.432237 25.5398389,11.6895947 L25.5935207,11.7863258 L25.5935207,26.0102232 L26.2779635,26.0102232 L26.2770688,16.464025 L30.4150401,19.1494202 C30.5702933,19.2169096 30.6990921,19.3328231 30.7818657,19.4795481 C30.8838611,19.6517115 30.9303853,19.8522731 30.9303853,20.0208868 L30.9303853,26.0111107 L31.5012017,26.0111107 C31.6353769,26.005401 31.7662461,26.0533596 31.8644485,26.1442268 C31.9565593,26.2413819 32.005267,26.3712825 31.9995476,26.5045276 C32.0043005,26.6374193 31.9549694,26.7666229 31.8626591,26.8630536 C31.7655853,26.9549387 31.6353078,27.0041962 31.5012017,26.9997195 L15.4986602,26.9997195 C15.364554,27.0041962 15.2342766,26.9549387 15.1372028,26.8630536 C15.0448925,26.7666229 14.9955613,26.6374193 15.0003142,26.5045276 C15.0003142,26.3740739 15.053996,26.245395 15.1488338,26.1522137 C15.24151,26.0602408 15.3675668,26.0090757 15.4986602,26.0102232 L16.0694765,26.0102232 L16.0694765,14.2702719 C16.0694765,14.0439746 16.144631,13.8274391 16.2716779,13.6490635 C16.4014089,13.4662508 16.5848217,13.3207105 16.7950754,13.2435032 L24.3051578,11.021352 C24.5860925,10.9716553 24.8419757,11.0098153 25.0540187,11.1242951 Z M22.4307686,22.5678413 L19.2322286,22.5678413 C19.0982504,22.5631269 18.9679904,22.612058 18.8707712,22.7036197 C18.778461,22.8000504 18.7291298,22.929254 18.7338827,23.0621456 C18.7338827,23.2103482 18.783091,23.3337025 18.8707712,23.4206716 C18.9405576,23.4907795 19.0345007,23.5360389 19.1454431,23.5511254 L19.2322286,23.5573375 L22.4307686,23.5573375 C22.5648747,23.5618142 22.6951522,23.5125567 22.792226,23.4206716 C22.8845363,23.3242409 22.9338674,23.1950373 22.9291146,23.0621456 C22.9348308,22.92933 22.886469,22.7998122 22.7949101,22.7027322 C22.6967763,22.6109951 22.5655042,22.5623672 22.4307686,22.5678413 L22.4307686,22.5678413 Z M29.1409923,22.5678413 L28.0727247,22.5678413 C27.9413221,22.5664546 27.8148978,22.6176379 27.7220037,22.7098318 C27.6277476,22.8033501 27.5743946,22.9299127 27.5734841,23.0621456 C27.5734841,23.2103482 27.6235871,23.3337025 27.7112673,23.4206716 C27.7810536,23.4907795 27.8749968,23.5360389 27.9859391,23.5511254 L28.0727247,23.5573375 L29.141887,23.5573375 C29.2759931,23.5618142 29.4062706,23.5125568 29.5033444,23.4206716 C29.5956547,23.3242409 29.6449859,23.1950373 29.640233,23.0621456 C29.6449858,22.929254 29.5956547,22.8000504 29.5033444,22.7036197 C29.4061253,22.612058 29.2758652,22.5631269 29.141887,22.5678413 L29.1409923,22.5678413 Z M22.4307686,19.3952412 L19.2322286,19.3952412 C19.0982504,19.3905269 18.9679904,19.439458 18.8707712,19.5310196 C18.778461,19.6274503 18.7291298,19.756654 18.7338827,19.8895456 C18.7338827,20.0377482 18.783091,20.1611024 18.8707712,20.2480716 C18.9405576,20.3181794 19.0345007,20.3634389 19.1454431,20.3785254 L19.2322286,20.3847375 L22.4307686,20.3847375 C22.5648747,20.3892142 22.6951522,20.3399567 22.792226,20.2480716 C22.8845363,20.1516409 22.9338674,20.0224373 22.9291146,19.8895456 C22.9338674,19.756654 22.8845363,19.6274503 22.792226,19.5310196 C22.6950068,19.439458 22.5647468,19.3905269 22.4307686,19.3952412 L22.4307686,19.3952412 Z M22.4307686,16.2226412 L19.2322286,16.2226412 C19.1015657,16.2219052 18.9761123,16.273407 18.8841917,16.3655191 C18.789738,16.4586933 18.735789,16.5848273 18.7338827,16.7169456 C18.7338827,16.8651481 18.783091,16.9885024 18.8707712,17.0754716 C18.9405576,17.1455794 19.0345007,17.1908388 19.1454431,17.2059253 L19.2322286,17.2121374 L22.4307686,17.2121374 C22.5648747,17.2166142 22.6951522,17.1673567 22.792226,17.0754716 C22.8845363,16.9790409 22.9338674,16.8498372 22.9291146,16.7169456 C22.9348308,16.5841299 22.886469,16.4546121 22.7949101,16.3575321 C22.6967763,16.265795 22.5655042,16.2171671 22.4307686,16.2226412 L22.4307686,16.2226412 Z" id="形状备份" stroke="url(#linearGradient-12)" stroke-width="0.3" fill-rule="nonzero" filter="url(#filter-13)"></path>
                </g>
                <g id="编组-22" transform="translate(40.857864, 26.857864)">
                    <rect id="矩形备份" fill="url(#linearGradient-14)" transform="translate(7.071068, 7.071068) rotate(-315.000000) translate(-7.071068, -7.071068) " x="2.07106781" y="2.07106781" width="10" height="10" rx="2"></rect>
                    <path d="M6.72549259,9.20611579 C5.46148079,9.20611579 4.40287091,8.70051107 4.1342684,8.03690488 C4.08686796,8.14750591 4.07106781,8.24230679 4.07106781,8.35290783 C4.07106781,9.1745155 5.25607887,9.83812169 6.72549259,9.83812169 C8.19490631,9.83812169 9.37991737,9.1745155 9.37991737,8.35290783 C9.37991737,8.24230679 9.36411722,8.13170576 9.31671678,8.03690488 C9.04811427,8.70051107 7.98950439,9.20611579 6.72549259,9.20611579 L6.72549259,9.20611579 Z" id="路径" fill="#FFFFFF" fill-rule="nonzero"></path>
                    <path d="M6.72549259,8.30550738 C5.46148079,8.30550738 4.40287091,7.79990266 4.1342684,7.13629647 C4.08686796,7.2468975 4.07106781,7.34169839 4.07106781,7.45229942 C4.07106781,8.27390709 5.25607887,8.93751328 6.72549259,8.93751328 C8.19490631,8.93751328 9.37991737,8.27390709 9.37991737,7.45229942 C9.37991737,7.34169839 9.36411722,7.23109735 9.31671678,7.13629647 C9.04811427,7.79990266 7.98950439,8.30550738 6.72549259,8.30550738 L6.72549259,8.30550738 Z" id="路径" fill="#FFFFFF" fill-rule="nonzero"></path>
                    <path d="M6.72549259,7.40489898 C5.46148079,7.40489898 4.40287091,6.89929426 4.1342684,6.23568806 C4.08686796,6.3462891 4.07106781,6.44108998 4.07106781,6.55169101 C4.07106781,7.37329868 5.25607887,8.03690488 6.72549259,8.03690488 C8.19490631,8.03690488 9.37991737,7.37329868 9.37991737,6.55169101 C9.37991737,6.44108998 9.36411722,6.33048895 9.31671678,6.23568806 C9.04811427,6.89929426 7.98950439,7.40489898 6.72549259,7.40489898 L6.72549259,7.40489898 Z" id="路径" fill="#FFFFFF" fill-rule="nonzero"></path>
                    <path d="M4.11846825,5.55628172 C4.11846825,6.08689754 4.62439872,6.57720678 5.44568062,6.84251469 C6.26696252,7.10782261 7.27882355,7.10782261 8.10010545,6.84251469 C8.92138734,6.57720678 9.42731781,6.08689754 9.42731781,5.55628172 C9.42731781,5.0256659 8.92138734,4.53535666 8.10010545,4.27004875 C7.27882355,4.00474083 6.26696252,4.00474083 5.44568062,4.27004875 C4.62439872,4.53535666 4.11846825,5.0256659 4.11846825,5.55628172 L4.11846825,5.55628172 Z" id="路径" fill="#FFFFFF" fill-rule="nonzero"></path>
                </g>
            </g>
        </g>
    </g>
</svg>