<?xml version="1.0" encoding="UTF-8"?>
<svg width="64px" height="57px" viewBox="0 0 64 57" version="1.1" xmlns="http://www.w3.org/2000/svg" xmlns:xlink="http://www.w3.org/1999/xlink">
    <title>编组 16备份</title>
    <defs>
        <linearGradient x1="0%" y1="50%" x2="100%" y2="50%" id="linearGradient-1">
            <stop stop-color="#E6F0FF" offset="0%"></stop>
            <stop stop-color="#BCCDFA" offset="79.5174264%"></stop>
            <stop stop-color="#BBCFFA" offset="100%"></stop>
        </linearGradient>
        <linearGradient x1="55.0245934%" y1="48.3937011%" x2="53.1833738%" y2="51.28%" id="linearGradient-2">
            <stop stop-color="#CEE1FD" offset="0%"></stop>
            <stop stop-color="#E5F0FE" offset="100%"></stop>
        </linearGradient>
        <linearGradient x1="50%" y1="0%" x2="50%" y2="100%" id="linearGradient-3">
            <stop stop-color="#FFFFFF" stop-opacity="0" offset="0%"></stop>
            <stop stop-color="#FFFFFF" offset="100%"></stop>
        </linearGradient>
        <filter x="0.0%" y="0.0%" width="100.0%" height="100.0%" filterUnits="objectBoundingBox" id="filter-4">
            <feGaussianBlur stdDeviation="0" in="SourceGraphic"></feGaussianBlur>
        </filter>
        <linearGradient x1="50%" y1="1.01343969%" x2="50%" y2="100%" id="linearGradient-5">
            <stop stop-color="#52A5FF" stop-opacity="0" offset="0%"></stop>
            <stop stop-color="#3480FF" offset="100%"></stop>
        </linearGradient>
        <linearGradient x1="90.629177%" y1="68.6447783%" x2="9.32205326%" y2="31.2113717%" id="linearGradient-6">
            <stop stop-color="#FFFFFF" stop-opacity="0.100961538" offset="0%"></stop>
            <stop stop-color="#67D0FE" stop-opacity="0.100961538" offset="100%"></stop>
        </linearGradient>
        <linearGradient x1="13.3608581%" y1="27.8685616%" x2="90.5599938%" y2="67.7626647%" id="linearGradient-7">
            <stop stop-color="#CAE5FF" offset="0%"></stop>
            <stop stop-color="#70A6FF" stop-opacity="0" offset="100%"></stop>
        </linearGradient>
        <linearGradient x1="79.0549241%" y1="4.99671261%" x2="39.4241225%" y2="95.0032874%" id="linearGradient-8">
            <stop stop-color="#FFFFFF" offset="0%"></stop>
            <stop stop-color="#BEDAFE" offset="100%"></stop>
        </linearGradient>
        <path d="M37.8525641,13.9166666 C38.0650506,13.9166666 38.262486,14.026353 38.3748205,14.2067179 L38.4031282,14.2571794 L39.9744103,17.4034358 L41.75,17.4038461 L41.75,18.6346153 L40.5893846,18.6342051 L41.6818974,20.8208717 C41.7158468,20.8890291 41.736852,20.9628953 41.7438462,21.0387179 L41.7467179,21.0961538 L41.75,26.8397435 L41.75,28.4807692 C41.75,28.7977423 41.5092014,29.0628526 41.1936923,29.093282 L41.1346154,29.0961538 L37.8525641,29.0961538 C37.535591,29.0961538 37.2704807,28.8553552 37.2400513,28.5398461 L37.2371795,28.4807692 L37.2367692,27.4551281 L30.2624103,27.4551281 L30.2628205,28.4807692 C30.2628842,28.7756042 30.0538234,29.0290582 29.764359,29.0850769 L29.7069231,29.093282 L29.6474359,29.0961538 L26.3653846,29.0961538 C26.0484115,29.0961538 25.7833012,28.8553552 25.7528718,28.5398461 L25.75,28.4807692 L25.75,21.0961538 C25.75,21.0198461 25.764359,20.9443589 25.7918462,20.8733846 L25.8148205,20.8208717 L26.9081538,18.6346153 L25.75,18.6346153 L25.75,17.4038461 L27.5235385,17.4034358 L29.0968718,14.2567692 C29.1919248,14.0668755 29.3781661,13.9394064 29.5895897,13.9195384 L29.6474359,13.9166666 L37.8525641,13.9166666 Z M36.6217949,22.9423076 L30.8782051,22.9423076 L30.8782051,24.1730769 L36.6217949,24.1730769 L36.6217949,22.9423076 Z" id="path-9"></path>
        <filter x="-13.6%" y="-14.3%" width="127.1%" height="128.6%" filterUnits="objectBoundingBox" id="filter-10">
            <feGaussianBlur stdDeviation="0.390625" in="SourceGraphic"></feGaussianBlur>
        </filter>
        <filter x="-16.7%" y="-17.6%" width="133.4%" height="135.2%" filterUnits="objectBoundingBox" id="filter-11">
            <feOffset dx="0" dy="0" in="SourceAlpha" result="shadowOffsetOuter1"></feOffset>
            <feGaussianBlur stdDeviation="0.5" in="shadowOffsetOuter1" result="shadowBlurOuter1"></feGaussianBlur>
            <feColorMatrix values="0 0 0 0 0.180392157   0 0 0 0 0.470588235   0 0 0 0 1  0 0 0 0.300644668 0" type="matrix" in="shadowBlurOuter1"></feColorMatrix>
        </filter>
        <filter x="-29.2%" y="-30.8%" width="158.4%" height="161.6%" filterUnits="objectBoundingBox" id="filter-12">
            <feGaussianBlur stdDeviation="1.5" in="SourceAlpha" result="shadowBlurInner1"></feGaussianBlur>
            <feOffset dx="0" dy="2" in="shadowBlurInner1" result="shadowOffsetInner1"></feOffset>
            <feComposite in="shadowOffsetInner1" in2="SourceAlpha" operator="arithmetic" k2="-1" k3="1" result="shadowInnerInner1"></feComposite>
            <feColorMatrix values="0 0 0 0 1   0 0 0 0 1   0 0 0 0 1  0 0 0 0.25 0" type="matrix" in="shadowInnerInner1"></feColorMatrix>
        </filter>
        <linearGradient x1="81.0894514%" y1="4.99671261%" x2="19.3292537%" y2="104.027579%" id="linearGradient-13">
            <stop stop-color="#FFFFFF" stop-opacity="0" offset="0%"></stop>
            <stop stop-color="#FFFFFF" offset="100%"></stop>
        </linearGradient>
        <filter x="-8.3%" y="-8.7%" width="116.5%" height="117.4%" filterUnits="objectBoundingBox" id="filter-14">
            <feGaussianBlur stdDeviation="0.390625" in="SourceGraphic"></feGaussianBlur>
        </filter>
        <linearGradient x1="0%" y1="70.0890604%" x2="100%" y2="70.0890604%" id="linearGradient-15">
            <stop stop-color="#448DFF" offset="0%"></stop>
            <stop stop-color="#64D0FF" offset="100%"></stop>
        </linearGradient>
    </defs>
    <g id="页面-1" stroke="none" stroke-width="1" fill="none" fill-rule="evenodd">
        <g id="默认海南门户备份-6" transform="translate(-533.000000, -182.000000)">
            <g id="编组-16备份" transform="translate(533.000000, 182.000000)">
                <g id="编组-13">
                    <path d="M57,47 L57,53 C57,55.209139 45.8071187,57 32,57 C18.3480174,57 7.25185546,55.249157 7.00422702,53.074305 L7,53 L7,47 C7,49.209139 18.1928813,51 32,51 C45.6519826,51 56.7481445,49.249157 56.995773,47.074305 L57,47 Z" id="形状结合备份-4" fill="url(#linearGradient-1)" opacity="0.496479833"></path>
                    <ellipse id="椭圆形备份-11" fill="url(#linearGradient-2)" cx="32" cy="47" rx="25" ry="4"></ellipse>
                    <ellipse id="椭圆形备份-12" stroke="url(#linearGradient-3)" stroke-width="0.1" filter="url(#filter-4)" cx="32" cy="47" rx="24.95" ry="3.95"></ellipse>
                    <ellipse id="椭圆形备份-13" fill="#A2CFFF" cx="31.875" cy="47" rx="21.875" ry="3"></ellipse>
                    <path d="M0,0 L63.75,0 L53.75,46.997 C53.75,48.6366487 44.1936448,49.9671937 32.315962,49.9994026 L31.875,50 C19.7937711,50 10,48.6568542 10,47 L10,47 L0,0 Z" id="形状结合备份-5" fill-opacity="0.2" fill="url(#linearGradient-5)"></path>
                    <rect id="矩形" fill="#2E78FF" x="12" y="4" width="36" height="29" rx="4"></rect>
                    <rect id="矩形备份-2" stroke="url(#linearGradient-7)" stroke-width="0.5" fill="url(#linearGradient-6)" x="16.25" y="8.25" width="35.5" height="28.5" rx="4"></rect>
                    <g id="形状" fill-rule="nonzero" filter="url(#filter-10)">
                        <use fill="black" fill-opacity="1" filter="url(#filter-11)" xlink:href="#path-9"></use>
                        <use fill="url(#linearGradient-8)" xlink:href="#path-9"></use>
                        <use fill="black" fill-opacity="1" filter="url(#filter-12)" xlink:href="#path-9"></use>
                    </g>
                    <path d="M37.8525641,13.9166666 C38.0650506,13.9166666 38.262486,14.026353 38.3748205,14.2067179 L38.4031282,14.2571794 L39.9744103,17.4034358 L41.75,17.4038461 L41.75,18.6346153 L40.5893846,18.6342051 L41.6818974,20.8208717 C41.7158468,20.8890291 41.736852,20.9628953 41.7438462,21.0387179 L41.7467179,21.0961538 L41.75,26.8397435 L41.75,28.4807692 C41.75,28.7977423 41.5092014,29.0628526 41.1936923,29.093282 L41.1346154,29.0961538 L37.8525641,29.0961538 C37.535591,29.0961538 37.2704807,28.8553552 37.2400513,28.5398461 L37.2371795,28.4807692 L37.2367692,27.4551281 L30.2624103,27.4551281 L30.2628205,28.4807692 C30.2628842,28.7756042 30.0538234,29.0290582 29.764359,29.0850769 L29.7069231,29.093282 L29.6474359,29.0961538 L26.3653846,29.0961538 C26.0484115,29.0961538 25.7833012,28.8553552 25.7528718,28.5398461 L25.75,28.4807692 L25.75,21.0961538 C25.75,21.0198461 25.764359,20.9443589 25.7918462,20.8733846 L25.8148205,20.8208717 L26.9081538,18.6346153 L25.75,18.6346153 L25.75,17.4038461 L27.5235385,17.4034358 L29.0968718,14.2567692 C29.1919248,14.0668755 29.3781661,13.9394064 29.5895897,13.9195384 L29.6474359,13.9166666 L37.8525641,13.9166666 Z M36.6217949,22.9423076 L30.8782051,22.9423076 L30.8782051,24.1730769 L36.6217949,24.1730769 L36.6217949,22.9423076 Z" id="形状备份-2" stroke="url(#linearGradient-13)" stroke-width="0.3" fill-rule="nonzero" filter="url(#filter-14)"></path>
                    <path d="M48.4096982,29.8590527 L53.8634015,36.0866248 C54.1354622,36.3972903 54.1885805,36.8432353 53.9971059,37.2091144 L52.0525677,40.9248332 C51.8800256,41.2545349 51.5386816,41.4611612 51.1665607,41.4611612 L44.1482305,41.4611612 C43.7761096,41.4611612 43.4347656,41.2545349 43.2622236,40.9248332 L41.3176853,37.2091144 C41.1262107,36.8432353 41.1793291,36.3972903 41.4513897,36.0866248 L46.905093,29.8590527 C47.268948,29.4435675 47.9007281,29.4017129 48.3162134,29.7655679 C48.349403,29.7946332 48.3806329,29.825863 48.4096982,29.8590527 Z" id="多边形" fill="url(#linearGradient-15)" transform="translate(47.657396, 35.230581) scale(1, -1) translate(-47.657396, -35.230581) "></path>
                    <path d="M50,33.4895398 C50,33.5383543 49.998801,33.584728 49.9964029,33.6286611 C49.9940048,33.6725941 49.9904077,33.7189679 49.9856115,33.7677824 C49.942446,34.1729428 49.8549161,34.5622385 49.7230216,34.9356695 C49.5911271,35.3091004 49.4244604,35.667887 49.2230216,36.0120293 C49.0215827,36.3561715 48.7889688,36.6868898 48.5251799,37.0041841 C48.2613909,37.3214784 47.9760192,37.626569 47.6690648,37.9194561 C47.6258993,37.973152 47.5707434,38 47.5035971,38 C47.4316547,38 47.3741007,37.973152 47.3309352,37.9194561 C47.0239808,37.626569 46.7374101,37.3190377 46.471223,36.9968619 C46.205036,36.6746862 45.970024,36.3378661 45.7661871,35.9864017 C45.5623501,35.6349372 45.3944844,35.2700488 45.2625899,34.8917364 C45.1306954,34.513424 45.0455636,34.1192469 45.0071943,33.709205 C45.0071943,33.6701534 45.0059952,33.6335425 45.0035971,33.5993724 C45.001199,33.5652022 45,33.5285914 45,33.4895398 C45,33.1478382 45.0659472,32.8256625 45.1978417,32.5230126 C45.3297362,32.2203626 45.5083933,31.9567643 45.7338129,31.7322176 C45.9592326,31.5076709 46.2242206,31.3294979 46.528777,31.1976987 C46.8333333,31.0658996 47.1582734,31 47.5035971,31 C47.8489209,31 48.1726619,31.0658996 48.4748201,31.1976987 C48.7769784,31.3294979 49.0407674,31.5076709 49.266187,31.7322176 C49.4916067,31.9567643 49.6702638,32.2203626 49.8021583,32.5230126 C49.9340527,32.8256625 50,33.1478382 50,33.4895398 L50,33.4895398 Z M47.5035971,34.6317992 C47.6618705,34.6317992 47.8105516,34.6012901 47.9496403,34.540272 C48.088729,34.4792538 48.2098321,34.3974895 48.3129496,34.2949791 C48.4160672,34.1924686 48.4976019,34.0716527 48.557554,33.9325314 C48.617506,33.79341 48.647482,33.6457462 48.647482,33.4895397 C48.647482,33.3333333 48.617506,33.1856695 48.557554,33.0465481 C48.4976019,32.9074268 48.4160671,32.7866109 48.3129496,32.6841004 C48.2098321,32.58159 48.088729,32.4998257 47.9496403,32.4388075 C47.8105516,32.3777894 47.6618705,32.3472803 47.5035971,32.3472803 C47.3453238,32.3472803 47.1966427,32.3777894 47.057554,32.4388075 C46.9184652,32.4998257 46.7961631,32.58159 46.6906475,32.6841004 C46.5851319,32.7866109 46.5023981,32.9074268 46.4424461,33.0465481 C46.382494,33.1856695 46.352518,33.3333333 46.352518,33.4895397 C46.352518,33.6457462 46.382494,33.79341 46.4424461,33.9325314 C46.5023981,34.0716527 46.5851319,34.1924686 46.6906475,34.2949791 C46.7961631,34.3974895 46.9184652,34.4792538 47.057554,34.540272 C47.1966427,34.6012901 47.3453237,34.6317992 47.5035971,34.6317992 Z" id="形状" fill="#FFFFFF" fill-rule="nonzero"></path>
                </g>
                <g id="编组-8" transform="translate(11.000000, 4.000000)">
                    <g id="编组" transform="translate(13.750000, 9.916667)"></g>
                    <g id="编组-3" transform="translate(30.000000, 25.000000)">
                        <g id="编组" transform="translate(4.000000, 2.000000)"></g>
                    </g>
                </g>
            </g>
        </g>
    </g>
</svg>