<?xml version="1.0" standalone="no"?><!DOCTYPE svg PUBLIC "-//W3C//DTD SVG 1.1//EN" "http://www.w3.org/Graphics/SVG/1.1/DTD/svg11.dtd"><svg t="1685349455647" class="icon" viewBox="0 0 1024 1024" version="1.1" xmlns="http://www.w3.org/2000/svg" p-id="24419" xmlns:xlink="http://www.w3.org/1999/xlink" width="200" height="200"><path d="M926.3 337.9c-22.6-53.3-54.8-101.2-96-142.3-41.1-41.1-89-73.4-142.3-96-55.2-23.4-113.9-35.2-174.3-35.2S394.6 76.2 339.3 99.6c-53.3 22.6-101.2 54.8-142.3 96-41.1 41.1-73.4 89-96 142.3-23.4 55.2-35.2 113.9-35.2 174.3 0 60.4 11.8 119.1 35.2 174.3 22.6 53.3 54.8 101.2 96 142.3 41.1 41.1 89 73.4 142.3 96 55.2 23.4 113.9 35.2 174.3 35.2s119.1-11.8 174.3-35.2c53.3-22.6 101.2-54.8 142.3-96 41.1-41.1 73.4-89 96-142.3 23.4-55.2 35.2-113.9 35.2-174.3 0.1-60.4-11.8-119.1-35.1-174.3zM513.7 879.1c-202.3 0-366.9-164.6-366.9-366.9s164.6-366.9 366.9-366.9c202.3 0 366.9 164.6 366.9 366.9S716 879.1 513.7 879.1z" p-id="24420" fill="#13C2C2"></path><path d="M715.6 371.6c-15.7-15.7-41.4-15.7-57 0l-196 196-95.9-95.9c-15.7-15.7-41.4-15.7-57 0-15.7 15.7-15.7 41.4 0 57l124.5 124.5c15.7 15.7 41.4 15.7 57 0l224.5-224.5c15.6-15.7 15.6-41.4-0.1-57.1z" p-id="24421" fill="#13C2C2"></path></svg>