<?xml version="1.0" encoding="UTF-8"?>
<svg width="16px" height="16px" viewBox="0 0 16 16" version="1.1" xmlns="http://www.w3.org/2000/svg" xmlns:xlink="http://www.w3.org/1999/xlink">
    <title>形状</title>
    <g id="页面-1" stroke="none" stroke-width="1" fill="none" fill-rule="evenodd">
        <g id="默认海南门户备份-6" transform="translate(-734.000000, -810.000000)" fill="#96BBFF" fill-rule="nonzero">
            <path d="M747.660495,812.339505 C746.147223,810.831586 744.137854,810 742.001785,810 C739.865715,810 737.856346,810.831586 736.344858,812.339505 C734.833371,813.849208 734,815.855008 734,817.991077 C734,820.125362 734.831586,822.132947 736.343074,823.64265 C737.854562,825.150569 739.862146,825.982155 742,825.982155 C744.137854,825.982155 746.147223,825.150569 747.660495,823.640865 C750.779835,820.526879 750.779835,815.45706 747.660495,812.339505 Z M745.799242,820.871292 C745.699308,821.04439 745.551193,821.167522 745.37988,821.217488 C745.32099,821.235333 745.260317,821.242472 745.199643,821.242472 C745.078296,821.242472 744.956948,821.208566 744.842739,821.144323 L742.076734,819.472228 C741.983939,819.420477 741.86973,819.358019 741.809056,819.277716 C741.457506,819.074281 741.280839,818.863707 741.280839,818.65135 L741.280839,814.038367 C741.280839,813.627928 741.614544,813.296007 742.024983,813.296007 C742.435423,813.296007 742.769128,813.629712 742.769128,814.038367 L742.769128,818.299799 L745.463752,819.8559 C745.845639,820.07718 745.995539,820.532233 745.799242,820.871292 Z" id="形状"></path>
        </g>
    </g>
</svg>