<?xml version="1.0" encoding="UTF-8"?>
<svg width="12px" height="13px" viewBox="0 0 12 13" version="1.1" xmlns="http://www.w3.org/2000/svg" xmlns:xlink="http://www.w3.org/1999/xlink">
    <title>形状备份 4</title>
    <g id="页面-1" stroke="none" stroke-width="1" fill="none" fill-rule="evenodd" fill-opacity="0.7">
        <g id="默认海南门户备份-6" transform="translate(-649.000000, -817.000000)" fill="#2057ED" fill-rule="nonzero">
            <path d="M659.2881,827.431558 L649.789584,827.431558 C649.355189,827.431558 649,827.786747 649,828.221141 C649,828.655536 649.355189,829.010725 649.789584,829.010725 L659.2881,829.010725 C659.722495,829.010725 660.077684,828.655536 660.077684,828.221141 C660.077684,827.786747 659.722495,827.431558 659.2881,827.431558 Z M658.242335,821.878484 L656.524558,821.878484 L656.524558,817.747505 C656.524558,817.335387 656.190408,817 655.777053,817 L653.309295,817 C652.897176,817 652.561789,817.33415 652.561789,817.747505 L652.561789,821.878484 L650.844012,821.878484 C650.513575,821.878484 650.340312,822.272038 650.565554,822.515843 L654.264715,826.519453 C654.414464,826.681577 654.671883,826.681577 654.822869,826.519453 L658.520793,822.515843 C658.744798,822.272038 658.572772,821.878484 658.242335,821.878484 Z" id="形状备份-4"></path>
        </g>
    </g>
</svg>