<svg xmlns="http://www.w3.org/2000/svg" xmlns:xlink="http://www.w3.org/1999/xlink" viewBox="0 0 286 78" class="design-iconfont">
  <defs>
    <path id="odt7m0v19__2apnb27xpa" d="M0 0.0444001634L13.8742551 0.0444001634 13.8742551 3.68915812 0 3.68915812z"/>
    <path id="odt7m0v19__5aguf410bc" d="M0.00743274568 0.00955316391L13.8955172 0.00955316391 13.8955172 3.6393734 0.00743274568 3.6393734z"/>
    <path id="odt7m0v19__cwt20tvu6e" d="M0.0166985157 0.022084483L3.99230523 0.022084483 3.99230523 3.9974962 0.0166985157 3.9974962z"/>
    <path id="odt7m0v19__dwdihu0big" d="M0.00894188212 0.0308508642L3.95270054 0.0308508642 3.95270054 3.93023507 0.00894188212 3.93023507z"/>
    <path id="odt7m0v19__g6pmx8zwki" d="M0 0L25.5 0 25.5 25.4999972 0 25.4999972z"/>
  </defs>
  <g fill="none" fill-rule="evenodd">
    <path stroke="#EDEEF0" stroke-width=".67651584" stroke-linecap="square" d="M0 77.3383457L284.648074 77.3383457" transform="translate(1)"/>
    <g opacity=".83758836">
      <g transform="translate(197 1)">
        <mask id="odt7m0v19__8jb7i8yt8b" fill="#fff">
          <use xlink:href="#odt7m0v19__2apnb27xpa"/>
        </mask>
        <path d="M1.63304855,3.68915812 L12.2428043,3.6841332 C13.1441582,3.68367641 13.8746647,2.86829951 13.8742551,1.86335319 C13.8738453,0.858406873 13.1429291,0.0439435617 12.2415752,0.0444001634 L1.63140973,0.0494250871 C0.730055751,0.0498818808 -0.000450676988,0.865258779 -4.11428897e-05,1.8702051 C0.000368735718,2.87515141 0.73128487,3.68961472 1.63304855,3.68915812" fill="#E4E6EF" mask="url(#odt7m0v19__8jb7i8yt8b)"/>
      </g>
      <g transform="translate(201 7)">
        <mask id="odt7m0v19__hzhwquj26d" fill="#fff">
          <use xlink:href="#odt7m0v19__5aguf410bc"/>
        </mask>
        <path d="M1.64214539,3.63937359 L12.262445,3.63436926 C13.1646947,3.63391434 13.8959271,2.82187915 13.8955172,1.82105146 C13.8951069,0.82022378 13.1634644,0.0090984335 12.2612146,0.00955316391 L1.64091505,0.0145574936 C0.738255201,0.0150124153 0.00702280459,0.826592683 0.00743274568,1.82787529 C0.00784303162,2.82870297 0.739895655,3.63982832 1.64214539,3.63937359" fill="#E4E6EF" mask="url(#odt7m0v19__hzhwquj26d)"/>
      </g>
      <path d="M6.70588235,3.00300978 L6.70588235,3.00225734 L11.7047883,3 C10.9020895,3.00037622 10.2521989,3.67193378 10.2525636,4.49962378 C10.2525636,5.32731377 10.9035483,5.99811889 11.7058824,5.99774266 L6.70697644,6 L6.70697644,5.99962378 C7.50384005,5.99209932 8.14716609,5.32392777 8.14680139,4.50037622 C8.14643669,3.6772009 7.50238126,3.00978179 6.70588235,3.00300978" fill="#E4E6EF" transform="translate(197.294118 1)"/>
    </g>
    <g transform="translate(71 65)">
      <mask id="odt7m0v19__bbyt87kclf" fill="#fff">
        <use xlink:href="#odt7m0v19__cwt20tvu6e"/>
      </mask>
      <path d="M3.98177062,2.21263016 C3.86972188,3.30454241 2.89369983,4.09907681 1.80175314,3.9870316 C0.7094541,3.87498639 -0.085105364,2.89899513 0.0272957309,1.80673055 C0.139344471,0.714818305 1.11536652,-0.0797160961 2.20731321,0.0326814533 C3.29925989,0.144726659 4.09381936,1.12071792 3.98177062,2.21263016" fill="#E4E6EF" mask="url(#odt7m0v19__bbyt87kclf)"/>
    </g>
    <path d="M26.9894015,2.79229107 C26.8766735,3.89093763 25.8947344,4.69037229 24.7961678,4.57763605 C23.6972468,4.46489981 22.8978704,3.48253465 23.0105984,2.38388808 C23.1236809,1.28524152 24.10562,0.485806864 25.2041866,0.598897621 C26.3027531,0.711279344 27.1021296,1.6936445 26.9894015,2.79229107" fill="#E4E6EF" transform="translate(60 58.411765)"/>
    <path d="M3.98936308,1.79241627 C3.87673915,2.8911743 2.89446258,3.69027105 1.79564473,3.57765325 C0.697153324,3.46470902 -0.102313379,2.48281236 0.0106370001,1.38405432 C0.123260933,0.28529629 1.1055375,-0.513800461 2.20402891,-0.401182659 C3.30284676,-0.288564857 4.10231346,0.693658233 3.98936308,1.79241627" fill="#E4E6EF" transform="translate(60 58.411765)"/>
    <g transform="translate(92 63)">
      <mask id="odt7m0v19__ukp6b238wh" fill="#fff">
        <use xlink:href="#odt7m0v19__dwdihu0big"/>
      </mask>
      <path d="M3.94246556,2.17958798 C3.83110375,3.25070791 2.86296408,4.02970423 1.77960035,3.91991921 C0.696236611,3.80981597 -0.0916642875,2.85261788 0.0193756675,1.78149795 C0.130737478,0.710378024 1.09887714,-0.0686182891 2.18224088,0.0411667305 C3.26528276,0.151269968 4.05350551,1.10846805 3.94246556,2.17958798" fill="#E4E6EF" mask="url(#odt7m0v19__ukp6b238wh)"/>
    </g>
    <path fill="#E4E6EF" d="M13.5096795 8.58823529L13.4662919 8.56256188 2 1.72715701 2.09126354 1.58823529 13.5144671 8.398252 25.0845899 2.2260771 25.1225915 2.24034011 35 5.93531545 34.9371628 6.08735914 25.0974566 2.4066468z" transform="translate(60 58.411765)"/>
    <g>
      <g fill-rule="nonzero">
        <path d="M2.24473411,50.4301476 C1.94086622,50.4301476 1.66171287,50.2628049 1.51941389,49.994315 C0.103160207,47.3249447 -0.326274142,44.2453326 0.244705606,40.8426452 C0.785297076,37.6190887 2.19995138,34.2395923 4.44948364,30.7969203 C9.02132008,23.8004191 16.5584127,17.2821335 25.6716973,12.4432001 C34.7849819,7.6042667 44.4060706,5.01406585 52.7644464,5.14601495 C56.8756605,5.21078997 60.4678749,5.93211172 63.4403283,7.28998793 C66.5799172,8.72383483 68.8894263,10.8038325 70.3072794,13.4740025 C70.5194958,13.8739233 70.3673313,14.3701585 69.9674105,14.5823749 C69.5674897,14.7945913 69.0712544,14.6424268 68.859038,14.242506 C67.614718,11.8994099 65.5627096,10.0617187 62.7597908,8.78141262 C59.9936578,7.5186997 56.6221583,6.84695883 52.7380566,6.78218381 C44.6531753,6.65263378 35.313578,9.18125838 26.4410005,13.8882427 C17.5684231,18.595227 10.2448481,24.9247854 5.82175429,31.6941742 C3.69697391,34.9465196 2.36468784,38.1148974 1.86168187,41.1137406 C1.35147867,44.1525684 1.72413492,46.8819156 2.96845494,49.2250117 C3.10301975,49.4785358 3.09532137,49.7839468 2.94815459,50.0303694 C2.8009878,50.276792 2.53575016,50.4283973 2.24873256,50.4301476 L2.24473411,50.4301476 Z" fill="#A3B5D6" transform="translate(107.304199 9.695309)"/>
        <path fill="#6E718D" opacity=".33" d="M34.6234442 0A29.3030965 29.3030965 0 1 0 34.6234442 58.606193A29.3030965 29.3030965 0 1 0 34.6234442 0Z" transform="translate(107.304199 9.695309)"/>
        <path d="M54.3270437,36.4163526 C56.052778,31.8133282 56.9164448,30.0867942 54.3270437,29.3038962 C51.7376425,28.5209982 47.9974852,33.5390625 44.5428179,31.1183963 C41.0881505,28.69773 45.693574,23.4701465 44.2549289,20.4777008 C42.8162839,17.4852552 41.0897499,17.1405881 41.9534167,11.4859694 C42.3916477,8.61667617 45.0474232,5.43790236 47.5576549,3.00364136 C43.5353696,1.02213765 39.1105145,-0.0056765774 34.626643,-2.33861362e-05 C33.4554785,-2.33861362e-05 32.2853445,0.0694493462 31.1223947,0.207919796 C33.5526573,5.53386534 29.1431582,9.41796707 25.8444307,14.8070883 C21.8163845,21.3925479 23.2550295,25.4837698 31.5982112,27.0687584 C39.9413928,28.653747 39.0785257,38.7178648 31.5982112,41.3032675 C24.1178967,43.8886702 26.4194089,33.2519732 21.8163845,33.1999933 C17.21336,33.1480133 12.6103356,32.1012171 12.3224467,27.7900801 C12.1625084,25.3454231 9.03491483,23.0591051 6.35994669,21.5380918 C5.66758184,24.0685332 5.31792835,26.6804448 5.32033524,29.3038962 C5.32033524,45.4872536 18.4400868,58.6070173 34.6242439,58.6070173 C42.1278116,58.6167188 49.3472367,55.7379405 54.7852669,50.5676938 C52.7236622,45.7903366 53.0619317,39.7902511 54.3270437,36.4163526 Z" fill="#4E5C93" transform="translate(107.304199 9.695309)"/>
        <path d="M12.3224467,27.7900801 C12.6103356,32.1012171 17.21336,33.1480133 21.8163845,33.1999933 C26.4194089,33.2519732 24.1178967,43.8966671 31.5982112,41.307266 C39.0785257,38.7178648 39.9413928,28.653747 31.5982112,27.0727568 C23.2550295,25.4917667 21.8163845,21.394947 25.8444307,14.8110867 C29.1399594,9.42196553 33.5494585,5.53466503 31.1223947,0.211918254 C19.1925966,1.62897163 9.46434918,10.2136601 6.35994669,21.5380918 C9.03651422,23.0591051 12.1593096,25.3454231 12.3224467,27.7900801 Z" fill="#6E718D" transform="translate(107.304199 9.695309)"/>
        <path d="M12.3224467,27.7900801 C12.6103356,32.1012171 17.21336,33.1480133 21.8163845,33.1999933 C26.4194089,33.2519732 24.1178967,43.8966671 31.5982112,41.307266 C39.0785257,38.7178648 39.9413928,28.653747 31.5982112,27.0727568 C23.2550295,25.4917667 21.8163845,21.394947 25.8444307,14.8110867 C29.1399594,9.42196553 33.5494585,5.53466503 31.1223947,0.211918254 C19.1925966,1.62897163 9.46434918,10.2136601 6.35994669,21.5380918 C9.03651422,23.0591051 12.1593096,25.3454231 12.3224467,27.7900801 Z" fill="#E4EBF7" transform="translate(107.304199 9.695309)"/>
        <path d="M63.9265655,29.3038962 C63.9265655,17.7635478 57.255514,7.78179822 47.560054,3.00364136 C45.0498223,5.43790236 42.3940467,8.61667617 41.9558158,11.4859694 C41.0921489,17.1405881 42.8186829,17.4836558 44.257328,20.4777008 C45.695973,23.4717459 41.0921489,28.69773 44.5428179,31.1183963 C47.9934868,33.5390625 51.7400416,28.5201985 54.3270437,29.3038962 C56.9140457,30.0875939 56.052778,31.8133282 54.3270437,36.4163526 C53.0619317,39.7902511 52.7236622,45.7903366 54.7852669,50.5708926 C60.6300798,45.0425635 63.9370213,37.3490283 63.9265655,29.3038962 L63.9265655,29.3038962 Z" fill="#E4EBF7" transform="translate(107.304199 9.695309)"/>
        <path d="M45.7719437,51.1202861 C45.3949186,51.1212529 45.0658558,50.8649141 44.9745472,50.4991114 C44.8832386,50.1333086 45.0532366,49.7523984 45.3864924,49.5760763 C54.2630683,44.8650935 61.5818452,38.5403333 66.004939,31.7741433 C68.1337178,28.5225976 69.4620054,25.3502213 69.9650114,22.3537772 C70.4752146,19.3149494 70.103358,16.5856022 68.859038,14.242506 C68.6468216,13.8425852 68.7989861,13.34635 69.1989069,13.1341336 C69.5988277,12.9219172 70.095063,13.0740817 70.3072794,13.4740025 C71.7243328,16.1433728 72.1537671,19.2221852 71.5867858,22.6256723 C71.0453946,25.8492288 69.6307403,29.2287252 67.3820078,32.6705975 C62.8101713,39.6678983 55.2730787,46.1853843 46.1589944,51.0243177 C46.0398919,51.0878037 45.906909,51.1207747 45.7719437,51.1202861 Z" fill="#E4EBF7" transform="translate(107.304199 9.695309)"/>
        <path fill="#E4EBF7" d="M19.8347489 49.10105958A6.47990042 6.47990042 0 1 0 19.8347489 62.06086042A6.47990042 6.47990042 0 1 0 19.8347489 49.10105958Z" transform="translate(107.304199 9.695309)"/>
      </g>
      <path fill="#A3B5D6" d="M9.33734619 0.00000791015625L5.64593994 11.5962179 7.87768506 11.5962179 11.5690913 0.00000791015625z" transform="matrix(-1 0 0 1 112.863281 62.949216)"/>
      <g fill="#CCD7EE">
        <path d="M4.07355645,0.00536835937 L1.70441191,0.00536835937 L0.210948047,0.00536835937 C0.0944314453,0.00536835937 1.0546875e-05,0.099815625 1.0546875e-05,0.216305859 L1.0546875e-05,1.70979609 L1.0546875e-05,7.26043184 L1.0546875e-05,8.7538957 C1.0546875e-05,8.8704123 0.0944314453,8.9648332 0.210948047,8.9648332 L1.70441191,8.9648332 L4.07355645,8.9648332 C4.19004668,8.9648332 4.28449395,8.8704123 4.28449395,8.7538957 L4.28449395,7.47136934 C4.28449395,7.35485273 4.19004668,7.26043184 4.07355645,7.26043184 L1.70441191,7.26043184 L1.70441191,1.70979609 L4.07355645,1.70979609 C4.19004668,1.70979609 4.28449395,1.61534883 4.28449395,1.49885859 L4.28449395,0.216305859 C4.28449395,0.099815625 4.19004668,0.00536835937 4.07355645,0.00536835937" transform="matrix(-1 0 0 1 112.863281 64.262223)"/>
        <path d="M17.0040595,0.00536835937 L15.5105692,0.00536835937 L13.1414511,0.00536835937 C13.0249608,0.00536835937 12.9305136,0.099815625 12.9305136,0.216305859 L12.9305136,1.49885859 C12.9305136,1.61534883 13.0249608,1.70979609 13.1414511,1.70979609 L15.5105692,1.70979609 L15.5105692,7.26043184 L13.1414511,7.26043184 C13.0249608,7.26043184 12.9305136,7.35485273 12.9305136,7.47136934 L12.9305136,8.7538957 C12.9305136,8.8704123 13.0249608,8.9648332 13.1414511,8.9648332 L15.5105692,8.9648332 L17.0040595,8.9648332 C17.1205761,8.9648332 17.214997,8.8704123 17.214997,8.7538957 L17.214997,7.47136934 L17.214997,1.49885859 L17.214997,0.216305859 C17.214997,0.099815625 17.1205761,0.00536835937 17.0040595,0.00536835937" transform="matrix(-1 0 0 1 112.863281 64.262223)"/>
      </g>
      <g>
        <g transform="matrix(1 0 0 -1 167 25.499998)">
          <mask id="odt7m0v19__mm2djv4adj" fill="#fff">
            <use xlink:href="#odt7m0v19__g6pmx8zwki"/>
          </mask>
          <path d="M12.5,-2.84598218e-06 C5.59642857,-2.84598218e-06 0,5.59642573 0,12.4999972 C0,19.4035407 5.59642857,24.9999972 12.5,24.9999972 C19.4035714,24.9999972 25,19.4035407 25,12.4999972 C25,5.59642573 19.4035714,-2.84598218e-06 12.5,-2.84598218e-06" fill="#F5242C" mask="url(#odt7m0v19__mm2djv4adj)"/>
        </g>
        <path d="M9.69435884,10.0562482 L8.59227608,8.98788176 C7.65869991,9.42343733 6.81026366,10.0126941 6.08475764,10.729406 L5.02825254,9.70591668 L5.08429065,9.65162977 C5.79327296,8.96344783 6.6007733,8.37766252 7.48197442,7.91227701 L4.5,5.02421313 L5.5565051,4 L20.5,18.4765107 L19.4434949,19.5 L14.5211077,14.7314374 L14.4815074,14.7698001 C13.3144209,13.6395265 11.4225736,13.6395265 10.2554871,14.7698001 L9.19748762,13.745587 C9.99490894,12.9712783 11.0653984,12.518189 12.1936584,12.4774447 L10.8823667,11.2071308 C9.84445553,11.4638419 8.89733746,11.9872463 8.14098254,12.7220977 L7.08522463,11.6993322 C7.82575895,10.9797137 8.714888,10.4197909 9.69435884,10.0562482 Z M13.5,9.5 C15.0156703,9.72738494 16.4179064,10.433855 17.5,11.5152672 L16.5114942,12.5 L13.5,9.5 L13.5,9.5 Z M11,7.16849369 C14.1610005,6.58542239 17.5420107,7.51554243 20,9.96032432 L18.9698883,11 C17.203456,9.24464728 14.7802947,8.33103444 12.3062166,8.48757301 L11,7.16849369 Z M11,15.9392735 C11.690417,15.3535755 12.809583,15.3535755 13.5,15.9392735 L12.25,17 L11,15.9392735 L11,15.9392735 Z" fill="#FFF" fill-rule="nonzero" transform="translate(167 1.999998)"/>
      </g>
    </g>
  </g>
</svg>
