<svg xmlns="http://www.w3.org/2000/svg" xmlns:xlink="http://www.w3.org/1999/xlink" viewBox="0 0 286 80" class="design-iconfont">
  <defs>
    <path id="xni7341ax__ngb904xlta" d="M0 0.0444001634L13.8742551 0.0444001634 13.8742551 3.68915812 0 3.68915812z"/>
    <path id="xni7341ax__0cdbpifoyc" d="M0.00743274568 0.00955316391L13.8955172 0.00955316391 13.8955172 3.6393734 0.00743274568 3.6393734z"/>
    <path id="xni7341ax__san05sxb5e" d="M0.0166985157 0.022084483L3.99230523 0.022084483 3.99230523 3.9974962 0.0166985157 3.9974962z"/>
    <path id="xni7341ax__fg71uyk6kg" d="M0.00894188212 0.0308508642L3.95270054 0.0308508642 3.95270054 3.93023507 0.00894188212 3.93023507z"/>
  </defs>
  <g fill="none" fill-rule="evenodd">
    <path stroke="#EDEEF0" stroke-width=".67651584" stroke-linecap="square" d="M0 79.3383457L284.648074 79.3383457" transform="translate(1)"/>
    <g transform="translate(109 9.40642)" fill-rule="nonzero">
      <path d="M48.5676285,0.0510172822 L7.35280084,0.0510172822 C6.23462559,0.0510172822 5.32816545,0.949688046 5.32816545,2.05825461 L5.32816545,59.162484 L42.1470035,59.162484 C42.1470035,65.2929213 47.4346763,69.5767003 53.6283733,69.5450947 C59.7157771,69.5148105 64.6955365,64.3988644 64.6955365,58.3646072 L64.6955365,15.9617185 L53.9489406,15.9617185 C52.2347493,15.9617185 48.5676285,12.2416387 48.5676285,10.5430141 L48.5676285,0.0510172822 Z" fill="#E2E7F2"/>
      <path d="M42.2279889,58.982669 L0,58.982669 C0,64.4590815 4.01805764,68.4183571 9.28970202,69.2956871 L11.1456178,69.4495753 L53.4579665,69.3659404 C47.303075,69.3659404 42.0710797,64.6798776 42.2279889,58.982669 Z" fill="#393D65"/>
      <rect fill="#393D65" x="13.4747921" y="5.40699556" width="10.7980554" height="10.7052658" rx="2.83472456"/>
      <rect fill="#A3B5D6" x="13.4562329" y="21.3812593" width="40.4927077" height="2.67631644" rx="1.33815822"/>
      <rect fill="#A3B5D6" x="13.4562329" y="29.4394809" width="40.4927077" height="2.67631644" rx="1.33815822"/>
      <rect fill="#A3B5D6" x="13.4562329" y="37.4977024" width="40.4927077" height="2.67631644" rx="1.33815822"/>
      <path d="M48.5625669,13.4016546 L48.5625669,15.4925268 C48.5625669,15.9418289 48.7511888,16.3708581 49.0833509,16.6765193 C49.4155131,16.9821804 49.8610983,17.1368405 50.3130329,17.1033348 L64.7503704,16.0386626 L48.5625669,13.4016546 Z" fill="#BABFD8" opacity=".6"/>
      <path d="M56.9310598,8.01807679 L48.5448513,1.45710195e-14 L48.5667849,15.3670745 C48.5667849,15.7365967 48.8689383,16.0361536 49.2416633,16.0361536 L64.7503704,16.0361536 L56.9310598,8.01807679 Z" fill="#F2F5F9"/>
    </g>
    <path d="M15,1.875 C7.75195313,1.875 1.875,7.75195313 1.875,15 C1.875,22.2480469 7.75195313,28.125 15,28.125 C22.2480469,28.125 28.125,22.2480469 28.125,15 C28.125,7.75195313 22.2480469,1.875 15,1.875 Z M14.0625,8.671875 C14.0625,8.54296875 14.1679688,8.4375 14.296875,8.4375 L15.703125,8.4375 C15.8320313,8.4375 15.9375,8.54296875 15.9375,8.671875 L15.9375,16.640625 C15.9375,16.7695312 15.8320313,16.875 15.703125,16.875 L14.296875,16.875 C14.1679688,16.875 14.0625,16.7695312 14.0625,16.640625 L14.0625,8.671875 Z M15,21.5625 C14.2236328,21.5625 13.59375,20.9326172 13.59375,20.15625 C13.59375,19.3798828 14.2236328,18.75 15,18.75 C15.7763672,18.75 16.40625,19.3798828 16.40625,20.15625 C16.40625,20.9326172 15.7763672,21.5625 15,21.5625 Z" fill="#F5242C" transform="translate(159.532878)"/>
    <g opacity=".83758836">
      <g transform="translate(194 3)">
        <mask id="xni7341ax__iyhwl5qx8b" fill="#fff">
          <use xlink:href="#xni7341ax__ngb904xlta"/>
        </mask>
        <path d="M1.63304855,3.68915812 L12.2428043,3.6841332 C13.1441582,3.68367641 13.8746647,2.86829951 13.8742551,1.86335319 C13.8738453,0.858406873 13.1429291,0.0439435617 12.2415752,0.0444001634 L1.63140973,0.0494250871 C0.730055751,0.0498818808 -0.000450676988,0.865258779 -4.11428897e-05,1.8702051 C0.000368735718,2.87515141 0.73128487,3.68961472 1.63304855,3.68915812" fill="#E4E6EF" mask="url(#xni7341ax__iyhwl5qx8b)"/>
      </g>
      <g transform="translate(198 9)">
        <mask id="xni7341ax__8cstfs8ttd" fill="#fff">
          <use xlink:href="#xni7341ax__0cdbpifoyc"/>
        </mask>
        <path d="M1.64214539,3.63937359 L12.262445,3.63436926 C13.1646947,3.63391434 13.8959271,2.82187915 13.8955172,1.82105146 C13.8951069,0.82022378 13.1634644,0.0090984335 12.2612146,0.00955316391 L1.64091505,0.0145574936 C0.738255201,0.0150124153 0.00702280459,0.826592683 0.00743274568,1.82787529 C0.00784303162,2.82870297 0.739895655,3.63982832 1.64214539,3.63937359" fill="#E4E6EF" mask="url(#xni7341ax__8cstfs8ttd)"/>
      </g>
      <path d="M6.70588235,3.00300978 L6.70588235,3.00225734 L11.7047883,3 C10.9020895,3.00037622 10.2521989,3.67193378 10.2525636,4.49962378 C10.2525636,5.32731377 10.9035483,5.99811889 11.7058824,5.99774266 L6.70697644,6 L6.70697644,5.99962378 C7.50384005,5.99209932 8.14716609,5.32392777 8.14680139,4.50037622 C8.14643669,3.6772009 7.50238126,3.00978179 6.70588235,3.00300978" fill="#E4E6EF" transform="translate(194.294118 3)"/>
    </g>
    <g>
      <g transform="translate(68 67)">
        <mask id="xni7341ax__wkhuhjl7mf" fill="#fff">
          <use xlink:href="#xni7341ax__san05sxb5e"/>
        </mask>
        <path d="M3.98177062,2.21263016 C3.86972188,3.30454241 2.89369983,4.09907681 1.80175314,3.9870316 C0.7094541,3.87498639 -0.085105364,2.89899513 0.0272957309,1.80673055 C0.139344471,0.714818305 1.11536652,-0.0797160961 2.20731321,0.0326814533 C3.29925989,0.144726659 4.09381936,1.12071792 3.98177062,2.21263016" fill="#E4E6EF" mask="url(#xni7341ax__wkhuhjl7mf)"/>
      </g>
      <path d="M26.9894015,2.79229107 C26.8766735,3.89093763 25.8947344,4.69037229 24.7961678,4.57763605 C23.6972468,4.46489981 22.8978704,3.48253465 23.0105984,2.38388808 C23.1236809,1.28524152 24.10562,0.485806864 25.2041866,0.598897621 C26.3027531,0.711279344 27.1021296,1.6936445 26.9894015,2.79229107" fill="#E4E6EF" transform="translate(57 60.411765)"/>
      <path d="M3.98936308,1.79241627 C3.87673915,2.8911743 2.89446258,3.69027105 1.79564473,3.57765325 C0.697153324,3.46470902 -0.102313379,2.48281236 0.0106370001,1.38405432 C0.123260933,0.28529629 1.1055375,-0.513800461 2.20402891,-0.401182659 C3.30284676,-0.288564857 4.10231346,0.693658233 3.98936308,1.79241627" fill="#E4E6EF" transform="translate(57 60.411765)"/>
      <g transform="translate(89 65)">
        <mask id="xni7341ax__q5x6vdv3th" fill="#fff">
          <use xlink:href="#xni7341ax__fg71uyk6kg"/>
        </mask>
        <path d="M3.94246556,2.17958798 C3.83110375,3.25070791 2.86296408,4.02970423 1.77960035,3.91991921 C0.696236611,3.80981597 -0.0916642875,2.85261788 0.0193756675,1.78149795 C0.130737478,0.710378024 1.09887714,-0.0686182891 2.18224088,0.0411667305 C3.26528276,0.151269968 4.05350551,1.10846805 3.94246556,2.17958798" fill="#E4E6EF" mask="url(#xni7341ax__q5x6vdv3th)"/>
      </g>
      <path fill="#E4E6EF" d="M13.5096795 8.58823529L13.4662919 8.56256188 2 1.72715701 2.09126354 1.58823529 13.5144671 8.398252 25.0845899 2.2260771 25.1225915 2.24034011 35 5.93531545 34.9371628 6.08735914 25.0974566 2.4066468z" transform="translate(57 60.411765)"/>
    </g>
  </g>
</svg>
