<svg xmlns="http://www.w3.org/2000/svg" xmlns:xlink="http://www.w3.org/1999/xlink" viewBox="0 0 286 80" class="design-iconfont">
  <defs>
    <path id="fu33qko9n__ua5iscy9ya" d="M0 0.0444001634L13.8742551 0.0444001634 13.8742551 3.68915812 0 3.68915812z"/>
    <path id="fu33qko9n__ew1hahnelc" d="M0.00743274568 0.00955316391L13.8955172 0.00955316391 13.8955172 3.6393734 0.00743274568 3.6393734z"/>
    <path id="fu33qko9n__g073rv32ne" d="M0.0166985157 0.022084483L3.99230523 0.022084483 3.99230523 3.9974962 0.0166985157 3.9974962z"/>
    <path id="fu33qko9n__9egfjyr3gg" d="M0.00894188212 0.0308508642L3.95270054 0.0308508642 3.95270054 3.93023507 0.00894188212 3.93023507z"/>
    <path id="fu33qko9n__adnqyh0v2i" d="M8.29550475 17.1567868L53.8996028 17.1567868 53.8996028 62.7609268 8.29550475 62.7609268z"/>
    <path id="fu33qko9n__y1chn7d61k" d="M68.6213058 0L95.3361028 0 95.3361028 26.741841 68.6213058 26.741841z"/>
  </defs>
  <g fill="none" fill-rule="evenodd">
    <path stroke="#EDEEF0" stroke-width=".67651584" stroke-linecap="square" d="M0 79.3383457L284.648074 79.3383457" transform="translate(1)"/>
    <g opacity=".83758836">
      <g transform="translate(197 3)">
        <mask id="fu33qko9n__13s2gzwirb" fill="#fff">
          <use xlink:href="#fu33qko9n__ua5iscy9ya"/>
        </mask>
        <path d="M1.63304855,3.68915812 L12.2428043,3.6841332 C13.1441582,3.68367641 13.8746647,2.86829951 13.8742551,1.86335319 C13.8738453,0.858406873 13.1429291,0.0439435617 12.2415752,0.0444001634 L1.63140973,0.0494250871 C0.730055751,0.0498818808 -0.000450676988,0.865258779 -4.11428897e-05,1.8702051 C0.000368735718,2.87515141 0.73128487,3.68961472 1.63304855,3.68915812" fill="#E4E6EF" mask="url(#fu33qko9n__13s2gzwirb)"/>
      </g>
      <g transform="translate(201 9)">
        <mask id="fu33qko9n__qrwibs2sgd" fill="#fff">
          <use xlink:href="#fu33qko9n__ew1hahnelc"/>
        </mask>
        <path d="M1.64214539,3.63937359 L12.262445,3.63436926 C13.1646947,3.63391434 13.8959271,2.82187915 13.8955172,1.82105146 C13.8951069,0.82022378 13.1634644,0.0090984335 12.2612146,0.00955316391 L1.64091505,0.0145574936 C0.738255201,0.0150124153 0.00702280459,0.826592683 0.00743274568,1.82787529 C0.00784303162,2.82870297 0.739895655,3.63982832 1.64214539,3.63937359" fill="#E4E6EF" mask="url(#fu33qko9n__qrwibs2sgd)"/>
      </g>
      <path d="M6.70588235,3.00300978 L6.70588235,3.00225734 L11.7047883,3 C10.9020895,3.00037622 10.2521989,3.67193378 10.2525636,4.49962378 C10.2525636,5.32731377 10.9035483,5.99811889 11.7058824,5.99774266 L6.70697644,6 L6.70697644,5.99962378 C7.50384005,5.99209932 8.14716609,5.32392777 8.14680139,4.50037622 C8.14643669,3.6772009 7.50238126,3.00978179 6.70588235,3.00300978" fill="#E4E6EF" transform="translate(197.294118 3)"/>
    </g>
    <g transform="translate(71 67)">
      <mask id="fu33qko9n__6kk4regxxf" fill="#fff">
        <use xlink:href="#fu33qko9n__g073rv32ne"/>
      </mask>
      <path d="M3.98177062,2.21263016 C3.86972188,3.30454241 2.89369983,4.09907681 1.80175314,3.9870316 C0.7094541,3.87498639 -0.085105364,2.89899513 0.0272957309,1.80673055 C0.139344471,0.714818305 1.11536652,-0.0797160961 2.20731321,0.0326814533 C3.29925989,0.144726659 4.09381936,1.12071792 3.98177062,2.21263016" fill="#E4E6EF" mask="url(#fu33qko9n__6kk4regxxf)"/>
    </g>
    <path d="M26.9894015,2.79229107 C26.8766735,3.89093763 25.8947344,4.69037229 24.7961678,4.57763605 C23.6972468,4.46489981 22.8978704,3.48253465 23.0105984,2.38388808 C23.1236809,1.28524152 24.10562,0.485806864 25.2041866,0.598897621 C26.3027531,0.711279344 27.1021296,1.6936445 26.9894015,2.79229107" fill="#E4E6EF" transform="translate(60 60.411765)"/>
    <path d="M3.98936308,1.79241627 C3.87673915,2.8911743 2.89446258,3.69027105 1.79564473,3.57765325 C0.697153324,3.46470902 -0.102313379,2.48281236 0.0106370001,1.38405432 C0.123260933,0.28529629 1.1055375,-0.513800461 2.20402891,-0.401182659 C3.30284676,-0.288564857 4.10231346,0.693658233 3.98936308,1.79241627" fill="#E4E6EF" transform="translate(60 60.411765)"/>
    <g transform="translate(92 65)">
      <mask id="fu33qko9n__v23k3ez7gh" fill="#fff">
        <use xlink:href="#fu33qko9n__9egfjyr3gg"/>
      </mask>
      <path d="M3.94246556,2.17958798 C3.83110375,3.25070791 2.86296408,4.02970423 1.77960035,3.91991921 C0.696236611,3.80981597 -0.0916642875,2.85261788 0.0193756675,1.78149795 C0.130737478,0.710378024 1.09887714,-0.0686182891 2.18224088,0.0411667305 C3.26528276,0.151269968 4.05350551,1.10846805 3.94246556,2.17958798" fill="#E4E6EF" mask="url(#fu33qko9n__v23k3ez7gh)"/>
    </g>
    <path fill="#E4E6EF" d="M13.5096795 8.58823529L13.4662919 8.56256188 2 1.72715701 2.09126354 1.58823529 13.5144671 8.398252 25.0845899 2.2260771 25.1225915 2.24034011 35 5.93531545 34.9371628 6.08735914 25.0974566 2.4066468z" transform="translate(60 60.411765)"/>
    <g>
      <g transform="translate(99.041187)">
        <path d="M73.573865,17.6824742 L51.9882079,17.6824742 C51.4025802,17.6824742 50.9278351,18.1608107 50.9278351,18.7508687 L50.9278351,49.1458011 L70.2111575,49.1458011 C70.2111575,52.4088558 72.980498,54.6889877 76.2243554,54.6721649 C79.4125431,54.6560455 82.0206186,51.9329751 82.0206186,48.7211142 L82.0206186,26.1512811 L76.3922477,26.1512811 C75.4944654,26.1512811 73.573865,24.17119 73.573865,23.2670612 L73.573865,17.6824742 Z" fill="#E4EBF7" fill-rule="nonzero"/>
        <path d="M70.6911738,49.3113402 L48.2474227,49.3113402 C48.2474227,52.1161888 50.3829799,54.144007 53.1848058,54.5933482 L54.1712064,54.6721649 L76.6597938,54.6293298 C73.3885309,54.6293298 70.6077781,52.2292737 70.6911738,49.3113402 Z" fill="#253369" fill-rule="nonzero"/>
        <rect fill="#A3B5D6" fill-rule="nonzero" x="55.2164948" y="20.3628866" width="5.89690722" height="5.89690722" rx="2.16"/>
        <rect fill="#A3B5D6" fill-rule="nonzero" x="55.2164948" y="28.9402062" width="21.443299" height="1.60824742" rx=".80412371"/>
        <rect fill="#A3B5D6" fill-rule="nonzero" x="55.2164948" y="33.228866" width="21.443299" height="1.60824742" rx=".80412371"/>
        <rect fill="#A3B5D6" fill-rule="nonzero" x="55.2164948" y="37.5175258" width="21.443299" height="1.60824742" rx=".80412371"/>
        <path d="M73.9793814,24.6515464 L73.9793814,25.8612875 C73.9793814,26.1212456 74.0793252,26.3694742 74.2553257,26.5463242 C74.4313262,26.7231742 74.6674253,26.8126578 74.9068888,26.793272 L82.556701,26.1772718 L73.9793814,24.6515464 Z" fill="#BABFD8" fill-rule="nonzero" opacity=".6"/>
        <path d="M78.4180662,21.971134 L73.9793814,17.6824742 L73.9909905,25.9019209 C73.9909905,26.0995686 74.1509154,26.2597938 74.3481928,26.2597938 L82.556701,26.2597938 L78.4180662,21.971134 Z" fill="#F2F5F9" fill-rule="nonzero"/>
        <path fill="#A3B5D6" d="M1.90579026 70.7546392L0 68.8488583 15.2488489 53.6 17.1546392 55.5058651z"/>
        <mask id="fu33qko9n__4sdv4frs4j" fill="#fff">
          <use xlink:href="#fu33qko9n__adnqyh0v2i"/>
        </mask>
        <path d="M31.0975831,57.0604072 C21.6525766,57.0604072 13.9960243,49.4037711 13.9960243,39.9588484 C13.9960243,30.5139258 21.6525766,22.8572896 31.0975831,22.8572896 C40.542422,22.8572896 48.1991419,30.5139258 48.1991419,39.9588484 C48.1991419,49.4037711 40.542422,57.0604072 31.0975831,57.0604072 M31.0975831,17.1567701 C18.504297,17.1567701 8.29550475,27.3655623 8.29550475,39.9588484 C8.29550475,52.5520507 18.504297,62.7609268 31.0975831,62.7609268 C43.6907854,62.7609268 53.8996615,52.5520507 53.8996615,39.9588484 C53.8996615,27.3655623 43.6907854,17.1567701 31.0975831,17.1567701" fill="#99A7C7" mask="url(#fu33qko9n__4sdv4frs4j)"/>
        <path d="M19.0081224,39.9588149 C19.0081224,33.2820813 24.4207657,27.869438 31.0975831,27.869438 C37.7743167,27.869438 43.1869601,33.2820813 43.1869601,39.9588149 C43.1869601,46.6356323 37.7743167,52.0482757 31.0975831,52.0482757 C24.4207657,52.0482757 19.0081224,46.6356323 19.0081224,39.9588149 Z" fill="#CED7EC" mask="url(#fu33qko9n__4sdv4frs4j)"/>
        <path d="M31.0975831,46.6653421 C27.3935867,46.6653421 24.3910895,43.662761 24.3910895,39.9588484 C24.3910895,36.2549358 27.3935867,33.2523548 31.0975831,33.2523548 C34.8014957,33.2523548 37.8040768,36.2549358 37.8040768,39.9588484 C37.8040768,43.662761 34.8014957,46.6653421 31.0975831,46.6653421" fill="#FFF" mask="url(#fu33qko9n__4sdv4frs4j)"/>
        <path d="M-6.14433892,77.2007369 C-7.19194332,76.1531094 -7.19193627,74.4545919 -6.14432318,73.4069731 L5.28525001,61.9773369 C6.33286755,60.9297136 8.03139587,60.9297089 9.07901918,61.9773265 C9.07902092,61.9773282 9.07902266,61.97733 9.0790244,61.9773317 C10.1266477,63.024955 10.1266477,64.723488 9.0790244,65.7711113 L-2.35062217,77.2007579 C-3.39822234,78.2483581 -5.0967178,78.2483581 -6.14431796,77.2007579 C-6.14432495,77.2007509 -6.14433193,77.2007439 -6.14433892,77.2007369 Z" fill="#393D65" mask="url(#fu33qko9n__4sdv4frs4j)"/>
        <path d="M5.75894321,38.5896907 L2.81834003,38.5896907 C2.44762537,38.5896907 2.1443299,38.2888422 2.1443299,37.9211985 L2.1443299,34.9695592 C2.1443299,34.6018795 2.44762537,34.3010309 2.81834003,34.3010309 L5.75894321,34.3010309 C6.12965787,34.3010309 6.43298969,34.6018795 6.43298969,34.9695592 L6.43298969,37.9211985 C6.43298969,38.2888422 6.12965787,38.5896907 5.75894321,38.5896907" fill="#A3B5D6" transform="rotate(-90 4.28866 36.445361)"/>
        <path d="M44.1730959,13.6618557 L41.6000681,13.6618557 C41.2756928,13.6618557 41.0103093,13.3610071 41.0103093,12.9933634 L41.0103093,10.0417242 C41.0103093,9.67404442 41.2756928,9.37319588 41.6000681,9.37319588 L44.1730959,9.37319588 C44.4974713,9.37319588 44.7628866,9.67404442 44.7628866,10.0417242 L44.7628866,12.9933634 C44.7628866,13.3610071 44.4974713,13.6618557 44.1730959,13.6618557" fill="#CED7EC" transform="rotate(-90 42.886598 11.517526)"/>
        <path d="M45.742909,73.971134 L39.4941272,73.971134 C38.7063586,73.971134 38.0618557,73.3318309 38.0618557,72.550588 L38.0618557,66.2783546 C38.0618557,65.4970351 38.7063586,64.857732 39.4941272,64.857732 L45.742909,64.857732 C46.5306776,64.857732 47.1752577,65.4970351 47.1752577,66.2783546 L47.1752577,72.550588 C47.1752577,73.3318309 46.5306776,73.971134 45.742909,73.971134" fill="#DCE4FE" transform="rotate(-90 42.618557 69.414433)"/>
        <mask id="fu33qko9n__mkjl7fycal" fill="#fff">
          <use xlink:href="#fu33qko9n__y1chn7d61k"/>
        </mask>
        <path d="M81.9787028,-2.98458076e-06 C74.6016016,-2.98458076e-06 68.6213029,5.98634979 68.6213029,13.370919 C68.6213029,20.7554583 74.6016016,26.741841 81.9787028,26.741841 C89.355804,26.741841 95.3361028,20.7554583 95.3361028,13.370919 C95.3361028,5.98634979 89.355804,-2.98458076e-06 81.9787028,-2.98458076e-06" fill="#2E78FF" mask="url(#fu33qko9n__mkjl7fycal)"/>
        <path d="M85.1326831,8.12471538 C85.8353479,8.75595422 86.1956996,9.62169157 86.1956996,10.7038409 C86.1956996,11.5875752 85.961468,12.327035 85.529052,12.9041634 C85.366855,13.1025485 84.8624045,13.5715156 83.9975724,14.3109455 C83.6732381,14.5995247 83.4209979,14.9061605 83.2588307,15.2307933 C83.0606462,15.5915098 82.9705434,15.9882799 82.9705434,16.4391904 L82.9705434,16.8671793 C82.9705434,17.0459855 82.8257289,17.1909466 82.6471333,17.1909466 L81.3660752,17.1909466 C81.1874796,17.1909466 81.0426651,17.0459855 81.0426651,16.8671793 L81.0426651,16.4391904 C81.0426651,15.771868 81.1508064,15.1947098 81.3850379,14.7257724 C81.6372781,14.2208112 82.3219343,13.4813216 83.4390065,12.4893663 L83.7453323,12.1467066 C84.069607,11.7318499 84.231804,11.2989961 84.231804,10.8300588 C84.231804,10.19882 84.0515984,9.71185576 83.7092852,9.35110948 C83.3489037,8.99042289 82.8444531,8.81006467 82.1957844,8.81006467 C81.3850379,8.81006467 80.7904547,9.0625602 80.4301031,9.56758112 C80.148256,9.94375768 79.9888915,10.4697602 79.9519797,11.1218911 C79.9423195,11.2924599 79.7999797,11.4252141 79.6293151,11.4252141 L78.3657289,11.4252141 C78.1812,11.4252141 78.0328076,11.2707322 78.0424679,11.0862851 C78.1030234,9.93083445 78.4799227,9.01432938 79.1869108,8.32310047 C79.9436314,7.54758699 80.9886094,7.16881384 82.3039257,7.16881384 C83.4750536,7.16881384 84.41195,7.47541983 85.1326831,8.12471538" fill="#FFF" mask="url(#fu33qko9n__mkjl7fycal)"/>
        <path d="M82.1641411,20.1274966 L81.6870911,20.1274966 C81.291885,20.1274966 80.9715161,19.8068034 80.9715161,19.4111972 L80.9715161,18.9336642 C80.9715161,18.5380581 81.291885,18.2173648 81.6870911,18.2173648 L82.1641411,18.2173648 C82.5593472,18.2173648 82.8797161,18.5380581 82.8797161,18.9336642 L82.8797161,19.4111972 C82.8797161,19.8068034 82.5593472,20.1274966 82.1641411,20.1274966" fill="#FFF" mask="url(#fu33qko9n__mkjl7fycal)"/>
      </g>
    </g>
  </g>
</svg>
