<?xml version="1.0" encoding="UTF-8"?>
<svg width="20px" height="17px" viewBox="0 0 20 17" version="1.1" xmlns="http://www.w3.org/2000/svg" xmlns:xlink="http://www.w3.org/1999/xlink">
    <title>编组</title>
    <g id="页面-1" stroke="none" stroke-width="1" fill="none" fill-rule="evenodd">
        <g id="默认海南门户备份-6" transform="translate(-209.000000, -871.000000)" fill-rule="nonzero">
            <g id="编组" transform="translate(209.000000, 871.000000)">
                <path d="M15.0856757,0 L0.908378417,0 C0.667439513,0 0.436348246,0.0950395321 0.265978706,0.264394022 C0.0956091651,0.433748512 0,0.663462953 0,0.902966359 L0,16.0970336 C0,16.336537 0.0956091651,16.5662515 0.265978706,16.735606 C0.436348246,16.9049605 0.667439513,17 0.908378417,17 L19.0916216,17 C19.3325137,17 19.563564,16.9049973 19.7339257,16.7357009 C19.9042875,16.5664046 20,16.3367592 20,16.0973023 L20,4.40871093 L15.0856757,0.000268703216 L15.0856757,0 Z" id="路径" fill="#2695F9"></path>
                <polygon id="路径" fill="#FFFFFF" points="8.67243246 11.8210408 10.1262162 6.54590136 10.152973 6.54590136 11.5978378 11.8210408 12.4094595 11.8210408 14.2378378 5.49087348 13.4172973 5.49087348 12.017027 10.801476 11.9813514 10.801476 10.5364865 5.49087348 9.74270272 5.49087348 8.28891895 10.801476 8.25324327 10.801476 6.852973 5.49087348 6.03243247 5.49087348 7.86081084 11.8210408"></polygon>
                <path d="M15.9986487,4.43101996 C15.7570053,4.43215291 15.5248567,4.33756964 15.3535313,4.16817245 C15.1822058,3.99877525 15.0858167,3.76851838 15.0856757,3.52831206 L15.0856757,4.00499847e-08 L20,4.40897959 L15.9986487,4.43101996 Z" id="路径" fill="#ACD9FF"></path>
            </g>
        </g>
    </g>
</svg>