<?xml version="1.0" encoding="UTF-8"?>
<svg width="20px" height="17px" viewBox="0 0 20 17" version="1.1" xmlns="http://www.w3.org/2000/svg" xmlns:xlink="http://www.w3.org/1999/xlink">
    <title>编组</title>
    <g id="页面-1" stroke="none" stroke-width="1" fill="none" fill-rule="evenodd">
        <g id="默认海南门户备份-6" transform="translate(-209.000000, -815.000000)" fill-rule="nonzero">
            <g id="编组" transform="translate(209.000000, 815.000000)">
                <path d="M15.0856757,0 L0.908378417,0 C0.667439513,0 0.436348246,0.0950395321 0.265978706,0.264394022 C0.0956091651,0.433748512 0,0.663462953 0,0.902966359 L0,16.0970336 C0,16.336537 0.0956091651,16.5662515 0.265978706,16.735606 C0.436348246,16.9049605 0.667439513,17 0.908378417,17 L19.0916216,17 C19.3325137,17 19.563564,16.9049973 19.7339257,16.7357009 C19.9042875,16.5664046 20,16.3367592 20,16.0973023 L20,4.40871093 L15.0856757,0.000268703216 L15.0856757,0 Z" id="路径" fill="#FA4E4E"></path>
                <path d="M15.9986487,4.43101996 C15.7570053,4.43215291 15.5248567,4.33756964 15.3535313,4.16817245 C15.1822058,3.99877525 15.0858167,3.76851838 15.0856757,3.52831206 L15.0856757,4.00499847e-08 L20,4.40897959 L15.9986487,4.43101996 Z" id="路径" fill="#FFA4A4"></path>
                <path d="M13.3108108,13.6946758 C12.2632433,13.6946758 11.3318919,11.9306541 10.832973,10.7869684 C9.98067146,10.4324876 9.10245813,10.1430208 8.20594596,9.92107717 C7.42405407,10.4272326 6.11054056,11.1789434 5.09594597,11.1789434 C4.52837841,11.2205857 4.00837841,10.8664918 3.84891896,10.329709 C3.73118895,10.0246641 3.77481107,9.6812958 3.96513517,9.41492168 C4.23135138,9.05545458 4.78000003,8.87572102 5.6110811,8.87572104 C6.44243245,8.89613921 7.2683784,9.01139435 8.07243247,9.21879988 C8.70204799,8.78610366 9.2969824,8.30555451 9.85189191,7.78146878 C9.60243246,6.63832041 9.33648651,4.79262609 10.0181081,3.94285445 C10.3785072,3.52438735 10.9667014,3.38002351 11.4816216,3.58365601 C11.963639,3.67905791 12.3535215,4.03077442 12.4956757,4.49844338 C12.7786487,5.60935254 11.4816216,7.11169937 10.6,7.99424752 C10.7972212,8.77975811 11.0528798,9.54961781 11.3648649,10.2974699 C12.6283784,10.8525215 14.1254054,11.6692479 14.2913514,12.567647 C14.3560209,12.8804924 14.2483243,13.2039091 14.0086487,13.4166127 C13.817084,13.5894496 13.569433,13.6881296 13.3108108,13.6946758 L13.3108108,13.6946758 Z M11.7643243,11.2117199 C12.3964865,12.4695861 12.9951352,13.0574142 13.3108108,13.0574142 C13.3924325,13.052041 13.4694595,13.0171152 13.5267568,12.959622 C13.642973,12.8454415 13.642973,12.7635001 13.6267568,12.6984844 C13.5602703,12.3715252 13.0283784,11.8325932 11.7645946,11.2117199 L11.7643243,11.2117199 Z M5.61189192,9.52937085 C4.79729734,9.52937085 4.56432437,9.72549267 4.49783786,9.80743397 C4.43724676,9.91245076 4.43121136,10.040039 4.48162165,10.1502442 C4.53135138,10.346366 4.66459462,10.5424878 5.09648651,10.5424878 C5.88330704,10.4485509 6.63598324,10.1683821 7.29135137,9.72549267 C6.7392898,9.60592391 6.17679992,9.54023817 5.61189192,9.52937085 L5.61189192,9.52937085 Z M8.90405408,9.43157861 C9.43648653,9.57853563 9.98513516,9.75826919 10.5002703,9.95439101 C10.3224624,9.48282956 10.1671543,9.00318505 10.0348649,8.51705991 C9.66530104,8.83057999 9.28844211,9.13550222 8.90459461,9.43157861 L8.90405408,9.43157861 L8.90405408,9.43157861 Z M10.9662162,4.15563319 C10.7992891,4.15087608 10.6395741,4.22331191 10.5337838,4.351755 C10.1845946,4.77623783 10.1510811,5.85437047 10.4175676,7.22641718 C11.4316216,6.1646728 11.9808108,5.18460104 11.8478378,4.66232598 C11.8313514,4.58038467 11.7643243,4.35202366 11.2991892,4.22118623 C11.1932873,4.17886743 11.0803504,4.15663334 10.9662162,4.15563319 L10.9662162,4.15563319 Z" id="形状" fill="#FFFFFF"></path>
            </g>
        </g>
    </g>
</svg>