<?xml version="1.0" encoding="UTF-8"?>
<svg width="20px" height="17px" viewBox="0 0 20 17" version="1.1" xmlns="http://www.w3.org/2000/svg" xmlns:xlink="http://www.w3.org/1999/xlink">
    <title>编组</title>
    <g id="页面-1" stroke="none" stroke-width="1" fill="none" fill-rule="evenodd">
        <g id="默认海南门户备份-6" transform="translate(-209.000000, -918.000000)" fill-rule="nonzero">
            <g id="编组" transform="translate(209.000000, 918.000000)">
                <path d="M15.0856757,0 L0.908378417,0 C0.667439513,0 0.436348246,0.0950395321 0.265978706,0.264394022 C0.0956091651,0.433748512 0,0.663462953 0,0.902966359 L0,16.0970336 C0,16.336537 0.0956091651,16.5662515 0.265978706,16.735606 C0.436348246,16.9049605 0.667439513,17 0.908378417,17 L19.0916216,17 C19.3325137,17 19.563564,16.9049973 19.7339257,16.7357009 C19.9042875,16.5664046 20,16.3367592 20,16.0973023 L20,4.40871093 L15.0856757,0.000268703216 L15.0856757,0 Z" id="路径" fill="#4CB050"></path>
                <polygon id="路径" fill="#FFFFFF" points="8.10486489 11.8210408 9.99540543 9.10811196 11.8956757 11.8210408 12.7964865 11.8210408 10.4324325 8.53183621 12.6262162 5.49087348 11.7254054 5.49087348 9.99540543 7.95556047 8.27378381 5.49087348 7.37324327 5.49087348 9.54945947 8.53183621 7.20378381 11.8210408"></polygon>
                <path d="M15.9986487,4.43101996 C15.7570053,4.43215291 15.5248567,4.33756964 15.3535313,4.16817245 C15.1822058,3.99877525 15.0858167,3.76851838 15.0856757,3.52831206 L15.0856757,4.00499847e-08 L20,4.40897959 L15.9986487,4.43101996 Z" id="路径" fill="#A7D1A7"></path>
            </g>
        </g>
    </g>
</svg>