<svg xmlns="http://www.w3.org/2000/svg" xmlns:xlink="http://www.w3.org/1999/xlink" viewBox="0 0 286 81" class="design-iconfont">
  <defs>
    <path id="4qfba6mc9__hc2buphn2a" d="M0 0.0444001634L13.8742551 0.0444001634 13.8742551 3.68915812 0 3.68915812z"/>
    <path id="4qfba6mc9__bs29b0od7c" d="M0.00743274568 0.00955316391L13.8955172 0.00955316391 13.8955172 3.6393734 0.00743274568 3.6393734z"/>
    <path id="4qfba6mc9__4ave3h49ke" d="M0.0166985157 0.022084483L3.99230523 0.022084483 3.99230523 3.9974962 0.0166985157 3.9974962z"/>
    <path id="4qfba6mc9__i63h5u012g" d="M0.00894188212 0.0308508642L3.95270054 0.0308508642 3.95270054 3.93023507 0.00894188212 3.93023507z"/>
  </defs>
  <g fill="none" fill-rule="evenodd">
    <path stroke="#EDEEF0" stroke-width=".67651584" stroke-linecap="square" d="M0 80.3383457L284.648074 80.3383457" transform="translate(1)"/>
    <g transform="translate(103 10.141371)">
      <path stroke="#707070" stroke-width="1.40611338" transform="rotate(-57.59 24.24773 67.634271)" d="M23.2580969 66.6538001L25.2568525 66.6343109 25.2373633 68.6147412 23.2386077 68.6342305z"/>
      <path fill="#C1C1C1" fill-rule="nonzero" d="M44.7851303 5.30646074L44.7851303 18.0965087 57.3021533 18.0965087"/>
      <path d="M57.0102918,0.0912076442 L19.1896746,0.0912076442 C18.0066236,0.0912076442 17.0475714,1.07124892 17.0475714,2.2801911 L17.0475714,62.021198 C17.0475714,63.2301402 18.0066236,64.2101815 19.1896746,64.2101815 L66.2266908,64.2101815 C67.4097418,64.2101815 68.368794,63.2301402 68.368794,62.021198 L68.368794,11.7876759 L57.0102918,0.0912076442 Z" fill="#A3B5D6" fill-rule="nonzero"/>
      <path d="M57.0102918,3.22224842e-14 L57.0281426,9.60325286 C57.0281426,10.812195 57.9871949,11.7922363 59.1702459,11.7922363 L68.368794,11.7922363" fill="#393D65" fill-rule="nonzero"/>
      <path d="M39.8761438,5.94491425 L2.14210321,5.94491425 C0.959052273,5.94491425 0,6.92495553 0,8.13389771 L0,67.8749046 C0,69.0838468 0.959052273,70.0638881 2.14210321,70.0638881 L49.2683738,70.0638881 C50.4514247,70.0638881 51.410477,69.0838468 51.410477,67.8749046 L51.410477,18.7349622 L43.1785529,18.7349622 C41.9959334,18.7349622 39.8761438,17.7553921 39.8761438,16.5459787 L39.8761438,5.94491425 Z" fill="#E4EBF7" fill-rule="nonzero"/>
      <rect fill="#393D65" fill-rule="nonzero" x="5.62212838" y="11.7758189" width="11.4245504" height="11.6745785" rx="2.53761244"/>
      <rect fill="#A3B5D6" fill-rule="nonzero" x="5.62212838" y="29.2876866" width="39.9859265" height="2.91864461" rx=".92147052"/>
      <rect fill="#A3B5D6" fill-rule="nonzero" x="5.62212838" y="38.0335876" width="39.9859265" height="2.91864461" rx=".92147052"/>
      <rect fill="#A3B5D6" fill-rule="nonzero" x="5.62212838" y="46.7895215" width="39.9859265" height="2.91864461" rx=".92147052"/>
      <path d="M39.8761438,5.94491425 L39.8761438,16.5459787 C39.8761438,17.7549209 40.835196,18.7349622 42.018247,18.7349622 L51.410477,18.7349622" fill="#FFF" fill-rule="nonzero"/>
    </g>
    <path fill="#FFF" d="M7.90039398 8.7663987H24.30890458V22.0983135H7.90039398z" transform="translate(152.567376)"/>
    <path d="M15,1.875 C7.75195313,1.875 1.875,7.75195313 1.875,15 C1.875,22.2480469 7.75195313,28.125 15,28.125 C22.2480469,28.125 28.125,22.2480469 28.125,15 C28.125,7.75195313 22.2480469,1.875 15,1.875 Z M20.6689453,10.7138672 L14.4990234,19.2685547 C14.1269531,19.7871094 13.3564453,19.7871094 12.984375,19.2685547 L9.33105469,14.2060547 C9.21972656,14.0507812 9.33105469,13.8339844 9.52148438,13.8339844 L10.8955078,13.8339844 C11.1943359,13.8339844 11.4785156,13.9775391 11.6542969,14.2236328 L13.7402344,17.1181641 L18.3457031,10.7314453 C18.5214844,10.4882812 18.8027344,10.3417969 19.1044922,10.3417969 L20.4785156,10.3417969 C20.6689453,10.3417969 20.7802734,10.5585937 20.6689453,10.7138672 Z" fill="#53C419" transform="translate(152.950355)"/>
    <g opacity=".83758836">
      <g transform="translate(191 4)">
        <mask id="4qfba6mc9__467xmxogpb" fill="#fff">
          <use xlink:href="#4qfba6mc9__hc2buphn2a"/>
        </mask>
        <path d="M1.63304855,3.68915812 L12.2428043,3.6841332 C13.1441582,3.68367641 13.8746647,2.86829951 13.8742551,1.86335319 C13.8738453,0.858406873 13.1429291,0.0439435617 12.2415752,0.0444001634 L1.63140973,0.0494250871 C0.730055751,0.0498818808 -0.000450676988,0.865258779 -4.11428897e-05,1.8702051 C0.000368735718,2.87515141 0.73128487,3.68961472 1.63304855,3.68915812" fill="#E4E6EF" mask="url(#4qfba6mc9__467xmxogpb)"/>
      </g>
      <g transform="translate(195 10)">
        <mask id="4qfba6mc9__ukxt6wzh2d" fill="#fff">
          <use xlink:href="#4qfba6mc9__bs29b0od7c"/>
        </mask>
        <path d="M1.64214539,3.63937359 L12.262445,3.63436926 C13.1646947,3.63391434 13.8959271,2.82187915 13.8955172,1.82105146 C13.8951069,0.82022378 13.1634644,0.0090984335 12.2612146,0.00955316391 L1.64091505,0.0145574936 C0.738255201,0.0150124153 0.00702280459,0.826592683 0.00743274568,1.82787529 C0.00784303162,2.82870297 0.739895655,3.63982832 1.64214539,3.63937359" fill="#E4E6EF" mask="url(#4qfba6mc9__ukxt6wzh2d)"/>
      </g>
      <path d="M6.70588235,3.00300978 L6.70588235,3.00225734 L11.7047883,3 C10.9020895,3.00037622 10.2521989,3.67193378 10.2525636,4.49962378 C10.2525636,5.32731377 10.9035483,5.99811889 11.7058824,5.99774266 L6.70697644,6 L6.70697644,5.99962378 C7.50384005,5.99209932 8.14716609,5.32392777 8.14680139,4.50037622 C8.14643669,3.6772009 7.50238126,3.00978179 6.70588235,3.00300978" fill="#E4E6EF" transform="translate(191.294118 4)"/>
    </g>
    <g>
      <g transform="translate(65 68)">
        <mask id="4qfba6mc9__vcy2tzcegf" fill="#fff">
          <use xlink:href="#4qfba6mc9__4ave3h49ke"/>
        </mask>
        <path d="M3.98177062,2.21263016 C3.86972188,3.30454241 2.89369983,4.09907681 1.80175314,3.9870316 C0.7094541,3.87498639 -0.085105364,2.89899513 0.0272957309,1.80673055 C0.139344471,0.714818305 1.11536652,-0.0797160961 2.20731321,0.0326814533 C3.29925989,0.144726659 4.09381936,1.12071792 3.98177062,2.21263016" fill="#E4E6EF" mask="url(#4qfba6mc9__vcy2tzcegf)"/>
      </g>
      <path d="M26.9894015,2.79229107 C26.8766735,3.89093763 25.8947344,4.69037229 24.7961678,4.57763605 C23.6972468,4.46489981 22.8978704,3.48253465 23.0105984,2.38388808 C23.1236809,1.28524152 24.10562,0.485806864 25.2041866,0.598897621 C26.3027531,0.711279344 27.1021296,1.6936445 26.9894015,2.79229107" fill="#E4E6EF" transform="translate(54 61.411765)"/>
      <path d="M3.98936308,1.79241627 C3.87673915,2.8911743 2.89446258,3.69027105 1.79564473,3.57765325 C0.697153324,3.46470902 -0.102313379,2.48281236 0.0106370001,1.38405432 C0.123260933,0.28529629 1.1055375,-0.513800461 2.20402891,-0.401182659 C3.30284676,-0.288564857 4.10231346,0.693658233 3.98936308,1.79241627" fill="#E4E6EF" transform="translate(54 61.411765)"/>
      <g transform="translate(86 66)">
        <mask id="4qfba6mc9__82ejkm0uwh" fill="#fff">
          <use xlink:href="#4qfba6mc9__i63h5u012g"/>
        </mask>
        <path d="M3.94246556,2.17958798 C3.83110375,3.25070791 2.86296408,4.02970423 1.77960035,3.91991921 C0.696236611,3.80981597 -0.0916642875,2.85261788 0.0193756675,1.78149795 C0.130737478,0.710378024 1.09887714,-0.0686182891 2.18224088,0.0411667305 C3.26528276,0.151269968 4.05350551,1.10846805 3.94246556,2.17958798" fill="#E4E6EF" mask="url(#4qfba6mc9__82ejkm0uwh)"/>
      </g>
      <path fill="#E4E6EF" d="M13.5096795 8.58823529L13.4662919 8.56256188 2 1.72715701 2.09126354 1.58823529 13.5144671 8.398252 25.0845899 2.2260771 25.1225915 2.24034011 35 5.93531545 34.9371628 6.08735914 25.0974566 2.4066468z" transform="translate(54 61.411765)"/>
    </g>
  </g>
</svg>
