<?xml version="1.0" encoding="UTF-8"?>
<svg width="36px" height="36px" viewBox="0 0 36 36" version="1.1" xmlns="http://www.w3.org/2000/svg" xmlns:xlink="http://www.w3.org/1999/xlink">
    <title>编组 21</title>
    <g id="页面-1" stroke="none" stroke-width="1" fill="none" fill-rule="evenodd">
        <g id="默认海南门户备份-6" transform="translate(-1376.000000, -393.000000)">
            <g id="编组-21" transform="translate(1376.000000, 393.000000)">
                <rect id="矩形备份-14" fill="#EFF5FF" x="0" y="0" width="36" height="36" rx="4"></rect>
                <g id="编组" transform="translate(10.000000, 9.000000)" fill="#5A82ED" fill-rule="nonzero">
                    <path d="M13.6965456,3.22194094 C13.6921501,2.33403908 12.973477,1.61536602 12.0855752,1.61097048 L9.30758517,1.61097048 C8.86363422,0.630761996 7.8878213,0 6.8109106,0 C5.73399991,0 4.75818698,0.630761973 4.31423606,1.61097048 L1.61097046,1.61097048 C0.723068598,1.61536605 0.0043955392,2.33403908 0,3.22194094 L0,15.7097093 C0.00439556238,16.5976111 0.723068598,17.3162842 1.61097046,17.3206797 L5.841691,17.3206797 L6.3647619,14.9800473 L13.6943478,7.65046139 L13.6943478,3.22194094 L13.6965456,3.22194094 Z M6.81310838,1.73184819 C7.0878305,1.73184819 7.34936595,1.84393483 7.54057254,2.04173474 C7.72958135,2.23953465 7.83287686,2.50546567 7.82188798,2.78018778 C7.83067908,3.34721422 7.38013482,3.81314292 6.81530616,3.82632959 C6.24827973,3.80874736 5.79772746,3.34501646 5.79772746,2.77799 C5.79553769,2.21096357 6.24608195,1.74723264 6.81310838,1.73184819 Z M10.0746093,9.26362964 L2.01975697,9.26362964 L2.01975697,8.05485235 L10.0768071,8.05485235 L10.0768071,9.26362964 L10.0746093,9.26362964 Z M11.6855798,6.84607503 L2.01536141,6.84607503 L2.01536141,5.63729774 L11.6811842,5.63729774 L11.6855798,6.84607503 L11.6855798,6.84607503 Z M15.5932271,10.3097714 L14.6262053,9.3427496 C14.5119209,9.191103 14.3339009,9.10099413 14.1426944,9.10099413 C13.9514878,9.10099413 13.7734678,9.19110297 13.6591834,9.3427496 L13.377868,9.62406503 L7.57793475,15.2635606 L6.97354611,17.6811152 L6.97354611,17.7602351 C6.97354611,17.7997951 6.97354611,17.8393551 7.01310608,17.8393551 C7.05046829,17.938255 7.14717048,18.0041883 7.25486155,17.9997928 L7.33617929,17.9997928 L9.75373387,17.2349664 L15.4327894,11.5954709 L15.7141048,11.3141555 C15.8921247,10.9866867 15.8415759,10.580098 15.5888315,10.3075737 L15.5932271,10.3075737 L15.5932271,10.3097714 Z" id="形状"></path>
                </g>
            </g>
        </g>
    </g>
</svg>