<?xml version="1.0" encoding="UTF-8"?>
<svg width="20px" height="16px" viewBox="0 0 20 16" version="1.1" xmlns="http://www.w3.org/2000/svg" xmlns:xlink="http://www.w3.org/1999/xlink">
    <title>编组 38</title>
    <defs>
        <linearGradient x1="50%" y1="0%" x2="50%" y2="100%" id="linearGradient-1">
            <stop stop-color="#FFFFFF" offset="0%"></stop>
            <stop stop-color="#FFFFFF" stop-opacity="0" offset="100%"></stop>
        </linearGradient>
    </defs>
    <g id="页面-1" stroke="none" stroke-width="1" fill="none" fill-rule="evenodd">
        <g id="默认海南门户备份-6" transform="translate(-1261.000000, -497.000000)">
            <g id="编组-38" transform="translate(1261.000000, 497.000000)">
                <circle id="椭圆形备份-30" fill="#2199F7" cx="13.5" cy="8.5" r="6.5"></circle>
                <circle id="椭圆形备份-31" stroke="url(#linearGradient-1)" stroke-width="0.5" fill-opacity="0.3" fill="#FFFFFF" cx="8" cy="8" r="7.75"></circle>
                <g id="编组备份-8" transform="translate(5.000000, 4.000000)" fill="#FFFFFF" fill-rule="nonzero">
                    <path d="M3,0 C1.34579464,0 0,1.37252607 0,3.0595888 C0,4.18177757 0.61115297,5.22027038 1.5688628,5.75254876 L1.56889784,7.04860745 C1.56889784,7.5732105 2.03863676,8 2.61600666,8 L3.38397582,8 C3.96133695,8 4.43108463,7.5732105 4.43108463,7.04860745 L4.43108463,5.75252196 C5.38882951,5.22023464 6,4.18175076 6,3.0595888 C6,1.37252607 4.65420536,0 3,0 Z M3.43814614,7.43501881 L2.56181006,7.43501881 C2.42130717,7.43501881 2.30739443,7.31884343 2.30739443,7.17554974 C2.30739443,7.03225605 2.42130717,6.91608067 2.56181006,6.91608067 L3.43814614,6.91608067 C3.57864903,6.91608067 3.69256177,7.03225605 3.69256177,7.17554974 C3.69256177,7.31884343 3.57864903,7.43501881 3.43814614,7.43501881 Z M3.43814614,6.59879196 L2.56181006,6.59879196 C2.42130717,6.59879196 2.30739443,6.48261658 2.30739443,6.33932289 C2.30739443,6.1960292 2.42130717,6.07985382 2.56181006,6.07985382 L3.43814614,6.07985382 C3.57864903,6.07985382 3.69256177,6.1960292 3.69256177,6.33932289 C3.69256177,6.48261658 3.57864903,6.59879196 3.43814614,6.59879196 Z M4.83351148,3.29283308 C4.69300859,3.29283308 4.57909585,3.1766577 4.57909585,3.03336401 C4.57910991,2.93971645 4.57125452,2.84623993 4.55561591,2.75396052 C4.46302786,2.20997704 4.10910286,1.75637303 3.60892763,1.54060598 C3.47948134,1.4847789 3.41894165,1.33253214 3.47369021,1.20055934 C3.52843,1.06858654 3.67779919,1.00688903 3.80711407,1.0626357 C4.46738216,1.34744498 4.93464167,1.94654074 5.05695637,2.66523406 C5.07759215,2.78681383 5.08795379,2.90997617 5.08792716,3.03336401 C5.08792716,3.17664877 4.97400561,3.29283308 4.83351148,3.29283308 L4.83351148,3.29283308 Z" id="形状"></path>
                </g>
            </g>
        </g>
    </g>
</svg>