<?xml version="1.0" encoding="UTF-8"?>
<svg width="36px" height="36px" viewBox="0 0 36 36" version="1.1" xmlns="http://www.w3.org/2000/svg" xmlns:xlink="http://www.w3.org/1999/xlink">
    <title>编组 29</title>
    <g id="页面-1" stroke="none" stroke-width="1" fill="none" fill-rule="evenodd">
        <g id="默认海南门户备份-6" transform="translate(-1285.000000, -677.000000)">
            <g id="编组-29" transform="translate(1285.000000, 677.000000)">
                <rect id="矩形备份-17" fill="#EFF5FF" x="0" y="0" width="36" height="36" rx="4"></rect>
                <g id="编组" transform="translate(10.000000, 9.000000)" fill="#5C86ED" fill-rule="nonzero">
                    <path d="M10.246542,0 L6.3000323,0 C5.81597371,0 5.42897686,0.43068401 5.42897686,0.963033857 C5.42897686,1.49661286 5.81668205,1.9285677 6.3000323,1.9285677 L10.2709585,1.9285677 C10.7306631,1.9285677 11.1182433,1.49661286 11.1182433,0.963033857 C11.1183474,0.430663162 10.7312256,0 10.246542,0 L10.246542,0 L10.246542,0 Z M14.5317989,0.642765623 L12.566544,0.642765623 C12.586523,0.748285603 12.5980646,0.855013912 12.5980646,0.963033857 C12.5986688,1.77367311 12.010611,2.5715 11.3110959,2.5715 L5.27345729,2.5715 C4.53727575,2.5715 3.94842635,1.77367313 3.94842635,0.963033857 C3.94913467,0.855013892 3.96067625,0.748285603 3.98065526,0.642765623 L1.99165054,0.642765623 C0.39280933,0.642765623 -2.89314259e-16,1.54919577 -2.89314259e-16,2.85678935 L-2.89314259e-16,15.8091844 C-2.89314259e-16,17.2138397 0.562495435,18 2.11237872,18 L14.4109457,18 C15.9608498,18 16.7142813,17.3836092 16.7142813,15.8098928 L16.7142813,2.8567685 C16.7142813,1.54929993 16.0090161,0.642765623 14.5318198,0.642765623 L14.5318198,0.642765623 L14.5318198,0.642765623 L14.5317989,0.642765623 Z M12.5126695,13.4312453 L3.96646787,13.4312453 C3.65147041,13.4312453 3.33701464,13.0448318 3.33701464,12.7293344 C3.33701464,12.4148994 3.60315833,12.1455474 3.91817661,12.1455474 L12.4399826,12.1455474 C12.7548967,12.1455474 13.0210195,12.3903788 13.0449151,12.7293344 C13.0449151,13.044936 12.8275836,13.4312453 12.5126695,13.4312453 L12.5126695,13.4312453 L12.5126695,13.4312453 Z M12.5473984,10.0017314 L4.00109259,10.0017314 C3.68605348,10.0017314 3.48547178,9.66302586 3.48547178,9.34729924 C3.48547178,9.03167679 3.75174046,8.71603352 4.06663374,8.71603352 L12.5884397,8.71603352 C12.9034788,8.71603352 13.1696016,9.00846865 13.1933723,9.34729924 C13.1933723,9.6629217 12.8617291,10.0017314 12.5473984,10.0017314 L12.5473984,10.0017314 L12.5473984,10.0017314 Z M12.5473984,6.47946834 L4.00109259,6.47946834 C3.68605348,6.47946834 3.48547178,6.14063775 3.48547178,5.82503613 C3.48547178,5.50939286 3.75174046,5.19377041 4.06663374,5.19377041 L12.5884397,5.19377041 C12.9034788,5.19377041 13.1696016,5.48633055 13.1933723,5.82503613 C13.1933723,6.14063775 12.8617291,6.47946834 12.5473984,6.47946834 L12.5473984,6.47946834 L12.5473984,6.47946834 Z" id="形状"></path>
                </g>
            </g>
        </g>
    </g>
</svg>