<?xml version="1.0" encoding="UTF-8"?>
<svg width="36px" height="36px" viewBox="0 0 36 36" version="1.1" xmlns="http://www.w3.org/2000/svg" xmlns:xlink="http://www.w3.org/1999/xlink">
    <title>编组 9</title>
    <g id="页面-1" stroke="none" stroke-width="1" fill="none" fill-rule="evenodd">
        <g id="默认海南门户备份-6" transform="translate(-1376.000000, -819.000000)">
            <g id="编组-9" transform="translate(1376.000000, 819.000000)">
                <rect id="矩形备份-20" fill="#EFF5FF" x="0" y="0" width="36" height="36" rx="4"></rect>
                <g id="编组" transform="translate(8.000000, 8.000000)" fill="#5D86F2" fill-rule="nonzero">
                    <path d="M10,20 C4.48533334,20 0,15.5146667 0,10 C0,4.48533334 4.48533334,0 10,0 C15.5146667,0 20,4.48533334 20,10 C20,15.5146667 15.5146667,20 10,20 Z M10,1.2 C5.14666666,1.2 1.2,5.14666666 1.2,10 C1.2,14.8533333 5.14666666,18.8 10,18.8 C14.8533333,18.8 18.8,14.8533333 18.8,10 C18.8,5.14666666 14.8533333,1.2 10,1.2 Z" id="形状"></path>
                    <path d="M10,16.4746667 C13.576,16.4746667 16.472,13.576 16.472,10.0026667 C16.472,6.42933334 13.576,3.528 10,3.528 C6.424,3.528 3.528,6.42666668 3.528,10 C3.528,13.5733333 6.424,16.4746667 10,16.4746667 Z M9.592,10.6053333 C8.36,10.1653333 7.54666666,9.48266668 7.54666666,8.40533334 C7.54666666,7.38933334 8.23733332,6.57066668 9.41066666,6.288 L9.41066666,5.41333334 L10.592,5.41333334 L10.592,6.18666668 C11.3146667,6.21333334 11.848,6.36533334 12.2453333,6.55466668 L11.872,7.896 C11.5866667,7.752 11.048,7.544 10.3306667,7.544 C9.60533332,7.544 9.25333332,7.88533334 9.25333334,8.25866668 C9.25333334,8.73066668 9.66133334,8.94133334 10.6293333,9.304 C11.9386667,9.78933334 12.544,10.4693333 12.544,11.5146667 C12.544,12.5253333 11.92,13.4106667 10.592,13.7093333 L10.592,14.5813333 L9.41066666,14.5813333 L9.41066666,13.8106667 C8.616,13.7866667 7.85333332,13.568 7.45866666,13.352 L7.8,11.976 C8.24,12.208 8.944,12.4373333 9.65866666,12.4373333 C10.4293333,12.4373333 10.8346667,12.1173333 10.8346667,11.6346667 C10.8373333,11.1786667 10.4853333,10.9146667 9.592,10.6053333 L9.592,10.6053333 Z" id="形状"></path>
                </g>
            </g>
        </g>
    </g>
</svg>