<?xml version="1.0" encoding="UTF-8"?>
<svg width="36px" height="36px" viewBox="0 0 36 36" version="1.1" xmlns="http://www.w3.org/2000/svg" xmlns:xlink="http://www.w3.org/1999/xlink">
    <title>编组 36</title>
    <g id="页面-1" stroke="none" stroke-width="1" fill="none" fill-rule="evenodd">
        <g id="默认海南门户备份-6" transform="translate(-1559.000000, -677.000000)">
            <g id="编组-36" transform="translate(1559.000000, 677.000000)">
                <rect id="矩形备份-17" fill="#EFF5FF" x="0" y="0" width="36" height="36" rx="4"></rect>
                <g id="编组" transform="translate(9.000000, 9.000000)" fill="#5C86ED" fill-rule="nonzero">
                    <path d="M14.0625,10.125 C11.8878788,10.125 10.125,11.8878788 10.125,14.0625 C10.125,16.2371212 11.8878788,18 14.0625,18 C16.2371212,18 18,16.2371212 18,14.0625 C18,11.8878788 16.2371212,10.125 14.0625,10.125 Z M15.613875,14.625 L13.5,14.625 L13.5,12.5145 C13.5,12.2038398 13.7518398,11.952 14.0625,11.952 C14.3731602,11.952 14.625,12.2038398 14.625,12.5145 L14.625,13.5 L15.613875,13.5 C15.9245352,13.5 16.176375,13.7518398 16.176375,14.0625 C16.176375,14.3731602 15.9245352,14.625 15.613875,14.625 L15.613875,14.625 Z M17.296875,2.664 C17.296875,2.04267966 16.7931953,1.539 16.171875,1.539 L12.718125,1.539 L12.718125,0.5625 C12.718125,0.251839828 12.4662852,0 12.155625,0 C11.8449648,0 11.593125,0.251839828 11.593125,0.5625 L11.593125,1.539 L5.33475,1.539 L5.33475,0.5625 C5.33474999,0.251839837 5.08291016,0 4.77225,0 C4.46158984,0 4.20975001,0.251839837 4.20975,0.5625 L4.20975,1.539 L1.125,1.539 C0.503679656,1.539 0,2.04267966 0,2.664 L0,5.488875 L17.296875,5.488875 L17.296875,2.664 Z" id="形状"></path>
                    <path d="M14.0625,9 C15.2483339,9.00461843 16.3942076,9.42908991 17.296875,10.198125 L17.296875,6.616125 L0,6.616125 L0,15.723 C0,16.0213686 0.118526445,16.3075167 0.329504871,16.5184951 C0.540483297,16.7294736 0.826631449,16.848 1.125,16.848 L9.83925,16.848 C9.29196493,16.0220926 9.00006891,15.0532795 9,14.0625 C9,11.2665585 11.2665585,9 14.0625,9 Z" id="路径"></path>
                </g>
            </g>
        </g>
    </g>
</svg>