<?xml version="1.0" encoding="UTF-8"?>
<svg width="20px" height="16px" viewBox="0 0 20 16" version="1.1" xmlns="http://www.w3.org/2000/svg" xmlns:xlink="http://www.w3.org/1999/xlink">
    <title>编组 33</title>
    <defs>
        <linearGradient x1="50%" y1="0%" x2="50%" y2="100%" id="linearGradient-1">
            <stop stop-color="#FFFFFF" offset="0%"></stop>
            <stop stop-color="#FFFFFF" stop-opacity="0" offset="100%"></stop>
        </linearGradient>
    </defs>
    <g id="页面-1" stroke="none" stroke-width="1" fill="none" fill-rule="evenodd">
        <g id="默认海南门户备份-6" transform="translate(-1261.000000, -355.000000)">
            <g id="编组-33" transform="translate(1261.000000, 355.000000)">
                <circle id="椭圆形备份-27" fill="#4C6BFF" cx="13.5" cy="8.5" r="6.5"></circle>
                <circle id="椭圆形备份-29" stroke="url(#linearGradient-1)" stroke-width="0.5" fill-opacity="0.3" fill="#FFFFFF" cx="8" cy="8" r="7.75"></circle>
                <g id="编组备份-7" transform="translate(3.000000, 4.000000)" fill="#FFFFFF" fill-rule="nonzero">
                    <path d="M2.86363636,5.17600818 L2.04545455,5.17600818 L1.99413905,5.17926307 C1.79242576,5.20504121 1.63636364,5.38079029 1.63636364,5.59376146 C1.63636364,5.79564039 1.77659263,5.96407355 1.96300846,6.00302749 L2.04545455,6.01151475 L2.86363636,6.01151475 L2.91495186,6.00825986 C3.11666515,5.98248172 3.27272727,5.80673264 3.27272727,5.59376146 C3.27272727,5.3630427 3.08957103,5.17600818 2.86363636,5.17600818 Z M6.13636364,5.17600818 L5.31818182,5.17600818 L5.26686632,5.17926307 C5.06515303,5.20504121 4.90909091,5.38079029 4.90909091,5.59376146 C4.90909091,5.79564039 5.0493199,5.96407355 5.23573573,6.00302749 L5.31818182,6.01151475 L6.13636364,6.01151475 L6.18767913,6.00825986 C6.38939242,5.98248172 6.54545455,5.80673264 6.54545455,5.59376146 C6.54545455,5.3630427 6.36229831,5.17600818 6.13636364,5.17600818 Z M6.13636364,3.38488482 L5.31818182,3.38488482 L5.26686632,3.38813971 C5.06515303,3.41391785 4.90909091,3.58966694 4.90909091,3.80263811 C4.90909091,4.00451703 5.0493199,4.1729502 5.23573573,4.21190413 L5.31818182,4.22039139 L6.13636364,4.22039139 L6.18767913,4.2171365 C6.38939242,4.19135837 6.54545455,4.01560928 6.54545455,3.80263811 C6.54545455,3.57191934 6.36229831,3.38488482 6.13636364,3.38488482 Z M6.13636364,1.59376146 L5.31818182,1.59376146 L5.26686632,1.59701636 C5.06515303,1.62279449 4.90909091,1.79854358 4.90909091,2.01151475 C4.90909091,2.21339367 5.0493199,2.38182684 5.23573573,2.42078077 L5.31818182,2.42926804 L6.13636364,2.42926804 L6.18767913,2.42601315 C6.38939242,2.40023501 6.54545455,2.22448592 6.54545455,2.01151475 C6.54545455,1.78079598 6.36229831,1.59376146 6.13636364,1.59376146 Z M3.68181818,0.444886364 C3.68181818,0.19918241 3.88100059,-1.76909521e-16 4.12670455,0 L7.32784091,0 C7.57354486,1.03760671e-17 7.77272727,0.19918241 7.77272727,0.444886364 L7.77272727,7.11763448 L7.768,7.164 L8.59090909,7.16449343 C8.81684376,7.16449343 9,7.35152794 9,7.58224671 C9,7.79521789 8.84393788,7.97096697 8.64222459,7.99674511 L8.59090909,8 L0.409090909,8 C0.183156239,8 0,7.81296548 0,7.58224671 C0,7.36927554 0.156062121,7.19352646 0.357775415,7.16774832 L0.409090909,7.16449343 L1.1275038,7.16511433 C1.12584875,7.14951426 1.125,7.13367348 1.125,7.11763448 L1.125,3.52959881 C1.125,3.28389486 1.32418241,3.08471245 1.56988636,3.08471245 L3.23693182,3.08471245 C3.48263577,3.08471245 3.68181818,3.28389486 3.68181818,3.52959881 L3.68181818,0.444886364 Z" id="形状结合"></path>
                </g>
            </g>
        </g>
    </g>
</svg>