<?xml version="1.0" encoding="UTF-8"?>
<svg width="36px" height="36px" viewBox="0 0 36 36" version="1.1" xmlns="http://www.w3.org/2000/svg" xmlns:xlink="http://www.w3.org/1999/xlink">
    <title>编组 27</title>
    <g id="页面-1" stroke="none" stroke-width="1" fill="none" fill-rule="evenodd">
        <g id="默认海南门户备份-6" transform="translate(-1559.000000, -393.000000)">
            <g id="编组-27" transform="translate(1559.000000, 393.000000)">
                <rect id="矩形备份-14" fill="#EFF5FF" x="0" y="0" width="36" height="36" rx="4"></rect>
                <g id="编组" transform="translate(7.000000, 11.000000)" fill="#5A82ED" fill-rule="nonzero">
                    <g id="编组-23">
                        <path d="M18.3961422,13.5674431 L3.60385784,13.5674431 C3.27865758,13.5674431 3.01498481,13.8310699 3.01498481,14.1563162 C3.01498481,14.4815625 3.27863456,14.7451892 3.60385784,14.7451892 L18.3961652,14.7451892 C18.7214115,14.7451892 18.9850152,14.4815625 18.9850152,14.1563162 C18.9850152,13.8310699 18.7213885,13.5674431 18.3961422,13.5674431 Z" id="路径"></path>
                        <path d="M20.4689485,0 L1.53105147,0 C0.686838229,0 0,0.68681521 0,1.53105147 L0,10.1049167 C0,10.9491529 0.68681521,11.6359681 1.53105147,11.6359681 L20.4689485,11.6359681 C21.3131618,11.6359681 22,10.9491529 22,10.1049167 L22,1.53105147 C22,0.686838229 21.3131618,0 20.4689485,0 Z M3.01498481,10.4582451 C3.01498481,10.4582451 3.01498481,8.8487248 3.01498481,7.86660989 C3.0779164,7.26813829 4.02492864,7.08399319 4.18826535,7.86660989 L4.19270785,10.4582451 L3.01498481,10.4582451 L3.01498481,10.4582451 Z M5.93112973,10.4659101 C5.93112973,10.4659101 5.93112973,9.68504281 5.93112973,8.70292791 C5.99406132,8.10443329 6.94109658,7.92031121 7.10443329,8.70292791 L7.10887579,10.4659101 L5.93112973,10.4659101 Z M8.86315717,10.4659101 C8.86315717,10.4659101 8.86315717,9.68504281 8.86315717,8.70292791 C8.92608876,8.10443329 9.87312402,7.92031121 10.0364607,8.70292791 L10.0409032,10.4659101 L8.86315717,10.4659101 Z M11.7941258,10.4659101 C11.7941258,10.4659101 11.7941258,9.68504281 11.7941258,8.70292791 C11.8570574,8.10443329 12.8040926,7.92031121 12.9674293,8.70292791 L12.9718718,10.4659101 L11.7941258,10.4659101 Z M14.7020993,10.4659101 C14.7020993,10.4659101 14.7020993,9.68504281 14.7020993,8.70292791 C14.7650308,8.10443329 15.7120661,7.92031121 15.8754028,8.70292791 L15.8798453,10.4659101 L14.7020993,10.4659101 L14.7020993,10.4659101 Z M17.6183362,10.4582451 C17.6183362,10.4582451 17.6183362,8.8487248 17.6183362,7.86660989 C17.6812678,7.26813829 18.6283031,7.08399319 18.7916398,7.86660989 L18.7960823,10.4582451 L17.6183362,10.4582451 Z" id="形状"></path>
                    </g>
                </g>
            </g>
        </g>
    </g>
</svg>