<?xml version="1.0" encoding="UTF-8"?>
<svg width="20px" height="16px" viewBox="0 0 20 16" version="1.1" xmlns="http://www.w3.org/2000/svg" xmlns:xlink="http://www.w3.org/1999/xlink">
    <title>编组 41</title>
    <defs>
        <linearGradient x1="50%" y1="0%" x2="50%" y2="100%" id="linearGradient-1">
            <stop stop-color="#FFFFFF" offset="0%"></stop>
            <stop stop-color="#FFFFFF" stop-opacity="0" offset="100%"></stop>
        </linearGradient>
    </defs>
    <g id="页面-1" stroke="none" stroke-width="1" fill="none" fill-rule="evenodd">
        <g id="默认海南门户备份-6" transform="translate(-1261.000000, -781.000000)">
            <g id="编组-41" transform="translate(1261.000000, 781.000000)">
                <circle id="椭圆形备份-23" fill="#2199F7" cx="13.5" cy="8.5" r="6.5"></circle>
                <circle id="椭圆形备份-24" stroke="url(#linearGradient-1)" stroke-width="0.5" fill-opacity="0.3" fill="#FFFFFF" cx="8" cy="8" r="7.75"></circle>
                <g id="编组" transform="translate(3.000000, 4.000000)" fill="#FFFFFF" fill-rule="nonzero">
                    <path d="M8.80231115,3.76910846 C8.92779626,3.88861809 8.99352656,4.02007869 8.99950204,4.16349024 C9.00547752,4.3069018 8.95767367,4.42641143 8.85609049,4.52201914 C8.74255634,4.62360232 8.61109574,4.67140618 8.4617087,4.66543069 C8.31232166,4.65945521 8.19281203,4.61762684 8.10317981,4.53994558 C8.0733024,4.51604365 7.98217631,4.43238691 7.82980153,4.28897536 C7.67742675,4.1455638 7.49517456,3.9737687 7.28304497,3.77359007 C7.07091537,3.57341144 6.84384707,3.3582941 6.60184007,3.12823806 C6.35983307,2.89818202 6.1312709,2.68157082 5.91615356,2.47840444 C5.70103622,2.27523807 5.5157963,2.09896137 5.36043378,1.94957433 C5.20507126,1.80018729 5.10647581,1.70756732 5.06464744,1.67171443 C4.87343203,1.49842547 4.68520436,1.41476873 4.49996443,1.42074421 C4.3147245,1.42671969 4.13247232,1.51037643 3.95320787,1.67171443 C3.89345305,1.72549377 3.78141277,1.82857083 3.61708703,1.9809456 C3.45276129,2.13332038 3.26303975,2.31109096 3.04792241,2.51425733 C2.83280508,2.71742371 2.60573678,2.9295533 2.36671752,3.15064612 C2.12769825,3.37173894 1.90660544,3.57789305 1.70343906,3.76910846 C1.50027269,3.96032387 1.32548986,4.12315574 1.17909056,4.25760408 C1.03269126,4.39205241 0.944552906,4.47122754 0.914675498,4.49512947 C0.825043275,4.56683525 0.705533644,4.60567588 0.556146605,4.61165136 C0.406759566,4.61762684 0.278286712,4.57281073 0.170728044,4.47720302 C0.0512184133,4.36964436 -0.00554866144,4.23967763 0.000426820111,4.08730285 C0.00640230167,3.93492807 0.0571938949,3.81392457 0.1528016,3.72429235 C0.188654489,3.68843946 0.299200898,3.58386853 0.484440826,3.41057957 C0.669680754,3.2372906 0.890773572,3.03113649 1.14771928,2.79211723 C1.40466499,2.55309796 1.68103101,2.29615226 1.97681734,2.02128011 C2.27260368,1.74640795 2.54747583,1.48946225 2.8014338,1.25044298 C3.05539177,1.01142372 3.27349684,0.806763479 3.45574903,0.636462255 C3.63800122,0.46616103 3.74406601,0.366071714 3.77394342,0.336194307 C4.00101172,0.115101489 4.24600647,0.00306120981 4.50892765,7.34690355e-05 C4.77184884,-0.00291427174 4.9959294,0.0852240812 5.18116933,0.264488528 C5.21702222,0.294365936 5.29171574,0.364577844 5.40524989,0.475124253 C5.51878404,0.585670662 5.65771398,0.720118997 5.82203973,0.878469258 C5.98636547,1.03681952 6.17011153,1.2145901 6.3732779,1.41178099 C6.57644427,1.60897188 6.78259839,1.80765664 6.99174024,2.00783527 C7.20088209,2.2080139 7.40554234,2.40669867 7.60572097,2.60388956 C7.8058996,2.80108045 7.98964566,2.97885102 8.15695914,3.13720129 C8.32427263,3.29555155 8.46469644,3.43149375 8.57823059,3.5450279 L8.80231115,3.76910846 Z M3.95320787,2.46944122 C4.10259491,2.33200515 4.28185935,2.2588055 4.49100121,2.24984227 C4.70014306,2.24087905 4.88837073,2.3140787 5.05568422,2.46944122 C5.07361066,2.48736767 5.12739,2.53815926 5.21702222,2.621816 L5.55762467,2.93552878 C5.68908526,3.0610139 5.83697843,3.20143771 6.00130417,3.35680023 C6.16562992,3.51216275 6.33443727,3.66752527 6.50772623,3.82288779 C6.9080835,4.19336765 7.35624462,4.60866362 7.85220958,5.0687757 L7.85220958,6.77178794 C7.85220958,6.90324854 7.80291186,7.01977043 7.70431642,7.12135361 C7.60572097,7.2229368 7.47276651,7.27671613 7.30545302,7.28269162 L5.611404,7.28269162 L5.611404,5.89339215 C5.611404,5.69620126 5.51878404,5.59760582 5.33354411,5.59760582 L3.62156864,5.59760582 C3.51998546,5.59760582 3.44977355,5.62748322 3.41093292,5.68723804 C3.37209229,5.74699286 3.35267197,5.81571089 3.35267197,5.89339215 C3.35267197,5.92924504 3.3511781,6.02037114 3.34819036,6.16677043 C3.34520262,6.31316973 3.34370875,6.47002612 3.34370875,6.63733961 L3.34370875,7.28269162 L1.70343906,7.28269162 C1.5301501,7.28269162 1.39271402,7.24385099 1.29113084,7.16616972 C1.18954765,7.08848846 1.13875606,6.97794206 1.13875606,6.8345305 L1.13875606,5.05084925 C1.62874554,4.60268814 2.07391892,4.19635539 2.47427618,3.83185102 C2.64158967,3.6764885 2.80890315,3.52261985 2.97621663,3.37024507 C3.14353012,3.21787029 3.2959049,3.07894034 3.43334097,2.95345523 C3.57077705,2.82797012 3.68580507,2.72190532 3.77842503,2.63526084 C3.871045,2.54861635 3.92930594,2.49334315 3.95320787,2.46944122 L3.95320787,2.46944122 Z" id="形状"></path>
                </g>
            </g>
        </g>
    </g>
</svg>