<?xml version="1.0" encoding="UTF-8"?>
<svg width="123px" height="28px" viewBox="0 0 123 28" version="1.1" xmlns="http://www.w3.org/2000/svg" xmlns:xlink="http://www.w3.org/1999/xlink">
    <title>编组 44</title>
    <defs>
        <linearGradient x1="99.3618109%" y1="47.0221868%" x2="0%" y2="53.0163127%" id="linearGradient-1">
            <stop stop-color="#7ADEF3" offset="0%"></stop>
            <stop stop-color="#1DCAF1" offset="100%"></stop>
        </linearGradient>
    </defs>
    <g id="页面-1" stroke="none" stroke-width="1" fill="none" fill-rule="evenodd">
        <g id="默认海南门户备份-6" transform="translate(-1251.000000, -633.000000)">
            <g id="编组-44" transform="translate(1251.000000, 633.000000)">
                <path d="M104,0 C108.386867,0 112.053534,0 115,0 C117.946466,0 120.389035,2.66666667 122.327705,8 L104,8 L104,0 Z" id="矩形备份-31" fill="#12BDE2"></path>
                <path d="M8,0 L114,0 L114,0 C110.444141,0.643166015 107.7424,2.64588783 105.894775,6.00816545 C103.123338,11.0515819 100.953403,18.3728281 97.1675288,22.4179291 C94.9669588,24.769177 92.2966594,26.4848751 89.1566306,27.5650233 C88.3197113,27.8528181 87.4408526,27.9998356 86.5558331,28 L8,28 C3.581722,28 5.41083001e-16,24.418278 0,20 L0,8 C-5.41083001e-16,3.581722 3.581722,8.11624501e-16 8,0 Z" id="矩形备份-33" fill="url(#linearGradient-1)"></path>
            </g>
        </g>
    </g>
</svg>