<?xml version="1.0" encoding="UTF-8"?>
<svg width="20px" height="16px" viewBox="0 0 20 16" version="1.1" xmlns="http://www.w3.org/2000/svg" xmlns:xlink="http://www.w3.org/1999/xlink">
    <title>编组 39</title>
    <defs>
        <linearGradient x1="50%" y1="0%" x2="50%" y2="100%" id="linearGradient-1">
            <stop stop-color="#FFFFFF" offset="0%"></stop>
            <stop stop-color="#FFFFFF" stop-opacity="0" offset="100%"></stop>
        </linearGradient>
    </defs>
    <g id="页面-1" stroke="none" stroke-width="1" fill="none" fill-rule="evenodd">
        <g id="默认海南门户备份-6" transform="translate(-1260.000000, -639.000000)">
            <g id="编组-39" transform="translate(1260.000000, 639.000000)">
                <circle id="椭圆形备份-32" fill="#00B4DA" cx="13.5" cy="8.5" r="6.5"></circle>
                <circle id="椭圆形备份-33" stroke="url(#linearGradient-1)" stroke-width="0.5" fill-opacity="0.3" fill="#FFFFFF" cx="8" cy="8" r="7.75"></circle>
                <g id="编组" transform="translate(3.000000, 4.000000)" fill="#FFFFFF" fill-rule="nonzero">
                    <path d="M10,6.72 L8.75124875,6.72 L8.75124875,7.33866667 C8.75124875,7.52355556 8.69130869,7.68 8.57142857,7.808 C8.45154845,7.936 8.30502831,8 8.13186813,8 L7.5024975,8 C7.32933733,8 7.18281718,7.936 7.06293706,7.808 C6.94305694,7.68 6.88311688,7.52355556 6.88311688,7.33866667 L6.88311688,6.72 L3.13686314,6.72 L3.13686314,7.33866667 C3.13686314,7.52355556 3.07525808,7.68 2.95204795,7.808 C2.82883783,7.936 2.68065268,8 2.50749251,8 L1.87812188,8 C1.7049617,8 1.55844156,7.936 1.43856144,7.808 C1.31868132,7.68 1.25874126,7.52355556 1.25874126,7.33866667 L1.25874126,6.72 L0,6.72 L0,4.61866667 C0,4.22044444 0.118215118,3.91111111 0.354645355,3.69066667 C0.591075591,3.47022222 0.889110889,3.34577778 1.24875125,3.31733333 C1.27539128,3.19644444 1.31701632,3.03288889 1.37362637,2.82666667 C1.43023643,2.62044444 1.49017649,2.39822222 1.55344655,2.16 C1.61671662,1.92177778 1.68331668,1.68355556 1.75324675,1.44533333 C1.82317682,1.20711111 1.88811189,0.995555556 1.94805195,0.810666667 C2.12787213,0.270222222 2.5041625,0 3.07692308,0 L6.95304695,0 C7.21278721,0 7.42590743,0.0764444444 7.59240759,0.229333333 C7.75890776,0.382222222 7.87545788,0.561777778 7.94205794,0.768 L8.15184815,1.42933333 C8.22510823,1.67111111 8.3000333,1.91288889 8.37662338,2.15466667 C8.45321345,2.39644444 8.52480852,2.62222222 8.59140859,2.832 C8.65800866,3.04177778 8.71128871,3.20355556 8.75124875,3.31733333 C9.11088911,3.35288889 9.40892441,3.48088889 9.64535465,3.70133333 C9.88178488,3.92177778 10,4.22755556 10,4.61866667 L10,6.72 Z M1.22877123,5.344 C1.4019314,5.344 1.55011655,5.28 1.67332667,5.152 C1.7965368,5.024 1.85814186,4.86755556 1.85814186,4.68266667 C1.85814186,4.49777778 1.7965368,4.33955556 1.67332667,4.208 C1.55011655,4.07644444 1.4019314,4.01066667 1.22877123,4.01066667 C1.05561106,4.01066667 0.909090909,4.07644444 0.789210789,4.208 C0.669330669,4.33955556 0.609390609,4.49777778 0.609390609,4.68266667 C0.609390609,4.86755556 0.669330669,5.024 0.789210789,5.152 C0.909090909,5.28 1.05561106,5.344 1.22877123,5.344 Z M7.74225774,3.328 L7.37262737,1.376 L2.61738262,1.376 L2.28771229,3.328 L7.74225774,3.328 Z M8.74125874,5.344 C8.91441891,5.344 9.06426906,5.27644444 9.19080919,5.14133333 C9.31734932,5.00622222 9.38061938,4.84622222 9.38061938,4.66133333 C9.38061938,4.46933333 9.31734932,4.30755556 9.19080919,4.176 C9.06426906,4.04444444 8.91441891,3.97866667 8.74125874,3.97866667 C8.56143856,3.97866667 8.40992341,4.04444444 8.28671329,4.176 C8.16350316,4.30755556 8.1018981,4.46933333 8.1018981,4.66133333 C8.1018981,4.84622222 8.16350316,5.00622222 8.28671329,5.14133333 C8.40992341,5.27644444 8.56143856,5.344 8.74125874,5.344 Z" id="形状"></path>
                </g>
            </g>
        </g>
    </g>
</svg>