<?xml version="1.0" encoding="UTF-8"?>
<svg width="36px" height="36px" viewBox="0 0 36 36" version="1.1" xmlns="http://www.w3.org/2000/svg" xmlns:xlink="http://www.w3.org/1999/xlink">
    <title>编组 31</title>
    <g id="页面-1" stroke="none" stroke-width="1" fill="none" fill-rule="evenodd">
        <g id="默认海南门户备份-6" transform="translate(-1467.000000, -677.000000)">
            <g id="编组-31" transform="translate(1467.000000, 677.000000)">
                <rect id="矩形备份-17" fill="#EFF5FF" x="0" y="0" width="36" height="36" rx="4"></rect>
                <g id="编组" transform="translate(7.000000, 8.000000)" fill="#5C86ED" fill-rule="nonzero">
                    <path d="M21.4490081,7.33572442 L12.4051436,0.47800492 C11.5796047,-0.159334973 10.4214054,-0.159334973 9.59586653,0.47800492 L0.553377106,7.33572442 C0.0886019504,7.68792537 -0.109408767,8.31889539 0.0597253875,8.9049904 C0.228859542,9.4938051 0.723886335,9.88816137 1.29179207,9.88816137 L2.47985638,9.88816137 L2.47435608,17.9602262 C2.47435608,19.0848215 3.39978117,20 4.53696772,20 L17.4612922,20 C18.5998539,20 19.5239039,19.0970601 19.5239039,17.988783 L19.5239039,9.88816137 L20.7064679,9.88816137 C21.2729986,9.88816137 21.7680253,9.4938051 21.9385346,8.9049904 C22.1104189,8.31889539 21.9137832,7.68792537 21.4490081,7.33572442 Z M15.1827939,12.5765832 C15.5300645,12.598786 15.8002467,12.8838086 15.8002467,13.227951 C15.8002467,13.5720934 15.5300645,13.857116 15.1827939,13.8793188 L11.6584782,13.8793188 L11.6584782,17.2789418 C11.6360269,17.6223672 11.347813,17.8895579 10.9998175,17.8895579 C10.651822,17.8895579 10.3636082,17.6223672 10.3411569,17.2789418 L10.3411569,13.8793188 L6.81821619,13.8793188 C6.47094565,13.857116 6.20076339,13.5720934 6.20076339,13.227951 C6.20076339,12.8838086 6.47094565,12.598786 6.81821619,12.5765832 L10.3425319,12.5765832 L10.3425319,10.9338854 L6.81821619,10.9338854 C6.47094565,10.9116827 6.20076339,10.6266601 6.20076339,10.2825176 C6.20076339,9.93837521 6.47094565,9.65335259 6.81821619,9.63114987 L9.51336206,9.63114987 L7.63363532,7.77087617 C7.39735071,7.51298765 7.40720633,7.11712975 7.65603809,6.87105313 C7.90486985,6.62497651 8.30515988,6.61523001 8.56593579,6.84889841 L11.0561956,9.31158531 L13.5464554,6.84889841 C13.8072313,6.61523001 14.2075213,6.62497651 14.4563531,6.87105313 C14.7051848,7.11712975 14.7150404,7.51298765 14.4787558,7.77087617 L12.5990291,9.62979002 L15.1855441,9.62979002 C15.5328146,9.65199274 15.8029969,9.93701536 15.8029969,10.2811578 C15.8029969,10.6253002 15.5328146,10.9103228 15.1855441,10.9325256 L11.6612283,10.9325256 L11.6612283,12.5752234 L15.1827939,12.5752234 L15.1827939,12.5765832 Z" id="形状"></path>
                </g>
            </g>
        </g>
    </g>
</svg>