<?xml version="1.0" encoding="UTF-8"?>
<svg width="36px" height="36px" viewBox="0 0 36 36" version="1.1" xmlns="http://www.w3.org/2000/svg" xmlns:xlink="http://www.w3.org/1999/xlink">
    <title>编组 32</title>
    <g id="页面-1" stroke="none" stroke-width="1" fill="none" fill-rule="evenodd">
        <g id="默认海南门户备份-6" transform="translate(-1285.000000, -961.000000)">
            <g id="编组-32" transform="translate(1285.000000, 961.000000)">
                <rect id="矩形备份-22" fill="#EFF5FF" x="0" y="0" width="36" height="36" rx="4"></rect>
                <g id="编组" transform="translate(10.000000, 10.000000)" fill="#5D86F2" fill-rule="nonzero">
                    <path d="M14.6863598,10.5426515 C14.5760961,10.6489283 14.2124191,10.6354021 14.2124191,10.6354021 C14.2124191,10.6354021 13.2451931,10.5291254 13.1039781,10.3957964 C12.9646975,10.2605351 12.8699094,9.27892461 12.8699094,9.27892461 C12.8699094,9.27892461 12.8428271,9.00453742 12.9821076,8.86927613 C13.1213881,8.73594714 14.15632,7.73114898 14.15632,7.73114898 C14.15632,7.73114898 14.2897972,7.58622616 14.096352,7.58622616 C13.4734584,7.58429386 12.2121957,7.59781999 11.6009088,8.19103737 L11.4751695,8.31277253 C10.7536189,9.01806355 10.7091265,10.0788985 11.2894621,10.8382941 L7.71072581,13.976356 C7.42636136,14.2526755 7.05301212,15.0043419 7.71072581,15.6439345 C8.3684395,16.2835272 9.14222031,15.920254 9.42658476,15.6439345 C9.42658476,15.6439345 12.5603971,12.1368025 12.6551852,12.1812455 L12.6609886,12.1754486 C13.4425072,12.7454783 14.5335381,12.7029676 15.2608921,11.9976766 L15.3866315,11.8759414 C15.9805083,11.3020471 15.9979183,10.0846955 15.9998528,9.47408733 C16.0037217,9.27506001 15.8567033,9.40065978 15.8567033,9.40065978 C15.8567033,9.40065978 14.7946892,10.4363748 14.6863598,10.5426515 Z M8.66441066,15.2864583 C8.33361936,15.2864583 8.06279608,15.0255972 8.06279608,14.7029024 C8.06279608,14.3802076 8.33168491,14.1193466 8.66441066,14.1193466 C8.99520196,14.1193466 9.26602524,14.3802076 9.26602524,14.7029024 C9.26602524,15.0255972 8.99713641,15.2864583 8.66441066,15.2864583 Z M6.7028763,8.79778088 C7.71652916,8.79778088 8.67408292,8.69730106 9.53491408,8.52339368 C10.082364,7.06257173 11.5215963,6.01526287 13.2123074,6.01526287 C13.2722754,6.01526287 13.3322434,6.02105979 13.3922114,6.0249244 C13.3960803,5.98434601 13.4057526,5.94376762 13.4057526,5.90318923 L13.4057526,3.68876866 C13.4057526,5.2867842 10.4054175,6.5833603 6.7028763,6.5833603 C3.00033511,6.5833603 0,5.28871651 0,3.68876866 L0,5.90318923 C0.00193445203,7.50120478 3.00226956,8.79778088 6.7028763,8.79778088 Z M6.7028763,5.78918329 C10.4054175,5.78918329 13.4057526,4.49453949 13.4057526,2.89459164 C13.4057526,1.29464379 10.4054175,0 6.7028763,0 C3.00033511,0 0,1.29464379 0,2.89459164 C0.00193445203,4.49453949 3.00226956,5.78918329 6.7028763,5.78918329 Z M6.7028763,11.8044462 C7.07622554,11.8044462 7.43796807,11.7889877 7.79197279,11.7638678 L9.316321,10.2856551 C9.3201899,10.2817905 9.3240588,10.2779259 9.32792771,10.2759936 C9.30858319,10.1214092 9.29891093,9.9687572 9.29891093,9.81417287 C9.29891093,9.66152084 9.31245209,9.51080111 9.32986216,9.36201369 C8.52319566,9.51080111 7.63528218,9.59389019 6.70481075,9.59389019 C3.00033511,9.59389019 0,8.2973141 0,6.69929855 L0,8.91371913 C0.00193445203,10.5078701 3.00226956,11.8044462 6.7028763,11.8044462 Z M0.00193445203,9.70403153 L0.00193445203,11.9165198 C0.00193445203,13.4391755 2.71983956,14.6835794 6.17090199,14.7995176 C6.0857861,14.0749036 6.21539439,13.2942527 6.59261253,12.9271149 L6.93694499,12.5928263 C6.85763246,12.5947586 6.78218883,12.5986232 6.7028763,12.5986232 C3.00226956,12.5986232 0.00193445203,11.3039794 0.00193445203,9.70403153 Z" id="形状"></path>
                </g>
            </g>
        </g>
    </g>
</svg>