<?xml version="1.0" encoding="UTF-8"?>
<svg width="36px" height="36px" viewBox="0 0 36 36" version="1.1" xmlns="http://www.w3.org/2000/svg" xmlns:xlink="http://www.w3.org/1999/xlink">
    <title>项目申报备份</title>
    <g id="页面-1" stroke="none" stroke-width="1" fill="none" fill-rule="evenodd">
        <g id="默认海南门户备份-6" transform="translate(-1285.000000, -535.000000)">
            <g id="项目申报备份" transform="translate(1285.000000, 535.000000)">
                <rect id="矩形备份-16" fill="#EFF5FF" x="0" y="0" width="36" height="36" rx="4"></rect>
                <g id="编组" transform="translate(10.000000, 9.000000)" fill-rule="nonzero">
                    <path d="M13.675648,0.837284571 C14.6004567,0.837284571 15.3502171,1.587045 15.3502171,2.51185371 L15.3502171,2.51185371 L15.3502171,17.0247863 L8.09375086,14.2921685 L0.837284571,17.0247863 L0.837284571,2.51185371 C0.837284571,1.587045 1.587045,0.837284571 2.51185371,0.837284571 L2.51185371,0.837284571 Z M4.1615276,3.01310808 C3.53021534,3.01310808 3.01835506,3.3497673 3.01835506,3.76499212 L3.01835506,10.4063283 C3.01835506,10.8216238 3.53010792,11.1582124 4.1615276,11.1582124 C4.79294727,11.1582124 5.30470013,10.8216238 5.30470013,10.4063283 L5.30470013,3.76499212 C5.30470013,3.3497673 4.79283985,3.01310808 4.1615276,3.01310808 Z" id="形状结合" fill="#5A82ED"></path>
                    <path d="M15.3501613,17.86209 C15.2493957,17.86209 15.1494569,17.8438896 15.0551581,17.808373 L8.09375086,15.186835 L1.13234365,17.808373 C0.875156797,17.9052183 0.58681908,17.8696892 0.360835038,17.7133072 C0.134850997,17.5569253 0,17.2996028 0,17.0247863 L0,2.51185371 C0,1.12681758 1.12681758,0 2.51185371,0 L13.675648,0 C15.0606841,0 16.1875017,1.12681758 16.1875017,2.51185371 L16.1875017,17.0247863 C16.1875017,17.2468576 16.0992804,17.4598327 15.942247,17.6168556 C15.7852136,17.7738785 15.5722327,17.86209 15.3501613,17.86209 Z M8.09375086,13.454884 C8.19372264,13.454884 8.29375023,13.472746 8.38880994,13.5085818 L14.5129326,15.8147984 L14.5129326,2.51185371 C14.5129326,2.050175 14.1373267,1.67456914 13.675648,1.67456914 L2.51185371,1.67456914 C2.050175,1.67456914 1.67456914,2.050175 1.67456914,2.51185371 L1.67456914,15.8147984 L7.79869177,13.5085818 C7.89300489,13.4730467 7.99296541,13.4548549 8.09375086,13.454884 L8.09375086,13.454884 Z" id="形状" fill="#5982EF"></path>
                    <path d="M0.83734039,17.8620709 C0.615269044,17.8620709 0.402288097,17.7738785 0.245254708,17.6168556 C0.0882213187,17.4598327 0,17.2468576 0,17.0247863 L0,2.51185371 C0,1.12681758 1.12681758,0 2.51185371,0 L13.675648,0 C15.0606841,0 16.1875017,1.12681758 16.1875017,2.51185371 L16.1839293,11.622682 C16.1837781,11.9734171 15.9650393,12.2868877 15.6358986,12.408055 L8.38590735,15.0768716 L1.13239947,17.8084288 C1.03806974,17.8438976 0.938118016,17.8620709 0.83734039,17.8620709 Z M2.51185371,1.67456914 C2.050175,1.67456914 1.67456914,2.050175 1.67456914,2.51185371 L1.67456914,15.8147984 L7.79869177,13.5085818 L7.80449695,13.5064607 L14.5095276,11.0382574 L14.5129326,2.5115188 C14.5129326,2.050175 14.1373267,1.67456914 13.675648,1.67456914 L2.51185371,1.67456914 L2.51185371,1.67456914 Z" id="形状" fill="#5A82ED"></path>
                </g>
            </g>
        </g>
    </g>
</svg>