<?xml version="1.0" encoding="UTF-8"?>
<svg width="36px" height="36px" viewBox="0 0 36 36" version="1.1" xmlns="http://www.w3.org/2000/svg" xmlns:xlink="http://www.w3.org/1999/xlink">
    <title>编组 15</title>
    <g id="页面-1" stroke="none" stroke-width="1" fill="none" fill-rule="evenodd">
        <g id="默认海南门户备份-6" transform="translate(-1650.000000, -677.000000)">
            <g id="编组-15" transform="translate(1650.000000, 677.000000)">
                <rect id="矩形备份-18" fill="#EFF5FF" x="0" y="0" width="36" height="36" rx="4"></rect>
                <g id="编组" transform="translate(9.000000, 9.000000)" fill="#5C86ED" fill-rule="nonzero">
                    <path d="M11.7473684,11.5105263 C11.5105263,11.0368421 11.368421,10.5157895 11.3684211,9.94736843 C11.3684211,8.10000001 12.8368421,6.63157896 14.6842105,6.63157894 C14.8263158,6.63157894 15.0157895,6.67894735 15.1578947,6.67894737 C15.3947368,6.72631579 15.631579,6.53684211 15.631579,6.3 L15.631579,1.89473684 C15.631579,0.85263158 14.7789474,0 13.7368421,0 L1.89473684,0 C0.85263158,0 0,0.85263158 0,1.89473684 L0,16.1052632 C0,17.1473684 0.85263158,18 1.89473684,18 L9.85263158,18 C9.99473684,18 10.0894737,17.8578947 10.0894737,17.7157895 C9.99473684,17.5263158 9.94736843,17.2894737 9.94736843,17.0526316 L9.94736843,16.1052632 C9.94736843,15.2526316 10.3736842,14.5421053 11.0368421,14.1157895 C11.4631579,13.831579 11.7947368,13.4526316 11.9368421,12.931579 C12.0789474,12.4578948 11.9842105,11.9368421 11.7473684,11.5105263 Z M10.231579,7.72105263 C10.231579,7.95789474 10.0894737,8.24210527 9.85263158,8.3368421 L8.81052632,8.90526315 L9.04736841,11.4631579 C9.09473683,12.1736842 8.52631577,12.7421053 7.81578948,12.7421053 C7.10526319,12.7421053 6.58421052,12.1736842 6.58421052,11.4631579 L6.82105264,8.90526315 L5.77894736,8.3368421 C5.54210525,8.19473683 5.4,7.95789472 5.4,7.72105263 L5.4,5.82631579 C5.4,5.58947368 5.54210527,5.30526315 5.77894736,5.21052631 L6.53684211,4.78421052 C6.67894737,4.68947367 6.86842105,4.83157893 6.86842105,4.97368421 L6.86842105,6.44210526 C6.86842105,7.01052631 7.34210525,7.38947369 7.91052631,7.34210525 C8.38421051,7.29473684 8.71578947,6.86842105 8.71578947,6.39473685 L8.71578947,4.97368421 C8.71578947,4.78421054 8.90526315,4.68947369 9.04736841,4.78421052 L9.80526317,5.21052631 C10.0421053,5.35263157 10.1842105,5.58947368 10.1842105,5.82631579 L10.1842105,7.72105263 L10.231579,7.72105263 Z M17.0526316,15.1578947 C16.7684211,15.1578947 16.531579,14.9684211 16.4368421,14.6842105 L15.631579,11.6052632 C16.3421053,11.2263158 16.7684211,10.3736842 16.531579,9.4736842 C16.3894737,8.90526315 15.9631579,8.38421051 15.3947368,8.19473683 C15.3,8.14736842 15.2526316,8.14736842 15.1578947,8.10000001 C15.0631579,8.10000001 15.0157895,8.05263157 14.9210526,8.05263157 L14.6842105,8.05263157 C14.5421053,8.05263157 14.4473684,8.05263157 14.3526316,8.10000001 L14.3052632,8.10000001 C14.2105263,8.10000001 14.1157895,8.14736842 14.0210526,8.19473683 C14.0210526,8.19473683 13.9736842,8.19473683 13.9736842,8.24210527 L13.6894737,8.38421053 L13.6421053,8.43157895 C13.5473684,8.47894736 13.4526316,8.57368421 13.4052632,8.62105262 C13.3105263,8.71578947 13.2631579,8.8105263 13.2157895,8.85789474 C13.2157895,8.85789474 13.2157895,8.90526315 13.168421,8.90526315 L13.0263158,9.18947368 L13.0263158,9.23684211 C12.9789474,9.33157896 12.9315789,9.42631579 12.931579,9.56842105 L12.931579,9.61578947 C12.7894737,9.71052632 12.7894737,9.85263158 12.7894737,9.94736843 C12.7894737,10.6578947 13.1684211,11.2736842 13.7368421,11.6052632 L12.931579,14.6842105 C12.8368421,14.9684211 12.6,15.1578947 12.3157895,15.1578947 C11.7947368,15.1578947 11.3684211,15.5842105 11.3684211,16.1052632 L11.3684211,17.0526316 C11.3684211,17.5736842 11.7947369,18 12.3157895,18 L17.0526316,18 C17.5736842,18 18,17.5736842 18,17.0526316 L18,16.1052632 C18,15.5842105 17.5736842,15.1578947 17.0526316,15.1578947 L17.0526316,15.1578947 Z" id="形状"></path>
                </g>
            </g>
        </g>
    </g>
</svg>