<?xml version="1.0" encoding="UTF-8"?>
<svg width="36px" height="36px" viewBox="0 0 36 36" version="1.1" xmlns="http://www.w3.org/2000/svg" xmlns:xlink="http://www.w3.org/1999/xlink">
    <title>编组 8</title>
    <g id="页面-1" stroke="none" stroke-width="1" fill="none" fill-rule="evenodd">
        <g id="默认海南门户备份-6" transform="translate(-1467.000000, -819.000000)">
            <g id="编组-8" transform="translate(1467.000000, 819.000000)">
                <rect id="矩形备份-21" fill="#EFF5FF" x="0" y="0" width="36" height="36" rx="4"></rect>
                <g id="编组" transform="translate(11.000000, 10.000000)" fill="#5D86F2" fill-rule="nonzero">
                    <path d="M13.2639003,0.774108666 C13.7167024,1.26921805 13.9545379,1.87638452 13.9751198,2.59560808 L13.9751198,14.4919546 C14.0059927,14.929892 13.8710668,15.3232352 13.5691987,15.6719843 C13.2673307,16.0207334 12.9025734,16.0916267 12.474927,15.8835206 C12.1936408,15.6959965 11.9558053,15.4250013 11.7637075,15.070535 C11.5704662,14.7160687 11.3131922,14.5228274 10.9895988,14.4919546 L10.7860665,14.4919546 C10.3687111,14.5857166 10.066843,14.8326996 9.87931887,15.2340469 C9.69179476,15.6353942 9.39450044,15.8823772 8.98857936,15.9761393 L8.78504709,15.9761393 C8.36769161,15.8720863 8.06811041,15.611382 7.8863035,15.1940265 C7.70335315,14.776671 7.40377195,14.5422659 6.98755991,14.4908111 L6.89379785,14.4908111 C6.47644237,14.5845732 6.17457429,14.8315561 5.98705018,15.2329035 C5.79952608,15.6342508 5.50223176,15.8812338 5.09631067,15.9749958 L4.89277841,15.9749958 C4.47542292,15.8709428 4.17355485,15.6102386 3.98603074,15.1928831 C3.79850663,14.7755276 3.50121231,14.5411225 3.09529122,14.4896677 L2.98552101,14.4896677 C2.56816553,14.5525569 2.25371962,14.7995398 2.0398964,15.23176 C1.82607318,15.6639802 1.51048382,15.9121066 1.09427178,15.9738524 C0.739805475,15.9532705 0.46881027,15.7806111 0.281286162,15.4581611 C0.0937620541,15.1345677 0,14.8121177 0,14.4885242 L0,2.59560808 C0.0205819143,1.87638452 0.258417369,1.26921805 0.711219483,0.774108666 C1.1640216,0.278999283 1.72430704,0.021725354 2.39207582,0 L11.5841874,0 C12.2508128,0.021725354 12.8110982,0.278999283 13.2639003,0.774108666 Z M11.7705681,5.62801012 C11.7076789,5.48164984 11.5773268,5.40389595 11.3795117,5.39360499 C11.2276677,5.34100606 11.0625455,5.34100606 10.9107015,5.39360499 C10.7540502,5.44620321 10.6454235,5.54453903 10.5825343,5.69089931 L10.379002,6.19172589 C10.160605,5.4313385 9.74324955,4.81045075 9.128079,4.33134952 C8.51290845,3.8522483 7.79940208,3.6075522 6.98641647,3.59611781 C5.95503387,3.61669972 5.08716315,3.95058411 4.38394775,4.59662753 C3.68073234,5.24267095 3.31826196,6.07623848 3.29768005,7.09847356 C3.31826196,8.1195652 3.66472419,8.966854 4.33706672,9.63919654 C5.00940926,10.3115391 5.86127182,10.6637185 6.89265441,10.6945914 C7.23682976,10.6945914 7.57757479,10.6454235 7.91717637,10.5459442 C8.25563452,10.446465 8.57579763,10.293244 8.87880915,10.085138 C9.03546038,9.99137596 9.13379619,9.87360167 9.17610346,9.73295859 C9.21726729,9.59231551 9.18639442,9.44366835 9.08234141,9.28701711 C9.02974318,9.1829641 8.92340329,9.11207084 8.7621783,9.07548077 C8.6009533,9.0388907 8.44201519,9.04232102 8.28536395,9.08348485 C8.08754888,9.24013609 7.88401662,9.34647598 7.6759106,9.40364796 C7.46780458,9.46081994 7.2379732,9.48940594 6.98755991,9.48940594 C6.32093457,9.46882402 5.75721881,9.23098857 5.2986995,8.77818645 C4.84018018,8.32538434 4.60577505,7.76509889 4.59548409,7.09733012 C4.60577505,6.43070478 4.84018018,5.86813246 5.2986995,5.4084697 C5.75721881,4.94995039 6.31979113,4.70982806 6.98755991,4.68924614 C7.60273046,4.70982806 8.12871271,4.90764312 8.56665011,5.28383478 C9.00458751,5.66002644 9.27558272,6.12769327 9.37963573,6.69026559 L8.69128504,6.48673333 C8.52434284,6.4455695 8.36311785,6.46272109 8.20646661,6.54161843 C8.04981537,6.62051577 7.94576236,6.73714662 7.89430758,6.89379785 C7.84170935,7.05044909 7.85543063,7.19109217 7.93318453,7.3157271 C8.01093843,7.44036202 8.12871271,7.53412408 8.28536395,7.59701326 L10.2863834,8.39399072 L10.4887722,8.39399072 C10.5825343,8.38369976 10.6762963,8.33910561 10.7700584,8.26135172 C10.8638204,8.18359782 10.9370006,8.09212264 10.9884554,7.98806963 L11.7854328,6.09682039 C11.8391745,5.93102164 11.8334573,5.7743704 11.7705681,5.62801012 L11.7705681,5.62801012 Z" id="形状"></path>
                </g>
            </g>
        </g>
    </g>
</svg>