<?xml version="1.0" encoding="UTF-8"?>
<svg width="20px" height="16px" viewBox="0 0 20 16" version="1.1" xmlns="http://www.w3.org/2000/svg" xmlns:xlink="http://www.w3.org/1999/xlink">
    <title>编组 42</title>
    <defs>
        <linearGradient x1="50%" y1="0%" x2="50%" y2="100%" id="linearGradient-1">
            <stop stop-color="#FFFFFF" offset="0%"></stop>
            <stop stop-color="#FFFFFF" stop-opacity="0" offset="100%"></stop>
        </linearGradient>
    </defs>
    <g id="页面-1" stroke="none" stroke-width="1" fill="none" fill-rule="evenodd">
        <g id="默认海南门户备份-6" transform="translate(-1261.000000, -923.000000)">
            <g id="编组-42" transform="translate(1261.000000, 923.000000)">
                <circle id="椭圆形备份-35" fill="#4C6BFF" cx="13.5" cy="8.5" r="6.5"></circle>
                <circle id="椭圆形备份-36" stroke="url(#linearGradient-1)" stroke-width="0.5" fill-opacity="0.3" fill="#FFFFFF" cx="8" cy="8" r="7.75"></circle>
                <g id="编组" transform="translate(4.000000, 4.000000)" fill="#FFFFFF" fill-rule="nonzero">
                    <path d="M3.15789474,0 L0.421052625,0 C0.189473674,0 2.22044605e-16,0.189473684 2.22044605e-16,0.421052625 L2.22044605e-16,3.15789474 C2.22044605e-16,3.38947369 0.189473684,3.57894736 0.421052625,3.57894736 L3.57894736,3.57894736 L3.57894736,0.421052625 C3.57894736,0.189473674 3.38947368,0 3.15789474,0 Z M7.57894737,0 L4.84210526,0 C4.61052631,0 4.42105264,0.189473684 4.42105264,0.421052625 L4.42105264,3.57894736 L7.57894737,3.57894736 C7.81052633,3.57894736 8,3.38947368 8,3.15789474 L8,0.421052625 C8,0.189473674 7.81052632,0 7.57894737,0 L7.57894737,0 Z M0,4.84210526 L0,7.57894737 C0,7.81052633 0.189473684,8 0.421052625,8 L3.15789474,8 C3.38947369,8 3.57894736,7.81052632 3.57894736,7.57894737 L3.57894736,4.42105264 L0.421052625,4.42105264 C0.189473674,4.42105264 0,4.61052632 0,4.84210526 L0,4.84210526 Z M7.57894737,4.42105264 L4.42105264,4.42105264 L4.42105264,7.57894737 C4.42105264,7.81052633 4.61052632,8 4.84210526,8 L7.57894737,8 C7.81052633,8 8,7.81052632 8,7.57894737 L8,4.84210526 C8,4.61052631 7.81052632,4.42105264 7.57894737,4.42105264 L7.57894737,4.42105264 Z" id="形状"></path>
                </g>
            </g>
        </g>
    </g>
</svg>