<?xml version="1.0" encoding="UTF-8"?>
<svg width="36px" height="36px" viewBox="0 0 36 36" version="1.1" xmlns="http://www.w3.org/2000/svg" xmlns:xlink="http://www.w3.org/1999/xlink">
    <title>编组 28</title>
    <g id="页面-1" stroke="none" stroke-width="1" fill="none" fill-rule="evenodd">
        <g id="默认海南门户备份-6" transform="translate(-1650.000000, -393.000000)">
            <g id="编组-28" transform="translate(1650.000000, 393.000000)">
                <rect id="矩形备份-15" fill="#EFF5FF" x="0" y="0" width="36" height="36" rx="4"></rect>
                <g id="编组" transform="translate(10.000000, 9.000000)" fill="#5A82ED" fill-rule="nonzero">
                    <path d="M14.2105263,0 C14.7337434,0 15.1578947,0.424151288 15.1578947,0.947368407 L15.1578947,17.0526316 C15.1578947,17.5758487 14.7337434,18 14.2105263,18 L0.947368407,18 C0.424151288,18 0,17.5758487 0,17.0526316 L0,0.947368407 C0,0.424151288 0.424151288,0 0.947368407,0 L14.2105263,0 Z M9.86968421,8.58694736 C9.07676045,7.66854387 7.79700751,7.33888193 6.65905264,7.75989473 C6.70263159,7.78547368 6.74336842,7.8148421 6.78221052,7.84515789 L7.96452631,9.03315789 C8.31974103,9.33985695 8.47333575,9.81961832 8.36228872,10.2755902 C8.25124169,10.7315621 7.89424919,11.0869755 7.43778948,11.196 C6.98094345,11.3054247 6.50124881,11.1504015 6.1948421,10.7943158 L5.01157894,9.61389474 C4.97872175,9.57189929 4.9489592,9.52757208 4.92252632,9.48126317 C4.4949883,10.61606 4.81844834,11.8970524 5.73347367,12.6928421 C6.64903614,13.4892206 7.96281579,13.6334757 9.02936843,13.0547368 L12.0827368,16.1052632 L13.2631579,14.9276842 L10.2154737,11.88 C10.7998149,10.8179343 10.6618933,9.50446733 9.86968421,8.58694736 L9.86968421,8.58694736 Z M3.78947367,2.84210524 L3.31578947,2.84210524 C3.08700728,2.84202899 2.89086499,3.0054809 2.84968421,3.23052631 L2.84210524,3.31578947 L2.84210524,3.78947367 C2.84202899,4.01825586 3.0054809,4.21439815 3.23052631,4.25557894 L3.31578947,4.26315792 L3.78947367,4.26315792 C4.01825587,4.26323417 4.21439816,4.09978225 4.25557894,3.87473683 L4.2631579,3.78947367 L4.2631579,3.31578947 C4.2631579,3.1901606 4.21325202,3.06967717 4.124419,2.98084415 C4.03558597,2.89201113 3.91510254,2.84210524 3.78947367,2.84210524 L3.78947367,2.84210524 Z M11.8421053,2.84210524 L6.15789473,2.84210524 C5.92911255,2.84202899 5.73297026,3.0054809 5.69178947,3.23052631 L5.6842105,3.31578947 L5.6842105,3.78947367 C5.68413426,4.01825586 5.84758616,4.21439815 6.07263158,4.25557894 L6.15789473,4.26315792 L11.8421053,4.26315792 C12.0708875,4.26323417 12.2670298,4.09978225 12.3082105,3.87473683 L12.3157895,3.78947367 L12.3157895,3.31578947 C12.3157895,3.05418091 12.1037138,2.84210524 11.8421053,2.84210524 Z" id="形状"></path>
                </g>
            </g>
        </g>
    </g>
</svg>