<?xml version="1.0" encoding="UTF-8"?>
<svg width="36px" height="36px" viewBox="0 0 36 36" version="1.1" xmlns="http://www.w3.org/2000/svg" xmlns:xlink="http://www.w3.org/1999/xlink">
    <title>编组 20</title>
    <g id="页面-1" stroke="none" stroke-width="1" fill="none" fill-rule="evenodd">
        <g id="默认海南门户备份-6" transform="translate(-1467.000000, -393.000000)">
            <g id="编组-20" transform="translate(1467.000000, 393.000000)">
                <rect id="矩形备份-15" fill="#EFF5FF" x="0" y="0" width="36" height="36" rx="4"></rect>
                <g id="编组" transform="translate(10.000000, 9.000000)" fill="#5A82ED" fill-rule="nonzero">
                    <path d="M1.22332207,0 L15.2752294,0 C15.8749396,0.0499758571 16.409464,0.430226944 16.5746016,1.02124577 L16.5746016,16.935297 C16.4355384,17.5741188 15.8445196,17.952197 15.2209078,18 L1.43626268,18 C0.79744085,17.9891357 0.189039112,17.6284404 0,16.99831 L0,1.03428296 C0.136890391,0.451955577 0.656204732,0.0912602607 1.22332207,0 M2.11854177,0.912602607 C2.1163689,6.28609367 2.1163689,11.6574119 2.11854177,17.0309029 C2.80516659,17.0309029 3.49179141,17.0330758 4.17841622,17.0309029 L4.17841622,0.914775471 C3.48961854,0.912602607 2.80299372,0.912602607 2.11854177,0.912602607 M9.34331241,0.914775471 C9.34548527,3.2962337 9.34331241,5.67551907 9.34548527,8.05480444 C10.034283,7.16393047 10.7187349,6.2665379 11.4053597,5.37349107 C12.0941574,6.2665379 12.7764365,7.16175761 13.4652342,8.05263158 C13.467407,5.67117335 13.4652342,3.29188798 13.4652342,0.912602607 C12.0919845,0.912602607 10.7187349,0.912602607 9.34331241,0.914775471 Z" id="形状"></path>
                </g>
            </g>
        </g>
    </g>
</svg>