<?xml version="1.0" encoding="UTF-8"?>
<svg width="36px" height="36px" viewBox="0 0 36 36" version="1.1" xmlns="http://www.w3.org/2000/svg" xmlns:xlink="http://www.w3.org/1999/xlink">
    <title>单位申报备份</title>
    <g id="页面-1" stroke="none" stroke-width="1" fill="none" fill-rule="evenodd">
        <g id="默认海南门户备份-6" transform="translate(-1376.000000, -535.000000)">
            <g id="单位申报备份" transform="translate(1376.000000, 535.000000)">
                <g id="编组-21备份" fill="#EFF5FF">
                    <rect id="矩形备份-16" x="0" y="0" width="36" height="36" rx="4"></rect>
                </g>
                <g id="编组" transform="translate(9.000000, 9.000000)" fill="#5A82ED" fill-rule="nonzero">
                    <path d="M6.90968794,0.0814623081 L0.495658037,3.06720208 C0.192925101,3.20823222 -0.000457952007,3.51211988 8.14463856e-07,3.84609072 L8.14463856e-07,17.0252405 L8.13407728,17.0252405 L8.13407728,0.860350944 C8.13407728,0.231929431 7.47910274,-0.184067909 6.90968794,0.0814623081 L6.90968794,0.0814623081 Z M6.19275636,10.1627595 L1.93837221,10.1627595 L1.93837221,8.7229957 L6.19570669,8.7229957 L6.19570669,10.1627595 L6.19275636,10.1627595 Z M6.19275636,7.22422514 L1.93837221,7.22422514 L1.93837221,5.7844613 L6.19570669,5.7844613 L6.19570669,7.22422514 L6.19275636,7.22422514 Z M17.5043436,8.22438896 L11.0873634,5.23864919 C10.5179486,4.97311897 9.86592436,5.38911631 9.86592436,6.01753782 L9.86592436,17.0252405 L18,17.0252405 L18,9.00032726 C17.9998974,8.66725253 17.8065105,8.36451004 17.5043436,8.22438896 L17.5043436,8.22438896 Z M16.0616294,11.8119972 L11.8042949,11.8119972 L11.8042949,10.3722334 L16.0616294,10.3722334 L16.0616294,11.8119972 L16.0616294,11.8119972 Z" id="形状"></path>
                </g>
            </g>
        </g>
    </g>
</svg>