<?xml version="1.0" encoding="UTF-8"?>
<svg width="219px" height="199px" viewBox="0 0 219 199" version="1.1" xmlns="http://www.w3.org/2000/svg" xmlns:xlink="http://www.w3.org/1999/xlink">
    <title>编组 2</title>
    <defs>
        <polygon id="path-1" points="0 0.0555002043 19.3248554 0.0555002043 19.3248554 4.61144765 0 4.61144765"></polygon>
        <polygon id="path-3" points="0.0103527529 0.0119414549 19.3544703 0.0119414549 19.3544703 4.54921675 0.0103527529 4.54921675"></polygon>
        <polygon id="path-5" points="0.0208731446 0.0276056037 4.99038153 0.0276056037 4.99038153 4.99687025 0.0208731446 4.99687025"></polygon>
        <polygon id="path-7" points="0.0122950879 0.0424199383 5.43496325 0.0424199383 5.43496325 5.40407322 0.0122950879 5.40407322"></polygon>
        <polygon id="path-9" points="3.31874435e-06 0 29.7359493 0 29.7359493 29.6707107 3.31874435e-06 29.6707107"></polygon>
        <polygon id="path-11" points="1.23555623e-05 2.46225717e-06 14.8266747 2.46225717e-06 14.8266747 9.84902868 1.23555623e-05 9.84902868"></polygon>
        <polygon id="path-13" points="0.242765994 0.235744186 17.178474 0.235744186 17.178474 15.3741977 0.242765994 15.3741977"></polygon>
    </defs>
    <g id="控件" stroke="none" stroke-width="1" fill="none" fill-rule="evenodd">
        <g id="5、反馈/7、Result结果/异常403" transform="translate(-85.000000, -100.000000)">
            <g id="编组-2" transform="translate(85.000000, 100.000000)">
                <g id="编组-6">
                    <g id="编组-5" transform="translate(0.000000, 6.000000)">
                        <path d="M104.499811,139 C66.1162431,139 35,107.883757 35,69.5001887 C35,31.1162431 66.1162431,0 104.499811,0 C142.883757,0 174,31.1162431 174,69.5001887 C174,107.883757 142.883757,139 104.499811,139 Z" id="Fill-1" fill="#DFE5F1"></path>
                        <g id="插图" transform="translate(0.000000, 9.000000)">
                            <g id="编组-4" transform="translate(157.500000, 141.500000)">
                                <path d="M14.0420275,24.019867 L7.97525672,24.019867 L7.97525672,3.02571209 C7.97525672,1.35467016 9.32623579,2.30926389e-13 10.9927831,2.30926389e-13 L11.0244537,2.30926389e-13 C12.691001,2.30926389e-13 14.0420275,1.35467016 14.0420275,3.02571209 L14.0420275,24.019867 Z" id="Fill-1" fill="#5BA02E"></path>
                                <path d="M17.2214518,29.1237878 L11.105421,29.1237878 L11.105421,18.1005645 C11.105421,16.4646705 12.4334597,15.1385304 14.0716959,15.1385304 L14.2552247,15.1385304 C15.8934131,15.1385304 17.2214518,16.4646705 17.2214518,18.1005645 L17.2214518,29.1237878 Z" id="Fill-3" fill="#92C110"></path>
                                <path d="M8.12199128,23.9165111 L2.0059604,23.9165111 L2.0059604,12.0003276 C2.0059604,10.3646203 3.32866186,9.03857778 4.96024802,9.03857778 L5.16770366,9.03857778 C6.79928982,9.03857778 8.12199128,10.3646203 8.12199128,12.0003276 L8.12199128,23.9165111 Z" id="Fill-5" fill="#92C110"></path>
                                <path d="M1.18953522,41.5 C0.532564831,41.5 0,40.9928122 0,40.3671467 L0,24.6328533 C0,24.0071878 0.532564831,23.5 1.18953522,23.5 L17.8104648,23.5 C18.4674352,23.5 19,24.0071878 19,24.6328533 L19,40.3671467 C19,40.9928122 18.4674352,41.5 17.8104648,41.5 L1.18953522,41.5 Z" id="Fill-7" fill="#CAD5EE"></path>
                                <path d="M10.0612206,4.57519779 C10.0612206,4.90387547 9.79407865,5.17031512 9.46453464,5.17031512 C9.13499064,5.17031512 8.8678487,4.90387547 8.8678487,4.57519779 C8.8678487,4.24652011 9.13499064,3.98008046 9.46453464,3.98008046 C9.79407865,3.98008046 10.0612206,4.24652011 10.0612206,4.57519779" id="Fill-9" fill="#92C110"></path>
                                <path d="M13.1938218,10.6751504 C13.1938218,11.0038281 12.9266798,11.2702678 12.5971358,11.2702678 C12.2675918,11.2702678 12.0004499,11.0038281 12.0004499,10.6751504 C12.0004499,10.3464728 12.2675918,10.0800331 12.5971358,10.0800331 C12.9266798,10.0800331 13.1938218,10.3464728 13.1938218,10.6751504" id="Fill-11" fill="#92C110"></path>
                                <path d="M3.9451897,13.6507371 C3.9451897,13.9794148 3.67804777,14.2458544 3.34850376,14.2458544 C3.01895976,14.2458544 2.75181783,13.9794148 2.75181783,13.6507371 C2.75181783,13.3220594 3.01895976,13.0556198 3.34850376,13.0556198 C3.67804777,13.0556198 3.9451897,13.3220594 3.9451897,13.6507371" id="Fill-13" fill="#5BA02E"></path>
                                <path d="M6.9286194,19.7506898 C6.9286194,20.0793675 6.66147747,20.3458071 6.33193346,20.3458071 C6.00238946,20.3458071 5.73524752,20.0793675 5.73524752,19.7506898 C5.73524752,19.4220121 6.00238946,19.1555724 6.33193346,19.1555724 C6.66147747,19.1555724 6.9286194,19.4220121 6.9286194,19.7506898" id="Fill-15" fill="#5BA02E"></path>
                            </g>
                            <g id="编组" opacity="0.837588356" transform="translate(180.000000, 79.000000)">
                                <g>
                                    <mask id="mask-2" fill="white">
                                        <use xlink:href="#path-1"></use>
                                    </mask>
                                    <g id="Clip-2"></g>
                                    <path d="M2.27460334,4.61144765 L17.0524774,4.6051665 C18.3079347,4.60459551 19.3254258,3.58537438 19.3248554,2.32919149 C19.3242845,1.07300859 18.3062227,0.0549294521 17.0507654,0.0555002043 L2.27232069,0.0617813588 C1.01686337,0.0623523511 -0.000627728662,1.08157347 -5.73061677e-05,2.33775637 C0.000513596178,3.59393927 1.01857535,4.61201841 2.27460334,4.61144765" id="Fill-1" fill="#E4E6EF" mask="url(#mask-2)"></path>
                                </g>
                                <g transform="translate(5.602137, 8.994366)">
                                    <mask id="mask-4" fill="white">
                                        <use xlink:href="#path-3"></use>
                                    </mask>
                                    <g id="Clip-4"></g>
                                    <path d="M2.28727393,4.54921699 L17.0798341,4.54296158 C18.336539,4.54239292 19.3550413,3.52734894 19.3544703,2.27631433 C19.3538988,1.02527972 18.3348254,0.0113730419 17.0781204,0.0119414549 L2.28556024,0.018196867 C1.02828403,0.0187655191 0.00978176354,1.03324085 0.0103527529,2.28484411 C0.0109242226,3.53587872 1.03056895,4.5497854 2.28727393,4.54921699" id="Fill-3" fill="#E4E6EF" mask="url(#mask-4)"></path>
                                </g>
                                <path d="M9.15471122,4.63797335 L9.15471122,4.63684539 L16.9413434,4.6334615 C15.6910058,4.63402548 14.6786925,5.64073129 14.6792606,6.88148914 C14.6792606,8.12224699 15.6932781,9.12782482 16.9430476,9.12726084 L9.15641545,9.13064473 L9.15641545,9.13008075 C10.3976638,9.11880113 11.3997517,8.11717116 11.3991837,6.8826171 C11.3986156,5.64862702 10.3953915,4.64812501 9.15471122,4.63797335" id="Fill-5" fill="#E4E6EF"></path>
                            </g>
                            <rect id="矩形" fill="#E5E3EA" x="0" y="183" width="219" height="1"></rect>
                            <g id="编组" transform="translate(6.000000, 110.000000)">
                                <g transform="translate(16.396498, 9.993740)">
                                    <mask id="mask-6" fill="white">
                                        <use xlink:href="#path-5"></use>
                                    </mask>
                                    <g id="Clip-2"></g>
                                    <path d="M4.97721327,2.7657877 C4.83715234,4.13067801 3.61712479,5.12384601 2.25219143,4.9837895 C0.886817625,4.84373299 -0.106381705,3.62374392 0.0341196636,2.25841318 C0.174180589,0.893522881 1.39420815,-0.0996451201 2.75914151,0.0408518166 C4.12407487,0.180908324 5.1172742,1.4008974 4.97721327,2.7657877" id="Fill-1" fill="#E4E6EF" mask="url(#mask-6)"></path>
                                </g>
                                <path d="M37.3343034,3.66186704 C37.1931104,5.03431563 35.9632216,6.03298344 34.5872558,5.89215135 C33.2108459,5.75131926 32.2096187,4.52413145 32.3508117,3.15168287 C32.4924488,1.77923428 33.7223376,0.78056647 35.0983034,0.921841429 C36.4742693,1.06223065 37.4754964,2.28941846 37.3343034,3.66186704" id="Fill-3" fill="#E4E6EF"></path>
                                <path d="M4.99671812,2.75350158 C4.85565549,4.12608941 3.62534403,5.12433511 2.24906342,4.98365097 C0.873191678,4.84255905 -0.128148555,3.6159565 0.0133229516,2.24336867 C0.154385581,0.870780838 1.38469704,-0.127464858 2.76056878,0.0132192784 C4.13684939,0.153903414 5.13818963,1.38091375 4.99671812,2.75350158" id="Fill-5" fill="#E4E6EF"></path>
                                <g transform="translate(46.001285, 6.359653)">
                                    <mask id="mask-8" fill="white">
                                        <use xlink:href="#path-7"></use>
                                    </mask>
                                    <g id="Clip-8"></g>
                                    <path d="M5.42089014,2.99693347 C5.26776765,4.46972338 3.93657561,5.54084331 2.44695048,5.38988891 C0.95732534,5.23849696 -0.126038395,3.92234959 0.0266415428,2.44955969 C0.179764032,0.976769783 1.51095607,-0.0943501475 3.00058121,0.0566042545 C4.48976379,0.207996205 5.57357008,1.52414357 5.42089014,2.99693347" id="Fill-7" fill="#E4E6EF" mask="url(#mask-8)"></path>
                                </g>
                                <polygon id="Fill-9" fill="#E4E6EF" points="18.9358474 12.7193061 18.8747672 12.6809867 2.73274962 2.47865527 2.86122862 2.27130466 18.9425873 12.4357424 35.2307761 3.22332924 35.2842739 3.2446178 49.1894931 8.75963319 49.1010322 8.98656928 35.2488895 3.49284246"></polygon>
                            </g>
                        </g>
                    </g>
                    <g id="编组-8" transform="translate(129.500000, 0.000000)">
                        <g id="网页" transform="translate(0.000000, 16.500000)">
                            <rect id="矩形" fill="#CBD4EA" fill-rule="nonzero" x="0" y="1.71895735" width="50.957346" height="37.2736493" rx="1.48939336"></rect>
                            <g id="分组-2" transform="translate(14.699234, 8.662749)">
                                <path d="M0.00829923441,26.1126603 L0.00829923441,0.51569346 C0.00829923441,0.234263809 0.236443043,0.00612 0.517872694,0.00612 L31.5255752,0.00612 C31.8070049,0.00612 32.0351487,0.234263809 32.0351487,0.51569346 L32.0351487,26.2127551 L32.0351487,26.2127551 C32.0351487,26.4388897 31.8471035,26.6222337 31.6151705,26.6222337 L0.517872694,26.6222337 C0.236443043,26.6222337 0.00829923441,26.3940899 0.00829923441,26.1126603 Z" id="Fill-30" fill="#FFFFFF"></path>
                                <path d="M3.16741145,20.161341 C2.93542603,20.161341 2.74743332,19.977997 2.74743332,19.7518624 L2.74743332,3.12037422 C2.74743332,2.89418844 2.93542603,2.71089555 3.16741145,2.71089555 L29.0228923,2.71089555 C29.2548252,2.71089555 29.4428704,2.89418844 29.4428704,3.12037422 L29.4428704,19.7518624 C29.4428704,19.977997 29.2548252,20.161341 29.0228923,20.161341 L3.16741145,20.161341 Z" id="Fill-32" fill="#CED7EC"></path>
                                <path d="M6.3986339,5.11673118 L4.56558688,5.11673118 C4.42373926,5.11673118 4.30877025,5.0046364 4.30877025,4.86633498 C4.30877025,4.72808474 4.42373926,4.61598995 4.56558688,4.61598995 L6.3986339,4.61598995 C6.54048152,4.61598995 6.65545053,4.72808474 6.65545053,4.86633498 C6.65545053,5.0046364 6.54048152,5.11673118 6.3986339,5.11673118" id="Fill-34" fill="#B2BED9"></path>
                                <path d="M6.42830536,6.31827469 L4.59520583,6.31827469 C4.45341072,6.31827469 4.33844171,6.20617991 4.33844171,6.06787848 C4.33844171,5.92962825 4.45341072,5.81753346 4.59520583,5.81753346 L6.42830536,5.81753346 C6.57015297,5.81753346 6.68512198,5.92962825 6.68512198,6.06787848 C6.68512198,6.20617991 6.57015297,6.31827469 6.42830536,6.31827469" id="Fill-36" fill="#B2BED9"></path>
                                <path d="M2.74748582,15.5529094 C5.52574612,15.5529094 4.78804551,12.120465 8.99579844,12.120465 C13.2035514,12.120465 12.9844222,15.1889289 16.2661313,15.1889289 C19.5989792,15.1889289 19.3785024,6.37575355 22.5714911,6.37575355 C25.941868,6.37575355 25.1810899,14.3617427 29.3792962,14.3617427 L29.3792962,19.7738667 C29.3792962,20.0001549 29.191041,20.1835501 28.9589506,20.1833456 L3.16709646,20.1616942 C2.93532104,20.1614895 2.74748582,19.9782478 2.74748582,19.7522155 L2.74748582,15.5529094 Z" id="Fill-38" fill="#4C588E"></path>
                                <path d="M2.65271775,16.8790816 C6.8509241,16.8790816 6.25581509,7.49268483 8.96136668,7.49268483 C11.53851,7.49268483 10.7644903,16.8790816 16.1017298,16.8790816 C19.3833864,16.8790816 20.4156034,13.0528458 22.7338669,13.0528458 C25.0521304,13.0528458 26.6010254,16.8790816 29.3792857,16.8790816" id="Stroke-40" stroke="#FFFFFF" stroke-width="0.5"></path>
                                <line x1="3.02832519" y1="22.6139373" x2="28.9248589" y2="22.6139373" id="Stroke-42" stroke="#E4E6EF" stroke-width="0.5" stroke-linecap="round" stroke-linejoin="round"></line>
                                <line x1="3.02832519" y1="24.3433346" x2="24.786132" y2="24.3433346" id="Stroke-44" stroke="#E4E6EF" stroke-width="0.5" stroke-linecap="round" stroke-linejoin="round"></line>
                            </g>
                            <path d="M1.36492891,0 L49.5668246,0 C50.3206541,0 50.9317536,0.595822001 50.9317536,1.33080569 L50.9317536,5.29660664 L0,5.29660664 L0,1.33080569 C0,0.595822001 0.611099488,0 1.36492891,0 Z" id="路径" fill="#393D65" fill-rule="nonzero"></path>
                            <ellipse id="椭圆形" fill="#FFFFFF" fill-rule="nonzero" cx="2.91753555" cy="2.64830332" rx="1" ry="1"></ellipse>
                            <ellipse id="椭圆形" fill="#FFFFFF" fill-rule="nonzero" cx="6.55620853" cy="2.64830332" rx="1" ry="1"></ellipse>
                            <ellipse id="椭圆形" fill="#FFFFFF" fill-rule="nonzero" cx="10.1954502" cy="2.64830332" rx="1" ry="1"></ellipse>
                            <polygon id="路径" fill="#FFFFFF" fill-rule="nonzero" points="16.9188626 21.4037915 16.2921327 20.944109 16.9188626 20.4855355 17.5455924 20.944109"></polygon>
                            <rect id="矩形" fill="#B2BED9" fill-rule="nonzero" x="3.62598615" y="19.0227583" width="7.29099526" height="1.79492417" rx="0.402014218"></rect>
                            <rect id="矩形" fill="#B2BED9" fill-rule="nonzero" x="3.62598615" y="22.4784171" width="7.29099526" height="1.74058294" rx="0.395914692"></rect>
                            <rect id="矩形" fill="#B2BED9" fill-rule="nonzero" x="3.62598615" y="25.863654" width="7.29099526" height="1.74058294" rx="0.395914692"></rect>
                            <ellipse id="椭圆形" fill="#FFFFFF" fill-rule="nonzero" cx="7.27148378" cy="12.5428436" rx="3.63981043" ry="3.54881517"></ellipse>
                            <path d="M7.27148378,16.0916597 C8.32054935,16.0922279 9.31615317,15.640365 9.99110463,14.8573365 C9.4592848,13.8729634 8.4120336,13.2567507 7.27091506,13.2567507 C6.12979651,13.2567507 5.08254531,13.8729634 4.55072548,14.8573365 C5.22603035,15.6405379 6.22205515,16.0924029 7.27148378,16.0916597 L7.27148378,16.0916597 Z" id="路径" fill="#393D65" fill-rule="nonzero"></path>
                            <ellipse id="椭圆形" fill="#393D65" fill-rule="nonzero" cx="7.29082027" cy="12.0631991" rx="1.36890995" ry="1.3346872"></ellipse>
                        </g>
                        <g id="编组" transform="translate(36.046748, 0.000000)">
                            <g id="分组">
                                <mask id="mask-10" fill="white">
                                    <use xlink:href="#path-9"></use>
                                </mask>
                                <g id="Clip-2"></g>
                                <path d="M3.31874435e-06,14.8353537 C3.31874435e-06,23.0286763 6.65660798,29.6707107 14.867978,29.6707107 C23.0793148,29.6707107 29.7359526,23.0286763 29.7359526,14.8353537 C29.7359526,6.64199796 23.0793148,-3.31146362e-06 14.867978,-3.31146362e-06 C6.65660798,-3.31146362e-06 3.31874435e-06,6.64199796 3.31874435e-06,14.8353537 Z" id="Fill-1" fill="#722ED2" mask="url(#mask-10)"></path>
                            </g>
                            <g id="分组复制" transform="translate(7.475287, 5.769306)">
                                <g id="分组" transform="translate(2.643195, 0.000000)" fill="#FFFFFF">
                                    <path d="M1.5806878,4.74152236 C1.5806878,2.99588766 2.99831219,1.5807511 4.74701574,1.5807511 C6.49571929,1.5807511 7.91334368,2.99588766 7.91334368,4.74152236 L7.91334368,6.32534039 L9.49650765,6.32534039 L9.49650765,4.74248541 C9.49650765,2.1253668 7.37118423,0.00379786422 4.74951417,0.00379786422 L4.74948943,0.00379786422 C2.12779464,0.00379786422 0.00249595694,2.1253668 0.00249595694,4.74248541 L0.00249595694,6.32534039 L1.5806878,6.32534039 L1.5806878,4.74152236 Z" id="Fill-1"></path>
                                </g>
                                <g id="分组" transform="translate(0.000000, 6.057771)">
                                    <mask id="mask-12" fill="white">
                                        <use xlink:href="#path-11"></use>
                                    </mask>
                                    <g id="Clip-4"></g>
                                    <path d="M14.2336201,9.84903115 L0.593079345,9.84903115 C0.26686779,9.84903115 1.23555623e-05,9.58310737 1.23555623e-05,9.25808942 L1.23555623e-05,0.590944183 C1.23555623e-05,0.265926237 0.26686779,2.46225717e-06 0.593079345,2.46225717e-06 L14.2336201,2.46225717e-06 C14.5597822,2.46225717e-06 14.8266871,0.265926237 14.8266871,0.590944183 L14.8266871,9.25808942 C14.8266871,9.58310737 14.5597822,9.84903115 14.2336201,9.84903115" id="Fill-3" fill="#FFFFFF" mask="url(#mask-12)"></path>
                                </g>
                                <path d="M7.43398733,8.77758623 C7.75021359,8.77758623 8.00660528,9.02638952 8.00660528,9.33333648 L8.00707651,11.1608849 C8.33179029,11.3553754 8.54908543,11.7101332 8.54908543,12.1155416 C8.54908543,12.7300553 8.04982425,13.2281933 7.43396936,13.2281933 C6.81815041,13.2281933 6.31888923,12.7300553 6.31888923,12.1155416 C6.31888923,11.7101332 6.53618438,11.3553754 6.86088783,11.1608849 L6.86136939,9.33333648 C6.86136939,9.05708422 7.06904666,8.82792833 7.34111105,8.78485967 L7.43398733,8.77758623 Z" id="形状结合" fill="#764ABC"></path>
                            </g>
                        </g>
                    </g>
                </g>
                <g id="man/坐姿/讨论" transform="translate(108.000000, 104.500000) scale(-1, 1) translate(-108.000000, -104.500000) translate(64.500000, 32.500000)">
                    <path d="M14.6101841,43.1505512 C18.2472811,47.8995243 26.3017991,59.4022425 32.3276955,64.9796398 C32.3276955,64.9796398 38.7520317,70.6372427 43.7489011,64.9994165 C48.6214191,59.5022247 41.7791442,54.0416564 41.7791442,54.0416564 C34.2547756,47.7665809 24.4600726,41.3783386 20.3851701,37.7346636 C20.3851701,37.7346636 18.8605767,35.1739464 15.9787863,37.4281247 C12.5587525,40.102741 14.6101841,43.1505512 14.6101841,43.1505512" id="Fill-1" fill="#FFC2BD"></path>
                    <g id="编组-9" transform="translate(11.451319, 37.203942) scale(-1, 1) rotate(22.000000) translate(-11.451319, -37.203942) translate(2.951319, 30.203942)">
                        <path d="M0.228530609,10.3819378 C0.228530609,10.3819378 1.0593913,6.9388856 3.03299485,4.90454308 C5.45626978,2.40698367 5.61138577,1.92305046 6.87706631,0.47042218 C8.14192176,-0.982206103 8.43482697,1.40928575 6.66914487,4.53910722 C5.22277069,6.71763531 12.410087,5.12745067 15.0322074,2.87020056 C17.5767698,0.679242675 17.3688484,10.903989 5.37046093,13.3551439 C1.39602602,14.1680523 0.228530609,10.3819378 0.228530609,10.3819378" id="Fill-3225" fill="#FFC2BD"></path>
                        <path d="M3.79168029,11.2711472 C3.78095965,11.2711472 3.77023902,11.2703403 3.75869372,11.2671127 C3.68035063,11.2501682 3.63087078,11.1727073 3.64901339,11.0952464 C3.65396138,11.0718468 4.22462895,8.74156526 7.33691137,9.05382943 C10.3287928,9.35883165 12.3352006,8.85452904 13.6521892,7.47314333 C14.2014156,6.89783491 14.6516822,6.60090153 15.0120604,6.63237001 C15.2182264,6.64285951 15.3130628,6.75178887 15.3303807,6.77357474 C15.3790359,6.83731859 15.3658413,6.92768962 15.3015175,6.97529579 C15.2371937,7.02209507 15.145656,7.01160558 15.0961761,6.94705484 C15.0961761,6.94705484 15.0961761,6.94786173 15.0961761,6.94786173 C15.0953515,6.94786173 15.0607156,6.91800701 14.9807232,6.91800701 L14.9774245,6.91800701 C14.828985,6.91962078 14.487574,7.01886753 13.8666019,7.67002307 C12.4819909,9.12160771 10.3980646,9.65173061 7.30722346,9.34027332 C4.45471025,9.04898813 3.93929517,11.1380113 3.93434718,11.1589903 C3.91950323,11.2259616 3.85930275,11.2711472 3.79168029,11.2711472" id="Fill-3227" fill="#D18682"></path>
                        <path d="M10.1363993,7.85143035 C10.0676327,7.85143035 10.006234,7.80228896 9.99313556,7.73267199 C9.97839986,7.65404576 10.0299748,7.57787661 10.1093839,7.56231517 C10.1306688,7.55822005 12.2436049,7.14379432 13.331591,6.0553125 C14.143692,5.24366051 15.0212849,4.79974994 15.517387,4.94881216 C15.6942154,5.00204867 15.8104637,5.12899727 15.844847,5.30508725 C15.86122,5.38371348 15.8096451,5.46070166 15.730236,5.4762631 C15.6491896,5.49182454 15.5746925,5.4410451 15.5599568,5.36159985 C15.5452211,5.29198288 15.5067445,5.2502127 15.433066,5.22809907 C15.1678233,5.14537773 14.4424993,5.35586669 13.5378908,6.26170634 C12.38605,7.41407197 10.254285,7.8317738 10.1634148,7.84897328 C10.1544096,7.85061133 10.1454045,7.85143035 10.1363993,7.85143035" id="Fill-3229" fill="#D18682"></path>
                        <path d="M10.1337833,6.63010292 C10.0613795,6.63010292 9.99943393,6.57458647 9.99138905,6.49918352 C9.98334418,6.41798035 10.0396583,6.34506322 10.1176936,6.33677718 C10.1353923,6.33429137 11.9221591,6.11305416 13.5874482,4.70028469 C14.4675575,3.95371267 15.1280417,3.62558557 15.5439618,3.71258896 C15.7483016,3.75816217 15.819901,3.88742436 15.8327728,3.91311108 C15.8681702,3.98602822 15.8392087,4.07468882 15.7684138,4.11114739 C15.6992279,4.14677735 15.6123432,4.11777622 15.5769458,4.04485909 C15.5785547,4.04568769 15.5737278,4.01420074 15.4619041,3.99762867 C15.272045,3.97277056 14.7998108,4.05397373 13.7700668,4.92732213 C12.0355918,6.39892247 10.2254949,6.62098828 10.1498731,6.62927432 C10.1442417,6.63010292 10.1386103,6.63010292 10.1337833,6.63010292" id="Fill-3231" fill="#D18682"></path>
                    </g>
                    <path d="M31.9904314,57.9565615 C31.9904314,57.9565615 36.5030593,43.0301923 37.6498363,40.499895 C38.6534944,38.2855636 41.9076248,32.7666163 48.0650252,35.0378288 C52.9891201,36.8543585 53.3940152,41.5182525 52.7799182,44.8603001 C51.7193046,50.6339286 48.2647346,57.1455452 45.0931166,63.0556886 C45.0931166,63.0556886 41.7221544,69.8913448 35.1850507,66.6076463 C29.6527003,63.8289064 31.9904314,57.9565615 31.9904314,57.9565615" id="Fill-3" fill="#FFC2BD"></path>
                    <path d="M34,47.1974398 C34.7979838,44.8142714 36.9982028,38.2389097 37.3663314,37.4486438 C38.3881671,35.253582 41.7024399,29.7813908 47.9736406,32.033212 C52.9887418,33.8342324 53.4011202,38.4583068 52.7760453,41.7718204 C52.3447027,44.0560236 49.5201525,50.5669852 48.4860458,53 L34,47.1974398 Z" id="Fill-5" fill="#597EF7"></path>
                    <path d="M34.5111607,50.0741362 C34.5365114,50.017766 34.5980044,49.9892456 34.655665,50.0037383 L34.67703,50.0112189 L48.4262483,56.2591298 C48.4893359,56.287798 48.5173588,56.3624474 48.4888393,56.4258638 C48.4634886,56.482234 48.4019956,56.5107544 48.344335,56.4962617 L48.32297,56.4887811 L34.5737517,50.2408702 C34.5106641,50.212202 34.4826412,50.1375526 34.5111607,50.0741362 Z" id="Stroke-7" fill="#965C56" fill-rule="nonzero"></path>
                    <path d="M14.5,88.9520856 L14.5,88.9520856 C14.4989019,85.309732 17.2252953,82.2580905 20.8103233,81.8894507 L48.468241,79.0458167 C53.5676879,78.5213563 57.9981688,82.5664006 58,87.7473441 C58.0014642,92.6358925 54.0400284,96.5776734 49.2045796,96.4988377 L21.4075228,96.0454404 C17.5757061,95.9828901 14.5010988,92.8257642 14.5,88.9520856" id="Fill-27" fill="#4E5C93"></path>
                    <path d="M28.1027473,125.868806 L17.2494106,126 C14.1537106,123.743023 16.7203273,119.515545 16.7203273,119.515545 L14.0276312,89.6500633 C13.6745337,85.6671838 16.7484701,82.1946258 20.7920171,82.0078414 C24.835189,81.8210571 28.2239486,84.9949084 28.2490895,88.9929827 L28.4096906,119.48219 C28.4096906,119.48219 31.0562327,123.535855 28.1027473,125.868806" id="Fill-29" fill="#4E5C93"></path>
                    <path d="M14.2839659,140.997841 L27.4537943,140.025945 L28,125.5 L17.908686,125.978739 L19.1841382,134.728761 L13.7425003,139.711715 C13.2272876,140.18343 13.5919109,141.048857 14.2839659,140.997841" id="Fill-31" fill="#253368"></path>
                    <path d="M75.6188002,67.2328819 C75.6188002,67.2328819 84.7120967,37.4738248 83.36358,34.7866403 C82.0150633,32.0990895 73.0122071,28.2879402 62.022605,28.5092162 C46.8812039,28.8136538 42,32.1906772 42,32.1906772 C42,32.1906772 45.515408,53.6229427 48.7734654,65.2783994 C47.0573052,68.3323012 50.176761,70.5 50.176761,70.5 C50.176761,70.5 69.7585614,69.5980439 74.4166056,69.8420336 C76.5919528,68.9129675 75.6188002,67.2328819 75.6188002,67.2328819" id="Fill-33" fill="#597EF7"></path>
                    <path d="M48.8128036,91.6990785 L60.3471294,97 L78.1164054,90.4521069 C78.1164054,90.4521069 79.9868166,82.3449454 75.4672712,73.0033633 C74.8435547,71.2872084 74.5900085,70 74.5900085,70 C74.5900085,70 59.6543981,70.4961308 50.7245499,70.6242241 L50.4123226,73.4323098 C50.4123226,73.4323098 49.7254964,78.844713 48.1894562,81.4095321 C45.188236,86.4199366 48.8128036,91.6990785 48.8128036,91.6990785" id="Fill-35" fill="#4E5C93"></path>
                    <polygon id="Fill-37" fill="#FFC2BD" points="67.5 26.1509691 65.3833969 13 52.5 14.2319105 53.9564873 28.5194722 58.3430276 35"></polygon>
                    <path d="M60.8666692,5.13194336 C60.8666692,5.13194336 53.6111573,4.10978097 52.0966466,7.75550608 C50.6236793,11.3007897 51.8889298,23.2937338 55.7710478,24.6568687 C58.9352672,25.7681446 64.9616058,24.3117426 65.7407261,18.3471777 C65.7407261,18.3471777 66.4473276,13.7578309 65.527543,9.85382762 C64.6077584,5.95020191 60.8666692,5.13194336 60.8666692,5.13194336" id="Fill-39" fill="#FFC2BD"></path>
                    <path d="M65.4556433,15.1223717 C65.4556433,15.1223717 66.827605,11.1397158 68.4089355,12.9905735 C69.9899256,14.8414313 68.1178617,18.8899501 66.1011121,18.9978609 C64.0836817,19.1053997 65.4556433,15.1223717 65.4556433,15.1223717" id="Fill-41" fill="#FFC2BD"></path>
                    <g id="分组" transform="translate(50.500000, 0.000000)">
                        <mask id="mask-14" fill="white">
                            <use xlink:href="#path-13"></use>
                        </mask>
                        <g id="Clip-44"></g>
                        <path d="M1.16670313,14.5577442 C1.16670313,14.5577442 -0.286526042,10.2808256 0.452119792,7.43062791 C1.19076563,4.58006977 2.23529688,1.69346512 3.40524479,3.01168605 C3.47524479,2.31274419 4.22701563,0.842046512 4.85993229,0.306034884 C5.49284896,-0.229616279 7.99461979,2.46413953 7.99461979,2.46413953 C7.99461979,2.46413953 7.67560938,1.12140698 8.61842188,1.8527907 C9.56123438,2.58417442 14.999724,4.54438372 16.0074323,5.8052907 C17.0151406,7.06619767 17.178474,12.1238837 17.178474,12.1238837 C17.178474,12.1238837 15.5156094,12.1689419 15.0143073,15.3741977 C14.9392031,12.8513023 13.7295156,11.6722209 13.1294115,11.2400233 C12.9015469,11.0763721 12.7527969,10.8287326 12.6977448,10.5558605 C12.5927448,10.0321047 12.4239427,9.15184884 12.295974,8.28745349 C12.2394635,7.90680233 11.9182656,7.62419767 11.5292552,7.60437209 C7.57024479,7.40323256 3.38008854,8.50877907 1.89331771,8.94854651 C1.55680729,9.04803488 1.32748438,9.35190698 1.32310938,9.69903488 L1.28665104,12.5809535 C1.28665104,12.5809535 1.14409896,13.1025465 1.16670313,14.5577442" id="Fill-43" fill="#253368" mask="url(#mask-14)"></path>
                    </g>
                    <path d="M60.7665985,12.7482075 L60.7999269,12.7510606 L62.1405063,12.9393893 C62.3095896,12.9631426 62.4274195,13.1195872 62.4036869,13.2888181 C62.3814376,13.4474721 62.2426669,13.5610399 62.0860872,13.555044 L62.054563,13.5522286 L60.7809211,13.3732911 L58.4077769,14.0898168 C58.2545262,14.1360785 58.0933504,14.0575572 58.0331778,13.9127507 L58.0225223,13.8829229 C57.9763009,13.7295383 58.0547537,13.5682218 58.1994339,13.5079967 L58.2292356,13.4973318 L60.6676845,12.7612378 C60.6998041,12.7515419 60.7332134,12.7471647 60.7665985,12.7482075 Z" id="Stroke-45" fill="#253368" fill-rule="nonzero" transform="translate(60.207999, 13.425568) rotate(22.000000) translate(-60.207999, -13.425568) "></path>
                    <path d="M53.1954338,13.3958143 L55.7319918,13.7523198 C55.9010735,13.7760837 56.0188937,13.9325357 55.9951505,14.1017651 C55.9728913,14.2604176 55.8341134,14.3739767 55.6775341,14.367971 L55.6460101,14.3651536 L53.1926018,14.0203504 L52.3432409,14.3731304 C52.1953846,14.4345087 52.0271673,14.372524 51.952819,14.2344709 L51.9392348,14.20586 C51.87791,14.0578746 51.9398407,13.8895104 52.0777733,13.8150972 L52.1063592,13.8015011 L53.0340022,13.4164165 C53.0748074,13.3994774 53.1186433,13.3915367 53.1625432,13.392973 L53.1954338,13.3958143 Z" id="Stroke-47" fill="#253368" fill-rule="nonzero" transform="translate(53.956879, 13.894814) rotate(-26.000000) translate(-53.956879, -13.894814) "></path>
                    <path d="M65.1747754,16.1198734 C65.1747754,16.1198734 63.3887596,17.9881229 62.5524737,19.8028519 C60.9078993,18.1196305 59.3091388,17.5087317 59.3091388,17.5087317 C59.3091388,17.5087317 57.7361941,19.0776484 56.7722837,18.7725812 C56.4446778,18.4480173 56.4334061,18.0768141 56.4334061,18.0768141 C56.4334061,18.0768141 54.9575433,18.8746526 54.0638082,20.6966451 C53.4682272,19.5516876 52,18.1574772 52,18.1574772 C52,18.1574772 52.6268508,26.0460241 58.1332481,25.4699136 C63.6829141,24.7657361 65.1624129,21.3029564 65.4809288,18.5160649 C65.5289243,17.649032 65.5063809,15.4676872 65.1747754,16.1198734" id="Fill-49" fill="#EFADAB"></path>
                    <path d="M56.1363316,14.003325 C56.22098,13.9877126 56.3044258,14.0284812 56.333889,14.0962359 L56.3410557,14.1173425 L56.5408548,14.919868 L56.5438725,14.9653292 L56.5247802,15.1501805 L56.4990823,15.431503 C56.4934629,15.4974184 56.4879351,15.565454 56.4825607,15.6353187 C56.4494894,16.0652285 56.4276798,16.4917234 56.4224063,16.8895463 L56.4212879,17.0531666 C56.4210811,17.9635934 56.5244067,18.584435 56.6959774,18.6731915 C56.8553136,18.7555657 57.258167,18.6628994 57.7965446,18.4170215 C57.9567205,18.3438689 58.1252729,18.2592086 58.2994729,18.1653128 C58.5229707,18.0448449 58.7442255,17.9155502 58.9530733,17.7862521 L59.0574205,17.7209711 L59.221775,17.6148317 C59.2969703,17.5645419 59.4052935,17.5762413 59.4637216,17.6409629 C59.5221496,17.7056846 59.508557,17.7989198 59.4333616,17.8492097 L59.357715,17.8987246 C59.2976814,17.9375394 59.2295134,17.9807296 59.1544382,18.0272088 C58.9399879,18.1599754 58.7127859,18.2927454 58.4825018,18.4168712 C58.3017015,18.5143247 58.1261501,18.6025004 57.958179,18.6792131 C57.3105031,18.9750076 56.8257366,19.0865161 56.5183725,18.9276139 C56.1696155,18.747196 56.0622567,18.0422089 56.0775813,16.88616 C56.0829345,16.4823247 56.1050102,16.0506258 56.1384667,15.6157091 L56.163746,15.3114343 L56.1978463,14.9595094 L56.0038631,14.1795338 C55.9857241,14.1066758 56.0330902,14.0348529 56.1118094,14.0094935 L56.1363316,14.003325 Z" id="Stroke-53" fill="#D18682" fill-rule="nonzero"></path>
                    <path d="M58.8388231,21.5011356 C58.918107,21.4904329 58.9898316,21.5565839 58.9990246,21.6488878 C59.0073819,21.7328006 58.961183,21.8094401 58.893147,21.8307221 L58.8721138,21.8353979 L57.6611769,21.9988644 C57.581893,22.0095671 57.5101684,21.9434161 57.5009754,21.8511122 C57.4926181,21.7671994 57.538817,21.6905599 57.606853,21.6692779 L57.6278862,21.6646021 L58.8388231,21.5011356 Z" id="Stroke-55" fill="#D18682" fill-rule="nonzero"></path>
                    <path d="M59.506998,15.8144399 C59.5530517,16.2272031 59.81089,16.5327903 60.0831397,16.4971781 C60.3553893,16.4615658 60.5389777,16.0983206 60.492924,15.6855574 C60.4468702,15.2731333 60.1890319,14.9672069 59.9167823,15.0028192 C59.6445326,15.0384315 59.4612575,15.4016767 59.506998,15.8144399" id="Fill-57" fill="#253368"></path>
                    <path d="M53.506998,16.3144399 C53.5530517,16.7272031 53.81089,17.0327903 54.0831397,16.9971781 C54.3553893,16.9615658 54.5389777,16.5983206 54.492924,16.1858965 C54.4468702,15.7731333 54.1890319,15.4672069 53.9167823,15.5028192 C53.6445326,15.5384314 53.4612575,15.9020158 53.506998,16.3144399" id="Fill-59" fill="#253368"></path>
                    <rect id="矩形" stroke="#B46F6C" stroke-width="0.5" x="55.75" y="20.25" width="5" height="1" rx="0.5"></rect>
                    <path d="M65.8315272,19 L65.8557945,19.0011377 C65.9456897,19.0118711 66.0097093,19.0921812 65.9987863,19.1805155 L65.9869342,19.2611113 L65.9694292,19.3631698 C65.9628052,19.3995727 65.9553777,19.4383252 65.9471029,19.4793258 C65.90005,19.7124665 65.8352427,19.9717742 65.74986,20.250763 C65.5060724,21.0473414 65.146059,21.8439126 64.6467398,22.5882552 C63.0593858,24.9545472 60.4636636,26.262502 56.6505998,25.9558245 C56.5603453,25.9485655 56.4931681,25.8707856 56.5005553,25.7820982 C56.5079426,25.6934108 56.587097,25.6274001 56.6773515,25.6346591 C60.36834,25.9315184 62.8501387,24.6809682 64.3729389,22.4109075 C64.853414,21.6946562 65.200673,20.9263054 65.4358196,20.1579617 C65.5063147,19.9276184 65.5621599,19.7115588 65.6050566,19.5139113 L65.6254338,19.4166409 C65.6522478,19.2837812 65.6672761,19.1899324 65.6732469,19.1416465 C65.683177,19.0613427 65.7516246,19.0020523 65.8315272,19 Z M60.793058,19.5689443 L60.8153064,19.5834187 L62.0027061,20.4989756 C62.0739478,20.5539073 62.0863828,20.6551882 62.0304804,20.7251929 C61.9801683,20.7881971 61.8916499,20.804395 61.8225141,20.7669593 L61.8002657,20.752485 L60.612866,19.836928 C60.5416243,19.7819963 60.5291893,19.6807154 60.5850916,19.6107107 C60.6354038,19.5477065 60.7239222,19.5315087 60.793058,19.5689443 Z" id="Stroke-63" fill="#D18682" fill-rule="nonzero"></path>
                    <path d="M58.6797429,22.599783 C58.715143,22.5133856 58.8055006,22.4759437 58.8815622,22.5161543 C58.9576238,22.5563648 58.9905865,22.6590009 58.9551864,22.7453983 L58.9377637,22.7915937 C58.921473,22.8377526 58.9012492,22.9025478 58.8808182,22.9820739 C58.8045435,23.2789678 58.7789354,23.5840065 58.8323143,23.8621735 C58.8985352,24.2072626 59.0816214,24.4823993 59.4162164,24.6732064 C59.4911939,24.7159633 59.5214605,24.8196653 59.4838186,24.9048313 C59.4461767,24.9899973 59.3548806,25.0243766 59.2799031,24.9816197 C58.8620025,24.7433064 58.6209334,24.3810348 58.5354699,23.9356694 C58.4696787,23.5928202 58.4998951,23.2328899 58.5891685,22.8853996 C58.6224185,22.7559762 58.6560748,22.6575472 58.6797429,22.599783 Z" id="Stroke-65" fill="#D18682" fill-rule="nonzero"></path>
                    <path d="M66.9873318,13.6234341 C67.4899094,13.3700613 67.8305736,13.5258995 67.9526114,13.916395 C67.9845698,14.0186551 67.9977942,14.1205508 68,14.2089652 L67.999804,14.2685846 C67.9958678,14.3592847 67.9154562,14.4297734 67.8201998,14.4260255 C67.7336031,14.4226183 67.6645491,14.3590314 67.6556669,14.2793539 L67.65485,14.2550121 C67.6564535,14.1852772 67.647979,14.0942314 67.6217031,14.0101541 C67.559534,13.8112258 67.451074,13.7616103 67.1489447,13.9139278 C66.5897303,14.1961268 66.5812839,14.6113737 66.9319727,15.4853503 C67.2252858,16.2162504 66.962944,16.7615226 66.2265217,16.9917531 C66.1359416,17.0200716 66.0384021,16.9731107 66.0086611,16.8868632 C65.9789202,16.8006157 66.02824,16.7077416 66.1188201,16.6794232 C66.6474751,16.5141478 66.8216342,16.1832789 66.6305363,15.6577436 L66.5554449,15.4640232 C66.2053467,14.5356281 66.2502659,13.9953831 66.9873318,13.6234341 Z" id="Stroke-67" fill="#D18682" fill-rule="nonzero"></path>
                    <path d="M59.5598399,20.8055 C59.5908399,20.9105 59.7008399,20.971 59.8058399,20.94 C59.9108399,20.9095 59.9708399,20.7995 59.9403399,20.6945 C59.9093399,20.5895 59.7993399,20.529 59.6943399,20.56 C59.5893399,20.5905 59.5288399,20.7005 59.5598399,20.8055" id="Fill-69" fill="#D18682"></path>
                    <path d="M61.5597486,21.3055195 C61.5907486,21.4105195 61.7007486,21.4710195 61.8057486,21.4400195 C61.9107486,21.4095195 61.9707486,21.2995195 61.9402486,21.1945195 C61.9092486,21.0890195 61.7992486,21.0290195 61.6947486,21.0600195 C61.5892486,21.0905195 61.5292486,21.2005195 61.5597486,21.3055195" id="Fill-71" fill="#D18682"></path>
                    <path d="M55.0575,22.2035941 C55.032,22.3100941 55.0975,22.4170941 55.2035,22.4425941 C55.31,22.4680941 55.417,22.4025941 55.4425,22.2965941 C55.468,22.1900941 55.4025,22.0830941 55.2965,22.0575941 C55.19,22.0315941 55.083,22.0970941 55.0575,22.2035941" id="Fill-73" fill="#D18682"></path>
                    <path d="M53.5574059,21.7035941 C53.5319059,21.8100941 53.5974059,21.9170941 53.7034059,21.9425941 C53.8099059,21.9680941 53.9169059,21.9025941 53.9424059,21.7965941 C53.9684059,21.6900941 53.9029059,21.5830941 53.7964059,21.5575941 C53.6899059,21.5315941 53.5829059,21.5970941 53.5574059,21.7035941" id="Fill-75" fill="#D18682"></path>
                    <path d="M56.5572644,22.7035941 C56.5317644,22.8100941 56.5972644,22.9170941 56.7032644,22.9425941 C56.8097644,22.9680941 56.9167644,22.9025941 56.9427644,22.7965941 C56.9682644,22.6900941 56.9022644,22.5830941 56.7962644,22.5575941 C56.6897644,22.5315941 56.5827644,22.5970941 56.5572644,22.7035941" id="Fill-77" fill="#D18682"></path>
                    <path d="M58.0573437,21.7035801 C58.0318437,21.8100801 58.0973437,21.9170801 58.2033437,21.9425801 C58.3098437,21.9680801 58.4168437,21.9025801 58.4428437,21.7965801 C58.4678437,21.6900801 58.4023437,21.5830801 58.2963437,21.5575801 C58.1898437,21.5315801 58.0828437,21.5975801 58.0573437,21.7035801" id="Fill-79" fill="#D18682"></path>
                    <path d="M63.5572644,20.2035949 C63.5317644,20.3095949 63.5972644,20.4170949 63.7032644,20.4425949 C63.8097644,20.4680949 63.9167644,20.4025949 63.9427644,20.2960949 C63.9682644,20.1900949 63.9022644,20.0825949 63.7962644,20.0575949 C63.6897644,20.0315949 63.5827644,20.0970949 63.5572644,20.2035949" id="Fill-81" fill="#D18682"></path>
                    <path d="M61.0597486,22.8053604 C61.0907486,22.9103604 61.2007486,22.9708604 61.3057486,22.9403604 C61.4107486,22.9093604 61.4707486,22.7993604 61.4402486,22.6943604 C61.4092486,22.5893604 61.2992486,22.5288604 61.1947486,22.5598604 C61.0892486,22.5903604 61.0292486,22.7003604 61.0597486,22.8053604" id="Fill-83" fill="#D18682"></path>
                    <path d="M59.5598399,22.3056601 C59.5908399,22.4106601 59.7008399,22.4711601 59.8058399,22.4401601 C59.9108399,22.4096601 59.9708399,22.2996601 59.9403399,22.1941601 C59.9093399,22.0891601 59.7993399,22.0291601 59.6943399,22.0596601 C59.5893399,22.0906601 59.5288399,22.2006601 59.5598399,22.3056601" id="Fill-85" fill="#D18682"></path>
                    <path d="M55.5598399,23.8053604 C55.5908399,23.9103604 55.7008399,23.9708604 55.8058399,23.9403604 C55.9108399,23.9093604 55.9708399,23.7993604 55.9403399,23.6943604 C55.9093399,23.5893604 55.7993399,23.5288604 55.6943399,23.5598604 C55.5893399,23.5903604 55.5288399,23.7003604 55.5598399,23.8053604" id="Fill-87" fill="#D18682"></path>
                    <path d="M56.0598413,21.80575 C56.0908413,21.91075 56.2003413,21.97075 56.3053413,21.94025 C56.4108413,21.90975 56.4708413,21.79925 56.4403413,21.69425 C56.4093413,21.58925 56.2993413,21.52925 56.1943413,21.55975 C56.0893413,21.59075 56.0288413,21.70075 56.0598413,21.80575" id="Fill-89" fill="#D18682"></path>
                    <path d="M55.5597486,20.3056587 C55.5907486,20.4106587 55.7007486,20.4711587 55.8057486,20.4401587 C55.9107486,20.4096587 55.9707486,20.2996587 55.9402486,20.1946587 C55.9092486,20.0891587 55.7992486,20.0291587 55.6947486,20.0596587 C55.5892486,20.0906587 55.5292486,20.2006587 55.5597486,20.3056587" id="Fill-91" fill="#D18682"></path>
                    <path d="M62.0598399,21.80575 C62.0908399,21.91075 62.2008399,21.97075 62.3058399,21.94025 C62.4108399,21.90975 62.4708399,21.79925 62.4403399,21.69425 C62.4093399,21.58925 62.2993399,21.52925 62.1943399,21.55975 C62.0893399,21.59075 62.0288399,21.70075 62.0598399,21.80575" id="Fill-93" fill="#D18682"></path>
                    <path d="M53,32.3461296 L53.8374654,27.5089551 L56.8424451,27.6109599 L59.0790096,33.712278 L61.8650223,27.1374429 L68.4853565,26 L70.5,29.5741047 C70.5,29.5741047 66.9200937,36.7663372 58.6543688,35.9327612 C54.5711708,35.520805 53,32.3461296 53,32.3461296" id="Fill-95" fill="#597EF7"></path>
                    <path d="M44.5213513,41.503747 C44.6034713,41.5215698 44.6545086,41.5979358 44.6353462,41.6743153 L44.62119,41.7349364 C44.613553,41.7693185 44.604203,41.8135809 44.593463,41.8675684 L44.5851525,41.90988 C44.5468234,42.107457 44.5084246,42.3412986 44.4725397,42.6101633 C44.2563297,44.2300999 44.2292904,46.2337496 44.5138238,48.5624071 C44.9078914,51.7875066 45.8583898,55.2203747 47.4878929,58.8026162 C47.5207503,58.8748486 47.4844295,58.9581788 47.4067682,58.9887393 C47.3291069,59.0192997 47.2395138,58.9855179 47.2066565,58.9132855 C45.5655549,55.3055463 44.6077261,51.8462034 44.2104053,48.594479 C43.9320376,46.3162828 43.9489983,44.3436675 44.1495196,42.7301932 L44.1694941,42.5751735 C44.2060758,42.3010878 44.2453199,42.0620988 44.2846336,41.8594465 L44.3139865,41.7153095 L44.3379635,41.6097732 C44.3552096,41.5410317 44.4234397,41.4957072 44.4967787,41.5003226 L44.5213513,41.503747 Z" id="Stroke-97" fill="#1D39C4" fill-rule="nonzero"></path>
                    <path d="M50,72.8572686 C61.772215,73.3979437 75,72.2283273 75,72.2283273 L74.5348632,69 C74.5348632,69 60.3265495,69.3730766 50.271452,69.5474648 C50.0583255,71.0955182 50,72.8572686 50,72.8572686" id="Fill-99" fill="#253368"></path>
                    <path d="M61.33987,72.5011645 C61.464604,72.5133841 61.5549,72.6158568 61.5415518,72.7300438 L61.516471,72.9555252 C61.4964402,73.1405704 61.4741108,73.3562431 61.4500569,73.6003774 L61.3985577,74.1399782 C61.3471997,74.6955141 61.2964804,75.2980429 61.248337,75.9402517 C61.0029938,79.2130094 60.8917897,82.5457043 60.989695,85.6539744 C61.0910535,88.8718747 61.4132293,91.6175739 61.993167,93.7415944 C62.0235865,93.8530058 61.9495874,93.9658974 61.8278853,93.9937448 C61.7061832,94.0215921 61.5828642,93.9538501 61.5524447,93.8424386 C60.9632221,91.6844119 60.6378242,88.9112532 60.5356029,85.6659609 C60.4372175,82.5424493 60.5488493,79.1969381 60.7951222,75.911779 L60.8442302,75.2807877 C60.888522,74.7321641 60.9343509,74.216868 60.9803555,73.7400235 L61.0277027,73.2634067 L61.08985,72.6857928 C61.1021714,72.5803894 61.1984982,72.5018485 61.3113515,72.5 L61.33987,72.5011645 Z" id="Stroke-101" fill="#253368" fill-rule="nonzero"></path>
                    <path d="M56.5379925,73.0011583 C56.6479422,73.0133945 56.7275813,73.1164527 56.7158715,73.2313453 L56.6705198,73.6912979 L56.5891589,74.553675 L56.5321529,75.181967 C56.4562796,76.0314433 56.3812168,76.9261196 56.3102137,77.8442286 C56.2152326,79.0723887 56.1333339,80.2685812 56.068262,81.4076692 L56.03178,82.0745671 C55.7920531,86.6721771 55.8880666,89.7254928 56.3648492,90.1129074 C56.5942578,90.2994278 56.8738508,90.5035429 57.197141,90.7221909 C57.4422799,90.8879835 57.7102339,91.0605719 57.9973746,91.2383721 C58.5203553,91.5622066 59.0812538,91.8877868 59.642224,92.1989178 L59.8708429,92.3248859 L60.349649,92.582801 L60.3892654,92.6036153 C60.4881687,92.6552765 60.5282678,92.7809376 60.4788291,92.8842872 C60.4293904,92.9876368 60.3091355,93.0295386 60.2102322,92.9778773 L60.0017184,92.8671295 L59.7947973,92.7553973 C59.6871231,92.6968627 59.5733535,92.6344206 59.4545001,92.5685009 C58.8883903,92.2545193 58.3222087,91.9258725 57.793248,91.5983351 C57.5018027,91.4178695 57.2294235,91.2424309 56.9795759,91.0734536 C56.6472533,90.8486968 56.3584914,90.637888 56.1190069,90.4431754 C55.4584094,89.9064001 55.3713617,86.8340092 55.647431,81.7614585 C55.7088924,80.6321535 55.7876168,79.4432132 55.8798577,78.2196336 L55.9111002,77.8105251 C55.9911367,76.775608 56.0763152,75.7704823 56.1620102,74.826078 L56.2612794,73.7618005 L56.3177086,73.187034 C56.3285176,73.0809794 56.4133841,73.0019125 56.5128549,73 L56.5379925,73.0011583 Z" id="Stroke-103" fill="#253368" fill-rule="nonzero"></path>
                    <path d="M55.5,70.3710964 L55.5,73.6764842 C55.5,74.1083384 55.841854,74.4618068 56.2749704,74.4742606 C57.7096924,74.5156512 60.8989353,74.5526464 63.7919554,74.1991779 C64.1957918,74.149729 64.5,73.8109121 64.5,73.4057969 L64.5,70.298205 C64.5,69.8535307 64.1383725,69.4945679 63.6923272,69.5000622 C62.0526449,69.5194755 58.3165878,69.5623313 56.2936032,69.5733199 C55.8532618,69.5755177 55.5,69.9322827 55.5,70.3710964" id="Fill-105" fill="#E1E7F3"></path>
                    <path d="M56.5,70.6124595 L56.5007249,72.9251135 C56.5007249,73.2266799 56.7667771,73.4740495 57.1035108,73.4825661 C58.2195526,73.511213 60.699565,73.5356015 62.9494097,73.2878448 C63.2633078,73.253004 63.5,73.0156996 63.5,72.7323278 L63.4992751,70.5582627 C63.4992751,70.2474054 63.2176367,69.9965518 62.8707539,70.0000359 C61.5955882,70.0143593 58.6900373,70.045716 57.1169221,70.0538455 C56.774389,70.0557811 56.5,70.3054734 56.5,70.6124595" id="Fill-107" fill="#253368"></path>
                    <polygon id="Fill-109" fill="#E1E7F3" points="63.145582 73.5 56 70.1767912 56.2950503 69.5 63.5 72.8847014"></polygon>
                    <polygon id="Fill-111" fill="#E1E7F3" points="63.5 70.1918168 56.2849834 73.5 56 72.8123123 63.2989624 69.5"></polygon>
                    <path d="M69.3251108,29.5099314 C69.3927488,29.47894 69.4675202,29.5229012 69.4921176,29.6081215 C69.5142552,29.6848198 69.4882071,29.7687983 69.433468,29.8074198 L69.4141858,29.8185415 L64.6748892,31.9900686 C64.6072512,32.02106 64.5324798,31.9770988 64.5078824,31.8918785 C64.4857448,31.8151802 64.5117929,31.7312017 64.566532,31.6925802 L64.5858142,31.6814585 L69.3251108,29.5099314 Z" id="Stroke-113" fill="#1D39C4" fill-rule="nonzero"></path>
                    <path d="M59.3548105,33.5029304 C59.4528787,33.5188875 59.516246,33.5955692 59.4963454,33.6742038 L59.4424187,33.9036289 C59.4283284,33.9661618 59.4134301,34.0340563 59.3978582,34.1070782 L59.3422488,34.3763009 C59.2867884,34.6535036 59.2320084,34.9542402 59.1800059,35.274852 C58.9138044,36.9160655 58.7938841,38.5877534 58.9020108,40.1455161 C58.9563411,40.9282443 59.068012,41.6580504 59.2423982,42.3248715 C59.2629351,42.4034008 59.2001899,42.4804108 59.102253,42.496878 C59.0043161,42.5133452 58.9082741,42.4630339 58.8877372,42.3845046 C58.7093539,41.7023991 58.5954884,40.9582507 58.5401961,40.161663 C58.4306632,38.5836403 58.5518034,36.8949462 58.8206576,35.2373778 C58.8818928,34.8598438 58.9469667,34.5094925 59.0125427,34.1920971 L59.0858492,33.8518276 L59.141209,33.6164182 C59.1591196,33.5456471 59.2383731,33.4974137 59.3255364,33.5001074 L59.3548105,33.5029304 Z" id="Stroke-115" fill="#1D39C4" fill-rule="nonzero"></path>
                    <path d="M35.0375814,93.6118035 L35.0375814,93.6118035 C34.6682951,89.9759392 37.0577308,86.6457564 40.567408,85.9043952 L67.6436734,80.1848452 C72.6359588,79.130374 77.427941,82.7064391 77.9534639,87.8781395 C78.4491234,92.757901 74.9277922,97.1050413 70.13581,97.5299497 L42.5882857,99.9728019 C38.7909002,100.309683 35.43054,97.4786933 35.0375814,93.6118035" id="Fill-117" fill="#4E5C93"></path>
                    <path d="M44.5644356,129.5 L34.1668933,128.499077 C31.4488919,125.953243 34.330923,122.053866 34.330923,122.053866 L34.8413576,92.3409569 C34.9154588,88.379505 38.2028879,85.2764595 42.0766514,85.5126406 L42.0766514,85.5126406 C45.9504149,85.7484545 48.8533094,89.2287286 48.4651776,93.1714476 L45.4766711,123.235507 C45.4766711,123.235507 47.619849,127.507704 44.5644356,129.5" id="Fill-119" fill="#4E5C93"></path>
                    <path d="M30.063194,144 L42.2115225,143.860635 L44.5,129.468791 L34.261821,128.5 L34.529464,137.967097 L29.383166,142.165069 C28.6202168,142.787654 29.0740623,144.011255 30.063194,144" id="Fill-121" fill="#253368"></path>
                    <path d="M67.4967326,80.1689308 C67.5168767,80.280349 67.4417916,80.3868061 67.3290254,80.4067093 L66.0636628,80.6322609 C65.2007423,80.7869398 64.2532763,80.9581681 63.2393854,81.1430964 L61.4330513,81.4742141 C58.6314726,81.990344 55.848914,82.5151787 53.2088874,83.0292921 L52.6022369,83.1477345 C51.806086,83.3035809 51.0326942,83.4566278 50.2841913,83.6065402 L49.2612251,83.8126174 C45.7599254,84.5222004 42.9469931,85.1376773 40.9884456,85.6327864 C37.9948582,86.3894034 36.1171489,88.9606827 35.1445383,92.7969336 C34.5422424,95.1725589 34.36476,97.6571477 34.4264298,99.7630913 L34.43567,100.03103 L34.4481901,100.281422 C34.4558121,100.394353 34.3693346,100.492007 34.2550371,100.499538 C34.1407397,100.507069 34.0419045,100.421625 34.0342825,100.308694 L34.0293016,100.222814 C34.0256423,100.153662 34.0219907,100.072736 34.0185876,99.9806499 C33.9378996,97.7973025 34.1092962,95.1934716 34.7421446,92.6973385 C35.7478725,88.7304633 37.7147014,86.0371463 40.8856324,85.2357064 L41.3841133,85.1115999 C43.4025244,84.6162583 46.1926663,84.0127767 49.6102847,83.3237012 L50.5783857,83.1295679 C51.2095149,83.0036757 51.8576691,82.875649 52.5216192,82.7456809 L53.7406796,82.5082792 C56.403393,81.9923422 59.19898,81.467217 62.0040409,80.9523049 L63.665628,80.6486887 C64.4093812,80.5134189 65.1140633,80.3861243 65.7720318,80.2680067 L67.2560772,80.0032284 C67.3688434,79.9833251 67.4765885,80.0575126 67.4967326,80.1689308 Z" id="Stroke-123" fill="#253368" fill-rule="nonzero"></path>
                    <path d="M48.5351641,63 L33.5656004,63 C33.1457069,63 32.7739564,62.7275699 32.6465405,62.3261896 L27.5462829,46.2611696 C27.3479194,45.6371231 27.8119741,45 28.4649808,45 L43.4349065,45 C43.854438,45 44.2261885,45.2724301 44.3536044,45.6738104 L49.453862,61.7388304 C49.6518635,62.3628769 49.1878088,63 48.5351641,63" id="Fill-125" fill="#4E5C93"></path>
                    <path d="M47.034813,63 L32.065396,63 C31.6455067,63 31.2737598,62.7275699 31.1463451,62.3261896 L26.0461375,46.2611696 C25.848138,45.6371231 26.3121881,45 26.9648264,45 L41.9346054,45 C42.3541328,45 42.7258796,45.2724301 42.8532943,45.6738104 L47.9538639,61.7388304 C48.1518635,62.3628769 47.6878134,63 47.034813,63" id="Fill-127" fill="#253368"></path>
                    <path d="M46.275838,66.2006263 C52.7460177,67.2941066 67.8122829,70.4921152 76.8185793,70.5 C76.8185793,70.5 86.2046328,70.2813756 85.996592,62.2087604 C85.7944218,54.3375663 76.2201409,55.014585 76.2201409,55.014585 C65.4900776,55.5471683 52.9247053,56.5295444 46.9300475,56.624879 C46.9300475,56.624879 43.7195409,56.8295257 43.0935839,60.7002522 C42.3505809,65.293156 46.275838,66.2006263 46.275838,66.2006263" id="Fill-129" fill="#FFC2BD"></path>
                    <path d="M70.555479,61.7259571 C70.555479,61.7259571 68.4675691,44.7168746 68.5003828,41.6626439 C68.5291408,38.9903757 69.3642311,31.9923826 76.6182711,31.5226422 C82.419291,31.1465561 84.4102347,35.5295754 85.2796134,39.1607898 C86.7813011,45.4337888 86.687653,53.6386364 86.110648,60.9921485 C86.110648,60.9921485 85.745273,69.3644719 77.6539305,68.9876513 C70.8072965,68.6692268 70.555479,61.7259571 70.555479,61.7259571" id="Fill-131" fill="#FFC2BD"></path>
                    <path d="M68.9505554,53.5 C68.6628908,50.6574238 67.4894317,42.8140892 67.5,41.8245131 C67.5297124,39.0763622 68.7700525,31.5019505 76.2470537,31.0188712 C82.2260707,30.6321056 84.9666751,36.2768439 85.8627297,40.0111716 C86.4802397,42.5855802 86.4319789,50.0077785 86.5,53.008989 L68.9505554,53.5 Z" id="Fill-133" fill="#597EF7"></path>
                    <path d="M68.6442431,41.5000079 C68.7229718,41.5008388 68.7861186,41.5645495 68.7852856,41.6423179 L68.7860909,41.7265675 C68.8084495,42.6680093 69.2461877,47.4682779 69.67056,51.7407381 L69.8182885,53.2118702 L86.8501846,52.3739792 C86.9209566,52.3704975 86.9822402,52.4186142 86.9966442,52.4848984 L86.9998377,52.5076202 C87.0031826,52.577529 86.9544718,52.6380651 86.8873691,52.6522934 L86.8643667,52.6552704 L69.6970952,53.4998229 C69.6212517,53.5035541 69.5557598,53.4479035 69.548161,53.3732686 L69.3117298,51.0086943 C68.8957221,46.7762428 68.4930564,42.3047761 68.5000908,41.6393381 C68.5010171,41.5615698 68.5655145,41.4991931 68.6442431,41.5000079 Z" id="Stroke-135" fill="#1D39C4" fill-rule="nonzero"></path>
                    <path d="M45.569932,66.0915498 C45.569932,66.0915498 48.2434367,66.0786219 49.9127719,62.7708904 C51.4247127,59.7752225 49.539648,58.3571103 49.539648,58.3571103 C49.539648,58.3571103 47.1145257,55.6810474 43.3605393,54.9039405 C40.9001959,54.3943682 36.3768476,52.7421184 35.7615783,53.9077786 C34.9595636,55.427159 39.7213884,56.2908105 39.9569297,57.5074639 C40.4338827,59.9730903 33.1108207,59.4477172 31.7632452,60.009001 C29.6936363,60.870857 31.7581088,65.3801595 38.8742466,66.32461 C40.8158119,66.5824486 42.741968,66.5960947 45.569932,66.0915498" id="Fill-137" fill="#FFC2BD"></path>
                    <path d="M38.9952163,61.653969 C39.016413,61.7629693 38.965184,61.8735255 38.8807931,61.9009034 L38.795277,61.9271359 L38.6834696,61.9594479 C38.6433458,61.9707424 38.600394,61.9825369 38.5546938,61.9947593 C38.2942236,62.0644214 37.9974516,62.1340154 37.6694675,62.1989338 C35.7547406,62.5779185 33.7404526,62.6347764 31.8512174,62.1626103 C31.6022446,62.1003859 31.3577314,62.0291788 31.1179677,61.9487152 C31.0337519,61.9204527 30.9832199,61.8093626 31.0051014,61.7005884 C31.0269829,61.5918142 31.1129918,61.5265465 31.1972077,61.5548089 C31.4304643,61.6330887 31.6685185,61.7024149 31.9110781,61.7630364 C33.7596668,62.225044 35.7397356,62.169152 37.6217378,61.7966446 C37.9441483,61.7328294 38.2355505,61.6644946 38.4908032,61.5962279 L38.6725252,61.545782 L38.8040333,61.5061787 C38.8884241,61.4788008 38.9740197,61.5449688 38.9952163,61.653969 Z" id="Stroke-139" fill="#D18682" fill-rule="nonzero"></path>
                    <path d="M32.0069808,63.6375071 C32.0324585,63.5347108 32.1202119,63.4770283 32.2029836,63.5086697 L32.2717445,63.5330578 L32.3688966,63.5650318 C32.4041065,63.5762396 32.4421322,63.5879726 32.4829426,63.6001569 C32.7173387,63.6701379 32.993342,63.7402568 33.3089809,63.8057908 C35.130079,64.1838935 37.3285547,64.2455101 39.820247,63.788265 C39.9059209,63.7725432 39.9856356,63.8460529 39.9982948,63.9524535 C40.010954,64.0588541 39.951764,64.1578539 39.8660901,64.1735758 C37.3405544,64.6370314 35.109395,64.5744988 33.2572679,64.1899538 C32.9342767,64.1228932 32.6510786,64.0509465 32.4096367,63.9788619 L32.2375262,63.9250117 L32.12342,63.8856758 C32.1184295,63.883842 32.1141952,63.8822564 32.1107208,63.8809282 C32.0279491,63.8492868 31.9815031,63.7403035 32.0069808,63.6375071 Z" id="Stroke-141" fill="#D18682" fill-rule="nonzero"></path>
                    <path d="M40.9969842,65.6714464 C41.0133125,65.7873858 40.9617036,65.9005586 40.8817124,65.9242249 L40.6181358,66.0097233 C40.4241501,66.074496 40.2049334,66.1495445 40.1976604,66.1519356 C38.894754,66.5802846 37.6534388,66.645195 35.624097,66.1664278 C35.5435167,66.1474171 35.4888264,66.0373263 35.5019426,65.9205332 C35.5150588,65.8037401 35.5910148,65.7244717 35.671595,65.7434824 L35.9574771,65.8084507 C37.7336761,66.1960964 38.8684112,66.1336574 40.0397022,65.7638694 L40.8225822,65.5043712 C40.9025734,65.4807048 40.9806558,65.5555069 40.9969842,65.6714464 Z" id="Stroke-143" fill="#D18682" fill-rule="nonzero"></path>
                    <path d="M35.855442,54.1112514 C35.880861,54.0282271 35.9688092,53.9815172 36.0518799,54.006922 C36.1349506,54.0323268 36.1816865,54.120226 36.1562675,54.2032503 C36.0637954,54.505286 36.0865356,54.663839 36.2384854,54.8340515 C36.3256748,54.9317201 36.4578967,55.0367737 36.6712183,55.1793555 L36.8165548,55.2739143 L37.6404256,55.7918494 C37.8044732,55.895995 37.9627165,55.9865389 38.2034986,56.1143491 L38.8138009,56.4320495 C39.5844934,56.8359906 39.9369969,57.0680496 40.2089584,57.3956314 C40.6138045,57.8832746 40.6051977,58.4404235 40.1270715,59.0821417 C39.6075167,59.7796788 38.2120181,60.1807523 36.1876811,60.3739641 C35.0305109,60.4844096 33.8148776,60.5137164 32.7176547,60.4945431 L32.4025538,60.4876282 L32.1505031,60.4793718 C32.0637116,60.4756203 31.996396,60.4022599 32.0001497,60.3155167 C32.0039033,60.2287736 32.0773046,60.1614956 32.1640962,60.1652471 L32.2443865,60.1682566 L32.4743497,60.174949 C33.6237462,60.2031397 34.9261818,60.1785184 36.1577742,60.0609697 L36.3962171,60.0368692 C38.2002814,59.8440746 39.4485308,59.4665831 39.8747369,58.8943729 C40.2692267,58.3649075 40.275358,57.9680019 39.9668543,57.5964045 C39.7301714,57.3113164 39.3960122,57.0921742 38.6611451,56.7070904 L38.1156121,56.4235948 C37.8769257,56.2978612 37.7141941,56.2070596 37.5572455,56.1106589 L36.6112438,55.515922 C36.5900959,55.5023792 36.5723901,55.4909491 36.5589331,55.4821303 C36.2884431,55.3048704 36.1218081,55.1756304 36.0037424,55.0433743 C35.772069,54.7838563 35.732973,54.5112642 35.855442,54.1112514 Z" id="Stroke-145" fill="#D18682" fill-rule="nonzero"></path>
                    <path d="M75.8379461,54.5003169 C75.9223546,54.4942961 75.9946935,54.5747822 75.9997736,54.6800878 C76.0039069,54.7758201 75.9509881,54.859108 75.8779129,54.8779837 L75.8554228,54.881662 L46.1620539,56.9996831 C46.0776454,57.0057039 46.0053065,56.9252178 46.0002264,56.8199122 C45.9960931,56.7241799 46.0490119,56.640892 46.1220871,56.6220163 L46.1445772,56.618338 L75.8379461,54.5003169 Z" id="Stroke-147" fill="#D18682" fill-rule="nonzero"></path>
                </g>
            </g>
        </g>
    </g>
</svg>