<?xml version="1.0" encoding="UTF-8"?>
<svg width="219px" height="199px" viewBox="0 0 219 199" version="1.1" xmlns="http://www.w3.org/2000/svg" xmlns:xlink="http://www.w3.org/1999/xlink">
    <title>404提醒</title>
    <defs>
        <polygon id="path-1" points="0 0.0555002043 19.3248554 0.0555002043 19.3248554 4.61144765 0 4.61144765"></polygon>
        <polygon id="path-3" points="0.0103527529 0.0119414549 19.3544703 0.0119414549 19.3544703 4.54921675 0.0103527529 4.54921675"></polygon>
        <polygon id="path-5" points="0.0208731446 0.0276056037 4.99038153 0.0276056037 4.99038153 4.99687025 0.0208731446 4.99687025"></polygon>
        <polygon id="path-7" points="0.0122950879 0.0424199383 5.43496325 0.0424199383 5.43496325 5.40407322 0.0122950879 5.40407322"></polygon>
        <path d="M69.4998113,139 C31.1162431,139 0,107.883757 0,69.5001887 C0,31.1162431 31.1162431,0 69.4998113,0 C107.883757,0 139,31.1162431 139,69.5001887 C139,107.883757 107.883757,139 69.4998113,139 Z" id="path-9"></path>
        <polygon id="path-11" points="0.161810152 0.0867098523 36.2388846 0.0867098523 36.2388846 23.2438521 0.161810152 23.2438521"></polygon>
        <polygon id="path-13" points="0.146942009 0.08855 14.8185862 0.08855 14.8185862 13.889991 0.146942009 13.889991"></polygon>
        <polygon id="path-15" points="9.23184533e-06 0.0149171097 3.63120173 0.0149171097 3.63120173 3.94132481 9.23184533e-06 3.94132481"></polygon>
        <polygon id="path-17" points="3.31874435e-06 0 29.7359493 0 29.7359493 29.6707107 3.31874435e-06 29.6707107"></polygon>
    </defs>
    <g id="控件" stroke="none" stroke-width="1" fill="none" fill-rule="evenodd">
        <g id="5、反馈/7、Result结果/异常404" transform="translate(-77.000000, -101.000000)">
            <g id="404提醒" transform="translate(77.000000, 101.000000)">
                <g id="编组-5" transform="translate(0.000000, 6.000000)">
                    <path d="M104.499811,139 C66.1162431,139 35,107.883757 35,69.5001887 C35,31.1162431 66.1162431,0 104.499811,0 C142.883757,0 174,31.1162431 174,69.5001887 C174,107.883757 142.883757,139 104.499811,139 Z" id="Fill-1" fill="#DFE5F1"></path>
                    <g id="插图" transform="translate(0.000000, 9.000000)">
                        <g id="编组-4" transform="translate(157.500000, 141.500000)">
                            <path d="M14.0420275,24.019867 L7.97525672,24.019867 L7.97525672,3.02571209 C7.97525672,1.35467016 9.32623579,2.30926389e-13 10.9927831,2.30926389e-13 L11.0244537,2.30926389e-13 C12.691001,2.30926389e-13 14.0420275,1.35467016 14.0420275,3.02571209 L14.0420275,24.019867 Z" id="Fill-1" fill="#5BA02E"></path>
                            <path d="M17.2214518,29.1237878 L11.105421,29.1237878 L11.105421,18.1005645 C11.105421,16.4646705 12.4334597,15.1385304 14.0716959,15.1385304 L14.2552247,15.1385304 C15.8934131,15.1385304 17.2214518,16.4646705 17.2214518,18.1005645 L17.2214518,29.1237878 Z" id="Fill-3" fill="#92C110"></path>
                            <path d="M8.12199128,23.9165111 L2.0059604,23.9165111 L2.0059604,12.0003276 C2.0059604,10.3646203 3.32866186,9.03857778 4.96024802,9.03857778 L5.16770366,9.03857778 C6.79928982,9.03857778 8.12199128,10.3646203 8.12199128,12.0003276 L8.12199128,23.9165111 Z" id="Fill-5" fill="#92C110"></path>
                            <path d="M1.18953522,41.5 C0.532564831,41.5 0,40.9928122 0,40.3671467 L0,24.6328533 C0,24.0071878 0.532564831,23.5 1.18953522,23.5 L17.8104648,23.5 C18.4674352,23.5 19,24.0071878 19,24.6328533 L19,40.3671467 C19,40.9928122 18.4674352,41.5 17.8104648,41.5 L1.18953522,41.5 Z" id="Fill-7" fill="#CAD5EE"></path>
                            <path d="M10.0612206,4.57519779 C10.0612206,4.90387547 9.79407865,5.17031512 9.46453464,5.17031512 C9.13499064,5.17031512 8.8678487,4.90387547 8.8678487,4.57519779 C8.8678487,4.24652011 9.13499064,3.98008046 9.46453464,3.98008046 C9.79407865,3.98008046 10.0612206,4.24652011 10.0612206,4.57519779" id="Fill-9" fill="#92C110"></path>
                            <path d="M13.1938218,10.6751504 C13.1938218,11.0038281 12.9266798,11.2702678 12.5971358,11.2702678 C12.2675918,11.2702678 12.0004499,11.0038281 12.0004499,10.6751504 C12.0004499,10.3464728 12.2675918,10.0800331 12.5971358,10.0800331 C12.9266798,10.0800331 13.1938218,10.3464728 13.1938218,10.6751504" id="Fill-11" fill="#92C110"></path>
                            <path d="M3.9451897,13.6507371 C3.9451897,13.9794148 3.67804777,14.2458544 3.34850376,14.2458544 C3.01895976,14.2458544 2.75181783,13.9794148 2.75181783,13.6507371 C2.75181783,13.3220594 3.01895976,13.0556198 3.34850376,13.0556198 C3.67804777,13.0556198 3.9451897,13.3220594 3.9451897,13.6507371" id="Fill-13" fill="#5BA02E"></path>
                            <path d="M6.9286194,19.7506898 C6.9286194,20.0793675 6.66147747,20.3458071 6.33193346,20.3458071 C6.00238946,20.3458071 5.73524752,20.0793675 5.73524752,19.7506898 C5.73524752,19.4220121 6.00238946,19.1555724 6.33193346,19.1555724 C6.66147747,19.1555724 6.9286194,19.4220121 6.9286194,19.7506898" id="Fill-15" fill="#5BA02E"></path>
                        </g>
                        <g id="编组" opacity="0.837588356" transform="translate(180.000000, 79.000000)">
                            <g>
                                <mask id="mask-2" fill="white">
                                    <use xlink:href="#path-1"></use>
                                </mask>
                                <g id="Clip-2"></g>
                                <path d="M2.27460334,4.61144765 L17.0524774,4.6051665 C18.3079347,4.60459551 19.3254258,3.58537438 19.3248554,2.32919149 C19.3242845,1.07300859 18.3062227,0.0549294521 17.0507654,0.0555002043 L2.27232069,0.0617813588 C1.01686337,0.0623523511 -0.000627728662,1.08157347 -5.73061677e-05,2.33775637 C0.000513596178,3.59393927 1.01857535,4.61201841 2.27460334,4.61144765" id="Fill-1" fill="#E4E6EF" mask="url(#mask-2)"></path>
                            </g>
                            <g transform="translate(5.602137, 8.994366)">
                                <mask id="mask-4" fill="white">
                                    <use xlink:href="#path-3"></use>
                                </mask>
                                <g id="Clip-4"></g>
                                <path d="M2.28727393,4.54921699 L17.0798341,4.54296158 C18.336539,4.54239292 19.3550413,3.52734894 19.3544703,2.27631433 C19.3538988,1.02527972 18.3348254,0.0113730419 17.0781204,0.0119414549 L2.28556024,0.018196867 C1.02828403,0.0187655191 0.00978176354,1.03324085 0.0103527529,2.28484411 C0.0109242226,3.53587872 1.03056895,4.5497854 2.28727393,4.54921699" id="Fill-3" fill="#E4E6EF" mask="url(#mask-4)"></path>
                            </g>
                            <path d="M9.15471122,4.63797335 L9.15471122,4.63684539 L16.9413434,4.6334615 C15.6910058,4.63402548 14.6786925,5.64073129 14.6792606,6.88148914 C14.6792606,8.12224699 15.6932781,9.12782482 16.9430476,9.12726084 L9.15641545,9.13064473 L9.15641545,9.13008075 C10.3976638,9.11880113 11.3997517,8.11717116 11.3991837,6.8826171 C11.3986156,5.64862702 10.3953915,4.64812501 9.15471122,4.63797335" id="Fill-5" fill="#E4E6EF"></path>
                        </g>
                        <rect id="矩形" fill="#E5E3EA" x="0" y="183" width="219" height="1"></rect>
                        <g id="编组" transform="translate(6.000000, 110.000000)">
                            <g transform="translate(16.396498, 9.993740)">
                                <mask id="mask-6" fill="white">
                                    <use xlink:href="#path-5"></use>
                                </mask>
                                <g id="Clip-2"></g>
                                <path d="M4.97721327,2.7657877 C4.83715234,4.13067801 3.61712479,5.12384601 2.25219143,4.9837895 C0.886817625,4.84373299 -0.106381705,3.62374392 0.0341196636,2.25841318 C0.174180589,0.893522881 1.39420815,-0.0996451201 2.75914151,0.0408518166 C4.12407487,0.180908324 5.1172742,1.4008974 4.97721327,2.7657877" id="Fill-1" fill="#E4E6EF" mask="url(#mask-6)"></path>
                            </g>
                            <path d="M37.3343034,3.66186704 C37.1931104,5.03431563 35.9632216,6.03298344 34.5872558,5.89215135 C33.2108459,5.75131926 32.2096187,4.52413145 32.3508117,3.15168287 C32.4924488,1.77923428 33.7223376,0.78056647 35.0983034,0.921841429 C36.4742693,1.06223065 37.4754964,2.28941846 37.3343034,3.66186704" id="Fill-3" fill="#E4E6EF"></path>
                            <path d="M4.99671812,2.75350158 C4.85565549,4.12608941 3.62534403,5.12433511 2.24906342,4.98365097 C0.873191678,4.84255905 -0.128148555,3.6159565 0.0133229516,2.24336867 C0.154385581,0.870780838 1.38469704,-0.127464858 2.76056878,0.0132192784 C4.13684939,0.153903414 5.13818963,1.38091375 4.99671812,2.75350158" id="Fill-5" fill="#E4E6EF"></path>
                            <g transform="translate(46.001285, 6.359653)">
                                <mask id="mask-8" fill="white">
                                    <use xlink:href="#path-7"></use>
                                </mask>
                                <g id="Clip-8"></g>
                                <path d="M5.42089014,2.99693347 C5.26776765,4.46972338 3.93657561,5.54084331 2.44695048,5.38988891 C0.95732534,5.23849696 -0.126038395,3.92234959 0.0266415428,2.44955969 C0.179764032,0.976769783 1.51095607,-0.0943501475 3.00058121,0.0566042545 C4.48976379,0.207996205 5.57357008,1.52414357 5.42089014,2.99693347" id="Fill-7" fill="#E4E6EF" mask="url(#mask-8)"></path>
                            </g>
                            <polygon id="Fill-9" fill="#E4E6EF" points="18.9358474 12.7193061 18.8747672 12.6809867 2.73274962 2.47865527 2.86122862 2.27130466 18.9425873 12.4357424 35.2307761 3.22332924 35.2842739 3.2446178 49.1894931 8.75963319 49.1010322 8.98656928 35.2488895 3.49284246"></polygon>
                        </g>
                    </g>
                </g>
                <g id="man" transform="translate(35.000000, 6.000000)">
                    <mask id="mask-10" fill="white">
                        <use xlink:href="#path-9"></use>
                    </mask>
                    <use id="蒙版" fill="#DFE5F1" xlink:href="#path-9"></use>
                    <g transform="translate(34.500000, 24.000000)">
                        <g id="分组" transform="translate(32.500000, 19.500000)">
                            <mask id="mask-12" fill="white">
                                <use xlink:href="#path-11"></use>
                            </mask>
                            <g id="Clip-2"></g>
                            <path d="M6.50787981,7.64956567 C4.18907692,8.71793881 -1.6014375,12.1489388 0.687182692,18.3725806 C2.51709615,23.3493194 7.37054327,23.6635881 10.8594519,22.9680582 C16.8875673,21.7664015 25.3302981,17.2403716 31.527226,13.8858343 C31.527226,13.8858343 38.690351,10.3085731 35.3523558,3.71910299 C32.5274663,-1.85706119 26.380375,0.64761791 26.380375,0.64761791 C26.380375,0.64761791 9.15869231,6.42826716 6.50787981,7.64956567" id="Fill-1" fill="#FFC2BD" mask="url(#mask-12)"></path>
                        </g>
                        <path d="M49.2338857,23.5 C46.6895172,24.3337911 39.6695554,26.9838057 38.82604,27.3671257 C36.4833355,28.4317482 30.6478394,31.877082 33.0826926,38.3410612 C35.0295119,43.5099362 38.0555348,46.0574757 41.5951096,45.3975076 C44.0356335,44.94249 52.9035321,39.8561546 55.5,38.7778921 L49.2338857,23.5 Z" id="Fill-3" fill="#597EF7"></path>
                        <path d="M49.0834534,23.5101119 C49.1455075,23.4849297 49.2157401,23.5083953 49.2499856,23.5625852 L49.2600074,23.5817618 L55.4896789,38.3169127 C55.518238,38.3844641 55.4854956,38.4619078 55.4165466,38.4898881 C55.3544925,38.5150703 55.2842599,38.4916047 55.2500144,38.4374148 L55.2399926,38.4182382 L49.0103211,23.6830873 C48.981762,23.6155359 49.0145044,23.5380922 49.0834534,23.5101119 Z" id="Stroke-5" fill="#1D39C4" fill-rule="nonzero"></path>
                        <path d="M41.1939678,7.16727444 C46.4961458,10.1822295 59.4071726,15.2991901 65.874993,20.611153 C65.874993,20.611153 72.0520181,25.7619657 67.037119,31.5869999 C62.1470474,37.2663995 55.2428584,31.1388119 55.2428584,31.1388119 C47.8636218,24.4110543 40.307517,16.7953836 36.0633835,13.1855479 C36.0633835,13.1855479 33.8829468,11.1392573 35.7666107,7.91801589 C38.0019012,4.09554654 41.1939678,7.16727444 41.1939678,7.16727444" id="Fill-7" fill="#FFC2BD"></path>
                        <path d="M41.2757158,7.03048948 C41.2757158,7.03048948 33.7603682,-2.13255097 26.0168439,1.24920425 C20.245057,3.76982101 24.03243,10.8407322 26.8466107,11.5537215 C29.6607915,12.2663639 35.4680725,12.921065 37.1765011,13.4664759 C38.9349114,14.0278465 42.4144267,7.35766657 41.2757158,7.03048948" id="Fill-9" fill="#FFC2BD"></path>
                        <path d="M30.5940963,3.55247534 C31.9393327,3.17338973 34.219909,4.90241729 34.9006768,6.98916083 L34.9248646,7.06566153 C35.1564662,7.82263043 35.5481695,8.43051611 36.0554814,8.90692555 C36.3529482,9.18627248 36.6717767,9.40320876 36.9903041,9.56501148 C37.1014206,9.62145542 37.2043448,9.66691145 37.2963299,9.70230688 L37.3935867,9.73717647 C37.3988344,9.73885545 37.4033386,9.74023778 37.4070772,9.74133099 C37.47493,9.76117207 37.514354,9.83403681 37.4951331,9.90407895 C37.4759122,9.9741211 37.405325,10.0148171 37.3374722,9.99497603 L37.2720529,9.9733932 C37.2531653,9.96669363 37.2314651,9.95869317 37.2071267,9.94932787 C37.1073334,9.91092788 36.9965618,9.86200606 36.8775442,9.80154858 C36.5385458,9.62934723 36.1998484,9.39889176 35.8836244,9.10193029 C35.3685516,8.61823268 34.9651819,8.00658939 34.715901,7.25360701 L34.6813423,7.14507516 C34.0695941,5.14663808 31.8734038,3.46524045 30.6613529,3.80679462 C30.5933197,3.82596626 30.5231121,3.78457664 30.5045397,3.71434831 C30.4859673,3.64411998 30.5260632,3.57164699 30.5940963,3.55247534 Z" id="Stroke-11" fill="#965C56" fill-rule="nonzero"></path>
                        <path d="M40.5288297,126.933687 L40.5288297,126.933687 C44.0982229,126.441777 46.2939244,123.33786 45.9681084,119.817041 L42.7604563,85.178209 C42.3211737,80.4335459 38.6287102,76.9172621 33.8182993,77.5804683 C29.008244,78.2433256 25.7419024,82.7183105 26.65248,87.3980834 L32.596489,121.659784 C33.2723084,125.132459 36.9594365,127.425597 40.5288297,126.933687" id="Fill-13" fill="#4E5C93"></path>
                        <path d="M37.9766161,154.5 L47.391821,153.435687 C49.8552204,150.796161 47.4426491,146.951421 47.4426491,146.951421 L45.3611667,118.560712 C44.9845443,114.788706 41.8804988,112.037444 38.1096869,112.564857 C34.3388751,113.09227 31.4173167,116.68648 32.0992607,120.415618 L36.6314355,148.947931 C36.6314355,148.947931 34.8351553,152.838701 37.9766161,154.5" id="Fill-15" fill="#4E5C93"></path>
                        <path d="M52.804683,168.5 L40.5988137,168.394365 L38.5,154.475733 L47.2502746,153.5 L47.4074878,162.82534 L53.2302252,167.27475 C53.7531225,167.674271 53.464497,168.50578 52.804683,168.5" id="Fill-17" fill="#253368"></path>
                        <path d="M19.500888,127 L19.500888,127 C15.9602899,127 13.3920111,124.214008 13.2187196,120.668105 L11.5123567,85.7811988 C11.2786227,81.0024104 14.3804019,77 19.1515099,77 C23.9226179,77 27.7235027,81.0024104 27.4897687,85.7811988 L26.4818128,120.668105 C26.3085212,124.214008 23.0414862,127 19.500888,127" id="Fill-19" fill="#4E5C93"></path>
                        <path d="M25.013525,154 L15.4304382,153.888119 C12.6291789,151.586662 14.5835541,147.724831 14.5835541,147.724831 L13.0032016,119.354345 C12.8929858,115.572127 15.6398482,112.455586 19.4750028,112.500479 C23.3101575,112.545021 26.6923607,115.733461 26.4914835,119.51182 L25.6417551,148.332987 C25.6417551,148.332987 27.9381549,151.957729 25.013525,154" id="Fill-21" fill="#4E5C93"></path>
                        <path d="M12.2072858,168.5 L24.6990893,168.351163 L25,154.105185 L16.0375337,154 L17.0860139,163.288102 L11.7791069,167.255372 C11.241094,167.657427 11.5336363,168.507903 12.2072858,168.5" id="Fill-23" fill="#253368"></path>
                        <path d="M20.5978136,13.2039359 C20.5978136,13.2039359 19.2230206,9.1988231 17.2883465,10.9374596 C15.3536723,12.6760961 17.3049531,16.7738382 19.6385821,16.9914434 C21.9726066,17.2090487 20.5978136,13.2039359 20.5978136,13.2039359" id="Fill-25" fill="#FFC2BD"></path>
                        <path d="M18.0404776,12.3503887 C18.1389294,12.0175328 18.4028669,11.8877621 18.7866095,12.1116032 C19.3749385,12.4546042 19.3758732,12.944919 19.0491995,13.8032474 C18.8695663,14.275313 18.9932473,14.5741077 19.4109343,14.7276166 C19.4801052,14.7530384 19.5166673,14.8328718 19.492598,14.9059296 C19.4685287,14.9789873 19.3929425,15.0176039 19.3237716,14.9921821 C18.7770079,14.7912347 18.5787165,14.3433027 18.7844843,13.7499856 L18.8474042,13.5789943 C19.083304,12.9199319 19.0603711,12.5911765 18.6584138,12.3568319 C18.4279385,12.2223932 18.3439903,12.2636682 18.2936339,12.4339184 C18.2762754,12.4926058 18.2681246,12.5545964 18.2658861,12.6050193 L18.2642924,12.6611725 C18.2563515,12.7289325 18.2024192,12.7821338 18.1358573,12.7838142 C18.0692954,12.7854946 18.0130181,12.7350757 18.0020211,12.6677938 L18.0000626,12.6438976 C17.9991082,12.5623526 18.0089052,12.4571319 18.0404776,12.3503887 Z" id="Stroke-27" fill="#D18682" fill-rule="nonzero"></path>
                        <path d="M33.1070949,13.855255 C33.1070949,13.855255 34.78058,10.1997597 36.4287319,11.9969232 C38.0765112,13.7944343 35.853518,17.4892023 33.6435639,17.5 C31.4336098,17.5107502 33.1070949,13.855255 33.1070949,13.855255" id="Fill-29" fill="#FFC2BD"></path>
                        <path d="M35.3458098,12.5812268 C35.6939995,12.3938712 35.9159949,12.5448525 35.9806654,12.8881803 C35.9957613,12.9683224 36.0009752,13.0497618 35.9998534,13.1264288 L35.9978796,13.1829394 C35.9971048,13.1970143 35.9963564,13.2067343 35.9956335,13.2144401 C35.9879809,13.2940024 35.9296615,13.3508228 35.8653737,13.3413519 C35.8069302,13.332742 35.7636734,13.2723099 35.7620411,13.2016171 L35.7639711,13.1632187 C35.767611,13.0970933 35.765082,13.021716 35.752337,12.9540544 C35.7200004,12.7823836 35.6493141,12.7343091 35.439272,12.8473296 C35.0663681,13.0478844 35.0205526,13.3856883 35.1769976,14.0913616 L35.2057748,14.2159808 C35.3642256,14.8780505 35.1565105,15.3410101 34.6451033,15.4958123 C34.5822153,15.5148484 34.5187653,15.4671866 34.5033837,15.3893567 C34.4880022,15.3115268 34.5265138,15.2330014 34.5894018,15.2139653 C34.9565368,15.1028341 35.0927181,14.8228822 34.9922196,14.3481901 L34.9520259,14.1729439 C34.766026,13.3337363 34.8262966,12.8606309 35.3458098,12.5812268 Z" id="Stroke-31" fill="#D18682" fill-rule="nonzero"></path>
                        <path d="M20.007811,24.975144 L20.3637972,17.9003288 C20.5353825,14.4817434 23.4943395,11.8449383 26.9773081,12.0070957 C30.3784,12.1650594 33.0408205,14.939209 32.9995261,18.2816083 L32.9123095,25.3683058 C32.8688792,28.8788037 29.8707637,31.6553996 26.2984425,31.4932422 L26.030029,31.4810105 C22.5346008,31.3223479 19.8355137,28.4059611 20.007811,24.975144" id="Fill-33" fill="#FFC2BD"></path>
                        <path d="M33.9557325,13.3247821 C33.8741702,14.7414887 33.7647322,16.7530592 33.3899585,18.1402655 C33.1549076,19.0093084 31.5677117,20.7925122 29.9134077,21.9360811 C29.0575195,22.5278215 28.1173159,22.5351098 26.8808036,22.4761093 C25.9237369,22.4302972 24.7945978,22.2758546 23.8571474,21.7934386 C22.3876491,21.0371908 20.4848724,18.2082896 20.3671749,17.6155079 C20.1142285,16.3410968 19.9283903,14.4992395 20.0268157,12.8218895 C20.4834959,5.04249786 23.6358623,3.83125196 27.5288283,4.01727712 C31.4217943,4.20364934 34.4017442,5.5936321 33.9557325,13.3247821" id="Fill-35" fill="#FFC2BD"></path>
                        <g id="分组" transform="translate(19.500000, 0.000000)">
                            <mask id="mask-14" fill="white">
                                <use xlink:href="#path-13"></use>
                            </mask>
                            <g id="Clip-38"></g>
                            <path d="M14.2607461,13.83417 C14.2639102,13.90487 14.3676211,13.91012 14.3750039,13.84012 C14.5455117,12.23957 14.9164102,8.48022 14.794418,7.19922 C14.6952773,6.15867 13.7791055,4.58647 12.6632461,3.05382 C11.5466836,1.52117 10.6051992,1.52607 10.2712148,2.29957 C9.99558984,1.84282 7.97762109,-0.52178 7.34656641,0.23772 C6.71621484,0.99722 4.57168359,2.32687 4.57168359,2.32687 C4.57168359,2.32687 4.41629297,1.43122 3.78558984,2.19072 C3.15453516,2.95022 1.57777734,4.39187 0.961136719,5.31342 C0.0751992188,6.63712 0.116332031,11.06007 0.171878906,12.85102 C0.174339844,12.92837 0.286488281,12.93432 0.297738281,12.85802 C0.443285156,11.85282 0.762152344,10.14132 1.30109766,9.62087 C1.87308984,9.05597 1.57812891,6.38792 2.26086328,6.11457 C3.47305078,5.62912 11.0390273,5.83807 12.6351211,6.65322 C13.3523086,7.01967 13.0278164,9.65412 13.4131289,10.19242 C14.1317227,11.19552 14.1995742,12.41947 14.2607461,13.83417" id="Fill-37" fill="#253368" mask="url(#mask-14)"></path>
                        </g>
                        <path d="M28.3522469,10.5015399 L31.439833,10.7871368 C31.4973652,10.7924585 31.5519758,10.8116201 31.5979851,10.8423163 L31.6245131,10.8620998 L32.3982059,11.5056223 C32.5273185,11.6130123 32.5345827,11.7936186 32.414431,11.9090177 C32.3022894,12.0167236 32.118789,12.0295599 31.9898474,11.9434806 L31.963098,11.9235196 L31.2677248,11.3449398 L28.2864994,11.0693631 C28.1220306,11.05415 27.9996918,10.9299182 28.0000006,10.7852494 L28.0017229,10.7560693 C28.0187439,10.6090693 28.1577388,10.4997246 28.3195993,10.5000005 L28.3522469,10.5015399 Z" id="Stroke-39" fill="#253368" fill-rule="nonzero"></path>
                        <path d="M20.0020871,14.5 C20.0020871,14.5 21.7849938,15.4713691 22.6815411,16.9894034 C23.8439963,15.3882893 25.4611775,14.9406553 25.4611775,14.9406553 C25.4611775,14.9406553 26.3159539,15.7372245 27.1055268,15.8987317 C27.3897731,15.5956565 28.2319842,15.0456682 28.2319842,15.0456682 C28.2319842,15.0456682 30.2312169,15.8787925 31.1810816,17.3994853 C31.6622966,16.3669695 33.4839178,15.3125205 33.4839178,15.3125205 C33.4839178,15.3125205 33.6323236,16.7913411 33.0274937,18.3123663 C32.2868234,20.1756802 30.2254437,22.1400192 27.0342106,21.9921371 C23.2534297,21.8166726 20.8161114,20.1424483 20.3393112,17.7470912 C20.2387892,16.9990406 19.9739002,15.0842172 20.0020871,14.5" id="Fill-41" fill="#EFADAB"></path>
                        <path d="M21.0475708,20.0270505 C21.104247,19.9862979 21.1891039,19.9922694 21.237104,20.0403881 C21.4432352,20.2470291 21.6657927,20.4420505 21.9023908,20.6256567 C22.3816681,20.9975882 22.8955541,21.3064675 23.4092781,21.5553288 C23.558927,21.6278226 23.6995367,21.6907486 23.828583,21.7443395 L23.9046029,21.7753757 C23.9806822,21.805892 24.0376179,21.8271943 24.071838,21.8392673 L24.1230542,21.8557756 C24.1665327,21.8688352 24.2323435,21.8871921 24.3199789,21.9094203 C24.5167188,21.9593222 24.749861,22.0093498 25.018206,22.0561251 C26.1707059,22.2570181 27.5601467,22.3342725 29.1476852,22.217001 C30.3538158,22.0224427 31.3924037,21.3924245 32.2608638,20.4787734 C32.3075075,20.4297026 32.3921739,20.4220258 32.4499715,20.4616268 C32.5077691,20.5012278 32.5168112,20.5731106 32.4701675,20.6221814 C31.5651249,21.5743186 30.475607,22.2352315 29.1845004,22.4429102 C27.5569188,22.5637331 26.1414518,22.4850316 24.9641142,22.2798091 C24.687952,22.2316711 24.4471772,22.1800057 24.2429891,22.1282147 L24.1423355,22.1018403 C24.1267657,22.0976178 24.1118004,22.0934864 24.0974419,22.0894526 L23.9887079,22.057073 L23.9493703,22.0432235 C23.9105387,22.0291558 23.8567922,22.0087498 23.7897111,21.9818428 C23.6344406,21.9195619 23.4617536,21.8436548 23.2759869,21.7536646 C22.7458671,21.4968608 22.2159093,21.1783212 21.7209324,20.7942065 C21.4760843,20.6041981 21.2455757,20.4022093 21.0318612,20.1879663 C20.9838611,20.1398476 20.9908946,20.0678031 21.0475708,20.0270505 Z" id="Stroke-43" fill="#D18682" fill-rule="nonzero"></path>
                        <path d="M25.6277118,10.0070228 C25.6873104,9.98562517 25.7512474,10.0147085 25.7795304,10.0727354 L25.7875827,10.0931201 L26.1670871,11.3193952 C26.1753269,11.3460202 26.1757252,11.3747375 26.1682274,11.4016157 L26.0219653,11.9302043 L25.8907742,12.4090144 L25.6704057,13.2248643 C25.4797587,13.9385566 25.3418669,14.4790313 25.2766977,14.7764611 L25.2697504,14.8083326 L26.7484468,15.7066814 L27.8096346,15.0363886 C27.8631512,15.002571 27.9302854,15.0159811 27.9693511,15.0649229 L27.9826036,15.0849187 C28.0140009,15.1425607 28.0015506,15.2148699 27.9561115,15.256947 L27.9375467,15.2712211 L26.8138633,15.9812844 C26.7815073,16.0017304 26.7427725,16.0054435 26.7080693,15.9923283 L26.6878145,15.982439 L25.0643044,14.9961189 C25.0165867,14.9671293 24.9916421,14.9083284 25.0025285,14.8504971 L25.0150948,14.7870778 C25.0553991,14.5918122 25.1353698,14.2650867 25.2478452,13.8310711 L25.4572887,13.0381975 L25.583412,12.5706192 L25.9146157,11.3645009 L25.5477763,10.1792174 C25.5279101,10.1150246 25.554912,10.046159 25.608786,10.0156958 L25.6277118,10.0070228 Z" id="Stroke-45" fill="#965C56" fill-rule="nonzero"></path>
                        <path d="M26.129568,19 L27.3821478,19.0968618 C27.4503929,19.1021392 27.5030939,19.1966629 27.4998587,19.3079865 C27.496947,19.4081776 27.4497193,19.4878303 27.3905522,19.4989118 L27.370432,19.5 L26.1178522,19.4031382 C26.0496071,19.3978608 25.9969061,19.3033371 26.0001413,19.1920135 C26.003053,19.0918224 26.0502807,19.0121697 26.1094478,19.0010882 L26.129568,19 Z" id="Stroke-51" fill="#965C56" fill-rule="nonzero"></path>
                        <path d="M26.8094384,20.5001375 C26.9088803,20.5029664 26.9879316,20.5487774 26.9989225,20.6061655 L27,20.6256806 L26.9001235,21.885702 C26.8948767,21.9518943 26.8010526,22.0030057 26.6905616,21.9998625 C26.5911197,21.9970336 26.5120684,21.9512226 26.5010775,21.8938345 L26.5,21.8743194 L26.5998765,20.614298 C26.6051233,20.5481057 26.6989474,20.4969943 26.8094384,20.5001375 Z" id="Stroke-53" fill="#965C56" fill-rule="nonzero"></path>
                        <path d="M25.44375,19.29175 C25.42075,19.39875 25.31525,19.46675 25.20825,19.44375 C25.10125,19.42075 25.03325,19.31525 25.05625,19.20825 C25.07925,19.10125 25.18475,19.03325 25.29175,19.05625 C25.39875,19.07925 25.46675,19.18475 25.44375,19.29175" id="Fill-55" fill="#D18682"></path>
                        <path d="M23.94375,19.2917388 C23.92075,19.3987388 23.81525,19.4667388 23.70825,19.4437388 C23.60125,19.4207388 23.53325,19.3152388 23.55625,19.2082388 C23.57925,19.1017388 23.68475,19.0332388 23.79175,19.0562388 C23.89875,19.0797388 23.96675,19.1847388 23.94375,19.2917388" id="Fill-57" fill="#D18682"></path>
                        <path d="M30.43875,19.68975 C30.47175,19.79375 30.41475,19.90575 30.31025,19.93875 C30.20625,19.97175 30.09475,19.91425 30.06125,19.81025 C30.02825,19.70625 30.08525,19.59475 30.18975,19.56125 C30.29375,19.52825 30.40575,19.58575 30.43875,19.68975" id="Fill-59" fill="#D18682"></path>
                        <path d="M31.9387723,19.18975 C31.9717723,19.29375 31.9142723,19.40575 31.8102723,19.43875 C31.7062723,19.47175 31.5947723,19.41425 31.5612723,19.31025 C31.5282723,19.20625 31.5852723,19.09475 31.6897723,19.06125 C31.7937723,19.02825 31.9057723,19.08575 31.9387723,19.18975" id="Fill-61" fill="#D18682"></path>
                        <path d="M29.43875,20.18975 C29.47175,20.29375 29.41475,20.40575 29.31025,20.43875 C29.20625,20.47175 29.09475,20.41425 29.06125,20.31025 C29.02825,20.20625 29.08525,20.09475 29.18975,20.06125 C29.29375,20.02825 29.40575,20.08575 29.43875,20.18975" id="Fill-63" fill="#D18682"></path>
                        <path d="M27.9386336,20.6898439 C27.9721336,20.7938439 27.9146336,20.9053439 27.8101336,20.9388439 C27.7061336,20.9718439 27.5946336,20.9143439 27.5611336,20.8103439 C27.5281336,20.7058439 27.5856336,20.5948439 27.6896336,20.5613439 C27.7941336,20.5278439 27.9056336,20.5858439 27.9386336,20.6898439" id="Fill-65" fill="#D18682"></path>
                        <path d="M22.4388664,18.6897277 C22.4718664,18.7937277 22.4143664,18.9057277 22.3103664,18.9387277 C22.2063664,18.9717277 22.0948664,18.9147277 22.0613664,18.8102277 C22.0278664,18.7062277 22.0853664,18.5947277 22.1898664,18.5612277 C22.2938664,18.5282277 22.4058664,18.5857277 22.4388664,18.6897277" id="Fill-67" fill="#D18682"></path>
                        <path d="M24.94375,20.7917388 C24.92075,20.8987388 24.81525,20.9667388 24.70825,20.9437388 C24.60125,20.9207388 24.53325,20.8152388 24.55625,20.7082388 C24.57925,20.6017388 24.68475,20.5332388 24.79175,20.5562388 C24.89875,20.5792388 24.96675,20.6847388 24.94375,20.7917388" id="Fill-69" fill="#D18682"></path>
                        <path d="M25.94375,20.2917388 C25.92075,20.3987388 25.81525,20.4667388 25.70825,20.4437388 C25.60125,20.4207388 25.53325,20.3152388 25.55625,20.2082388 C25.57925,20.1017388 25.68475,20.0332388 25.79175,20.0562388 C25.89875,20.0792388 25.96675,20.1847388 25.94375,20.2917388" id="Fill-71" fill="#D18682"></path>
                        <path d="M30.4435119,20.79175 C30.4205119,20.89875 30.3155119,20.96675 30.2080119,20.94375 C30.1010119,20.92075 30.0335119,20.81525 30.0565119,20.70825 C30.0790119,20.60125 30.1845119,20.53325 30.2915119,20.55625 C30.3985119,20.57925 30.4665119,20.68475 30.4435119,20.79175" id="Fill-73" fill="#D18682"></path>
                        <path d="M29.94375,19.2917388 C29.92075,19.3987388 29.81525,19.4667388 29.70825,19.4437388 C29.60125,19.4207388 29.53325,19.3152388 29.55625,19.2082388 C29.57925,19.1017388 29.68475,19.0332388 29.79175,19.0562388 C29.89875,19.0797388 29.96675,19.1847388 29.94375,19.2917388" id="Fill-75" fill="#D18682"></path>
                        <path d="M30.44375,18.2917388 C30.42075,18.3987388 30.31525,18.4667388 30.20825,18.4437388 C30.10125,18.4207388 30.03325,18.3152388 30.05625,18.2082388 C30.07925,18.1017388 30.18475,18.0332388 30.29175,18.0562388 C30.39875,18.0792388 30.46675,18.1847388 30.44375,18.2917388" id="Fill-77" fill="#D18682"></path>
                        <path d="M23.9435867,19.7917388 C23.9205867,19.8987388 23.8155867,19.9667388 23.7080867,19.9437388 C23.6010867,19.9207388 23.5330867,19.8152388 23.5565867,19.7082388 C23.5790867,19.6017388 23.6845867,19.5332388 23.7915867,19.5562388 C23.8985867,19.5797388 23.9665867,19.6847388 23.9435867,19.7917388" id="Fill-79" fill="#D18682"></path>
                        <circle id="椭圆形" fill="#253368" cx="29.75" cy="12.75" r="1"></circle>
                        <circle id="椭圆形备份" fill="#253368" cx="23.75" cy="12.25" r="1"></circle>
                        <path d="M22.2109358,10.5 L22.2496963,10.5011429 L25.7062498,10.7852849 C25.8843972,10.7999293 26.0152702,10.9383848 25.9985627,11.094534 C25.9828994,11.2409238 25.8430874,11.3508946 25.6788831,11.3520024 L25.6457466,11.3507511 L22.28832,11.074519 L21.4802935,11.4647373 C21.3333462,11.53565 21.1509974,11.4960867 21.0576718,11.3776597 L21.0402305,11.3529322 C20.9593277,11.2241305 21.0044646,11.0642987 21.1395756,10.9824973 L21.1677867,10.9672097 L22.0631914,10.5351122 C22.1086955,10.5131532 22.1593819,10.5011872 22.2109358,10.5 Z" id="Stroke-85" fill="#253368" fill-rule="nonzero"></path>
                        <path d="M46.9989218,31.5209245 C46.9900722,30.6815648 46.4888304,29.922228 45.7167907,29.5859201 C43.3925298,28.5724135 41.787211,25.2400039 32.4059191,26.158329 C30.647679,26.3303607 28.6894379,31.323511 26.8427018,31.4151673 C25.5934912,31.476859 22.2954195,26.1079181 21.246564,26.2450499 C15.7095416,26.9691343 10.8712842,27.7076721 7.21958213,29.3888592 C6.06063753,29.922228 5.37001416,31.1246875 5.52045749,32.3874285 C6.06877917,36.9836368 8.63835121,49.4573469 14.2996221,62.37841 C14.2996221,62.37841 12.002264,66.3788527 15.5339654,67 C39.2817101,67 38.7811763,66.8949478 38.7811763,66.8949478 C38.7811763,66.8949478 40.6449036,65.8606423 39.5365788,62.4133099 C39.5365788,62.4133099 47.1037012,41.667271 46.9989218,31.5209245" id="Fill-87" fill="#597EF7"></path>
                        <path d="M17.5,26.8222625 L19.596284,23.5 L23.5979494,24.1659175 L26.4348912,30.0829275 L29.5122827,24.4675781 L33.556209,23.5089899 L35,26.8861905 C35,26.8861905 33.5926408,31.5 26.4815239,31.5 C19.3689497,31.5 17.5,26.8222625 17.5,26.8222625" id="Fill-89" fill="#597EF7"></path>
                        <path d="M18.0494339,27.0279657 C18.1116323,26.9883553 18.2084244,26.9911609 18.2656252,27.034232 L18.3359604,27.0845259 C18.3524854,27.0959965 18.3713977,27.1089589 18.3926758,27.1233346 C18.5001456,27.195942 18.6277808,27.2770446 18.7750052,27.3645248 C19.1966888,27.6150875 19.6899398,27.8658682 20.2501014,28.0999774 C20.9161961,28.3783595 21.6327961,28.6141162 22.3961699,28.7936975 C22.4761808,28.8125198 22.519008,28.8726937 22.4918269,28.9280997 C22.4646459,28.9835057 22.3777496,29.0131626 22.2977386,28.9943403 C21.5126674,28.8096547 20.7762502,28.5673783 20.0919822,28.2814011 C19.5166179,28.0409381 19.0097781,27.7832486 18.5757337,27.5253412 C18.4539094,27.4529537 18.3447886,27.3846201 18.2486477,27.3214256 L18.1789802,27.2750102 C18.1111076,27.229155 18.0647278,27.1960036 18.0403848,27.1776738 C17.9831841,27.1346026 17.9872355,27.067576 18.0494339,27.0279657 Z" id="Stroke-91" fill="#1D39C4" fill-rule="nonzero"></path>
                        <path d="M34.9667071,27.0438852 C35.018368,27.0948993 35.0088585,27.1699566 34.9454669,27.2115305 L34.7921016,27.310268 L34.5542646,27.4600288 C34.4977448,27.4952292 34.4388659,27.5316389 34.3777994,27.569116 C33.941612,27.8368081 33.4829965,28.104511 33.0232543,28.3545443 C32.732771,28.5125252 32.4507469,28.6584825 32.1800933,28.7899647 C31.3538072,29.1913705 30.6711846,29.4410721 30.1690225,29.4987878 C30.0880679,29.5080923 30.0130683,29.4628223 30.0015063,29.3976744 C29.9899443,29.3325265 30.0461981,29.2721709 30.1271528,29.2628665 C30.5791056,29.2109215 31.2326517,28.971856 32.0270494,28.5859414 C32.2931157,28.4566877 32.5709398,28.3129041 32.8574368,28.1570911 C33.3120683,27.9098373 33.7662329,27.6447325 34.1982217,27.379617 L34.372952,27.2716028 C34.4289032,27.2367568 34.4825045,27.2031169 34.5335834,27.1708255 L34.7583862,27.0267923 C34.8217778,26.9852184 34.9150462,26.9928712 34.9667071,27.0438852 Z" id="Stroke-93" fill="#1D39C4" fill-rule="nonzero"></path>
                        <path d="M26.75,30 C26.8742641,30 26.9773528,30.0497411 26.9967279,30.1149121 L27,30.1371602 L27,37.3628398 C27,37.4385913 26.8880712,37.5 26.75,37.5 C26.6257359,37.5 26.5226472,37.4502589 26.5032721,37.3850879 L26.5,37.3628398 L26.5,30.1371602 C26.5,30.0614087 26.6119288,30 26.75,30 Z" id="Stroke-95" fill="#1D39C4" fill-rule="nonzero"></path>
                        <path d="M44.8866373,41.5016287 C44.9598377,41.5130291 45.0098553,41.5810948 44.9983548,41.6536577 L44.9437821,41.9809167 L44.8885565,42.2979887 C44.8688176,42.4095293 44.8477461,42.5268578 44.8253362,42.6497876 L44.7787301,42.9030602 C44.594429,43.8956264 44.3705843,45.0015007 44.1062839,46.1923883 C43.3510865,49.5951649 42.4231425,52.9980728 41.3149406,56.1750274 C40.5478535,58.374086 39.7196531,60.3867962 38.8287911,62.1727839 L38.736039,62.3570996 L38.7534775,62.3942985 C39.5928595,64.2102771 39.4369638,65.5316436 38.6475524,66.4144172 L38.6054214,66.4604743 C38.4515588,66.6249302 38.2866727,66.758528 38.1214011,66.8639446 C38.0209657,66.9280062 37.941405,66.9689556 37.893096,66.9893581 C37.8820113,66.9940396 37.8703667,66.9972088 37.8584802,66.9988015 L37.8405088,67 L15.2147658,67 L15.18363,66.9963691 L15.1170634,66.9782138 L15.0932425,66.9710368 C15.0246482,66.9499965 14.9485662,66.9233713 14.8668352,66.890648 C14.6337918,66.7973426 14.4008104,66.6735182 14.1827495,66.5147421 C13.0692966,65.7040067 12.7768632,64.3698518 13.7807096,62.4371796 L13.8429287,62.3194138 L13.773923,62.1868144 C12.8247919,60.3500517 11.9519786,58.1779576 11.1533521,55.7372714 L11.0680687,55.4747446 C10.1509433,52.6311209 9.37957371,49.5853074 8.7488743,46.5396203 L8.64936497,46.0531587 C8.47126264,45.1715559 8.31696077,44.3472222 8.18608841,43.5954993 L8.07763832,42.9558207 L8.00146476,42.4771891 C7.99061217,42.4045282 8.0412352,42.3369037 8.11453445,42.3261457 C8.1878337,42.3153876 8.25605224,42.3655698 8.26690482,42.4382307 L8.31240424,42.7282263 L8.35863897,43.0107859 C8.38617333,43.1764862 8.41679198,43.3565696 8.45051318,43.5502622 L8.52400593,43.9661668 C8.66300344,44.7415126 8.82545715,45.5866237 9.01172705,46.4861328 C9.64064055,49.5231956 10.409762,52.560132 11.3236576,55.3937416 C12.1693212,58.015792 13.098924,60.3320515 14.1137813,62.2592317 C14.1344915,62.2985595 14.1340563,62.3455345 14.1126211,62.3844788 C13.0581983,64.3001944 13.3045556,65.5452626 14.3415997,66.3003626 C14.5402974,66.4450398 14.7538431,66.5585346 14.9673268,66.6440087 C15.0418803,66.6738583 15.1109197,66.698019 15.1725624,66.716927 L15.2318267,66.7339684 L37.8110399,66.7339684 L37.8253349,66.7271937 C37.8550519,66.7123413 37.8939934,66.6909871 37.940209,66.6627385 L37.9762042,66.6402533 C38.1233735,66.546383 38.2709282,66.4268278 38.4086771,66.2795951 C39.1717241,65.464013 39.3253959,64.2142549 38.4657919,62.4119589 C38.4481293,62.3749263 38.4486668,62.3318916 38.467249,62.295304 C39.398751,60.4612149 40.263053,58.3766014 41.0613403,56.0880992 C42.1657768,52.921939 43.0910971,49.5286527 43.8442175,46.135235 C44.0902542,45.0266399 44.3011238,43.9919949 44.4775508,43.0543413 L44.561266,42.6025594 C44.5835922,42.4800895 44.6045817,42.363218 44.6242404,42.2521319 L44.7332727,41.6123732 C44.7436232,41.5470665 44.8002759,41.5003745 44.864866,41.5 L44.8866373,41.5016287 Z" id="Stroke-97" fill="#1D39C4" fill-rule="nonzero"></path>
                        <path d="M11,86.2376069 L24.5124703,93 L29.6456057,92.9006882 L42.5,85.9389645 C42.5,85.9389645 42.1989311,77.5801603 38.7642518,69.0181379 C38.1617577,67.375075 38.0024941,66.5 38.0024941,66.5 C38.0024941,66.5 24.4187648,67.0976381 14.9627078,67.0976381 L14.3049881,69.7861258 C14.3049881,69.7861258 11.0869359,77.6798256 11,86.2376069" id="Fill-99" fill="#4E5C93"></path>
                        <path d="M14.5,70 C26.4074055,70 39,69.266259 39,69.266259 L38.544166,65.5 C38.544166,65.5 23.7755752,65.7217899 14.766023,65.7217899 C14.557159,67.5277932 14.5,70 14.5,70" id="Fill-101" fill="#253368"></path>
                        <path d="M31.4314894,69.5003962 C31.549071,69.4934593 31.650306,69.5784374 31.6576041,69.6902002 L31.693562,70.278143 L31.734976,71.0089533 C31.7629068,71.5197688 31.7905752,72.0633516 31.8170672,72.631837 L31.8283462,72.8769753 C31.9010878,74.4784621 31.9545191,76.0592948 31.9808926,77.5529731 L31.9914089,78.2576225 C32.0488347,82.9607564 31.8242494,85.8152522 31.1399381,86.3211743 C30.7524348,86.6076078 30.2839895,86.8732358 29.7517884,87.1189115 C29.2076211,87.370111 28.6260639,87.5875588 28.0446832,87.7709432 L27.8078378,87.8437011 C27.7696187,87.8551215 27.7320523,87.8661886 27.6951767,87.8769016 L27.4825153,87.9369245 C27.3800554,87.9649636 27.3063188,87.9839104 27.2660587,87.9936667 C27.1519025,88.0213305 27.0357671,87.9557941 27.006663,87.8472871 C26.977559,87.7387801 27.0465074,87.6283919 27.1606636,87.6007282 L27.2874874,87.5680593 L27.3644828,87.5472455 C27.5289881,87.502227 27.7125358,87.448459 27.9103143,87.3860739 C28.4751401,87.2079114 29.0397893,86.9967856 29.5654147,86.7541454 C30.0727535,86.5199468 30.516431,86.2683631 30.878028,86.001079 C31.3957414,85.6183253 31.6226497,82.6203886 31.562793,78.1052986 L31.5608291,77.9637094 C31.5375582,76.3565121 31.4813102,74.6378532 31.4021233,72.8944662 L31.367935,72.1697124 C31.3486221,71.775027 31.3288437,71.3941753 31.3089326,71.0300277 L31.2318035,69.7153212 C31.2245054,69.6035584 31.3139078,69.5073332 31.4314894,69.5003962 Z" id="Stroke-103" fill="#253368" fill-rule="nonzero"></path>
                        <path d="M35.6817901,69.5016765 C35.7961217,69.487607 35.9008951,69.5636427 35.9158082,69.6715068 L35.9309098,69.7698448 C35.9378898,69.8125421 35.9468546,69.8649079 35.9579199,69.9261934 C35.9950113,70.1316249 36.0423591,70.3608216 36.1008748,70.6077777 C36.2679799,71.3130177 36.4906893,72.0180178 36.7757521,72.6743486 C37.6828531,74.7628654 38.9822141,75.8702305 40.7518457,75.5498339 C40.8650795,75.5293326 40.9744897,75.5993146 40.9962202,75.7061431 C41.0179507,75.8129717 40.9437726,75.9161928 40.8305388,75.9366941 C38.8141933,76.301759 37.3627543,75.0647872 36.3893912,72.8237082 C36.0945089,72.1447687 35.8652772,71.419122 35.6933936,70.6937152 C35.643285,70.4822399 35.6011111,70.2832694 35.5663104,70.1002273 L35.5278406,69.8870146 L35.5034702,69.7343639 C35.5027934,69.7297031 35.5022296,69.7257303 35.501777,69.722457 C35.486864,69.6145928 35.5674586,69.515746 35.6817901,69.5016765 Z" id="Stroke-105" fill="#253368" fill-rule="nonzero"></path>
                        <path d="M18.3182099,69.5016818 C18.4325414,69.5157512 18.513136,69.6145979 18.498223,69.722462 L18.487335,69.7945765 C18.478296,69.8517872 18.4671208,69.9179574 18.4536897,69.9923458 C18.4154411,70.204186 18.3667367,70.4399494 18.3066064,70.6937195 C18.1347228,71.4191257 17.9054911,72.1447718 17.6106088,72.8237108 L17.5283867,73.0081301 C16.5561744,75.1322724 15.1297971,76.291618 13.1694612,75.9366942 C13.0562274,75.9161929 12.9820493,75.8129718 13.0037798,75.7061434 C13.0255103,75.5993149 13.1349205,75.529333 13.2481543,75.5498342 C15.0177859,75.8702306 16.3171469,74.7628664 17.2242479,72.6743513 C17.5093107,72.018021 17.7320201,71.3130215 17.8991252,70.6077821 C17.9478882,70.4019855 17.9888959,70.2085218 18.0226755,70.0308666 L18.0634813,69.8036739 C18.0734558,69.7443181 18.080284,69.6997767 18.0841918,69.671512 C18.0979577,69.5719451 18.1882911,69.4994984 18.2920319,69.5000026 L18.3182099,69.5016818 Z" id="Stroke-107" fill="#253368" fill-rule="nonzero"></path>
                        <path d="M26.6304047,69.5000223 C26.6978988,69.4985264 26.754361,69.572373 26.7635185,69.6692575 L26.7648014,69.6939283 L26.9999845,92.8001127 C27.0010912,92.9088369 26.9427139,92.9983091 26.8695953,92.9999777 C26.8021012,93.0014736 26.745639,92.927627 26.7364815,92.8307425 L26.7351986,92.8060717 L26.5000155,69.6998873 C26.4989088,69.5911631 26.5572861,69.5016909 26.6304047,69.5000223 Z" id="Stroke-109" fill="#253368" fill-rule="nonzero"></path>
                        <path d="M30,69.6360673 L30,66.3578621 C30,65.9295594 29.6961298,65.5789978 29.3114754,65.5666464 C28.035829,65.5255962 25.1718776,65.3766529 22.6003042,65.7268512 C22.2416765,65.7758935 22,66.2245397 22,66.6263233 L22,69.7087225 C22,70.1493767 22.3214467,70.5053874 22.7179314,70.4999383 C24.1757647,70.4806846 27.4963664,70.4381813 29.294575,70.4276463 C29.6859895,70.4251034 30,70.0716355 30,69.6360673" id="Fill-111" fill="#E1E7F3"></path>
                        <path d="M29.5,68.9837954 L29.4993117,67.0349271 C29.4989676,66.780429 29.2467175,66.5719363 28.9270172,66.5647581 C27.8674291,66.5406134 25.6587781,66.4061862 23.5227393,66.6153315 C23.2250635,66.6446966 23,66.8443798 23,67.0832165 L23.0003441,69.0294745 C23.0003441,69.2914771 23.267392,69.5029063 23.5967281,69.4999698 C24.8077351,69.4878974 27.4207433,69.4614688 28.9139401,69.4546169 C29.2394907,69.4529855 29.5,69.2425351 29.5,68.9837954" id="Fill-113" fill="#253368"></path>
                        <polygon id="Fill-115" fill="#E1E7F3" points="22.854418 65.5 30 69.2386099 29.7049497 70 22.5 66.1922109"></polygon>
                        <polygon id="Fill-117" fill="#E1E7F3" points="22.5 68.8081832 29.7150166 65.5 30 66.1876877 22.7010376 69.5"></polygon>
                        <path d="M30.8037233,92.5 C30.9121239,92.5 31,92.6119288 31,92.75 C31,92.8774503 30.9251234,92.9826255 30.8283439,92.9980521 L30.8037233,93 L23.6962767,93 C23.5878761,93 23.5,92.8880712 23.5,92.75 C23.5,92.6225497 23.5748766,92.5173745 23.6716561,92.5019479 L23.6962767,92.5 L30.8037233,92.5 Z" id="Stroke-119" fill="#253368" fill-rule="nonzero"></path>
                        <path d="M8.772709,88.0777221 C6.89085225,82.0824776 1.15592609,69.5783107 0.040592222,61.0465627 C0.040592222,61.0465627 -0.968519371,52.8406813 7.07602351,52.0452865 C14.9196053,51.2695138 15.7801493,60.7175426 15.7801493,60.7175426 C16.5707157,70.9487024 16.8560087,81.9664971 17.4983663,87.6575995 C17.4983663,87.6575995 17.689997,90.7242494 13.9223361,91.793302 C9.45131143,93.061729 8.772709,88.0777221 8.772709,88.0777221" id="Fill-121" fill="#FFC2BD"></path>
                        <path d="M18.4558375,38.3033556 C18.6561811,35.7934379 18.4572484,29.1574146 11.5848989,28.1117885 C6.08885341,27.2758413 3.33060187,31.2943393 2.19273493,34.6291322 C0.226687098,40.3908017 0.0799565813,49.8360368 0.00271142947,56.7845023 C0.00271142947,56.7845023 -0.362351274,64.6713324 7.37944707,64.9917327 C13.9311763,65.2630004 14.7628843,58.768493 14.7628843,58.768493 C14.7628843,58.768493 18.2269238,41.1720802 18.4558375,38.3033556" id="Fill-123" fill="#FFC2BD"></path>
                        <path d="M16.9935764,49.5 C17.497685,46.8918987 18.8887692,39.3246187 18.9610886,38.407623 C19.1624484,35.860959 18.8498301,28.9108201 11.327907,28.066847 C5.77349608,27.4436972 3.03138677,31.2959917 1.88774816,34.6796074 C1.09967978,37.0124696 0.313029414,44.4625327 0,47.2356371 L16.9935764,49.5 Z" id="Fill-125" fill="#597EF7"></path>
                        <path d="M18.3747154,38.000439 C18.4495474,38.0065265 18.5054496,38.0743392 18.4995765,38.151903 L18.4889246,38.2749803 C18.3462417,39.7828253 17.3174363,47.0441371 16.8850551,49.3858179 C16.8731693,49.450189 16.8205039,49.4964362 16.7593143,49.5 L16.7360317,49.4992876 L0.120390453,47.5178746 C0.0458202271,47.5089821 -0.00767599003,47.4391154 0.00090330778,47.3618229 C0.00862467581,47.2922597 0.0639956785,47.2403896 0.12935436,47.2371938 L0.151458839,47.2379738 L16.6413242,49.2042723 L16.6878745,48.9422196 C17.1556901,46.2511525 18.1043218,39.5244596 18.2222304,38.2061741 L18.2285858,38.1298582 C18.2344589,38.0522944 18.2998834,37.9943514 18.3747154,38.000439 Z" id="Stroke-127" fill="#1D39C4" fill-rule="nonzero"></path>
                        <path d="M28.3175337,112 L3.68211376,112 C3.02918364,112 2.5,111.474977 2.5,110.827181 L2.5,93.673169 C2.5,93.0253727 3.02918364,92.5 3.68211376,92.5 L28.3175337,92.5 C28.9704638,92.5 29.5,93.0253727 29.5,93.673169 L29.5,110.827181 C29.5,111.474977 28.9704638,112 28.3175337,112" id="Fill-129" fill="#597EF7"></path>
                        <path d="M27.3178862,112 L2.68246631,112 C2.0295362,112 1.5,111.474977 1.5,110.827181 L1.5,93.673169 C1.5,93.0253727 2.0295362,92.5 2.68246631,92.5 L27.3178862,92.5 C27.9708164,92.5 28.5,93.0253727 28.5,93.673169 L28.5,110.827181 C28.5,111.474977 27.9708164,112 27.3178862,112" id="Fill-131" fill="#253368"></path>
                        <path d="M21,92.3184423 C19.0188725,92.3184423 17.9510971,92.3670581 16.8961614,92.2194493 C14.7588757,91.9200044 15.4549944,99.4776424 15.0399605,100.65041 C14.4083872,102.435454 10.2760931,101.740389 8.57119214,95.3308584 C8.08640756,93.5077672 8.05205275,90.4935896 8,87.8662245 C8,87.8662245 8.44279537,82.4043487 11.5538145,83.0536158 C14.3545993,83.6377096 15.4234157,84.0446024 15.4234157,84.0446024 C15.4234157,84.0446024 17.5832577,86.0251665 18.8373819,88.8934968 L21,92.3184423 Z" id="Fill-133" fill="#FFC2BD"></path>
                        <path d="M13.800118,94.0015036 C13.8649228,94.0123646 13.9094388,94.0788533 13.8995473,94.1500101 L13.8838155,94.2751562 L13.8748975,94.352635 C13.8562217,94.5187801 13.8375275,94.7105516 13.8200685,94.9253223 C13.6808885,96.6374349 13.7031618,98.5231721 13.998151,100.346853 C14.0096148,100.417725 13.9665838,100.485382 13.9020386,100.49797 C13.8374934,100.510557 13.7758758,100.463308 13.764412,100.392437 C13.4652495,98.5429557 13.4427179,96.6353409 13.5836115,94.9021476 L13.6016923,94.6921768 C13.6108988,94.5911338 13.6203195,94.4960769 13.6297973,94.4073327 L13.652526,94.207059 C13.6577098,94.164306 13.6619021,94.1320167 13.6648683,94.1106786 C13.6737706,94.0466375 13.7237091,94.0006411 13.7808505,94 L13.800118,94.0015036 Z" id="Stroke-135" fill="#965C56" fill-rule="nonzero"></path>
                        <path d="M11.8739597,93.502415 C11.9410337,93.5159755 11.984717,93.5828789 11.971529,93.6518479 C11.6035804,95.5761116 11.7140244,97.3100112 12.1207146,98.7838745 C12.2014093,99.0763153 12.2877482,99.3332754 12.3739068,99.552486 C12.3963998,99.6097143 12.417639,99.6611584 12.4373167,99.7066986 L12.4826847,99.8071667 C12.4841011,99.8101032 12.4853175,99.8125854 12.4863281,99.814611 C12.5175298,99.8771512 12.493518,99.9538586 12.4326962,99.9859419 C12.3718744,100.018025 12.2972745,99.9933349 12.2660728,99.9307947 L12.231561,99.8566234 L12.1898733,99.7601205 C12.1753151,99.7253154 12.1601249,99.6878845 12.1443947,99.6478626 C12.0549787,99.4203641 11.965743,99.1547828 11.882568,98.8533529 C11.4657272,97.3427037 11.3527244,95.5686314 11.7286327,93.6027409 C11.7405018,93.5406689 11.7943915,93.4980785 11.8539476,93.5000668 L11.8739597,93.502415 Z" id="Stroke-137" fill="#965C56" fill-rule="nonzero"></path>
                        <path d="M9.13718009,92.50025 C9.19392322,92.5071406 9.23568771,92.5734005 9.23046367,92.6482456 L9.22396937,92.7675867 C9.2224668,92.8005573 9.22088399,92.8389423 9.21929654,92.8826572 C9.1749167,94.1047803 9.23905256,95.7901231 9.49857664,97.8414862 C9.50795587,97.9156227 9.46999535,97.9857512 9.41378944,97.9981226 C9.35758353,98.0104939 9.30441627,97.9604234 9.29503704,97.8862869 C9.04069889,95.875915 8.97210897,94.2109722 9.00949073,92.9803141 L9.01804374,92.7500561 C9.02067001,92.6926121 9.02309861,92.6502273 9.0249786,92.6232926 C9.02968023,92.555932 9.07084019,92.5045746 9.12039091,92.5 L9.13718009,92.50025 Z" id="Stroke-139" fill="#965C56" fill-rule="nonzero"></path>
                        <path d="M36.0358686,13.5427459 C36.0804928,13.4944067 36.1520079,13.486762 36.2050702,13.5213606 L36.2240151,13.5363183 L54.9577834,31.2667487 C55.0114916,31.3175803 55.0143337,31.4028725 54.9641314,31.4572541 C54.9195072,31.5055933 54.8479921,31.513238 54.7949298,31.4786394 L54.7759849,31.4636817 L36.0422166,13.7332513 C35.9885084,13.6824197 35.9856663,13.5971275 36.0358686,13.5427459 Z" id="Stroke-141" fill="#965C56" fill-rule="nonzero"></path>
                        <rect id="矩形" fill="#965C56" x="24" y="17" width="5" height="1" rx="0.5"></rect>
                    </g>
                </g>
                <g id="编组-6" transform="translate(126.000000, 0.000000)">
                    <g id="1.组合示例/3.功能区块示例/7.全球化" transform="translate(0.000000, 12.500000)">
                        <g id="编组" transform="translate(0.037738, 0.049963)">
                            <g id="资源-34" transform="translate(3.801881, 3.332722)" fill-rule="nonzero">
                                <path d="M1.69139532,38.3185263 C1.46245141,38.3185263 1.25212824,38.1914611 1.14491558,37.9875935 C0.0778641859,35.9607093 -0.245685561,33.6223237 0.184509074,31.0386232 C0.591808197,28.5909389 1.65765457,26.0248476 3.35252503,23.4107863 C6.79709468,18.0982608 12.4757844,13.1488501 19.3420281,9.47459111 C26.2082719,5.80033216 33.4571118,3.83356225 39.7545828,3.93375275 C42.8521047,3.98293718 45.5585953,4.53064525 47.798138,5.5616966 C50.163606,6.65043339 51.9036649,8.22980002 52.9719214,10.2572915 C53.1318121,10.560956 53.0171664,10.9377533 52.7158531,11.0988917 C52.4145398,11.2600301 52.0406601,11.1444898 51.8807694,10.8408252 C50.9432584,9.0616848 49.3972088,7.66630435 47.285399,6.69415288 C45.2013048,5.73536014 42.6611079,5.2252994 39.7346999,5.17611497 C33.6432885,5.07774611 26.6065333,6.99776046 19.9216461,10.5718289 C13.2367589,14.1458974 7.71894032,18.9520054 4.38643819,24.0920817 C2.78555983,26.5616258 1.78177235,28.9674123 1.40279136,31.2444691 C1.01838775,33.5518867 1.29915904,35.6243121 2.23667004,37.4034525 C2.33805553,37.5959563 2.33225532,37.8278585 2.2213751,38.0149701 C2.11049488,38.2020816 1.91065624,38.3171973 1.69440789,38.3185263 L1.69139532,38.3185263 Z" id="路径" fill="#FFFFFF"></path>
                                <ellipse id="椭圆形" fill="#6E718D" opacity="0.33" cx="26.1966876" cy="22.2705965" rx="22.1287757" ry="22.2705965"></ellipse>
                                <path d="M41.0713004,27.6763476 C42.3743468,24.1780615 43.0264738,22.8659003 41.0713004,22.2708999 C39.1161269,21.6758995 36.2920545,25.4896149 33.6835463,23.6499151 C31.0750382,21.8102152 34.5524452,17.8372659 33.4661706,15.5630152 C32.3798961,13.2887646 31.0762458,13.0268186 31.7283728,8.72932353 C32.0592669,6.54866844 34.0645576,4.13280891 35.9599528,2.28277711 C32.9228546,0.776839635 29.5817888,-0.00429641013 26.1961618,0 C25.3118532,0 24.4283226,0.0527990893 23.5502167,0.158036258 C25.3852297,4.20574052 22.0557589,7.15764737 19.5649959,11.2533649 C16.5235478,16.2582966 17.6098224,19.3676141 23.9094904,20.5722012 C30.2091584,21.7767883 29.5576351,29.4254907 23.9094904,31.3903898 C18.2613456,33.3552889 19.9991434,25.2714278 16.5235478,25.2319232 C13.0479522,25.1924186 9.57235662,24.3968563 9.35498094,21.1204038 C9.23421668,19.2624711 6.87267144,17.5248755 4.85288907,16.3689095 C4.33010666,18.2920382 4.06609456,20.2770839 4.06791192,22.2708999 C4.06791192,34.5702079 13.9742141,44.541193 26.1943503,44.541193 C31.8600528,44.5485661 37.3112083,42.3607023 41.41729,38.4313288 C39.8606386,34.8005502 40.116055,30.2405014 41.0713004,27.6763476 Z" id="路径" fill="#4E5C93"></path>
                                <path d="M9.39366412,21.0016988 C9.61152758,24.2847747 13.0949222,25.0819453 16.5783168,25.1215298 C20.0617114,25.1611142 18.3200141,33.267407 23.9808329,31.2954908 C29.6416518,29.3235747 30.294637,21.6594101 23.9808329,20.4554329 C17.6670289,19.2514557 16.5783168,16.1315896 19.6265897,11.1177583 C22.1205211,7.01376108 25.457463,4.05345088 23.6207531,0 C14.5927335,1.07913386 7.23076413,7.61666318 4.88146985,16.2405992 C6.90699483,17.398902 9.27020817,19.1400102 9.39366412,21.0016988 Z" id="路径" fill="#6E718D"></path>
                                <path d="M9.39366412,21.0016988 C9.61152758,24.2847747 13.0949222,25.0819453 16.5783168,25.1215298 C20.0617114,25.1611142 18.3200141,33.267407 23.9808329,31.2954908 C29.6416518,29.3235747 30.294637,21.6594101 23.9808329,20.4554329 C17.6670289,19.2514557 16.5783168,16.1315896 19.6265897,11.1177583 C22.1205211,7.01376108 25.457463,4.05345088 23.6207531,0 C14.5927335,1.07913386 7.23076413,7.61666318 4.88146985,16.2405992 C6.90699483,17.398902 9.27020817,19.1400102 9.39366412,21.0016988 Z" id="路径" fill="#CBD4EA"></path>
                                <path d="M48.1627517,22.1383475 C48.1627517,13.3583159 43.1271569,5.76408446 35.8086093,2.12880702 C33.9137792,3.98082116 31.9090863,6.39926933 31.5782908,8.58226104 C30.9263582,12.8843609 32.2296198,13.1453708 33.3155706,15.4232752 C34.4015214,17.7011796 30.9263582,21.6771692 33.5310706,23.5188403 C36.1357829,25.3605114 38.9638426,21.5421012 40.9166223,22.1383475 C42.8694021,22.7345938 42.2192803,24.0475526 40.9166223,27.5495873 C39.9616617,30.1164886 39.7063214,34.6814236 41.2625088,38.3185263 C45.6744234,34.1125091 48.1706441,28.2591778 48.1627517,22.1383475 L48.1627517,22.1383475 Z" id="路径" fill="#CBD4EA"></path>
                                <path d="M34.6287483,38.8097894 C34.3434577,38.8105211 34.0944596,38.6165215 34.0253674,38.3396787 C33.9562753,38.0628358 34.0849109,37.7745594 34.3370817,37.6411172 C41.0538851,34.075802 46.5919198,29.2891651 49.9388242,24.1684502 C51.5496468,21.7076504 52.5547469,19.3067668 52.9353657,17.0390302 C53.3214306,14.7392173 53.040051,12.6736222 52.0984883,10.9003454 C51.9379066,10.5976817 52.0530477,10.2221263 52.3556632,10.0615189 C52.6582787,9.90091162 53.0337743,10.0160711 53.194356,10.3187349 C54.266624,12.3389389 54.5915721,14.6690125 54.1625438,17.2448029 C53.7528794,19.6844203 52.6824266,22.2420543 50.9808364,24.846895 C47.5213801,30.1425168 41.8181484,35.0750102 34.9216251,38.7371596 C34.8315017,38.7852065 34.730875,38.8101592 34.6287483,38.8097894 Z" id="路径" fill="#FFFFFF"></path>
                                <ellipse id="椭圆形" fill="#CBD4EA" cx="14.9695882" cy="42.2486315" rx="4.88134758" ry="4.91263158"></ellipse>
                            </g>
                            <path d="M61.3990169,26.5419329 L55.7864563,26.5419329 C55.0831101,26.5419329 54.507645,25.9625908 54.507645,25.2545061 L54.507645,19.6041325 C54.507645,18.8960478 55.0831101,18.3167057 55.7864563,18.3167057 L61.3990169,18.3167057 C62.1023631,18.3167057 62.6778281,18.8960478 62.6778281,19.6041325 L62.6778281,25.2545061 C62.6778281,25.9625908 62.1023631,26.5419329 61.3990169,26.5419329" id="Fill-1备份" fill="#597EF7" opacity="0.163388207"></path>
                            <g id="分组备份" transform="translate(3.065751, 17.707430)">
                                <mask id="mask-16" fill="white">
                                    <use xlink:href="#path-15"></use>
                                </mask>
                                <g id="Clip-4"></g>
                                <path d="M3.06048905,3.94132481 L0.570691137,3.94132481 C0.256808396,3.94132481 9.23184533e-06,3.66588631 9.23184533e-06,3.32929427 L9.23184533e-06,0.626954241 C9.23184533e-06,0.290329198 0.256808396,0.0148907078 0.570691137,0.0148907078 L3.06048905,0.0148907078 C3.37437179,0.0148907078 3.63120173,0.290329198 3.63120173,0.626954241 L3.63120173,3.32929427 C3.63120173,3.66588631 3.37437179,3.94132481 3.06048905,3.94132481" id="Fill-3" fill="#B2BED9" mask="url(#mask-16)"></path>
                            </g>
                            <path d="M61.4329138,37.2042646 C61.119031,37.2042646 60.8622319,36.9478211 60.8622319,36.6344414 L60.8622319,34.118462 C60.8622319,33.8050515 61.119031,33.548608 61.4329138,33.548608 L63.9227117,33.548608 C64.2365944,33.548608 64.4934244,33.8050515 64.4934244,34.118462 L64.4934244,36.6344414 C64.4934244,36.9478211 64.2365944,37.2042646 63.9227117,37.2042646 L61.4329138,37.2042646 Z" id="Fill-5备份" fill="#B2BED9"></path>
                        </g>
                    </g>
                    <g id="编组" transform="translate(39.546748, 0.000000)">
                        <g id="分组">
                            <mask id="mask-18" fill="white">
                                <use xlink:href="#path-17"></use>
                            </mask>
                            <g id="Clip-2"></g>
                            <path d="M3.31874435e-06,14.8353537 C3.31874435e-06,23.0286763 6.65660798,29.6707107 14.867978,29.6707107 C23.0793148,29.6707107 29.7359526,23.0286763 29.7359526,14.8353537 C29.7359526,6.64199796 23.0793148,-3.31146362e-06 14.867978,-3.31146362e-06 C6.65660798,-3.31146362e-06 3.31874435e-06,6.64199796 3.31874435e-06,14.8353537 Z" id="Fill-1" fill="#13C2C2" mask="url(#mask-18)"></path>
                        </g>
                        <path d="M17.9950831,8.36460938 C18.7841568,9.0727567 19.1888219,10.0439732 19.1888219,11.2579688 C19.1888219,12.249375 18.9257862,13.0789286 18.4401947,13.7263728 C18.2580519,13.9489286 17.6915675,14.4750335 16.7203844,15.3045536 C16.3561657,15.6282924 16.0729068,15.9722879 15.8907974,16.3364732 C15.6682416,16.7411384 15.5670586,17.18625 15.5670586,17.6920982 L15.5670586,18.1722321 C15.5670586,18.3728237 15.4044358,18.5354464 15.2038777,18.5354464 L13.765284,18.5354464 C13.564726,18.5354464 13.4021032,18.3728237 13.4021032,18.1722321 L13.4021032,17.6920982 C13.4021032,16.943471 13.5235429,16.2959933 13.7865786,15.7699219 C14.0698376,15.2034375 14.838688,14.3738504 16.09313,13.2610379 L16.4371255,12.8766295 C16.8012773,12.4112277 16.9834202,11.9256362 16.9834202,11.3995647 C16.9834202,10.6914174 16.7810541,10.1451228 16.3966456,9.74042411 C15.9919469,9.33579241 15.4254626,9.13345982 14.6970251,9.13345982 C13.7865786,9.13345982 13.1188777,9.41671875 12.7142126,9.98327009 C12.3977059,10.405279 12.2187438,10.9953683 12.1772929,11.7269531 C12.1664447,11.9183036 12.006601,12.0672321 11.8149492,12.0672321 L10.395976,12.0672321 C10.188755,12.0672321 10.0221144,11.8939286 10.0329626,11.6870089 C10.1009648,10.3907813 10.5242126,9.36261161 11.3181411,8.58716518 C12.1679179,7.71716518 13.3414001,7.2922433 14.8184648,7.2922433 C16.1336099,7.2922433 17.1857193,7.63620536 17.9950831,8.36460938" id="Fill-3" fill="#FFFFFF"></path>
                        <path d="M14.6614905,21.8297779 L14.1257762,21.8297779 C13.6819704,21.8297779 13.3222048,21.4700123 13.3222048,21.0262065 L13.3222048,20.4904922 C13.3222048,20.0466864 13.6819704,19.6869208 14.1257762,19.6869208 L14.6614905,19.6869208 C15.1052963,19.6869208 15.4650619,20.0466864 15.4650619,20.4904922 L15.4650619,21.0262065 C15.4650619,21.4700123 15.1052963,21.8297779 14.6614905,21.8297779" id="Fill-5" fill="#FFFFFF"></path>
                    </g>
                </g>
                <g id="编组" transform="translate(129.732910, 5.732910)" fill="#B2BED9">
                    <path d="M8.01708984,3.76708984 C7.87900651,3.76708984 7.76708984,3.66490506 7.76708984,3.53882897 L7.76708984,0.495350713 C7.76708984,0.369274626 7.87900651,0.267089844 8.01708984,0.267089844 C8.15517318,0.267089844 8.26708984,0.369274626 8.26708984,0.495350713 L8.26708984,3.53882897 C8.26708984,3.66490506 8.15517318,3.76708984 8.01708984,3.76708984" id="Fill-1"></path>
                    <path d="M8.01708984,3.76708984 C7.87900651,3.76708984 7.76708984,3.66490506 7.76708984,3.53882897 L7.76708984,0.495350713 C7.76708984,0.369274626 7.87900651,0.267089844 8.01708984,0.267089844 C8.15517318,0.267089844 8.26708984,0.369274626 8.26708984,0.495350713 L8.26708984,3.53882897 C8.26708984,3.66490506 8.15517318,3.76708984 8.01708984,3.76708984" id="Fill-3"></path>
                    <path d="M5.53651526,4.26708984 C5.4567489,4.26708984 5.37918758,4.22737751 5.33644552,4.15631851 L3.79803922,1.59927715 C3.73432356,1.49337759 3.77214271,1.35795213 3.88249772,1.29678431 C3.99292966,1.23564109 4.13402715,1.27195795 4.19771718,1.3778329 L5.73612348,3.93487426 C5.79986478,4.04079843 5.76204563,4.17622389 5.65166498,4.2373671 C5.61533295,4.25749393 5.57564206,4.26708984 5.53651526,4.26708984" id="Fill-5"></path>
                    <path d="M4.04539695,5.76708984 C4.00784969,5.76708984 3.96976113,5.75709029 3.93489582,5.73611688 L1.37784409,4.19772463 C1.27191949,4.13400956 1.2356517,3.99288771 1.29679516,3.88250806 C1.35791402,3.77215406 1.49334003,3.73430961 1.59928923,3.79805033 L4.15634097,5.33644257 C4.26224096,5.40015765 4.29853336,5.5412795 4.23738989,5.65165915 C4.19637333,5.72568145 4.12191855,5.76708984 4.04539695,5.76708984" id="Fill-7"></path>
                    <path d="M3.53882897,8.26708984 L0.495350713,8.26708984 C0.369274626,8.26708984 0.267089844,8.15517318 0.267089844,8.01708984 C0.267089844,7.87900651 0.369274626,7.76708984 0.495350713,7.76708984 L3.53882897,7.76708984 C3.66490506,7.76708984 3.76708984,7.87900651 3.76708984,8.01708984 C3.76708984,8.15517318 3.66490506,8.26708984 3.53882897,8.26708984" id="Fill-9"></path>
                    <path d="M1.48878274,11.7670898 C1.41223653,11.7670898 1.33780636,11.7257069 1.29678979,11.6516585 C1.23564633,11.5412782 1.27193873,11.4001556 1.37783872,11.3364401 L3.93489045,9.79803911 C4.04083965,9.73432367 4.17624106,9.77214269 4.23738453,9.88249733 C4.29852799,9.9928776 4.2622602,10.1340003 4.1563356,10.1977157 L1.59928387,11.7361167 C1.56441856,11.7570902 1.52632999,11.7670898 1.48878274,11.7670898" id="Fill-11"></path>
                    <path d="M3.99766442,14.2670898 C3.95853762,14.2670898 3.91887238,14.257494 3.88251471,14.2373673 C3.77213406,14.1762245 3.7343149,14.0408001 3.79805621,13.9348767 L5.33646251,11.377854 C5.40017817,11.2719798 5.54122439,11.235614 5.65168196,11.296806 C5.76203698,11.3579733 5.79985613,11.4933978 5.73614047,11.5992966 L4.19773416,14.1563193 C4.15499211,14.2273532 4.07740515,14.2670898 3.99766442,14.2670898" id="Fill-13"></path>
                    <path d="M8.01708984,15.2670898 C7.87900651,15.2670898 7.76708984,15.1649051 7.76708984,15.038829 L7.76708984,11.9953507 C7.76708984,11.8692746 7.87900651,11.7670898 8.01708984,11.7670898 C8.15517318,11.7670898 8.26708984,11.8692746 8.26708984,11.9953507 L8.26708984,15.038829 C8.26708984,15.1649051 8.15517318,15.2670898 8.01708984,15.2670898" id="Fill-15"></path>
                    <path d="M11.5365153,14.2670898 C11.4567489,14.2670898 11.3791876,14.2273775 11.3364455,14.1563185 L9.79803922,11.5992772 C9.73432356,11.4933776 9.77214271,11.3579521 9.88249772,11.2967843 C9.99292966,11.2356411 10.1340272,11.2719579 10.1977172,11.3778329 L11.7361235,13.9348743 C11.7998648,14.0407984 11.7620456,14.1762239 11.651665,14.2373671 C11.6153329,14.2574939 11.5756421,14.2670898 11.5365153,14.2670898" id="Fill-17"></path>
                    <path d="M14.0453969,11.7670898 C14.0078497,11.7670898 13.9697611,11.7570903 13.9348958,11.7361169 L11.3778441,10.1977246 C11.2719195,10.1340096 11.2356517,9.99288771 11.2967952,9.88250806 C11.357914,9.77215406 11.4933646,9.73430961 11.5992892,9.79805033 L14.156341,11.3364426 C14.262241,11.4001577 14.2985334,11.5412795 14.2373899,11.6516591 C14.1963733,11.7256815 14.1219186,11.7670898 14.0453969,11.7670898" id="Fill-19"></path>
                    <path d="M15.038829,8.26708984 L11.9953507,8.26708984 C11.8692746,8.26708984 11.7670898,8.15517318 11.7670898,8.01708984 C11.7670898,7.87900651 11.8692746,7.76708984 11.9953507,7.76708984 L15.038829,7.76708984 C15.1649051,7.76708984 15.2670898,7.87900651 15.2670898,8.01708984 C15.2670898,8.15517318 15.1649051,8.26708984 15.038829,8.26708984" id="Fill-21"></path>
                    <path d="M11.4887827,5.76708984 C11.4122365,5.76708984 11.3378064,5.72570686 11.2967898,5.65165849 C11.2356463,5.54127822 11.2719387,5.40015556 11.3778387,5.33644012 L13.9348905,3.79803911 C14.0408643,3.73432367 14.1762657,3.77214269 14.2373845,3.88249733 C14.298528,3.9928776 14.2622602,4.13400025 14.1563356,4.19771569 L11.5992839,5.7361167 C11.5644186,5.75709024 11.52633,5.76708984 11.4887827,5.76708984" id="Fill-23"></path>
                    <path d="M9.99766442,4.26708984 C9.95853762,4.26708984 9.91887238,4.257494 9.88251471,4.23736732 C9.77213406,4.17622455 9.7343149,4.04080007 9.79805621,3.93487668 L11.3364625,1.37785396 C11.4001525,1.27197978 11.5411988,1.23561398 11.651682,1.29680596 C11.762037,1.35797334 11.7998561,1.49339781 11.7361405,1.5992966 L10.1977342,4.15631932 C10.1549921,4.22735319 10.0774052,4.26708984 9.99766442,4.26708984" id="Fill-25"></path>
                </g>
            </g>
        </g>
    </g>
</svg>