<?xml version="1.0" encoding="UTF-8"?>
<svg width="219px" height="201px" viewBox="0 0 219 201" version="1.1" xmlns="http://www.w3.org/2000/svg" xmlns:xlink="http://www.w3.org/1999/xlink">
    <title>500提醒</title>
    <defs>
        <polygon id="path-1" points="0 0.0555002043 19.3248554 0.0555002043 19.3248554 4.61144765 0 4.61144765"></polygon>
        <polygon id="path-3" points="0.0103527529 0.0119414549 19.3544703 0.0119414549 19.3544703 4.54921675 0.0103527529 4.54921675"></polygon>
        <polygon id="path-5" points="0.0208731446 0.0276056037 4.99038153 0.0276056037 4.99038153 4.99687025 0.0208731446 4.99687025"></polygon>
        <polygon id="path-7" points="0.0122950879 0.0424199383 5.43496325 0.0424199383 5.43496325 5.40407322 0.0122950879 5.40407322"></polygon>
        <polygon id="path-9" points="0.00731618073 0.0437757455 13.063747 0.0437757455 13.063747 6.50134834 0.00731618073 6.50134834"></polygon>
        <polygon id="path-11" points="0 54.917973 40.2739936 54.917973 40.2739936 0 0 0"></polygon>
        <polygon id="path-13" points="3.30620414e-06 0 29.623589 0 29.623589 29.6336961 3.30620414e-06 29.6336961"></polygon>
        <polygon id="path-15" points="0.0611516602 0.295560352 14.1614126 0.295560352 14.1614126 15.8554688 0.0611516602 15.8554688"></polygon>
        <polygon id="path-17" points="0.320826293 0.222841406 17.0250618 0.222841406 17.0250618 15.8554688 0.320826293 15.8554688"></polygon>
        <polygon id="path-19" points="0.151306105 0.252966797 16.6453131 0.252966797 16.6453131 16.8084185 0.151306105 16.8084185"></polygon>
        <polygon id="path-21" points="0.285682647 0.137808167 17.7761426 0.137808167 17.7761426 36.9529477 0.285682647 36.9529477"></polygon>
    </defs>
    <g id="控件" stroke="none" stroke-width="1" fill="none" fill-rule="evenodd">
        <g id="5、反馈/7、Result结果/异常500" transform="translate(-115.000000, -100.000000)">
            <g id="500提醒" transform="translate(115.000000, 100.000000)">
                <g id="编组-5" transform="translate(0.000000, 6.500000)">
                    <path d="M104.499811,139 C66.1162431,139 35,107.883757 35,69.5001887 C35,31.1162431 66.1162431,0 104.499811,0 C142.883757,0 174,31.1162431 174,69.5001887 C174,107.883757 142.883757,139 104.499811,139 Z" id="Fill-1" fill="#DFE5F1"></path>
                    <g id="插图" transform="translate(0.000000, 9.000000)">
                        <g id="编组-4" transform="translate(157.500000, 141.500000)">
                            <path d="M14.0420275,24.019867 L7.97525672,24.019867 L7.97525672,3.02571209 C7.97525672,1.35467016 9.32623579,2.30926389e-13 10.9927831,2.30926389e-13 L11.0244537,2.30926389e-13 C12.691001,2.30926389e-13 14.0420275,1.35467016 14.0420275,3.02571209 L14.0420275,24.019867 Z" id="Fill-1" fill="#5BA02E"></path>
                            <path d="M17.2214518,29.1237878 L11.105421,29.1237878 L11.105421,18.1005645 C11.105421,16.4646705 12.4334597,15.1385304 14.0716959,15.1385304 L14.2552247,15.1385304 C15.8934131,15.1385304 17.2214518,16.4646705 17.2214518,18.1005645 L17.2214518,29.1237878 Z" id="Fill-3" fill="#92C110"></path>
                            <path d="M8.12199128,23.9165111 L2.0059604,23.9165111 L2.0059604,12.0003276 C2.0059604,10.3646203 3.32866186,9.03857778 4.96024802,9.03857778 L5.16770366,9.03857778 C6.79928982,9.03857778 8.12199128,10.3646203 8.12199128,12.0003276 L8.12199128,23.9165111 Z" id="Fill-5" fill="#92C110"></path>
                            <path d="M1.18953522,41.5 C0.532564831,41.5 0,40.9928122 0,40.3671467 L0,24.6328533 C0,24.0071878 0.532564831,23.5 1.18953522,23.5 L17.8104648,23.5 C18.4674352,23.5 19,24.0071878 19,24.6328533 L19,40.3671467 C19,40.9928122 18.4674352,41.5 17.8104648,41.5 L1.18953522,41.5 Z" id="Fill-7" fill="#CAD5EE"></path>
                            <path d="M10.0612206,4.57519779 C10.0612206,4.90387547 9.79407865,5.17031512 9.46453464,5.17031512 C9.13499064,5.17031512 8.8678487,4.90387547 8.8678487,4.57519779 C8.8678487,4.24652011 9.13499064,3.98008046 9.46453464,3.98008046 C9.79407865,3.98008046 10.0612206,4.24652011 10.0612206,4.57519779" id="Fill-9" fill="#92C110"></path>
                            <path d="M13.1938218,10.6751504 C13.1938218,11.0038281 12.9266798,11.2702678 12.5971358,11.2702678 C12.2675918,11.2702678 12.0004499,11.0038281 12.0004499,10.6751504 C12.0004499,10.3464728 12.2675918,10.0800331 12.5971358,10.0800331 C12.9266798,10.0800331 13.1938218,10.3464728 13.1938218,10.6751504" id="Fill-11" fill="#92C110"></path>
                            <path d="M3.9451897,13.6507371 C3.9451897,13.9794148 3.67804777,14.2458544 3.34850376,14.2458544 C3.01895976,14.2458544 2.75181783,13.9794148 2.75181783,13.6507371 C2.75181783,13.3220594 3.01895976,13.0556198 3.34850376,13.0556198 C3.67804777,13.0556198 3.9451897,13.3220594 3.9451897,13.6507371" id="Fill-13" fill="#5BA02E"></path>
                            <path d="M6.9286194,19.7506898 C6.9286194,20.0793675 6.66147747,20.3458071 6.33193346,20.3458071 C6.00238946,20.3458071 5.73524752,20.0793675 5.73524752,19.7506898 C5.73524752,19.4220121 6.00238946,19.1555724 6.33193346,19.1555724 C6.66147747,19.1555724 6.9286194,19.4220121 6.9286194,19.7506898" id="Fill-15" fill="#5BA02E"></path>
                        </g>
                        <g id="编组" opacity="0.837588356" transform="translate(180.000000, 79.000000)">
                            <g>
                                <mask id="mask-2" fill="white">
                                    <use xlink:href="#path-1"></use>
                                </mask>
                                <g id="Clip-2"></g>
                                <path d="M2.27460334,4.61144765 L17.0524774,4.6051665 C18.3079347,4.60459551 19.3254258,3.58537438 19.3248554,2.32919149 C19.3242845,1.07300859 18.3062227,0.0549294521 17.0507654,0.0555002043 L2.27232069,0.0617813588 C1.01686337,0.0623523511 -0.000627728662,1.08157347 -5.73061677e-05,2.33775637 C0.000513596178,3.59393927 1.01857535,4.61201841 2.27460334,4.61144765" id="Fill-1" fill="#E4E6EF" mask="url(#mask-2)"></path>
                            </g>
                            <g transform="translate(5.602137, 8.994366)">
                                <mask id="mask-4" fill="white">
                                    <use xlink:href="#path-3"></use>
                                </mask>
                                <g id="Clip-4"></g>
                                <path d="M2.28727393,4.54921699 L17.0798341,4.54296158 C18.336539,4.54239292 19.3550413,3.52734894 19.3544703,2.27631433 C19.3538988,1.02527972 18.3348254,0.0113730419 17.0781204,0.0119414549 L2.28556024,0.018196867 C1.02828403,0.0187655191 0.00978176354,1.03324085 0.0103527529,2.28484411 C0.0109242226,3.53587872 1.03056895,4.5497854 2.28727393,4.54921699" id="Fill-3" fill="#E4E6EF" mask="url(#mask-4)"></path>
                            </g>
                            <path d="M9.15471122,4.63797335 L9.15471122,4.63684539 L16.9413434,4.6334615 C15.6910058,4.63402548 14.6786925,5.64073129 14.6792606,6.88148914 C14.6792606,8.12224699 15.6932781,9.12782482 16.9430476,9.12726084 L9.15641545,9.13064473 L9.15641545,9.13008075 C10.3976638,9.11880113 11.3997517,8.11717116 11.3991837,6.8826171 C11.3986156,5.64862702 10.3953915,4.64812501 9.15471122,4.63797335" id="Fill-5" fill="#E4E6EF"></path>
                        </g>
                        <rect id="矩形" fill="#E5E3EA" x="0" y="183" width="219" height="1"></rect>
                        <g id="编组" transform="translate(6.000000, 110.000000)">
                            <g transform="translate(16.396498, 9.993740)">
                                <mask id="mask-6" fill="white">
                                    <use xlink:href="#path-5"></use>
                                </mask>
                                <g id="Clip-2"></g>
                                <path d="M4.97721327,2.7657877 C4.83715234,4.13067801 3.61712479,5.12384601 2.25219143,4.9837895 C0.886817625,4.84373299 -0.106381705,3.62374392 0.0341196636,2.25841318 C0.174180589,0.893522881 1.39420815,-0.0996451201 2.75914151,0.0408518166 C4.12407487,0.180908324 5.1172742,1.4008974 4.97721327,2.7657877" id="Fill-1" fill="#E4E6EF" mask="url(#mask-6)"></path>
                            </g>
                            <path d="M37.3343034,3.66186704 C37.1931104,5.03431563 35.9632216,6.03298344 34.5872558,5.89215135 C33.2108459,5.75131926 32.2096187,4.52413145 32.3508117,3.15168287 C32.4924488,1.77923428 33.7223376,0.78056647 35.0983034,0.921841429 C36.4742693,1.06223065 37.4754964,2.28941846 37.3343034,3.66186704" id="Fill-3" fill="#E4E6EF"></path>
                            <path d="M4.99671812,2.75350158 C4.85565549,4.12608941 3.62534403,5.12433511 2.24906342,4.98365097 C0.873191678,4.84255905 -0.128148555,3.6159565 0.0133229516,2.24336867 C0.154385581,0.870780838 1.38469704,-0.127464858 2.76056878,0.0132192784 C4.13684939,0.153903414 5.13818963,1.38091375 4.99671812,2.75350158" id="Fill-5" fill="#E4E6EF"></path>
                            <g transform="translate(46.001285, 6.359653)">
                                <mask id="mask-8" fill="white">
                                    <use xlink:href="#path-7"></use>
                                </mask>
                                <g id="Clip-8"></g>
                                <path d="M5.42089014,2.99693347 C5.26776765,4.46972338 3.93657561,5.54084331 2.44695048,5.38988891 C0.95732534,5.23849696 -0.126038395,3.92234959 0.0266415428,2.44955969 C0.179764032,0.976769783 1.51095607,-0.0943501475 3.00058121,0.0566042545 C4.48976379,0.207996205 5.57357008,1.52414357 5.42089014,2.99693347" id="Fill-7" fill="#E4E6EF" mask="url(#mask-8)"></path>
                            </g>
                            <polygon id="Fill-9" fill="#E4E6EF" points="18.9358474 12.7193061 18.8747672 12.6809867 2.73274962 2.47865527 2.86122862 2.27130466 18.9425873 12.4357424 35.2307761 3.22332924 35.2842739 3.2446178 49.1894931 8.75963319 49.1010322 8.98656928 35.2488895 3.49284246"></polygon>
                        </g>
                    </g>
                </g>
                <g id="编组-3" transform="translate(132.000000, 0.000000)">
                    <g id="分组" transform="translate(0.191727, 14.739470)">
                        <path d="M20.324951,51.2132519 L19.674085,51.2132519 C18.7793287,51.2132519 18.04692,50.4966588 18.04692,49.6204215 L18.04692,36.8785012 C18.04692,36.0022639 18.7793287,35.2856708 19.674085,35.2856708 L20.324951,35.2856708 C21.2197072,35.2856708 21.9521159,36.0022639 21.9521159,36.8785012 L21.9521159,49.6204215 C21.9521159,50.4966588 21.2197072,51.2132519 20.324951,51.2132519" id="Fill-1" fill="#4E5C93"></path>
                        <path d="M39.662091,51.6890783 L39.662091,51.6890783 C39.662091,52.7448251 38.7879972,53.6004748 37.7094931,53.6004748 L2.56457436,53.6004748 C1.48607022,53.6004748 0.61197638,52.7448251 0.61197638,51.6890783 C0.61197638,50.6336928 1.48607022,49.7776819 2.56457436,49.7776819 L37.7094931,49.7776819 C38.7879972,49.7776819 39.662091,50.6336928 39.662091,51.6890783" id="Fill-3" fill="#4E5C93"></path>
                        <g transform="translate(13.464171, 48.416625)">
                            <mask id="mask-10" fill="white">
                                <use xlink:href="#path-9"></use>
                            </mask>
                            <g id="Clip-6"></g>
                            <path d="M12.087448,6.50142058 L0.983246197,6.50142058 C0.446392445,6.50142058 0.00731618073,6.07124803 0.00731618073,5.54572237 L0.00731618073,0.999112766 C0.00731618073,0.473587108 0.446392445,0.0437757455 0.983246197,0.0437757455 L12.087448,0.0437757455 C12.6243018,0.0437757455 13.063747,0.473587108 13.063747,0.999112766 L13.063747,5.54572237 C13.063747,6.07124803 12.6243018,6.50142058 12.087448,6.50142058" id="Fill-5" fill="#ADC6FF" mask="url(#mask-10)"></path>
                        </g>
                        <line x1="15.0928592" y1="49.4020485" x2="15.0928592" y2="53.9764694" id="Stroke-7" stroke="#597EF7" stroke-width="0.890130732" stroke-linecap="round" stroke-linejoin="round"></line>
                        <line x1="24.7439768" y1="49.4020485" x2="24.7439768" y2="53.9764694" id="Stroke-9" stroke="#597EF7" stroke-width="0.890130732" stroke-linecap="round" stroke-linejoin="round"></line>
                        <mask id="mask-12" fill="white">
                            <use xlink:href="#path-11"></use>
                        </mask>
                        <g id="Clip-12"></g>
                        <polygon id="Fill-11" fill="#4E5C93" mask="url(#mask-12)" points="1.83046836 42.6632926 38.4431563 42.6632926 38.4431563 0.797859916 1.83046836 0.797859916"></polygon>
                        <path d="M1.66616528,43.0244786 C0.749639703,43.0244786 -0.000110691495,42.2905486 -0.000110691495,41.3937237 L-0.000110691495,31.7529465 C-0.000110691495,30.8561216 0.749639703,30.1221916 1.66616528,30.1221916 L38.6079759,30.1221916 C39.5241325,30.1221916 40.2742519,30.8561216 40.2742519,31.7529465 L40.2742519,41.3937237 C40.2742519,42.2905486 39.5241325,43.0244786 38.6079759,43.0244786 L1.66616528,43.0244786 Z" id="Fill-13" fill="#CBD4EA" mask="url(#mask-12)"></path>
                        <path d="M1.66616528,12.9025037 C0.749639703,12.9025037 -0.000110691495,12.1685737 -0.000110691495,11.2713876 L-0.000110691495,1.63097159 C-0.000110691495,0.734146702 0.749639703,-0.000144474408 1.66616528,-0.000144474408 L38.6079759,-0.000144474408 C39.5241325,-0.000144474408 40.2742519,0.734146702 40.2742519,1.63097159 L40.2742519,11.2713876 C40.2742519,12.1685737 39.5241325,12.9025037 38.6079759,12.9025037 L1.66616528,12.9025037 Z" id="Fill-14" fill="#CBD4EA" mask="url(#mask-12)"></path>
                        <path d="M4.66815553,7.67448053 L4.66815553,7.67448053 C3.97817854,7.67448053 3.41881752,7.12656134 3.41881752,6.45114348 C3.41881752,5.77572563 3.97817854,5.22816762 4.66815553,5.22816762 C5.35850149,5.22816762 5.91786251,5.77572563 5.91786251,6.45114348 C5.91786251,7.12656134 5.35850149,7.67448053 4.66815553,7.67448053" id="Fill-15" fill="#FFFFFF" mask="url(#mask-12)"></path>
                        <path d="M7.26995912,6.45114348 C7.26995912,5.77572563 7.82932015,5.22816762 8.5196661,5.22816762 C9.20964309,5.22816762 9.76937309,5.77572563 9.76937309,6.45114348 C9.76937309,7.12656134 9.20964309,7.67448053 8.5196661,7.67448053 C7.82932015,7.67448053 7.26995912,7.12656134 7.26995912,6.45114348 Z" id="Fill-16" fill="#FFFFFF" mask="url(#mask-12)"></path>
                        <path d="M12.3711767,7.67448053 L12.3711767,7.67448053 C11.6808307,7.67448053 11.1214697,7.12656134 11.1214697,6.45114348 C11.1214697,5.77572563 11.6808307,5.22816762 12.3711767,5.22816762 C13.0611537,5.22816762 13.6205147,5.77572563 13.6205147,6.45114348 C13.6205147,7.12656134 13.0611537,7.67448053 12.3711767,7.67448053" id="Fill-17" fill="#FFFFFF" mask="url(#mask-12)"></path>
                        <path d="M25.6330878,7.67448053 C25.4426985,7.67448053 25.2884683,7.52350477 25.2884683,7.33713279 L25.2884683,5.56551537 C25.2884683,5.37914338 25.4426985,5.22816762 25.6330878,5.22816762 L37.4394427,5.22816762 C37.6298321,5.22816762 37.7840622,5.37914338 37.7840622,5.56551537 L37.7840622,7.33713279 C37.7840622,7.52350477 37.6298321,7.67448053 37.4394427,7.67448053 L25.6330878,7.67448053 Z" id="Fill-18" fill="#4E5C93" mask="url(#mask-12)"></path>
                        <path d="M1.66616528,27.9634911 C0.749639703,27.9634911 -0.000110691495,27.2295611 -0.000110691495,26.3323751 L-0.000110691495,16.691959 C-0.000110691495,15.7951342 0.749639703,15.060843 1.66616528,15.060843 L38.6079759,15.060843 C39.5241325,15.060843 40.2742519,15.7951342 40.2742519,16.691959 L40.2742519,26.3323751 C40.2742519,27.2295611 39.5241325,27.9634911 38.6079759,27.9634911 L1.66616528,27.9634911 Z" id="Fill-19" fill="#CBD4EA" mask="url(#mask-12)"></path>
                        <path d="M4.66815553,23.1725031 L4.66815553,23.1725031 C3.97817854,23.1725031 3.41881752,22.6249451 3.41881752,21.949166 C3.41881752,21.2737482 3.97817854,20.7261902 4.66815553,20.7261902 C5.35850149,20.7261902 5.91786251,21.2737482 5.91786251,21.949166 C5.91786251,22.6249451 5.35850149,23.1725031 4.66815553,23.1725031" id="Fill-20" fill="#FF7A46" mask="url(#mask-12)"></path>
                        <path d="M8.5196661,23.1725031 L8.5196661,23.1725031 C7.82932015,23.1725031 7.26995912,22.6249451 7.26995912,21.949166 C7.26995912,21.2737482 7.82932015,20.7261902 8.5196661,20.7261902 C9.20964309,20.7261902 9.76937309,21.2737482 9.76937309,21.949166 C9.76937309,22.6249451 9.20964309,23.1725031 8.5196661,23.1725031" id="Fill-21" fill="#393D65" mask="url(#mask-12)"></path>
                        <path d="M12.3711767,23.1725031 L12.3711767,23.1725031 C11.6808307,23.1725031 11.1214697,22.6249451 11.1214697,21.949166 C11.1214697,21.2737482 11.6808307,20.7261902 12.3711767,20.7261902 C13.0611537,20.7261902 13.6205147,21.2737482 13.6205147,21.949166 C13.6205147,22.6249451 13.0611537,23.1725031 12.3711767,23.1725031" id="Fill-22" fill="#393D65" mask="url(#mask-12)"></path>
                        <path d="M37.367567,23.1725031 L25.7051111,23.1725031 C25.4748728,23.1725031 25.2885421,22.9901041 25.2885421,22.764724 L25.2885421,21.133608 C25.2885421,20.9085891 25.4748728,20.7261902 25.7051111,20.7261902 L37.367567,20.7261902 C37.5978053,20.7261902 37.784136,20.9085891 37.784136,21.133608 L37.784136,22.764724 C37.784136,22.9901041 37.5978053,23.1725031 37.367567,23.1725031" id="Fill-23" fill="#FF7A46" mask="url(#mask-12)"></path>
                        <path d="M3.41881752,36.6634149 C3.41881752,35.987997 3.97817854,35.440439 4.66815553,35.440439 C5.35850149,35.440439 5.91786251,35.987997 5.91786251,36.6634149 C5.91786251,37.3388327 5.35850149,37.8867519 4.66815553,37.8867519 C3.97817854,37.8867519 3.41881752,37.3388327 3.41881752,36.6634149 Z" id="Fill-24" fill="#FFFFFF" mask="url(#mask-12)"></path>
                        <path d="M8.5196661,37.8867519 L8.5196661,37.8867519 C7.82932015,37.8867519 7.26995912,37.3388327 7.26995912,36.6634149 C7.26995912,35.987997 7.82932015,35.440439 8.5196661,35.440439 C9.20964309,35.440439 9.76937309,35.987997 9.76937309,36.6634149 C9.76937309,37.3388327 9.20964309,37.8867519 8.5196661,37.8867519" id="Fill-25" fill="#FFFFFF" mask="url(#mask-12)"></path>
                        <path d="M12.3711767,37.8867519 L12.3711767,37.8867519 C11.6808307,37.8867519 11.1214697,37.3388327 11.1214697,36.6634149 C11.1214697,35.987997 11.6808307,35.440439 12.3711767,35.440439 C13.0611537,35.440439 13.6205147,35.987997 13.6205147,36.6634149 C13.6205147,37.3388327 13.0611537,37.8867519 12.3711767,37.8867519" id="Fill-26" fill="#FFFFFF" mask="url(#mask-12)"></path>
                        <path d="M37.367567,37.8867519 L25.7051111,37.8867519 C25.4748728,37.8867519 25.2885421,37.7039918 25.2885421,37.4789729 L25.2885421,35.8478569 C25.2885421,35.622838 25.4748728,35.440439 25.7051111,35.440439 L37.367567,35.440439 C37.5978053,35.440439 37.784136,35.622838 37.784136,35.8478569 L37.784136,37.4789729 C37.784136,37.7039918 37.5978053,37.8867519 37.367567,37.8867519" id="Fill-27" fill="#4E5C93" mask="url(#mask-12)"></path>
                    </g>
                    <g id="分组" transform="translate(33.199120, 0.194364)">
                        <g transform="translate(0.300880, 0.305636)">
                            <mask id="mask-14" fill="white">
                                <use xlink:href="#path-13"></use>
                            </mask>
                            <g id="Clip-2"></g>
                            <path d="M14.8117978,-3.30739478e-06 C6.63145531,-3.30739478e-06 3.30620414e-06,6.63371197 3.30620414e-06,14.8168464 C3.30620414e-06,22.9999477 6.63145531,29.6336961 14.8117978,29.6336961 C22.9921403,29.6336961 29.6235924,22.9999477 29.6235924,14.8168464 C29.6235924,6.63371197 22.9921403,-3.30739478e-06 14.8117978,-3.30739478e-06" id="Fill-1" fill="#FA9513" mask="url(#mask-14)"></path>
                        </g>
                        <path d="M15.86338,19.3056364 L15.23838,19.3056364 C14.7206065,19.3056364 14.30088,18.9545923 14.30088,18.5215455 L14.30088,8.58972727 C14.30088,8.1566804 14.7206065,7.80563636 15.23838,7.80563636 L15.86338,7.80563636 C16.3811534,7.80563636 16.80088,8.1566804 16.80088,8.58972727 L16.80088,18.5215455 C16.80088,18.9545923 16.3811534,19.3056364 15.86338,19.3056364" id="Fill-3" fill="#FFFFFF"></path>
                        <path d="M15.86338,23.3056364 L15.23838,23.3056364 C14.7206065,23.3056364 14.30088,22.8859098 14.30088,22.3681364 L14.30088,21.7431364 C14.30088,21.2253629 14.7206065,20.8056364 15.23838,20.8056364 L15.86338,20.8056364 C16.3811534,20.8056364 16.80088,21.2253629 16.80088,21.7431364 L16.80088,22.3681364 C16.80088,22.8859098 16.3811534,23.3056364 15.86338,23.3056364" id="Fill-5" fill="#FFFFFF"></path>
                    </g>
                </g>
                <g id="2.人物组件/2.保安/站立/思考" transform="translate(58.500000, 28.500000)">
                    <path d="M48.5709718,67.3408529 C48.5709718,67.3408529 62.5093702,37.5246439 61.187961,34.8811049 C59.8661915,32.2379262 49.9900362,28.2358617 35.2444503,29.2509721 C20.4354425,30.2704066 15.2571905,36.286476 15.2571905,36.286476 C15.2571905,36.286476 19.0646651,53.9537924 22.2581007,65.4183773 C20.5759796,68.4219076 23.6335626,70.5544682 23.6335626,70.5544682 C23.6335626,70.5544682 42.8269679,69.6669223 47.3926222,69.9072768 C49.5248224,68.9934252 48.5709718,67.3408529 48.5709718,67.3408529" id="Fill-1" fill="#597EF7"></path>
                    <path d="M19.2508948,89.8728434 C19.2508948,89.8728434 19.867096,85.0653932 21.0094104,80.2680328 C21.68543,77.4284625 23.3289935,73.2959508 23.3289935,73.2959508 L23.6338509,70.5547564 C31.8577942,67.660773 46.9359847,69.945402 46.9359847,69.945402 C46.9359847,69.945402 47.1835462,71.2019479 47.7925403,72.8772223 C53.4767259,80.5386568 52.6652142,91.901983 52.6652142,91.901983 L36.8436185,98.2438102 L19.2508948,89.8728434 Z" id="Fill-3" fill="#4E5C93"></path>
                    <path d="M52.66507,88.2495316 C52.66507,88.2495316 41.4019216,71.9634428 35.6907097,94.5801879 C36.6344704,140.095833 36.3515944,148.626076 36.3515944,148.626076 C36.3515944,148.626076 34.8078483,154.900517 37.5490427,156.499397 C47.1441237,156.499397 48.0576149,156.836686 48.0576149,156.836686 C48.0576149,156.836686 51.7904968,153.793157 48.8846218,148.960842 C53.8826979,96.7722064 52.66507,88.2495316 52.66507,88.2495316" id="Fill-5" fill="#4E5C93"></path>
                    <path d="M20.3329945,83.5145659 C20.3329945,83.5145659 27.5728178,83.3967853 36.0255844,94.1341808 C29.0250346,126.703115 24.3256898,148.771766 24.3256898,148.771766 C24.3256898,148.771766 24.6309076,153.935243 21.6612504,156.219872 L11.4024018,156.219872 C11.4024018,156.219872 8.20824551,152.27114 11.4218607,148.661498 C14.9046586,109.12949 20.3329945,83.5145659 20.3329945,83.5145659" id="Fill-7" fill="#4E5C93"></path>
                    <g id="分组" transform="translate(37.382812, 155.752893)">
                        <mask id="mask-16" fill="white">
                            <use xlink:href="#path-15"></use>
                        </mask>
                        <g id="Clip-10"></g>
                        <path d="M13.6020823,15.8555408 L0.0611516602,15.8555408 L0.435917285,0.295560352 L10.4198177,0.295560352 L8.89012529,10.6758475 L13.9577493,14.8667361 C14.3609827,15.2004217 14.1253128,15.8555408 13.6020823,15.8555408" id="Fill-9" fill="#253368" mask="url(#mask-16)"></path>
                    </g>
                    <g id="分组" transform="translate(4.590820, 155.752893)">
                        <mask id="mask-18" fill="white">
                            <use xlink:href="#path-17"></use>
                        </mask>
                        <g id="Clip-12"></g>
                        <path d="M17.0250618,0.222841406 L6.85702178,0.267885352 L5.85740654,10.0680064 L0.506906543,14.8823033 C0.126375293,15.224277 0.368531543,15.8556129 0.880230762,15.8556129 L13.766763,15.8556129 L17.0250618,0.222841406 Z" id="Fill-11" fill="#253368" mask="url(#mask-18)"></path>
                    </g>
                    <polygon id="Fill-13" fill="#FFC2BD" points="45.5651713 27.1484648 44.8051898 13.8850049 32.2400912 13.8850049 32.2519828 28.2143848 35.8558588 35.0682715"></polygon>
                    <path d="M41.0252461,6.58431826 C41.0252461,6.58431826 34.1108203,4.43662295 32.0586182,7.620329 C30.0626309,10.7164696 29.4053496,22.2109638 32.9764336,24.1283944 C35.8866328,25.6912392 41.9938711,25.305663 43.6943701,19.8189501 C43.6943701,19.8189501 45.1076689,15.6150888 44.8262344,11.7903173 C44.5447998,7.96590615 41.0252461,6.58431826 41.0252461,6.58431826" id="Fill-15" fill="#FFC2BD"></path>
                    <path d="M43.8484204,16.4718246 C43.8484204,16.4718246 45.9182798,12.9079477 47.272481,14.9522221 C48.6270425,16.9964965 46.0249438,20.5358695 43.9017524,20.2857855 C41.778561,20.0357016 43.8484204,16.4718246 43.8484204,16.4718246" id="Fill-17" fill="#FFC2BD"></path>
                    <g id="分组" transform="translate(30.175781, 0.441369)">
                        <mask id="mask-20" fill="white">
                            <use xlink:href="#path-19"></use>
                        </mask>
                        <g id="Clip-20"></g>
                        <path d="M0.361252441,13.741106 C0.361252441,13.741106 -0.348640137,9.28680029 0.842321777,6.59749658 C2.03328369,3.90783252 3.52838232,1.23222217 4.45088232,2.72299658 C4.63430127,2.04553564 5.6101333,0.718000488 6.31606201,0.293145996 C7.02163037,-0.131708496 9.01509521,2.93308154 9.01509521,2.93308154 C9.01509521,2.93308154 8.92608838,1.55653857 9.72426709,2.43219287 C10.5224458,3.30712646 15.5003423,6.12831885 16.2740171,7.53585205 C17.0480522,8.94374561 16.3716724,13.9569565 16.3716724,13.9569565 C16.3716724,13.9569565 14.7432437,13.7295747 13.7248901,16.8084185 C14.0686655,14.3082993 13.0841851,12.9483325 12.5703237,12.4243813 C12.3757339,12.2254673 12.2715923,11.9573657 12.2629438,11.6791743 C12.2470884,11.1454937 12.2279897,10.25002 12.2460073,9.37724854 C12.2535747,8.99239307 11.9872749,8.66122998 11.6114282,8.57834912 C7.78557568,7.73332471 3.51829248,8.13872021 1.99616748,8.32934619 C1.65203174,8.37258838 1.37816455,8.63492432 1.31654443,8.97617725 L0.804845215,11.8117837 C0.804845215,11.8117837 0.579625488,12.3025825 0.361252441,13.741106" id="Fill-19" fill="#253368" mask="url(#mask-20)"></path>
                    </g>
                    <path d="M43.6670194,17.9309962 C43.6670194,17.9309962 41.6303124,19.3749249 40.5297987,20.9251573 C39.1849667,19.0909679 37.7176151,18.2614386 37.7176151,18.2614386 C37.7176151,18.2614386 35.974955,19.2444776 35.0805624,18.803047 C34.8110194,18.4477403 34.6283212,18.1475675 34.6283212,18.1475675 C34.6283212,18.1475675 33.2514179,18.8181817 32.0939687,20.3655313 C31.6900146,19.2037579 30.4720263,17.6672188 30.4720263,17.6672188 C30.4720263,17.6672188 29.8558251,25.1034337 35.3277636,25.4695509 C40.8620429,25.7239591 42.84758,22.7470948 43.5931474,20.2084181 C43.7751249,19.4105997 44.0925946,17.3785772 43.6670194,17.9309962" id="Fill-21" fill="#EFADAB"></path>
                    <path d="M34.6021924,19.6329684 C36.0818865,19.4414461 37.1494433,19.4321102 38.4675297,19.6738666 C38.5997597,19.6981195 38.6872924,19.8249739 38.6630395,19.9572039 C38.6387866,20.0894339 38.5119321,20.1769666 38.3797021,20.1527137 C37.1179239,19.9212851 36.0984313,19.9302007 34.664684,20.1157759 C34.5313604,20.1330325 34.409291,20.0389416 34.3920344,19.905618 C34.3747779,19.7722943 34.4688688,19.650225 34.6021924,19.6329684 Z" id="Stroke-23" fill="#D18682" fill-rule="nonzero"></path>
                    <path d="M35.3034528,14.0719048 C35.3772952,14.0524981 35.4527294,14.090851 35.481873,14.1590115 L35.4891795,14.1803259 L35.7053905,15.0030085 C35.7134115,15.0335288 35.7117391,15.0657885 35.7006049,15.0953157 L35.6185648,15.3199813 C35.6025102,15.3648058 35.5857263,15.4121118 35.5683176,15.4616833 C35.4688139,15.7450203 35.3693058,16.0439378 35.2764902,16.3445321 C35.2120265,16.5533055 35.1530863,16.7556393 35.1009002,16.9489459 L35.0594309,17.1066131 C34.8481558,17.9322933 34.7955756,18.5099398 34.920182,18.6164085 C35.0617478,18.7373679 35.507196,18.7281637 36.1258727,18.5973584 C36.3161749,18.5571232 36.5175994,18.5069091 36.7255097,18.4489852 C36.8756877,18.4071455 37.0230811,18.3630388 37.164298,18.3183718 L37.3896483,18.2449537 C37.4553831,18.2228985 37.5052388,18.205542 37.5363096,18.1943569 C37.6153304,18.1659105 37.7024498,18.206909 37.7308963,18.2859298 C37.7593428,18.3649506 37.7183442,18.45207 37.6393234,18.4805165 L37.4613082,18.5416662 C37.4409698,18.5484522 37.4198983,18.555425 37.39813,18.5625659 C37.2117097,18.62372 37.0121057,18.6848588 36.8071339,18.7419641 C36.593389,18.8015136 36.3858464,18.8532528 36.1887848,18.8949171 C35.4701087,19.0468651 34.9679278,19.0572415 34.7226131,18.8476349 C34.4554106,18.6193265 34.5146645,17.9770688 34.7837037,16.9579522 L34.8072752,16.8696773 C34.8604617,16.6726651 34.920406,16.4668844 34.9858912,16.2548028 C35.0564302,16.0263539 35.1307126,15.7990747 35.2059329,15.5787293 L35.3073223,15.2873454 L35.398957,15.0336855 L35.1950316,14.2576315 C35.1756249,14.1837891 35.2139779,14.1083549 35.2821383,14.0792113 L35.3034528,14.0719048 Z" id="Stroke-25" fill="#D18682" fill-rule="nonzero"></path>
                    <path d="M35.3063709,21.3903855 L36.587781,21.4783688 C36.6716587,21.484128 36.736213,21.5810297 36.7319673,21.694805 C36.7281075,21.7982371 36.6687168,21.8800072 36.5949319,21.8896928 L36.5724057,21.8903855 L35.2909955,21.8024021 C35.2071179,21.796643 35.1425635,21.6997412 35.1468093,21.5859659 C35.1506691,21.4825339 35.2100598,21.4007637 35.2838447,21.3910782 L35.3063709,21.3903855 Z" id="Stroke-27" fill="#D18682" fill-rule="nonzero"></path>
                    <path d="M38.7274644,15.55282 C38.7069243,15.9942507 38.9461978,16.363611 39.261145,16.3780251 C39.5760923,16.3924392 39.8481577,16.0465017 39.8686978,15.6054313 C39.8888774,15.164361 39.6499644,14.7946403 39.3346567,14.7802263 C39.0197095,14.7658122 38.747644,15.1117497 38.7274644,15.55282" id="Fill-29" fill="#253368"></path>
                    <path d="M32.7243316,15.0921826 C32.704152,15.5332529 32.943065,15.9029736 33.2580123,15.9173877 C33.5733199,15.9318018 33.845025,15.5858643 33.865565,15.1447939 C33.8857447,14.7037236 33.6468316,14.3340029 33.331524,14.3195889 C33.0165768,14.3051748 32.7445113,14.6511123 32.7243316,15.0921826" id="Fill-31" fill="#253368"></path>
                    <path d="M43.3796956,20.3910643 C43.403467,20.3105137 43.4880367,20.264485 43.5685873,20.2882564 C43.649138,20.3120278 43.6951667,20.3965975 43.6713953,20.4771482 L43.6517043,20.5391403 C43.6357036,20.5875868 43.6161433,20.6435251 43.5928749,20.7063342 C43.5267592,20.8848021 43.4440387,21.0832522 43.3435117,21.2967165 C43.0566418,21.9058711 42.6841907,22.5148621 42.2162493,23.0837386 C40.4000225,25.2917262 37.727071,26.2772621 34.0639836,25.3507852 C33.9825625,25.330192 33.9332517,25.247493 33.9538449,25.1660718 C33.9744382,25.0846507 34.0571372,25.0353399 34.1385583,25.0559331 C37.6831649,25.9524436 40.237391,25.0106826 41.9813665,22.8905309 C42.4321959,22.3424574 42.7916509,21.7547163 43.0683595,21.1671388 C43.148964,20.9959789 43.2175381,20.835169 43.2747272,20.6876055 L43.3076796,20.60068 C43.345243,20.4992841 43.368871,20.4277439 43.3796956,20.3910643 Z" id="Stroke-33" fill="#D18682" fill-rule="nonzero"></path>
                    <path d="M35.6901039,23.5109123 C35.7312516,23.4376978 35.8239604,23.4117025 35.8971748,23.4528502 C35.9703893,23.4939979 35.9963846,23.5867067 35.9552369,23.6599211 L35.9332223,23.7025201 C35.9126246,23.7451413 35.8870292,23.8050862 35.8611815,23.8787452 C35.7615149,24.1627677 35.7306316,24.4545145 35.8068121,24.7203035 C35.8774371,24.9667099 36.0378252,25.1788878 36.3096088,25.3504789 C36.3806245,25.3953147 36.4018475,25.489231 36.3570116,25.5602467 C36.3121757,25.6312624 36.2182594,25.6524853 36.1472437,25.6076495 C35.8126623,25.3964109 35.6057665,25.1227079 35.5144474,24.8041011 C35.4182342,24.4684192 35.4555109,24.1162753 35.5742011,23.7780407 C35.6167486,23.6567917 35.6597906,23.564849 35.6901039,23.5109123 Z" id="Stroke-35" fill="#D18682" fill-rule="nonzero"></path>
                    <path d="M46.014631,15.6802689 C46.4721381,15.5280577 46.7455474,15.700561 46.8038806,16.0559896 C46.8200437,16.1544726 46.8182642,16.2558201 46.8058868,16.3522759 L46.7978814,16.4044934 C46.7970657,16.4089033 46.7962911,16.4128236 46.7955744,16.4162288 C46.7782762,16.4984131 46.6976298,16.5510138 46.6154455,16.5337157 C46.5332612,16.5164176 46.4806605,16.4357711 46.4979586,16.3535868 L46.501744,16.3314714 C46.5025302,16.3262168 46.5033692,16.3202248 46.5042236,16.3135661 C46.5131617,16.2439119 46.5144525,16.1704019 46.503759,16.1052458 C46.4752858,15.9317567 46.3878882,15.8766145 46.1106422,15.9688534 C45.5816068,16.1448618 45.5107318,16.522703 45.6819896,17.3710496 C45.8249911,18.080449 45.513772,18.5393865 44.8385052,18.6429161 C44.7554902,18.6556437 44.6778754,18.5986645 44.6651479,18.5156494 C44.6524203,18.4326344 44.7093995,18.3550197 44.7924145,18.3422921 C45.2941897,18.2653616 45.492933,17.9722859 45.3838584,17.4311906 C45.1851754,16.4469898 45.2833597,15.9235606 46.014631,15.6802689 Z" id="Stroke-37" fill="#D18682" fill-rule="nonzero"></path>
                    <path d="M37.7366777,21.3685699 C37.7460469,21.4467662 37.8170361,21.5026207 37.8952324,21.4936119 C37.9734287,21.4842428 38.0292832,21.4132535 38.0202744,21.3346969 C38.0109053,21.2565006 37.939916,21.2006461 37.8617197,21.2100152 C37.7831631,21.219024 37.7273086,21.2903736 37.7366777,21.3685699" id="Fill-39" fill="#D18682"></path>
                    <path d="M39.8533828,22.0037616 C39.862752,22.0819579 39.9337412,22.1381728 40.0119375,22.1288036 C40.0901338,22.1194345 40.1459883,22.0484452 40.1369795,21.9702489 C40.1276104,21.8916923 40.0566211,21.8358378 39.9784248,21.8452069 C39.8998682,21.8545761 39.8440137,21.9255653 39.8533828,22.0037616" id="Fill-41" fill="#D18682"></path>
                    <path d="M32.9333355,22.152803 C32.9027057,22.2252337 32.9362184,22.3091956 33.008649,22.3401858 C33.08144,22.3708157 33.165402,22.3369427 33.1960318,22.264512 C33.2270221,22.1920813 33.193149,22.1081194 33.1207184,22.0774896 C33.0479273,22.0464993 32.9639654,22.080012 32.9333355,22.152803" id="Fill-43" fill="#D18682"></path>
                    <path d="M31.6261963,21.4092176 C31.5952061,21.4816482 31.6290791,21.5656102 31.7015098,21.5966004 C31.7743008,21.6272303 31.8582627,21.5937176 31.8888926,21.5209266 C31.9198828,21.4484959 31.8860098,21.364534 31.8135791,21.3339041 C31.7407881,21.3029139 31.6568262,21.3367869 31.6261963,21.4092176" id="Fill-45" fill="#D18682"></path>
                    <path d="M34.0759743,22.6217285 C34.0453444,22.6941592 34.0788571,22.7781211 34.1512878,22.8091113 C34.2240788,22.8397412 34.3080407,22.8058682 34.3386706,22.7334375 C34.3696608,22.6606465 34.3357878,22.5770449 34.2633571,22.5460547 C34.1905661,22.5154248 34.1066042,22.5489375 34.0759743,22.6217285" id="Fill-47" fill="#D18682"></path>
                    <path d="M35.755645,22.3709959 C35.7246548,22.4437869 35.7585278,22.5273885 35.8309585,22.5583787 C35.9037495,22.5890086 35.9877114,22.5554959 36.0183413,22.4827049 C36.0493315,22.4102742 36.0154585,22.3263123 35.9430278,22.2956824 C35.8702368,22.2646922 35.7862749,22.2985652 35.755645,22.3709959" id="Fill-49" fill="#D18682"></path>
                    <path d="M41.5418461,21.493684 C41.5112162,21.566475 41.5447289,21.6500766 41.6171596,21.6810668 C41.6899506,21.7116967 41.7739125,21.678184 41.8045424,21.605393 C41.8355326,21.5329623 41.8016596,21.4490004 41.7292289,21.4183705 C41.6564379,21.3873803 41.5728363,21.4212533 41.5418461,21.493684" id="Fill-51" fill="#D18682"></path>
                    <path d="M38.7206177,23.4198352 C38.7299868,23.4980314 38.8009761,23.5542463 38.8791724,23.5448771 C38.957729,23.535508 39.0135835,23.4645188 39.0042144,23.3863225 C38.9948452,23.3077658 38.923856,23.2519113 38.8456597,23.2612805 C38.767103,23.2706496 38.7112485,23.3416389 38.7206177,23.4198352" id="Fill-53" fill="#D18682"></path>
                    <path d="M37.624248,23.1478058 C37.6336172,23.2260021 37.7046064,23.2822169 37.7828027,23.2728478 C37.860999,23.2634786 37.9168535,23.1924894 37.9078447,23.1139327 C37.8984756,23.0357364 37.8274863,22.9798819 37.74929,22.9892511 C37.6707334,22.9982599 37.6148789,23.0696095 37.624248,23.1478058" id="Fill-55" fill="#D18682"></path>
                    <path d="M33.1369342,23.3262158 C33.1463033,23.4044121 33.2172926,23.460627 33.2954889,23.4512578 C33.3740455,23.4418887 33.4299,23.3708994 33.4205309,23.2923428 C33.4111617,23.2141465 33.3401725,23.158292 33.2619762,23.1676611 C33.1834195,23.1770303 33.127565,23.2480195 33.1369342,23.3262158" id="Fill-57" fill="#D18682"></path>
                    <path d="M33.9223925,21.6738598 C33.9317616,21.7520561 34.0027509,21.8082709 34.0809472,21.7989018 C34.1595038,21.7895326 34.2153583,21.7185434 34.2059892,21.6399867 C34.19662,21.5617904 34.1256308,21.5059359 34.0474345,21.5153051 C33.9688778,21.5243139 33.9130233,21.5956635 33.9223925,21.6738598" id="Fill-59" fill="#D18682"></path>
                    <path d="M33.4745836,20.2238411 C33.4839527,20.3020374 33.554942,20.3582522 33.6331383,20.3488831 C33.7116949,20.339514 33.7675494,20.2685247 33.7581803,20.1903284 C33.7488111,20.1117718 33.6778219,20.0559173 33.5996256,20.0652864 C33.5210689,20.0746556 33.4652145,20.1456448 33.4745836,20.2238411" id="Fill-61" fill="#D18682"></path>
                    <path d="M39.9528038,22.8993794 C39.9621729,22.9775757 40.0331622,23.0337905 40.1113585,23.0244214 C40.1899151,23.0150522 40.2454093,22.944063 40.2364005,22.8655063 C40.2270313,22.7873101 40.1560421,22.7314556 40.0778458,22.7408247 C39.9992892,22.7498335 39.9434347,22.8211831 39.9528038,22.8993794" id="Fill-63" fill="#D18682"></path>
                    <path d="M30.9441949,30.1945526 L31.5153521,27.8717265 L34.0796139,28.1001894 L35.6157926,34.0009462 L39.0160699,27.5041679 L46.6050738,26.7297724 L47.6724352,30.3848183 C47.6724352,30.3848183 42.7294928,37.1010507 34.7134723,35.8679276 C30.7539293,35.2585731 30.9441949,30.1945526 30.9441949,30.1945526" id="Fill-65" fill="#597EF7"></path>
                    <path d="M20.6865792,34.3544511 C20.6865792,34.3544511 16.1219278,45.7249843 20.4013329,56.0295976 C16.9780219,62.1411601 13.4119103,66.6185282 11.2723853,68.6083896 C9.13286041,70.5978905 0.925368579,70.1474511 0.289159193,63.4913974 C-0.281333423,57.5221737 10.1715406,43.321079 11.7004324,40.750331 C13.9824029,36.9129472 19.1175469,34.3544511 20.6865792,34.3544511" id="Fill-67" fill="#FFC2BD"></path>
                    <path d="M5.91210938,49.4674395 C8.77149902,44.6271973 11.122793,41.4470947 11.9534033,40.1224424 C15.2960244,34.7885186 19.4775439,33.7265625 21.0692168,33.7265625 C21.0692168,33.7265625 16.4386992,45.0970957 20.7798545,55.4013486 C19.3070977,57.9933574 19.4699766,57.7620117 18.0664072,59.7010635 C18.0664072,59.7010635 16.9813887,57.3558955 12.8575254,53.9448076 C8.56898145,50.3975068 5.91210938,49.4674395 5.91210938,49.4674395" id="Fill-69" fill="#597EF7"></path>
                    <path d="M18.1822516,42.2439997 C18.2565779,42.2613425 18.3027722,42.3356551 18.2854294,42.4099814 L18.2726167,42.4689762 C18.2657044,42.5024359 18.2572418,42.5455107 18.2475211,42.5980496 L18.2399993,42.6392259 C18.2053078,42.8315011 18.1705533,43.0590673 18.1380742,43.320716 C17.9423839,44.897175 17.9179109,46.8470309 18.1754401,49.1131457 C18.5321078,52.2516253 19.3923969,55.5922545 20.8672481,59.0781972 C20.8969871,59.1484879 20.8641134,59.2295779 20.7938227,59.2593169 C20.723532,59.2890558 20.642442,59.2561821 20.6127031,59.1858915 C19.127354,55.6751362 18.2604302,52.3087436 17.9008181,49.1443547 C17.6488696,46.9273471 17.6642206,45.0076946 17.8457108,43.4375272 L17.8637896,43.2866683 C17.8968995,43.0199392 17.9324189,42.7873643 17.9680014,42.5901504 L17.9945685,42.4498815 L18.0162698,42.3471775 C18.0318783,42.2802838 18.0936324,42.236177 18.160011,42.2406675 L18.1822516,42.2439997 Z" id="Stroke-71" fill="#1D39C4" fill-rule="nonzero"></path>
                    <path d="M23.2909403,73.3340039 C34.8848915,71.8489951 47.84962,72.6997852 47.84962,72.6997852 L47.3926942,69.4447295 C47.3926942,69.4447295 32.6575585,67.5597305 23.5576005,69.9964277 C23.3482362,71.5578311 23.2909403,73.3340039 23.2909403,73.3340039" id="Fill-73" fill="#253368"></path>
                    <path d="M33.3520177,72.7623821 C33.4626689,72.7800093 33.5380797,72.8839994 33.5204525,72.9946505 L33.4855439,73.225596 C33.4655918,73.3614243 33.4440011,73.5135942 33.421064,73.6813555 L33.3929119,73.8901049 C33.296973,74.6110804 33.2010082,75.4272661 33.1114286,76.3221868 C32.7076983,80.3555437 32.5666261,84.5120992 32.8433572,88.3905997 C33.0891155,91.8350031 33.655681,94.8289221 34.5913724,97.2400935 C34.6319084,97.3445503 34.5800904,97.4620903 34.4756336,97.5026263 C34.3711768,97.5431623 34.2536369,97.4913443 34.2131009,97.3868875 C33.2607829,94.9328712 32.687038,91.9010141 32.4386302,88.4194769 C32.1600268,84.5147349 32.3018418,80.3362916 32.7076904,76.2817735 L32.7496779,75.8723088 C32.8203419,75.1994047 32.8942347,74.5746846 32.9684351,74.0056243 L33.0327723,73.526699 L33.1138035,72.9687511 C33.1161276,72.9537389 33.1181138,72.9410834 33.1197493,72.9308169 C33.1360205,72.8286773 33.2258791,72.7565651 33.3266374,72.7599395 L33.3520177,72.7623821 Z" id="Stroke-75" fill="#253368" fill-rule="nonzero"></path>
                    <path d="M37.1206389,73.1661606 C37.2324617,73.1732358 37.3173764,73.2696216 37.3103013,73.3814443 L37.29407,73.6025178 C37.2747969,73.8355794 37.2459275,74.1101674 37.203225,74.4763401 L37.0269481,75.9471275 C37.0095797,76.0954732 36.9934298,76.2361341 36.977531,76.3777477 C36.7399571,78.4938525 36.6191842,80.3611415 36.6343208,82.4310607 C36.6358591,82.6396947 36.6392982,82.8537952 36.6445692,83.0743698 L36.6564667,83.4934302 C36.6745431,84.0493882 36.7015698,84.6101854 36.7437485,85.3422962 L36.8464553,87.0928186 C36.9962064,89.7898555 36.9528724,90.3873172 36.5701652,90.6980084 L36.5560121,90.7092505 C36.4437339,90.7965878 36.3284674,90.8828375 36.2104372,90.967974 C35.6473012,91.3741702 35.0449987,91.7393262 34.4427655,92.0582511 C34.3022393,92.1326697 34.1683507,92.2010054 34.0425595,92.2630522 L33.8150604,92.3726638 L33.6358454,92.4544793 C33.5330504,92.4990615 33.4135775,92.4518707 33.3689953,92.3490757 C33.3244131,92.2462807 33.3716039,92.1268078 33.4743989,92.0822256 L33.649289,92.0022456 L33.6860995,91.9848395 C33.8569112,91.9037402 34.0474962,91.808434 34.2528729,91.6996726 C34.8396852,91.388914 35.4264282,91.0331912 35.9730681,90.6388939 C36.0491493,90.5840157 36.1239981,90.5286926 36.1975602,90.4729259 L36.3069315,90.3889433 C36.5659691,90.1875687 36.5719513,89.2852766 36.3849546,86.14509 L36.3312964,85.2367747 C36.2883338,84.4793 36.261981,83.9028661 36.2448608,83.3088287 C36.236134,83.0060226 36.2306492,82.7152414 36.2285758,82.4340401 C36.2142052,80.4688584 36.321223,78.6855698 36.5333139,76.7060333 L36.5985679,76.1187922 L36.8000474,74.4306462 C36.8562827,73.9484858 36.8880991,73.6285555 36.9053552,73.355823 C36.9124303,73.2440003 37.0088161,73.1590855 37.1206389,73.1661606 Z" id="Stroke-77" fill="#253368" fill-rule="nonzero"></path>
                    <path d="M37.4169738,72.2867142 L37.4169738,69.0349017 C37.4169738,68.6100472 37.0930178,68.2623079 36.6829377,68.250056 C35.3229709,68.2093362 32.3007023,68.1729407 29.5591477,68.52068 C29.1768146,68.5693274 28.888173,68.9026526 28.888173,69.3012015 L28.888173,72.3584241 C28.888173,72.7958909 29.2308674,73.1490354 29.6535598,73.1436302 C31.2077561,73.1245315 34.7478498,73.0823704 36.6649201,73.0715599 C37.0822072,73.0693978 37.4169738,72.7184153 37.4169738,72.2867142" id="Fill-79" fill="#E1E7F3"></path>
                    <path d="M36.5373917,71.7254306 L36.536671,69.5730507 C36.5363106,69.2919765 36.2718126,69.0617118 35.9374063,69.0537841 C34.8278839,69.0271181 32.3619981,69.0044159 30.1256563,69.2350409 C29.8135919,69.2674726 29.5782823,69.4883681 29.5782823,69.7521454 L29.579003,71.7758798 C29.579003,72.0652421 29.8589962,72.2987499 30.2034923,72.2955067 C31.4715694,72.2821737 34.3601476,72.2529853 35.923713,72.2454179 C36.2646056,72.2436161 36.5373917,72.0111894 36.5373917,71.7254306" id="Fill-81" fill="#253368"></path>
                    <polygon id="Fill-83" fill="#E1E7F3" points="29.6022097 68.8197357 36.8020339 72.0329906 36.5047438 72.6873891 29.2451013 69.4146762"></polygon>
                    <polygon id="Fill-85" fill="#E1E7F3" points="29.2927037 71.929894 36.5094645 68.7541157 36.7945025 69.4142798 29.4937799 72.594022"></polygon>
                    <path d="M43.924433,72.7928292 C44.0341104,72.7699105 44.1416008,72.8402423 44.1645195,72.9499196 L44.2005478,73.1078867 C44.2083127,73.1404488 44.2167713,73.1752083 44.2259299,73.2120688 C44.2784368,73.4233919 44.3427464,73.6591516 44.4192439,73.913181 C44.6377385,74.6387477 44.9096633,75.3641251 45.2376185,76.0396539 C46.3966136,78.4269753 47.9101146,79.5643551 49.8354647,78.8549567 C49.9406017,78.8162188 50.0572352,78.8700459 50.0959731,78.9751828 C50.1347109,79.0803197 50.0808839,79.1969533 49.975747,79.2356911 C47.8001228,80.0373034 46.111162,78.7680676 44.8726041,76.2168609 C44.5343034,75.5200223 44.2550165,74.7750061 44.030722,74.0301791 C43.9653231,73.8130055 43.9085594,73.6086722 43.8601747,73.4207016 L43.8184449,73.2542198 L43.7735189,73.0615479 C43.7707993,73.049192 43.7687428,73.0396162 43.7673426,73.0329157 C43.7444239,72.9232384 43.8147556,72.815748 43.924433,72.7928292 Z" id="Stroke-87" fill="#253368" fill-rule="nonzero"></path>
                    <path d="M46.8886104,30.3692483 C46.9603376,30.3431638 47.0396296,30.3801645 47.065714,30.4518917 C47.0891901,30.5164461 47.0615671,30.5871281 47.0035186,30.6196345 L46.9830706,30.6289953 L41.9572474,32.4566984 C41.8855202,32.4827829 41.8062283,32.4457822 41.7801438,32.374055 C41.7566678,32.3095006 41.7842907,32.2388186 41.8423392,32.2063122 L41.8627872,32.1969514 L46.8886104,30.3692483 Z" id="Stroke-89" fill="#1D39C4" fill-rule="nonzero"></path>
                    <path d="M35.6542704,33.8680464 C35.7275694,33.889317 35.7697468,33.9659809 35.7484761,34.0392799 L35.7037418,34.1998997 L35.6588096,34.3676984 C35.6432159,34.426865 35.6270278,34.4892243 35.6103114,34.5546531 L35.5848487,34.6550832 C35.461697,35.1445045 35.3385127,35.6860997 35.2235388,36.2644599 C34.9524641,37.6280636 34.7694669,38.9780983 34.7149984,40.2380529 C34.6789156,41.0727126 34.7010118,41.8439924 34.7878625,42.5387298 C34.7973301,42.6144632 34.7436111,42.6835323 34.6678777,42.6929999 C34.5921443,42.7024675 34.5230752,42.6487485 34.5136076,42.5730151 C34.4246867,41.8617178 34.4021564,41.075288 34.4388666,40.2261156 C34.4940141,38.9504559 34.6788333,37.5869795 34.9524537,36.2105702 C35.0554948,35.6922363 35.1650798,35.2031765 35.2754148,34.7541331 L35.3674836,34.3892852 C35.3838353,34.326264 35.3996268,34.2663804 35.4147922,34.2097567 L35.4830369,33.9622522 C35.5043076,33.8889531 35.5809714,33.8467758 35.6542704,33.8680464 Z" id="Stroke-91" fill="#1D39C4" fill-rule="nonzero"></path>
                    <path d="M40.8270826,13.8312678 C41.1241165,13.8027112 41.3841409,13.8843507 41.598164,14.0361587 C41.7094969,14.115128 41.7869829,14.1962776 41.8330992,14.2596794 C41.9319613,14.3955973 41.9019217,14.5859241 41.7660038,14.6847862 C41.6391471,14.7770574 41.4648942,14.757041 41.3618458,14.6434557 L41.340897,14.6176907 C41.3308933,14.6039374 41.2978715,14.5693542 41.2460413,14.5325907 C41.1558358,14.4686073 41.0525189,14.4322066 40.9315341,14.4344387 L40.9130566,14.4352617 L40.8599831,14.4523673 C40.575781,14.5381625 40.2540551,14.5923746 39.9005387,14.6193523 L39.7815303,14.6273422 C39.2514663,14.6581885 38.6882061,14.6303561 38.137026,14.5652933 C38.0543151,14.5555298 37.975704,14.5453398 37.9017516,14.5349688 L37.6876679,14.5024466 C37.6561768,14.497249 37.6319914,14.493018 37.6156746,14.489998 C37.4504118,14.4594108 37.3412356,14.3006429 37.3718229,14.1353801 C37.4024101,13.9701173 37.561178,13.8609411 37.7264408,13.8915283 L37.7882623,13.9021833 L37.8538142,13.912663 C37.9591371,13.9290535 38.0782201,13.9454922 38.2083754,13.9608561 C38.726983,14.0220739 39.256436,14.0482358 39.7461716,14.0197364 C40.0977259,13.9992782 40.4103594,13.9510409 40.6732994,13.8729293 L40.7590908,13.8457828 C40.7811259,13.8383629 40.8039386,13.8334928 40.8270826,13.8312678 Z" id="Stroke-93" fill="#253368" fill-rule="nonzero"></path>
                    <path d="M32.2884365,12.6096412 C32.3657659,12.5609708 32.4608718,12.5496221 32.5474823,12.57873 L33.0472948,12.745672 C33.3485207,12.8458733 33.6517055,12.9460712 33.9444705,13.0419737 L34.6106372,13.2584016 C34.7280713,13.2961732 34.8393392,13.3317149 34.9438186,13.3648113 C35.1040414,13.4155658 35.192783,13.5865968 35.1420285,13.7468196 C35.0912739,13.9070425 34.920243,13.9957841 34.7600201,13.9450295 L34.3042947,13.7991292 L33.9732613,13.6916917 C33.6854498,13.5978695 33.3842352,13.4987122 33.0819283,13.3984907 L32.4904395,13.201418 L31.6072557,13.7575199 C31.4744971,13.8410769 31.3019787,13.8094207 31.2067788,13.689181 L31.187605,13.6620692 C31.104048,13.5293107 31.1357042,13.3567923 31.2559439,13.2615924 L31.2830557,13.2424185 L32.2884365,12.6096412 Z" id="Stroke-95" fill="#253368" fill-rule="nonzero"></path>
                    <g id="分组" transform="translate(46.751953, 31.791955)">
                        <mask id="mask-22" fill="white">
                            <use xlink:href="#path-21"></use>
                        </mask>
                        <g id="Clip-98"></g>
                        <path d="M0.314983301,9.58776592 C0.502005762,6.97233428 1.73260635,0.168536426 8.83765811,0.137808167 C14.5193212,0.113402637 16.6825116,4.67148955 17.3149286,8.27932939 C18.4071542,14.51197 17.3455585,22.3939397 16.3455829,29.5613323 C16.3455829,29.5613323 15.4911894,37.739511 7.62003018,36.8912435 C0.959291895,36.1734231 1.12649502,29.3584544 1.12649502,29.3584544 C1.12649502,29.3584544 0.101294824,12.5768821 0.314983301,9.58776592" id="Fill-97" fill="#FFC2BD" mask="url(#mask-22)"></path>
                    </g>
                    <path d="M47.8204856,52.5018142 C47.7127405,49.7779168 47.4150901,42.2631453 47.4824758,41.3215467 C47.6694983,38.706115 47.2954534,31.6179998 55.4339934,31.5644531 C61.1156565,31.5271912 63.8500042,36.4052703 64.4820608,40.0127498 C64.9180862,42.4998963 64.5692659,50.1807898 64.4600794,53.0430623 L47.8204856,52.5018142 Z" id="Fill-99" fill="#597EF7"></path>
                    <path d="M49.7873394,33.9457222 C49.8398102,33.8902966 49.9272775,33.8879012 49.9827032,33.940372 C50.0381288,33.9928428 50.0405242,34.0803101 49.9880534,34.1357358 C48.3127245,35.9054091 47.4914083,38.4485692 47.2833804,41.0424818 L47.2724527,41.1866357 C47.2438771,41.5859306 47.2796291,43.2102825 47.3642949,45.7456367 L47.4347252,47.7579877 L47.5905779,51.8423926 L47.6055059,52.223168 L64.1167038,52.7601648 C64.1853581,52.7623964 64.2406851,52.8143376 64.2492563,52.8803136 L64.2503358,52.9027764 C64.2481042,52.9714308 64.196163,53.0267578 64.130187,53.035329 L64.1077242,53.0364085 L47.4681304,52.4955208 C47.3957047,52.4931665 47.3373975,52.4352683 47.3345334,52.362861 L47.2035937,48.9872728 L47.0877745,45.7468972 C47.0054683,43.2826573 46.9696203,41.6866689 46.9940718,41.2113857 L46.9967668,41.166925 C47.189721,38.4655663 48.027941,35.8041994 49.7873394,33.9457222 Z" id="Stroke-101" fill="#1D39C4" fill-rule="nonzero"></path>
                    <path d="M34.321626,36.0976157 C34.3774805,36.5613882 34.5223418,37.0093052 34.7226973,37.4312769 C37.5799248,43.4480669 42.8997949,57.7770864 47.915168,64.8399771 C47.915168,64.8399771 53.437916,72.2235806 59.9332529,67.3519878 C66.2664316,62.6018335 60.2604521,55.3349839 60.2604521,55.3349839 C53.7150264,47.0584292 45.7563018,37.5761382 42.2652158,32.834272 C42.2652158,32.834272 40.2695889,30.3846021 36.7421074,32.1395142 C33.9018164,33.552813 34.1735215,34.8652134 34.321626,36.0976157" id="Fill-103" fill="#FFC2BD"></path>
                    <path d="M38.4834343,57.5130208 C38.0740749,57.3443763 37.6362478,57.2481624 37.1933757,57.2232981 C27.3305534,56.6719603 15.0922937,54.4381409 8.36128682,55.290012 C8.36128682,55.290012 -0.33003252,56.3663821 0.645078809,63.8829554 C1.59568623,71.2114251 10.4174528,69.6893001 10.4174528,69.6893001 C20.3260397,68.1945618 32.7433942,65.6955237 38.2985739,65.049053 C38.2985739,65.049053 40.4102341,64.9730188 40.6163552,61.3017571 C40.7824772,58.3457933 39.5709753,57.9612981 38.4834343,57.5130208" id="Fill-105" fill="#FFC2BD"></path>
                    <path d="M34.2630328,36.708844 C34.2630328,36.708844 35.8720025,38.7837483 39.5032652,38.0634056 C42.7921939,37.4111692 42.7936354,35.0764515 42.7936354,35.0764515 C42.7936354,35.0764515 43.4739791,31.5514925 41.8473521,28.1515755 C40.7814322,25.9238821 39.3915563,21.3899388 38.0960924,21.6227259 C36.4067643,21.9261419 38.5670719,26.1638763 37.7393443,27.0910608 C36.0622682,28.9688528 32.1009234,22.9423333 30.8483414,22.2349632 C28.9244244,21.1492239 26.569527,25.512721 30.0732252,31.6343733 C31.0288775,33.3046028 32.1701109,34.8137552 34.2630328,36.708844" id="Fill-107" fill="#FFC2BD"></path>
                    <path d="M29.6114623,22.6018703 C29.6888017,22.5691274 29.7780411,22.6052801 29.810784,22.6826195 C30.2638361,23.7527385 30.9115274,24.7978528 31.7035745,25.8009041 C32.2744594,26.5238746 32.8864032,27.182808 33.4982358,27.7642793 C33.6816642,27.9386054 33.8537733,28.09508 34.0113212,28.2326595 L34.1767001,28.3746856 L34.3103031,28.4849168 C34.3761289,28.5370748 34.3872089,28.6327195 34.335051,28.6985453 C34.282893,28.7643711 34.1872483,28.7754511 34.1214225,28.7232931 L34.0600523,28.673412 C34.0233,28.6431293 33.9822093,28.6087157 33.9370509,28.5702567 L33.8905466,28.5304524 C33.708791,28.3741274 33.5064709,28.1916839 33.2887182,27.9847368 C32.666972,27.3938438 32.0453372,26.7244754 31.4648819,25.9893848 C30.6570392,24.96633 29.9952887,23.8985296 29.5307131,22.801192 C29.4979702,22.7238526 29.5341228,22.6346132 29.6114623,22.6018703 Z" id="Stroke-109" fill="#D18682" fill-rule="nonzero"></path>
                    <path d="M28.801929,24.3633005 C28.8806441,24.3340186 28.9681929,24.374092 28.9974748,24.4528071 L29.0244933,24.521094 C29.0310118,24.5370327 29.0385522,24.5552199 29.0471357,24.5756104 C29.090562,24.6787714 29.1445223,24.7993173 29.209589,24.9360245 C29.3961709,25.3280391 29.6340529,25.7700415 29.9278117,26.2522533 C30.7685194,27.6322945 31.8877143,29.0560353 33.3220872,30.4454617 C33.3824112,30.5038955 33.3839436,30.6001676 33.3255099,30.6604916 C33.2670761,30.7208156 33.170804,30.722348 33.11048,30.6639143 C31.6569504,29.2559315 30.5218085,27.8119044 29.6680756,26.410482 C29.3687801,25.9191816 29.125956,25.4679964 28.934971,25.0667307 L28.8598241,24.9054364 C28.8365464,24.8543094 28.8150278,24.8058461 28.7952311,24.760125 L28.7425337,24.6351026 C28.7284214,24.600566 28.7184414,24.5750264 28.7124225,24.5588463 C28.6831406,24.4801312 28.723214,24.3925824 28.801929,24.3633005 Z" id="Stroke-111" fill="#D18682" fill-rule="nonzero"></path>
                    <path d="M28.9834892,27.8765159 C29.0574655,27.8367542 29.1496684,27.8644905 29.1894302,27.9384668 C29.8698098,29.2043044 30.5053513,30.1077 31.1521877,30.7954125 C31.3631209,31.0196753 31.5679714,31.2142935 31.7970806,31.4126355 L31.9574965,31.5486091 C32.0697508,31.6413683 32.3178913,31.8440104 32.4634345,31.9654036 L32.5500112,32.0385599 C32.6134487,32.0935977 32.620258,32.189641 32.5652202,32.2530785 C32.5156861,32.3101723 32.4329377,32.3213973 32.3706374,32.2829487 L32.350337,32.2679714 L32.2662548,32.1969688 C32.0993856,32.0578576 31.7910662,31.8065468 31.7178594,31.7448815 C31.4317039,31.5038401 31.1854694,31.2747099 30.9306475,31.0037849 C30.2647929,30.2958524 29.6140109,29.3707931 28.9215384,28.0824569 C28.8817766,28.0084806 28.909513,27.9162777 28.9834892,27.8765159 Z" id="Stroke-113" fill="#D18682" fill-rule="nonzero"></path>
                    <path d="M38.0429293,21.4803026 C38.1216074,21.4509216 38.2092067,21.4908848 38.2385877,21.5695628 C38.2679687,21.6482409 38.2280056,21.7358401 38.1493275,21.7652212 L38.0161203,21.815604 C37.6697207,21.9535694 37.6488641,22.0711933 37.7601424,23.3487387 L37.8036423,23.8391072 C37.8239227,24.0664779 37.8556226,24.2819539 37.9195033,24.6453704 L37.9916457,25.0504972 C38.145456,25.9289516 38.1769816,26.3176983 38.0907049,26.7275249 C37.9614547,27.3414821 37.5281468,27.6724191 36.7427005,27.6838591 C36.1172607,27.6929685 35.3331418,27.23237 34.4105324,26.3959229 C33.9807146,26.0062458 33.5293429,25.5417278 33.0641091,25.0179612 C32.5532702,24.4428519 32.0524816,23.8271394 31.582471,23.2114716 L31.4232661,23.0013127 C31.3463541,22.8989806 31.2735505,22.8009109 31.2051817,22.7077408 L30.9753821,22.3893137 C30.9271737,22.3205428 30.9438429,22.2257123 31.0126138,22.1775039 C31.0813846,22.1292955 31.1762151,22.1459647 31.2244235,22.2147355 L31.3842137,22.4372661 L31.5195832,22.6217267 C31.6137255,22.7489836 31.7155297,22.8845537 31.8242148,23.0269206 C32.2899667,23.63701 32.7861455,24.2470547 33.2914962,24.8159854 C33.7499488,25.3321176 34.1939098,25.789009 34.6148106,26.170602 C35.483589,26.9582452 36.2141582,27.3873883 36.7382712,27.3797546 C37.3859703,27.3703209 37.694127,27.1349677 37.7930916,26.6648714 C37.8712121,26.2937878 37.8357067,25.9103921 37.6752154,25.007505 L37.6061376,24.6188146 C37.5498804,24.2936725 37.5203968,24.0868624 37.500708,23.8661245 L37.4098863,22.8927271 L37.3995214,22.7514137 C37.3850918,22.5289855 37.3850102,22.3693657 37.4011072,22.2326256 C37.4465938,21.8462277 37.63114,21.6340786 38.0429293,21.4803026 Z" id="Stroke-115" fill="#D18682" fill-rule="nonzero"></path>
                    <path d="M35.6477918,64.6700713 C35.6477918,64.6700713 33.5051414,65.1237539 32.1776063,61.9241924 C30.9751131,59.0266055 34.7173641,57.2648467 34.7173641,57.2648467 C34.7173641,57.2648467 37.1576648,54.9247236 40.7049656,54.4454561 C43.0295936,54.1315898 47.3527313,52.8858545 47.8456922,54.0148359 C48.488199,55.4868721 43.9971375,55.9801934 43.6948025,57.1012471 C43.0818445,59.3729033 49.9339295,59.3635342 51.1497557,59.9764922 C52.1479295,60.479543 51.841991,61.6146504 50.4441873,62.8711963 C50.0124861,63.2592949 49.3807898,63.6942393 48.9984568,64.1969297 C48.3029783,65.1111416 47.5343484,66.0523799 43.9376795,65.9482383 C42.1103367,65.8952666 38.2455662,65.3273525 35.6477918,64.6700713" id="Fill-117" fill="#FFC2BD"></path>
                    <path d="M51.2738258,61.0422713 C51.3356187,60.992876 51.4257545,61.0029261 51.4751498,61.064719 C51.9589293,61.6699201 51.7131271,62.1896652 51.0561538,62.5654209 C50.9191583,62.6437755 50.7733588,62.7104588 50.6276564,62.7659676 C50.5400155,62.7993564 50.4712105,62.8218149 50.4230996,62.835346 L50.3585761,62.8486043 C50.3392819,62.8522867 50.316692,62.8564212 50.2908221,62.8609305 C50.1846265,62.8794415 50.0584268,62.8978828 49.9124719,62.9150481 C48.3907537,63.0940129 46.3271281,63.0021569 43.7624806,62.4429089 C43.6851877,62.4260544 43.6361928,62.349733 43.6530473,62.2724401 C43.6699018,62.1951473 43.7462233,62.1461524 43.8235161,62.1630069 C46.356718,62.7153978 48.3884239,62.805833 49.8790105,62.6305295 L50.0383306,62.6102115 C50.0882733,62.603309 50.1350468,62.5963023 50.1786354,62.5892684 L50.2416277,62.5787065 C50.30127,62.5683103 50.3404664,62.5603864 50.3517137,62.5580043 L50.3940062,62.545001 C50.4278983,62.5340222 50.4727179,62.5184297 50.5256662,62.4982578 C50.6584026,62.4476888 50.7910419,62.3870244 50.9139225,62.3167429 C51.4390336,62.0164058 51.5989091,61.6783515 51.2513781,61.2435953 C51.2019828,61.1818024 51.212033,61.0916666 51.2738258,61.0422713 Z" id="Stroke-119" fill="#D18682" fill-rule="nonzero"></path>
                    <path d="M50.4137226,62.5544291 C50.4918267,62.5669987 50.544953,62.6405042 50.5323835,62.7186084 C50.4185292,63.4260718 49.8198458,63.9174393 48.9072845,64.2389309 C48.5599558,64.3612934 48.1892524,64.4505517 47.8187566,64.5122162 C47.7215889,64.5283886 47.6295796,64.5417662 47.5439896,64.5526189 L47.460586,64.56264 C47.3951445,64.5700568 47.3479152,64.5744064 47.3182605,64.5765398 C45.6845017,64.6548911 43.9468317,64.3844608 42.4065022,63.960779 C42.3302259,63.9397985 42.2853998,63.8609563 42.3063803,63.78468 C42.3273608,63.7084037 42.406203,63.6635776 42.4824793,63.6845581 C43.9961633,64.1009108 45.7062057,64.3670414 47.3008979,64.2906101 L47.3935777,64.2818177 L47.4283242,64.2779829 C47.5317772,64.266258 47.6472631,64.2503389 47.7717226,64.2296241 C48.1269877,64.1704946 48.4820452,64.0850034 48.8120934,63.9687288 C49.6360826,63.6784408 50.1564868,63.2513207 50.2495433,62.67309 C50.2608559,62.6027963 50.3215266,62.5527346 50.3904856,62.5525884 L50.4137226,62.5544291 Z" id="Stroke-121" fill="#D18682" fill-rule="nonzero"></path>
                    <path d="M47.3612103,54.0351083 C47.3587663,54.0016779 47.3456055,53.9586176 47.3142401,53.9161244 C47.1414462,53.6820272 46.5955948,53.6408209 45.5105082,53.9857116 L45.2997783,54.0531613 C44.5967271,54.2705273 43.9267649,54.3693359 42.64911,54.4774115 L41.8827438,54.5401537 C39.9407119,54.704314 39.0177476,54.8669259 37.8557154,55.3269842 C36.7525828,55.7637236 35.7533118,56.4203697 34.8194019,57.3655929 C34.7638011,57.4218673 34.6731084,57.4224133 34.616834,57.3668125 C34.5605597,57.3112117 34.5600136,57.2205189 34.6156145,57.1642446 C35.5776367,56.1905684 36.6104503,55.5118806 37.7502598,55.0606205 C38.9185988,54.5980653 39.8455851,54.4289213 41.725247,54.2660995 L42.7339531,54.1826177 C43.9939252,54.0734585 44.6339323,53.9708212 45.3389634,53.7400503 C46.5834861,53.3323723 47.2727683,53.3775449 47.5447303,53.7459929 C47.6179277,53.845159 47.6462242,53.9476212 47.6480502,54.0364323 L47.6477871,54.0511113 L47.6517875,54.0692749 C47.7852631,54.7075781 47.4345174,55.0489274 46.028262,55.8108542 L45.6915825,55.9908612 L45.5585688,56.0598332 C45.5127912,56.0831371 45.4653741,56.1068642 45.415718,56.1313445 L44.5935029,56.5259909 L44.5672952,56.538949 C44.0670129,56.7884159 43.7935757,56.9802084 43.6781961,57.1835091 C43.5535112,57.403206 43.6256857,57.6563386 43.9693079,58.0055276 C44.6803122,58.728292 46.8814592,59.2965067 49.6863997,59.5564652 C50.6027852,59.6414071 51.35769,59.8931569 51.7327612,60.2237893 C52.1644509,60.604332 52.0402195,61.0471406 51.414689,61.2878696 C50.712961,61.5580122 49.7279176,61.6155224 48.5281293,61.5038088 C47.8108722,61.4370242 47.0465878,61.3122799 46.2677131,61.1463769 C45.906747,61.0694898 45.562139,60.9879015 45.2417616,60.9056242 L45.0836286,60.8644467 C44.9815961,60.8375082 44.888144,60.8120973 44.8040741,60.7886215 L44.6195372,60.7357322 C44.543763,60.7130048 44.5007602,60.6331535 44.5234877,60.5573793 C44.5462152,60.4816052 44.6260665,60.4386024 44.7018406,60.4613299 L44.8209088,60.4957601 C44.9184467,60.5234036 45.0309222,60.5542353 45.1567587,60.5874585 C45.5165975,60.6824627 45.911024,60.7774946 46.3273954,60.8661831 C47.0961018,61.0299204 47.8497059,61.1529214 48.5546888,61.2185631 C49.7143089,61.3265366 50.6603124,61.2713057 51.3117817,61.020511 C51.7493933,60.8521008 51.8015205,60.6662992 51.5433209,60.4386913 C51.2330529,60.1651841 50.5709687,59.9383159 49.7516348,59.8508609 L49.3838071,59.8149703 C46.6425134,59.5377547 44.5168513,58.9706349 43.7650984,58.206448 C43.3407837,57.7752591 43.2311601,57.3907845 43.4290451,57.042108 C43.5821777,56.7722858 43.8890763,56.5570231 44.4394541,56.2825759 L45.2141672,55.9110526 C45.3415885,55.8490716 45.4530525,55.7929215 45.5576761,55.7376033 L45.8007263,55.6080881 C47.1452499,54.8852544 47.4655278,54.5923836 47.3706567,54.1250512 L47.3647271,54.0978919 L47.3616964,54.0510821 L47.3612103,54.0351083 Z" id="Stroke-123" fill="#D18682" fill-rule="nonzero"></path>
                    <path d="M57.7140576,52.0083333 C57.7743084,51.9626916 57.857592,51.9687863 57.910616,52.0192648 L57.9270968,52.0377248 L61.3089962,56.5021203 C61.3597091,56.5690656 61.3465501,56.6644466 61.2796047,56.7151595 C61.2193539,56.7608011 61.1360703,56.7547065 61.0830463,56.704228 L61.0665655,56.685768 L57.6846661,52.2213725 C57.6339532,52.1544271 57.6471122,52.0590462 57.7140576,52.0083333 Z" id="Stroke-125" fill="#D18682" fill-rule="nonzero"></path>
                    <path d="M48.8936236,64.0220105 C48.9217007,63.9428578 49.0086277,63.9014527 49.0877805,63.9295299 C49.1669333,63.957607 49.2083383,64.044534 49.1802612,64.1236867 L49.1591774,64.1770881 C49.1292892,64.2468034 49.080556,64.3417885 49.0095308,64.4549203 C48.8597426,64.6935093 48.6585531,64.9312436 48.3987981,65.1525028 C47.8279254,65.6387721 47.0578595,65.9763853 46.0627323,66.100813 C45.2077181,66.2077372 43.8412022,66.1587489 42.0979874,65.9888752 C41.4357828,65.9243443 40.7368024,65.8438994 40.0162714,65.7511448 C39.4259027,65.675146 38.8485898,65.594501 38.3012082,65.5131893 L37.5280119,65.3947601 L37.2237922,65.3457085 C37.140947,65.3319181 37.0849671,65.2535797 37.0987574,65.1707345 C37.1125477,65.0878894 37.1908862,65.0319094 37.2737313,65.0456997 L37.6680005,65.1089339 C37.7938165,65.1286786 37.9300445,65.1497112 38.0756891,65.1717974 C38.69998,65.2664677 39.3687513,65.3611425 40.0551028,65.4494972 C40.7726995,65.5418741 41.4686222,65.6219671 42.1274853,65.6861723 L42.4274432,65.7145363 C44.0062779,65.8591296 45.2474377,65.8962644 46.024995,65.7990265 C46.9614351,65.6819369 47.676023,65.3686464 48.2015826,64.9209749 C48.4368993,64.7205322 48.6180786,64.5064429 48.7519491,64.2932083 C48.7982845,64.2194034 48.8353104,64.1513136 48.8638577,64.090801 L48.8862876,64.0406792 C48.8897217,64.03243 48.8921492,64.0261669 48.8936236,64.0220105 Z" id="Stroke-127" fill="#D18682" fill-rule="nonzero"></path>
                    <path d="M8.21958572,54.3760508 L34.8023601,57.0138242 C34.8859347,57.0221172 34.9469625,57.0965906 34.9386695,57.1801652 C34.9311304,57.2561421 34.8688968,57.3134853 34.7948531,57.3170528 L34.7723285,57.3164746 L8.18955412,54.6787012 C8.10597953,54.6704082 8.04495174,54.5959348 8.05324474,54.5123602 C8.06078382,54.4363833 8.12301746,54.3790401 8.19706118,54.3754726 L8.21958572,54.3760508 Z" id="Stroke-129" fill="#D18682" fill-rule="nonzero"></path>
                    <path d="M29.7437534,95.9016444 C29.7737471,95.8026616 29.8725677,95.7434227 29.9719339,95.7604515 L29.9967473,95.7663188 L36.6931603,97.7954584 C36.8003918,97.8279516 36.8609792,97.9412208 36.828486,98.0484522 C36.7984923,98.1474351 36.6996717,98.2066739 36.6003056,98.1896451 L36.5754922,98.1837779 L29.8790791,96.1546383 C29.7718476,96.1221451 29.7112603,96.0088759 29.7437534,95.9016444 Z" id="Stroke-131" fill="#253368" fill-rule="nonzero"></path>
                    <path d="M25.09562,73.6411596 C25.206616,73.6564656 25.2841881,73.7588537 25.268882,73.8698497 L25.257295,73.9470555 C25.2500873,73.9930268 25.2416167,74.0444007 25.2318334,74.1008419 L25.2216108,74.1589598 C25.1811162,74.3859729 25.1297528,74.6386305 25.0665617,74.9105876 C24.8859369,75.6879472 24.6464945,76.4655483 24.3400316,77.1930116 C23.559825,79.0450195 22.4833313,80.2658243 21.0470067,80.5350754 C20.9368786,80.5557198 20.8308665,80.483179 20.8102221,80.3730509 C20.7895776,80.2629228 20.8621185,80.1569107 20.9722466,80.1362662 C22.2428488,79.8980812 23.2333918,78.7747494 23.9661025,77.0354842 C24.262717,76.3313984 24.49557,75.5751969 24.6713347,74.8187539 C24.7226224,74.5980256 24.7658753,74.3905236 24.8016143,74.1999725 L24.8320098,74.0317122 L24.8669299,73.8144216 C24.8810585,73.7119637 24.9693872,73.6379855 25.0701941,73.6391876 L25.09562,73.6411596 Z" id="Stroke-133" fill="#253368" fill-rule="nonzero"></path>
                </g>
            </g>
        </g>
    </g>
</svg>