<?xml version="1.0" encoding="UTF-8"?>
<svg width="99px" height="77px" viewBox="0 0 99 77" version="1.1" xmlns="http://www.w3.org/2000/svg" xmlns:xlink="http://www.w3.org/1999/xlink">
    <title>地球</title>
    <defs>
        <polygon id="path-1" points="0 0 25.5 0 25.5 25.4999972 0 25.4999972"></polygon>
    </defs>
    <g id="控件" stroke="none" stroke-width="1" fill="none" fill-rule="evenodd">
        <g id="5、反馈/7、Result结果/网络连接失败" transform="translate(-231.000000, -26.000000)">
            <g id="地球" transform="translate(231.000000, 26.000000)">
                <g id="3.通用组件/灰色版/地球" transform="translate(13.000000, 10.500000)" fill-rule="nonzero">
                    <g id="资源-34" transform="translate(0.304199, 0.195312)">
                        <path d="M2.24473411,50.4301476 C1.94086622,50.4301476 1.66171287,50.2628049 1.51941389,49.994315 C0.103160207,47.3249447 -0.326274142,44.2453326 0.244705606,40.8426452 C0.785297076,37.6190887 2.19995138,34.2395923 4.44948364,30.7969203 C9.02132008,23.8004191 16.5584127,17.2821335 25.6716973,12.4432001 C34.7849819,7.6042667 44.4060706,5.01406585 52.7644464,5.14601495 C56.8756605,5.21078997 60.4678749,5.93211172 63.4403283,7.28998793 C66.5799172,8.72383483 68.8894263,10.8038325 70.3072794,13.4740025 C70.5194958,13.8739233 70.3673313,14.3701585 69.9674105,14.5823749 C69.5674897,14.7945913 69.0712544,14.6424268 68.859038,14.242506 C67.614718,11.8994099 65.5627096,10.0617187 62.7597908,8.78141262 C59.9936578,7.5186997 56.6221583,6.84695883 52.7380566,6.78218381 C44.6531753,6.65263378 35.313578,9.18125838 26.4410005,13.8882427 C17.5684231,18.595227 10.2448481,24.9247854 5.82175429,31.6941742 C3.69697391,34.9465196 2.36468784,38.1148974 1.86168187,41.1137406 C1.35147867,44.1525684 1.72413492,46.8819156 2.96845494,49.2250117 C3.10301975,49.4785358 3.09532137,49.7839468 2.94815459,50.0303694 C2.8009878,50.276792 2.53575016,50.4283973 2.24873256,50.4301476 L2.24473411,50.4301476 Z" id="路径" fill="#A3B5D6"></path>
                        <circle id="椭圆形" fill="#6E718D" opacity="0.33" cx="34.6234442" cy="29.3030965" r="29.3030965"></circle>
                        <path d="M54.3270437,36.4163526 C56.052778,31.8133282 56.9164448,30.0867942 54.3270437,29.3038962 C51.7376425,28.5209982 47.9974852,33.5390625 44.5428179,31.1183963 C41.0881505,28.69773 45.693574,23.4701465 44.2549289,20.4777008 C42.8162839,17.4852552 41.0897499,17.1405881 41.9534167,11.4859694 C42.3916477,8.61667617 45.0474232,5.43790236 47.5576549,3.00364136 C43.5353696,1.02213765 39.1105145,-0.0056765774 34.626643,-2.33861362e-05 C33.4554785,-2.33861362e-05 32.2853445,0.0694493462 31.1223947,0.207919796 C33.5526573,5.53386534 29.1431582,9.41796707 25.8444307,14.8070883 C21.8163845,21.3925479 23.2550295,25.4837698 31.5982112,27.0687584 C39.9413928,28.653747 39.0785257,38.7178648 31.5982112,41.3032675 C24.1178967,43.8886702 26.4194089,33.2519732 21.8163845,33.1999933 C17.21336,33.1480133 12.6103356,32.1012171 12.3224467,27.7900801 C12.1625084,25.3454231 9.03491483,23.0591051 6.35994669,21.5380918 C5.66758184,24.0685332 5.31792835,26.6804448 5.32033524,29.3038962 C5.32033524,45.4872536 18.4400868,58.6070173 34.6242439,58.6070173 C42.1278116,58.6167188 49.3472367,55.7379405 54.7852669,50.5676938 C52.7236622,45.7903366 53.0619317,39.7902511 54.3270437,36.4163526 Z" id="路径" fill="#4E5C93"></path>
                        <path d="M12.3224467,27.7900801 C12.6103356,32.1012171 17.21336,33.1480133 21.8163845,33.1999933 C26.4194089,33.2519732 24.1178967,43.8966671 31.5982112,41.307266 C39.0785257,38.7178648 39.9413928,28.653747 31.5982112,27.0727568 C23.2550295,25.4917667 21.8163845,21.394947 25.8444307,14.8110867 C29.1399594,9.42196553 33.5494585,5.53466503 31.1223947,0.211918254 C19.1925966,1.62897163 9.46434918,10.2136601 6.35994669,21.5380918 C9.03651422,23.0591051 12.1593096,25.3454231 12.3224467,27.7900801 Z" id="路径" fill="#6E718D"></path>
                        <path d="M12.3224467,27.7900801 C12.6103356,32.1012171 17.21336,33.1480133 21.8163845,33.1999933 C26.4194089,33.2519732 24.1178967,43.8966671 31.5982112,41.307266 C39.0785257,38.7178648 39.9413928,28.653747 31.5982112,27.0727568 C23.2550295,25.4917667 21.8163845,21.394947 25.8444307,14.8110867 C29.1399594,9.42196553 33.5494585,5.53466503 31.1223947,0.211918254 C19.1925966,1.62897163 9.46434918,10.2136601 6.35994669,21.5380918 C9.03651422,23.0591051 12.1593096,25.3454231 12.3224467,27.7900801 Z" id="路径" fill="#E4EBF7"></path>
                        <path d="M63.9265655,29.3038962 C63.9265655,17.7635478 57.255514,7.78179822 47.560054,3.00364136 C45.0498223,5.43790236 42.3940467,8.61667617 41.9558158,11.4859694 C41.0921489,17.1405881 42.8186829,17.4836558 44.257328,20.4777008 C45.695973,23.4717459 41.0921489,28.69773 44.5428179,31.1183963 C47.9934868,33.5390625 51.7400416,28.5201985 54.3270437,29.3038962 C56.9140457,30.0875939 56.052778,31.8133282 54.3270437,36.4163526 C53.0619317,39.7902511 52.7236622,45.7903366 54.7852669,50.5708926 C60.6300798,45.0425635 63.9370213,37.3490283 63.9265655,29.3038962 L63.9265655,29.3038962 Z" id="路径" fill="#E4EBF7"></path>
                        <path d="M45.7719437,51.1202861 C45.3949186,51.1212529 45.0658558,50.8649141 44.9745472,50.4991114 C44.8832386,50.1333086 45.0532366,49.7523984 45.3864924,49.5760763 C54.2630683,44.8650935 61.5818452,38.5403333 66.004939,31.7741433 C68.1337178,28.5225976 69.4620054,25.3502213 69.9650114,22.3537772 C70.4752146,19.3149494 70.103358,16.5856022 68.859038,14.242506 C68.6468216,13.8425852 68.7989861,13.34635 69.1989069,13.1341336 C69.5988277,12.9219172 70.095063,13.0740817 70.3072794,13.4740025 C71.7243328,16.1433728 72.1537671,19.2221852 71.5867858,22.6256723 C71.0453946,25.8492288 69.6307403,29.2287252 67.3820078,32.6705975 C62.8101713,39.6678983 55.2730787,46.1853843 46.1589944,51.0243177 C46.0398919,51.0878037 45.906909,51.1207747 45.7719437,51.1202861 Z" id="路径" fill="#E4EBF7"></path>
                        <circle id="椭圆形" fill="#E4EBF7" cx="19.8347489" cy="55.58096" r="6.47990042"></circle>
                    </g>
                </g>
                <g id="3.通用组件/灰色版/代码符号01" transform="translate(9.500000, 70.000000) scale(-1, 1) translate(-9.500000, -70.000000) translate(0.000000, 63.500000)">
                    <g id="分组" transform="translate(0.136719, 0.449219)">
                        <polygon id="Fill-1" fill="#A3B5D6" points="9.33734619 7.91015625e-06 5.64593994 11.5962179 7.87768506 11.5962179 11.5690913 7.91015625e-06"></polygon>
                        <g transform="translate(0.000000, 1.313007)" fill="#CCD7EE">
                            <path d="M4.07355645,0.00536835937 L1.70441191,0.00536835937 L0.210948047,0.00536835937 C0.0944314453,0.00536835937 1.0546875e-05,0.099815625 1.0546875e-05,0.216305859 L1.0546875e-05,1.70979609 L1.0546875e-05,7.26043184 L1.0546875e-05,8.7538957 C1.0546875e-05,8.8704123 0.0944314453,8.9648332 0.210948047,8.9648332 L1.70441191,8.9648332 L4.07355645,8.9648332 C4.19004668,8.9648332 4.28449395,8.8704123 4.28449395,8.7538957 L4.28449395,7.47136934 C4.28449395,7.35485273 4.19004668,7.26043184 4.07355645,7.26043184 L1.70441191,7.26043184 L1.70441191,1.70979609 L4.07355645,1.70979609 C4.19004668,1.70979609 4.28449395,1.61534883 4.28449395,1.49885859 L4.28449395,0.216305859 C4.28449395,0.099815625 4.19004668,0.00536835937 4.07355645,0.00536835937" id="Fill-2"></path>
                            <path d="M17.0040595,0.00536835937 L15.5105692,0.00536835937 L13.1414511,0.00536835937 C13.0249608,0.00536835937 12.9305136,0.099815625 12.9305136,0.216305859 L12.9305136,1.49885859 C12.9305136,1.61534883 13.0249608,1.70979609 13.1414511,1.70979609 L15.5105692,1.70979609 L15.5105692,7.26043184 L13.1414511,7.26043184 C13.0249608,7.26043184 12.9305136,7.35485273 12.9305136,7.47136934 L12.9305136,8.7538957 C12.9305136,8.8704123 13.0249608,8.9648332 13.1414511,8.9648332 L15.5105692,8.9648332 L17.0040595,8.9648332 C17.1205761,8.9648332 17.214997,8.8704123 17.214997,8.7538957 L17.214997,7.47136934 L17.214997,1.49885859 L17.214997,0.216305859 C17.214997,0.099815625 17.1205761,0.00536835937 17.0040595,0.00536835937" id="Fill-4"></path>
                        </g>
                    </g>
                </g>
                <g id="仙人掌-copy" transform="translate(86.000000, 13.500000) scale(1, -1) translate(-86.000000, -13.500000) translate(73.000000, 0.500000)">
                    <g id="分组">
                        <mask id="mask-2" fill="white">
                            <use xlink:href="#path-1"></use>
                        </mask>
                        <g id="Clip-2"></g>
                        <path d="M12.5,-2.84598215e-06 C5.59642857,-2.84598215e-06 0,5.59642573 0,12.4999972 C0,19.4035407 5.59642857,24.9999972 12.5,24.9999972 C19.4035714,24.9999972 25,19.4035407 25,12.4999972 C25,5.59642573 19.4035714,-2.84598215e-06 12.5,-2.84598215e-06" id="Fill-1" fill="#F5242C" mask="url(#mask-2)"></path>
                    </g>
                    <path d="M9.69435884,10.0562482 L8.59227608,8.98788176 C7.65869991,9.42343733 6.81026366,10.0126941 6.08475764,10.729406 L5.02825254,9.70591668 L5.08429065,9.65162977 C5.79327296,8.96344783 6.6007733,8.37766252 7.48197442,7.91227701 L4.5,5.02421313 L5.5565051,4 L20.5,18.4765107 L19.4434949,19.5 L14.5211077,14.7314374 L14.4815074,14.7698001 C13.3144209,13.6395265 11.4225736,13.6395265 10.2554871,14.7698001 L9.19748762,13.745587 C9.99490894,12.9712783 11.0653984,12.518189 12.1936584,12.4774447 L10.8823667,11.2071308 C9.84445553,11.4638419 8.89733746,11.9872463 8.14098254,12.7220977 L7.08522463,11.6993322 C7.82575895,10.9797137 8.714888,10.4197909 9.69435884,10.0562482 Z M13.5,9.5 C15.0156703,9.72738494 16.4179064,10.433855 17.5,11.5152672 L16.5114942,12.5 L13.5,9.5 L13.5,9.5 Z M11,7.16849369 C14.1610005,6.58542239 17.5420107,7.51554243 20,9.96032432 L18.9698883,11 C17.203456,9.24464728 14.7802947,8.33103444 12.3062166,8.48757301 L11,7.16849369 Z M11,15.9392735 C11.690417,15.3535755 12.809583,15.3535755 13.5,15.9392735 L12.25,17 L11,15.9392735 L11,15.9392735 Z" id="形状" fill="#FFFFFF" fill-rule="nonzero" transform="translate(12.500000, 11.750000) scale(1, -1) translate(-12.500000, -11.750000) "></path>
                </g>
            </g>
        </g>
    </g>
</svg>