<?xml version="1.0" encoding="UTF-8"?>
<svg width="105px" height="81px" viewBox="0 0 105 81" version="1.1" xmlns="http://www.w3.org/2000/svg" xmlns:xlink="http://www.w3.org/1999/xlink">
    <title>搜索</title>
    <defs>
        <polygon id="path-1" points="0.00363547843 0.0103950651 45.6077336 0.0103950651 45.6077336 45.6145351 0.00363547843 45.6145351"></polygon>
        <polygon id="path-3" points="0 0 26.7147969 0 26.7147969 26.741841 0 26.741841"></polygon>
    </defs>
    <g id="控件" stroke="none" stroke-width="1" fill="none" fill-rule="evenodd">
        <g id="5、反馈/7、Result结果/无数据" transform="translate(-228.000000, -24.000000)">
            <g id="搜索" transform="translate(228.000000, 24.000000)">
                <g id="资源-38" transform="translate(56.288660, 17.682474)" fill-rule="nonzero">
                    <path d="M25.3264423,0 L3.74078524,0 C3.15515748,0 2.68041237,0.478336498 2.68041237,1.06839447 L2.68041237,31.4633268 L21.9637348,31.4633268 C21.9637348,34.7263816 24.7330753,37.0065135 27.9769327,36.9896907 C31.1651204,36.9735713 33.7731959,34.2505009 33.7731959,31.03864 L33.7731959,8.46880684 L28.144825,8.46880684 C27.2470427,8.46880684 25.3264423,6.48871575 25.3264423,5.58458693 L25.3264423,0 Z" id="路径" fill="#E4EBF7"></path>
                    <path d="M22.4437511,31.628866 L0,31.628866 C0,34.4337146 2.13555719,36.4615328 4.93738312,36.910874 L5.92378367,36.9896907 L28.4123711,36.9468555 C25.1411082,36.9468555 22.3603554,34.5467995 22.4437511,31.628866 Z" id="路径" fill="#253369"></path>
                    <rect id="矩形" fill="#A3B5D6" x="6.96907216" y="2.68041237" width="5.89690722" height="5.89690722" rx="2.16"></rect>
                    <rect id="矩形" fill="#A3B5D6" x="6.96907216" y="11.257732" width="21.443299" height="1.60824742" rx="0.804123711"></rect>
                    <rect id="矩形" fill="#A3B5D6" x="6.96907216" y="15.5463918" width="21.443299" height="1.60824742" rx="0.804123711"></rect>
                    <rect id="矩形" fill="#A3B5D6" x="6.96907216" y="19.8350515" width="21.443299" height="1.60824742" rx="0.804123711"></rect>
                    <path d="M25.7319588,6.96907216 L25.7319588,8.17881322 C25.7319588,8.43877133 25.8319026,8.68699994 26.007903,8.86384998 C26.1839035,9.04070002 26.4200026,9.13018353 26.6594661,9.11079774 L34.3092784,8.49479759 L25.7319588,6.96907216 Z" id="路径" fill="#BABFD8" opacity="0.6"></path>
                    <path d="M30.1706435,4.28865979 L25.7319588,0 L25.7435678,8.21944665 C25.7435678,8.41709442 25.9034927,8.57731959 26.1007701,8.57731959 L34.3092784,8.57731959 L30.1706435,4.28865979 Z" id="路径" fill="#F2F5F9"></path>
                </g>
                <g id="分组" transform="translate(0.000000, 17.146392)">
                    <polygon id="Fill-1" fill="#A3B5D6" points="9.94702738 53.6082474 8.04123711 51.7024665 23.290086 36.4536082 25.1958763 38.3594734"></polygon>
                    <g>
                        <g transform="translate(16.333106, 0.000000)">
                            <mask id="mask-2" fill="white">
                                <use xlink:href="#path-1"></use>
                            </mask>
                            <g id="Clip-3"></g>
                            <path d="M22.8057139,39.9140155 C13.3607074,39.9140155 5.70415507,32.2573793 5.70415507,22.8124567 C5.70415507,13.367534 13.3607074,5.71089789 22.8057139,5.71089789 C32.2505527,5.71089789 39.9072726,13.367534 39.9072726,22.8124567 C39.9072726,32.2573793 32.2505527,39.9140155 22.8057139,39.9140155 M22.8057139,0.0103782989 C10.2124278,0.0103782989 0.00363547843,10.2191706 0.00363547843,22.8124567 C0.00363547843,35.4056589 10.2124278,45.6145351 22.8057139,45.6145351 C35.3989161,45.6145351 45.6077922,35.4056589 45.6077922,22.8124567 C45.6077922,10.2191706 35.3989161,0.0103782989 22.8057139,0.0103782989" id="Fill-2" fill="#99A7C7" mask="url(#mask-2)"></path>
                        </g>
                        <path d="M27.0493595,22.8124231 C27.0493595,16.1356896 32.4620028,10.7230462 39.1388202,10.7230462 C45.8155538,10.7230462 51.2281972,16.1356896 51.2281972,22.8124231 C51.2281972,29.4892405 45.8155538,34.9018839 39.1388202,34.9018839 C32.4620028,34.9018839 27.0493595,29.4892405 27.0493595,22.8124231 Z" id="Fill-4" fill="#CED7EC"></path>
                        <path d="M39.1388202,29.5189503 C35.4348238,29.5189503 32.4323266,26.5163693 32.4323266,22.8124567 C32.4323266,19.1085441 35.4348238,16.105963 39.1388202,16.105963 C42.8427328,16.105963 45.8453139,19.1085441 45.8453139,22.8124567 C45.8453139,26.5163693 42.8427328,29.5189503 39.1388202,29.5189503" id="Fill-6" fill="#FFFFFF"></path>
                        <path d="M1.89689819,60.0543452 C0.849293794,59.0067176 0.849300838,57.3082002 1.89691393,56.2605813 L13.3264871,44.8309452 C14.3741047,43.7833219 16.072633,43.7833172 17.1202563,44.8309347 C17.120258,44.8309365 17.1202598,44.8309382 17.1202615,44.83094 C18.1678848,45.8785633 18.1678848,47.5770963 17.1202615,48.6247196 L5.69061494,60.0543661 C4.64301478,61.1019663 2.94451932,61.1019663 1.89691915,60.0543661 C1.89691217,60.0543592 1.89690518,60.0543522 1.89689819,60.0543452 Z" id="Fill-8" fill="#393D65"></path>
                    </g>
                </g>
                <path d="M13.8001803,38.5896907 L10.8595771,38.5896907 C10.4888625,38.5896907 10.185567,38.2888422 10.185567,37.9211985 L10.185567,34.9695592 C10.185567,34.6018795 10.4888625,34.3010309 10.8595771,34.3010309 L13.8001803,34.3010309 C14.170895,34.3010309 14.4742268,34.6018795 14.4742268,34.9695592 L14.4742268,37.9211985 C14.4742268,38.2888422 14.170895,38.5896907 13.8001803,38.5896907" id="Fill-3" fill="#A3B5D6" transform="translate(12.329897, 36.445361) rotate(-90.000000) translate(-12.329897, -36.445361) "></path>
                <path d="M52.214333,13.6618557 L49.6413053,13.6618557 C49.3169299,13.6618557 49.0515464,13.3610071 49.0515464,12.9933634 L49.0515464,10.0417242 C49.0515464,9.67404442 49.3169299,9.37319588 49.6413053,9.37319588 L52.214333,9.37319588 C52.5387084,9.37319588 52.8041237,9.67404442 52.8041237,10.0417242 L52.8041237,12.9933634 C52.8041237,13.3610071 52.5387084,13.6618557 52.214333,13.6618557" id="Fill-3" fill="#CED7EC" transform="translate(50.927835, 11.517526) rotate(-90.000000) translate(-50.927835, -11.517526) "></path>
                <path d="M53.7841461,73.971134 L47.5353643,73.971134 C46.7475957,73.971134 46.1030928,73.3318309 46.1030928,72.550588 L46.1030928,66.2783546 C46.1030928,65.4970351 46.7475957,64.857732 47.5353643,64.857732 L53.7841461,64.857732 C54.5719147,64.857732 55.2164948,65.4970351 55.2164948,66.2783546 L55.2164948,72.550588 C55.2164948,73.3318309 54.5719147,73.971134 53.7841461,73.971134" id="Fill-3备份" fill="#DCE4FE" transform="translate(50.659794, 69.414433) rotate(-90.000000) translate(-50.659794, -69.414433) "></path>
                <g id="分组备份" transform="translate(76.662543, 0.000000)">
                    <g id="分组">
                        <mask id="mask-4" fill="white">
                            <use xlink:href="#path-3"></use>
                        </mask>
                        <g id="Clip-2"></g>
                        <path d="M13.357397,-2.9845808e-06 C5.9802958,-2.9845808e-06 -2.98156249e-06,5.98634979 -2.98156249e-06,13.370919 C-2.98156249e-06,20.7554583 5.9802958,26.741841 13.357397,26.741841 C20.7344981,26.741841 26.7147969,20.7554583 26.7147969,13.370919 C26.7147969,5.98634979 20.7344981,-2.9845808e-06 13.357397,-2.9845808e-06" id="Fill-1" fill="#2E78FF" mask="url(#mask-4)"></path>
                    </g>
                    <path d="M16.5113773,8.12471538 C17.2140421,8.75595422 17.5743937,9.62169157 17.5743937,10.7038409 C17.5743937,11.5875752 17.3401622,12.327035 16.9077462,12.9041634 C16.7455492,13.1025485 16.2410986,13.5715156 15.3762666,14.3109455 C15.0519322,14.5995247 14.799692,14.9061605 14.6375249,15.2307933 C14.4393404,15.5915098 14.3492376,15.9882799 14.3492376,16.4391904 L14.3492376,16.8671793 C14.3492376,17.0459855 14.2044231,17.1909466 14.0258275,17.1909466 L12.7447694,17.1909466 C12.5661738,17.1909466 12.4213593,17.0459855 12.4213593,16.8671793 L12.4213593,16.4391904 C12.4213593,15.771868 12.5295006,15.1947098 12.7637321,14.7257724 C13.0159723,14.2208112 13.7006285,13.4813216 14.8177007,12.4893663 L15.1240264,12.1467066 C15.4483011,11.7318499 15.6104981,11.2989961 15.6104981,10.8300588 C15.6104981,10.19882 15.4302925,9.71185576 15.0879793,9.35110948 C14.7275979,8.99042289 14.2231473,8.81006467 13.5744786,8.81006467 C12.7637321,8.81006467 12.1691489,9.0625602 11.8087973,9.56758112 C11.5269502,9.94375768 11.3675856,10.4697602 11.3306739,11.1218911 C11.3210136,11.2924599 11.1786738,11.4252141 11.0080092,11.4252141 L9.74442303,11.4252141 C9.55989413,11.4252141 9.41150176,11.2707322 9.42116202,11.0862851 C9.48171756,9.93083445 9.85861687,9.01432938 10.565605,8.32310047 C11.3223255,7.54758699 12.3673036,7.16881384 13.6826198,7.16881384 C14.8537478,7.16881384 15.7906442,7.47541983 16.5113773,8.12471538" id="Fill-3" fill="#FFFFFF"></path>
                    <path d="M13.5428352,20.1274966 L13.0657853,20.1274966 C12.6705791,20.1274966 12.3502103,19.8068034 12.3502103,19.4111972 L12.3502103,18.9336642 C12.3502103,18.5380581 12.6705791,18.2173648 13.0657853,18.2173648 L13.5428352,18.2173648 C13.9380414,18.2173648 14.2584102,18.5380581 14.2584102,18.9336642 L14.2584102,19.4111972 C14.2584102,19.8068034 13.9380414,20.1274966 13.5428352,20.1274966" id="Fill-5" fill="#FFFFFF"></path>
                </g>
            </g>
        </g>
    </g>
</svg>